<svg width="194" height="53" viewBox="0 0 194 53" fill="none" xmlns="http://www.w3.org/2000/svg">
<path d="M0 20C0 8.95431 8.9543 0 20 0H174C185.046 0 194 8.95431 194 20V53H0V20Z" fill="#FFBC00"/>
<path d="M63.499 28.0283H59.5029L59.4814 25.9443H62.9082C63.4954 25.9443 63.986 25.862 64.3799 25.6973C64.7738 25.5326 65.071 25.2926 65.2715 24.9775C65.4792 24.6624 65.583 24.2793 65.583 23.8281C65.583 23.3268 65.4863 22.9186 65.293 22.6035C65.1068 22.2884 64.8132 22.0592 64.4121 21.916C64.0111 21.7656 63.5026 21.6904 62.8867 21.6904H60.459V35H57.5049V19.3594H62.8867C63.7747 19.3594 64.5661 19.4453 65.2607 19.6172C65.9626 19.7819 66.557 20.0397 67.0439 20.3906C67.5309 20.7415 67.8997 21.182 68.1504 21.7119C68.4082 22.2419 68.5371 22.8721 68.5371 23.6025C68.5371 24.2471 68.3867 24.8415 68.0859 25.3857C67.7923 25.9229 67.3376 26.3597 66.7217 26.6963C66.113 27.0329 65.3395 27.2262 64.4014 27.2764L63.499 28.0283ZM63.3701 35H58.6328L59.8682 32.6797H63.3701C63.9574 32.6797 64.4408 32.583 64.8203 32.3896C65.207 32.1963 65.4935 31.9313 65.6797 31.5947C65.873 31.251 65.9697 30.8571 65.9697 30.4131C65.9697 29.9261 65.8838 29.5036 65.7119 29.1455C65.5472 28.7874 65.2822 28.5117 64.917 28.3184C64.5589 28.125 64.0863 28.0283 63.499 28.0283H60.4268L60.4482 25.9443H64.3584L65.0352 26.75C65.9375 26.7572 66.6715 26.9362 67.2373 27.2871C67.8102 27.638 68.2327 28.0892 68.5049 28.6406C68.777 29.1921 68.9131 29.7865 68.9131 30.4238C68.9131 31.4264 68.6947 32.2679 68.2578 32.9482C67.8281 33.6286 67.1979 34.1406 66.3672 34.4844C65.5436 34.8281 64.5446 35 63.3701 35ZM74.0908 25.751V35H71.2549V23.377H73.9404L74.0908 25.751ZM77.625 23.3018L77.582 25.9443C77.4245 25.9157 77.2454 25.8942 77.0449 25.8799C76.8516 25.8656 76.6689 25.8584 76.4971 25.8584C76.0602 25.8584 75.6771 25.9193 75.3477 26.041C75.0182 26.1556 74.7425 26.3239 74.5205 26.5459C74.3057 26.7679 74.141 27.04 74.0264 27.3623C73.9118 27.6774 73.8473 28.0355 73.833 28.4365L73.2207 28.3613C73.2207 27.6237 73.2959 26.9398 73.4463 26.3096C73.5967 25.6794 73.8151 25.1279 74.1016 24.6553C74.388 24.1826 74.7461 23.8174 75.1758 23.5596C75.6126 23.2946 76.1139 23.1621 76.6797 23.1621C76.8372 23.1621 77.0055 23.1764 77.1846 23.2051C77.3708 23.2266 77.5176 23.2588 77.625 23.3018ZM78.377 29.3066V29.0811C78.377 28.2288 78.4987 27.4447 78.7422 26.7285C78.9857 26.0052 79.3402 25.3786 79.8057 24.8486C80.2712 24.3187 80.8405 23.9069 81.5137 23.6133C82.1868 23.3125 82.9531 23.1621 83.8125 23.1621C84.6862 23.1621 85.4596 23.3125 86.1328 23.6133C86.8132 23.9069 87.3861 24.3187 87.8516 24.8486C88.3171 25.3786 88.6715 26.0052 88.915 26.7285C89.1585 27.4447 89.2803 28.2288 89.2803 29.0811V29.3066C89.2803 30.1517 89.1585 30.9359 88.915 31.6592C88.6715 32.3753 88.3171 33.002 87.8516 33.5391C87.3861 34.069 86.8167 34.4808 86.1436 34.7744C85.4704 35.068 84.7005 35.2148 83.834 35.2148C82.9746 35.2148 82.2048 35.068 81.5244 34.7744C80.8441 34.4808 80.2712 34.069 79.8057 33.5391C79.3402 33.002 78.9857 32.3753 78.7422 31.6592C78.4987 30.9359 78.377 30.1517 78.377 29.3066ZM81.2129 29.0811V29.3066C81.2129 29.8151 81.263 30.2913 81.3633 30.7354C81.4635 31.1794 81.6175 31.5697 81.8252 31.9062C82.0329 32.2428 82.3014 32.5078 82.6309 32.7012C82.9674 32.8874 83.3685 32.9805 83.834 32.9805C84.2923 32.9805 84.6862 32.8874 85.0156 32.7012C85.3451 32.5078 85.6136 32.2428 85.8213 31.9062C86.0361 31.5697 86.1937 31.1794 86.2939 30.7354C86.3942 30.2913 86.4443 29.8151 86.4443 29.3066V29.0811C86.4443 28.5798 86.3942 28.1107 86.2939 27.6738C86.1937 27.2298 86.0361 26.8395 85.8213 26.5029C85.6136 26.1592 85.3415 25.8906 85.0049 25.6973C84.6755 25.4967 84.278 25.3965 83.8125 25.3965C83.3542 25.3965 82.9603 25.4967 82.6309 25.6973C82.3014 25.8906 82.0329 26.1592 81.8252 26.5029C81.6175 26.8395 81.4635 27.2298 81.3633 27.6738C81.263 28.1107 81.2129 28.5798 81.2129 29.0811ZM96.1123 32.9805C96.5133 32.9805 96.8714 32.9017 97.1865 32.7441C97.5016 32.5866 97.7523 32.3646 97.9385 32.0781C98.1318 31.7917 98.2357 31.4587 98.25 31.0791H100.925C100.91 31.8669 100.688 32.5723 100.259 33.1953C99.8291 33.8184 99.2562 34.3125 98.54 34.6777C97.8311 35.0358 97.0361 35.2148 96.1553 35.2148C95.2601 35.2148 94.4795 35.0645 93.8135 34.7637C93.1475 34.4629 92.5924 34.0439 92.1484 33.5068C91.7116 32.9697 91.3822 32.3467 91.1602 31.6377C90.9453 30.9287 90.8379 30.1696 90.8379 29.3604V29.0166C90.8379 28.2074 90.9453 27.4482 91.1602 26.7393C91.3822 26.0303 91.7116 25.4072 92.1484 24.8701C92.5924 24.333 93.1475 23.9141 93.8135 23.6133C94.4795 23.3125 95.2565 23.1621 96.1445 23.1621C97.0827 23.1621 97.9062 23.3447 98.6152 23.71C99.3314 24.0752 99.89 24.5908 100.291 25.2568C100.699 25.9229 100.91 26.707 100.925 27.6094H98.25C98.2357 27.194 98.1426 26.8216 97.9707 26.4922C97.7988 26.1628 97.5553 25.8978 97.2402 25.6973C96.9251 25.4967 96.542 25.3965 96.0908 25.3965C95.611 25.3965 95.21 25.4967 94.8877 25.6973C94.5726 25.8978 94.3255 26.1735 94.1465 26.5244C93.9746 26.8682 93.8529 27.2549 93.7812 27.6846C93.7168 28.1071 93.6846 28.5511 93.6846 29.0166V29.3604C93.6846 29.833 93.7168 30.2842 93.7812 30.7139C93.8529 31.1436 93.9746 31.5303 94.1465 31.874C94.3255 32.2106 94.5726 32.4792 94.8877 32.6797C95.21 32.8802 95.6182 32.9805 96.1123 32.9805ZM105.598 18.5V35H102.751V18.5H105.598ZM105.146 28.7695H104.309C104.309 27.9603 104.416 27.2155 104.631 26.5352C104.846 25.8548 105.15 25.264 105.544 24.7627C105.938 24.2542 106.407 23.8604 106.951 23.5811C107.503 23.3018 108.111 23.1621 108.777 23.1621C109.35 23.1621 109.869 23.2445 110.335 23.4092C110.808 23.5667 111.212 23.821 111.549 24.1719C111.885 24.5228 112.143 24.9811 112.322 25.5469C112.508 26.1055 112.602 26.7858 112.602 27.5879V35H109.744V27.5664C109.744 27.0293 109.665 26.6068 109.508 26.2988C109.35 25.9837 109.125 25.7581 108.831 25.6221C108.545 25.486 108.19 25.418 107.768 25.418C107.309 25.418 106.915 25.5075 106.586 25.6865C106.257 25.8584 105.984 26.0983 105.77 26.4062C105.562 26.7142 105.404 27.0687 105.297 27.4697C105.197 27.8708 105.146 28.304 105.146 28.7695ZM122.022 32.2393V23.377H124.88V35H122.194L122.022 32.2393ZM122.388 29.833L123.269 29.8115C123.269 30.5921 123.183 31.3118 123.011 31.9707C122.839 32.6296 122.57 33.2025 122.205 33.6895C121.847 34.1693 121.392 34.5452 120.841 34.8174C120.289 35.0824 119.638 35.2148 118.886 35.2148C118.313 35.2148 117.79 35.1361 117.317 34.9785C116.845 34.8138 116.437 34.5596 116.093 34.2158C115.756 33.8649 115.495 33.4173 115.309 32.873C115.122 32.3216 115.029 31.6592 115.029 30.8857V23.377H117.865V30.9072C117.865 31.2939 117.908 31.6162 117.994 31.874C118.087 32.1318 118.213 32.3431 118.37 32.5078C118.535 32.6654 118.725 32.7799 118.939 32.8516C119.161 32.916 119.398 32.9482 119.648 32.9482C120.336 32.9482 120.877 32.8122 121.271 32.54C121.672 32.2607 121.958 31.8883 122.13 31.4229C122.302 30.9502 122.388 30.4202 122.388 29.833ZM130.229 25.751V35H127.394V23.377H130.079L130.229 25.751ZM133.764 23.3018L133.721 25.9443C133.563 25.9157 133.384 25.8942 133.184 25.8799C132.99 25.8656 132.808 25.8584 132.636 25.8584C132.199 25.8584 131.816 25.9193 131.486 26.041C131.157 26.1556 130.881 26.3239 130.659 26.5459C130.444 26.7679 130.28 27.04 130.165 27.3623C130.05 27.6774 129.986 28.0355 129.972 28.4365L129.359 28.3613C129.359 27.6237 129.435 26.9398 129.585 26.3096C129.735 25.6794 129.954 25.1279 130.24 24.6553C130.527 24.1826 130.885 23.8174 131.314 23.5596C131.751 23.2946 132.253 23.1621 132.818 23.1621C132.976 23.1621 133.144 23.1764 133.323 23.2051C133.509 23.2266 133.656 23.2588 133.764 23.3018ZM140.327 35.2148C139.446 35.2148 138.655 35.0716 137.953 34.7852C137.251 34.4987 136.653 34.1012 136.159 33.5928C135.672 33.0771 135.296 32.4792 135.031 31.7988C134.773 31.1113 134.645 30.3737 134.645 29.5859V29.1562C134.645 28.2611 134.773 27.4482 135.031 26.7178C135.289 25.9801 135.654 25.3464 136.127 24.8164C136.6 24.2865 137.165 23.8783 137.824 23.5918C138.483 23.3053 139.21 23.1621 140.005 23.1621C140.828 23.1621 141.555 23.3018 142.186 23.5811C142.816 23.8532 143.342 24.2399 143.765 24.7412C144.187 25.2425 144.506 25.8441 144.721 26.5459C144.936 27.2406 145.043 28.0104 145.043 28.8555V30.0479H135.934V28.0928H142.25V27.8779C142.236 27.4268 142.15 27.015 141.992 26.6426C141.835 26.263 141.591 25.9622 141.262 25.7402C140.932 25.5111 140.506 25.3965 139.983 25.3965C139.561 25.3965 139.192 25.4896 138.877 25.6758C138.569 25.8548 138.311 26.1126 138.104 26.4492C137.903 26.7786 137.753 27.1725 137.652 27.6309C137.552 28.0892 137.502 28.5977 137.502 29.1562V29.5859C137.502 30.0729 137.566 30.5241 137.695 30.9395C137.831 31.3548 138.028 31.7165 138.286 32.0244C138.551 32.3252 138.866 32.5615 139.231 32.7334C139.604 32.8981 140.026 32.9805 140.499 32.9805C141.093 32.9805 141.631 32.8659 142.11 32.6367C142.597 32.4004 143.02 32.0531 143.378 31.5947L144.807 33.0771C144.563 33.4352 144.234 33.779 143.818 34.1084C143.41 34.4378 142.916 34.7064 142.336 34.9141C141.756 35.1146 141.086 35.2148 140.327 35.2148ZM153.336 31.8203C153.336 31.5768 153.271 31.3584 153.143 31.165C153.014 30.9717 152.77 30.7962 152.412 30.6387C152.061 30.474 151.546 30.32 150.865 30.1768C150.264 30.0479 149.709 29.8867 149.2 29.6934C148.692 29.5 148.255 29.2673 147.89 28.9951C147.524 28.7158 147.238 28.39 147.03 28.0176C146.83 27.638 146.729 27.2012 146.729 26.707C146.729 26.2272 146.833 25.776 147.041 25.3535C147.249 24.9238 147.549 24.5479 147.943 24.2256C148.337 23.8962 148.817 23.6383 149.383 23.4521C149.949 23.2588 150.586 23.1621 151.295 23.1621C152.283 23.1621 153.132 23.3232 153.841 23.6455C154.557 23.9678 155.105 24.4118 155.484 24.9775C155.864 25.5361 156.054 26.1663 156.054 26.8682H153.218C153.218 26.5602 153.146 26.2809 153.003 26.0303C152.867 25.7796 152.656 25.5791 152.369 25.4287C152.083 25.2712 151.721 25.1924 151.284 25.1924C150.89 25.1924 150.557 25.2568 150.285 25.3857C150.02 25.5146 149.82 25.6829 149.684 25.8906C149.548 26.0983 149.479 26.3275 149.479 26.5781C149.479 26.7643 149.515 26.9326 149.587 27.083C149.666 27.2262 149.791 27.3587 149.963 27.4805C150.135 27.6022 150.368 27.7132 150.661 27.8135C150.962 27.9137 151.331 28.0104 151.768 28.1035C152.634 28.2754 153.39 28.5046 154.034 28.791C154.686 29.0703 155.194 29.4427 155.56 29.9082C155.925 30.3737 156.107 30.9681 156.107 31.6914C156.107 32.207 155.996 32.6797 155.774 33.1094C155.552 33.5319 155.23 33.9007 154.808 34.2158C154.385 34.5309 153.88 34.778 153.293 34.957C152.706 35.1289 152.043 35.2148 151.306 35.2148C150.239 35.2148 149.336 35.0251 148.599 34.6455C147.861 34.2588 147.302 33.7718 146.923 33.1846C146.543 32.5902 146.354 31.9743 146.354 31.3369H149.071C149.093 31.7881 149.215 32.1497 149.437 32.4219C149.659 32.694 149.938 32.891 150.274 33.0127C150.618 33.1273 150.98 33.1846 151.359 33.1846C151.789 33.1846 152.151 33.1273 152.444 33.0127C152.738 32.891 152.96 32.7298 153.11 32.5293C153.261 32.3216 153.336 32.0853 153.336 31.8203Z" fill="white"/>
<path d="M37.7071 16.2929C37.3166 15.9024 36.6834 15.9024 36.2929 16.2929L29.9289 22.6569C29.5384 23.0474 29.5384 23.6805 29.9289 24.0711C30.3195 24.4616 30.9526 24.4616 31.3431 24.0711L37 18.4142L42.6569 24.0711C43.0474 24.4616 43.6805 24.4616 44.0711 24.0711C44.4616 23.6805 44.4616 23.0474 44.0711 22.6569L37.7071 16.2929ZM38 37L38 17H36L36 37H38Z" fill="white"/>
</svg>
