<svg width="179" height="80" viewBox="0 0 179 80" fill="none" xmlns="http://www.w3.org/2000/svg">
<path d="M84.5 0.0902556C46.4932 3.02821 0 80 0 80H179C179 80 125.936 -3.11275 84.5 0.0902556Z" fill="#EEC42E"/>
<path d="M50.5293 50.097H52.8535L56.7402 60.8002L60.6172 50.097H62.9512L57.668 64.3158H55.8027L50.5293 50.097ZM49.3574 50.097H51.6328L52.043 59.931V64.3158H49.3574V50.097ZM61.8379 50.097H64.123V64.3158H61.4375V59.931L61.8379 50.097ZM69.3965 53.7494V64.3158H66.8086V53.7494H69.3965ZM66.6328 50.9857C66.6328 50.6016 66.763 50.2826 67.0234 50.0287C67.2904 49.7748 67.6484 49.6478 68.0977 49.6478C68.5469 49.6478 68.9017 49.7748 69.1621 50.0287C69.429 50.2826 69.5625 50.6016 69.5625 50.9857C69.5625 51.3633 69.429 51.6791 69.1621 51.933C68.9017 52.1869 68.5469 52.3138 68.0977 52.3138C67.6484 52.3138 67.2904 52.1869 67.0234 51.933C66.763 51.6791 66.6328 51.3633 66.6328 50.9857ZM74.3867 56.0052V64.3158H71.8086V53.7494H74.2305L74.3867 56.0052ZM73.9766 58.6517H73.2148C73.2214 57.8835 73.3255 57.1869 73.5273 56.5619C73.7292 55.9369 74.0124 55.3998 74.377 54.9506C74.748 54.5013 75.1875 54.1563 75.6953 53.9154C76.2031 53.6745 76.7695 53.5541 77.3945 53.5541C77.9023 53.5541 78.3613 53.6257 78.7715 53.7689C79.1816 53.9122 79.5332 54.14 79.8262 54.4525C80.1257 54.765 80.3535 55.1752 80.5098 55.683C80.6725 56.1843 80.7539 56.8028 80.7539 57.5385V64.3158H78.1562V57.5189C78.1562 57.0372 78.0846 56.6563 77.9414 56.3763C77.8047 56.0964 77.6029 55.8978 77.3359 55.7806C77.0755 55.6635 76.7533 55.6049 76.3691 55.6049C75.972 55.6049 75.6237 55.6862 75.3242 55.849C75.0312 56.0052 74.7839 56.2233 74.582 56.5033C74.3867 56.7832 74.237 57.1055 74.1328 57.4701C74.0286 57.8347 73.9766 58.2286 73.9766 58.6517ZM85.7637 53.7494V64.3158H83.1758V53.7494H85.7637ZM83 50.9857C83 50.6016 83.1302 50.2826 83.3906 50.0287C83.6576 49.7748 84.0156 49.6478 84.4648 49.6478C84.9141 49.6478 85.2689 49.7748 85.5293 50.0287C85.7962 50.2826 85.9297 50.6016 85.9297 50.9857C85.9297 51.3633 85.7962 51.6791 85.5293 51.933C85.2689 52.1869 84.9141 52.3138 84.4648 52.3138C84.0156 52.3138 83.6576 52.1869 83.3906 51.933C83.1302 51.6791 83 51.3633 83 50.9857ZM90.793 55.9174V64.3158H88.2148V53.7494H90.6465L90.793 55.9174ZM90.4121 58.6517H89.6211C89.6211 57.9161 89.709 57.239 89.8848 56.6205C90.0671 56.002 90.334 55.4649 90.6855 55.0092C91.0371 54.5469 91.4701 54.1888 91.9844 53.9349C92.5052 53.681 93.1074 53.5541 93.791 53.5541C94.2663 53.5541 94.7025 53.6257 95.0996 53.7689C95.4967 53.9056 95.8385 54.1237 96.125 54.4232C96.418 54.7162 96.6426 55.1003 96.7988 55.5756C96.9551 56.0443 97.0332 56.6075 97.0332 57.265V64.3158H94.4551V57.5287C94.4551 57.0339 94.3835 56.6465 94.2402 56.3666C94.1035 56.0866 93.9049 55.8913 93.6445 55.7806C93.3841 55.6635 93.0716 55.6049 92.707 55.6049C92.3034 55.6049 91.9551 55.6862 91.6621 55.849C91.3757 56.0052 91.138 56.2233 90.9492 56.5033C90.7669 56.7832 90.6302 57.1055 90.5391 57.4701C90.4544 57.8347 90.4121 58.2286 90.4121 58.6517ZM96.8379 58.1732L95.7734 58.3685C95.7799 57.7045 95.8711 57.0827 96.0469 56.5033C96.2227 55.9174 96.4798 55.4063 96.8184 54.9701C97.1634 54.5274 97.5898 54.1823 98.0977 53.9349C98.612 53.681 99.2044 53.5541 99.875 53.5541C100.396 53.5541 100.865 53.6289 101.281 53.7787C101.704 53.9219 102.066 54.153 102.365 54.472C102.665 54.7845 102.893 55.1914 103.049 55.6927C103.212 56.1941 103.293 56.806 103.293 57.5287V64.3158H100.695V57.5189C100.695 57.0046 100.624 56.6107 100.48 56.3373C100.344 56.0638 100.145 55.875 99.8848 55.7709C99.6243 55.6602 99.3184 55.6049 98.9668 55.6049C98.6087 55.6049 98.2962 55.6732 98.0293 55.8099C97.7689 55.9401 97.5475 56.1224 97.3652 56.3568C97.1895 56.5912 97.056 56.8646 96.9648 57.1771C96.8802 57.4831 96.8379 57.8151 96.8379 58.1732ZM108.342 53.7494V64.3158H105.754V53.7494H108.342ZM105.578 50.9857C105.578 50.6016 105.708 50.2826 105.969 50.0287C106.236 49.7748 106.594 49.6478 107.043 49.6478C107.492 49.6478 107.847 49.7748 108.107 50.0287C108.374 50.2826 108.508 50.6016 108.508 50.9857C108.508 51.3633 108.374 51.6791 108.107 51.933C107.847 52.1869 107.492 52.3138 107.043 52.3138C106.594 52.3138 106.236 52.1869 105.969 51.933C105.708 51.6791 105.578 51.3633 105.578 50.9857ZM116.613 61.4252C116.613 61.2038 116.555 61.0052 116.438 60.8295C116.32 60.6537 116.099 60.4942 115.773 60.351C115.454 60.2012 114.986 60.0612 114.367 59.931C113.82 59.8138 113.316 59.6674 112.854 59.4916C112.391 59.3158 111.994 59.1042 111.662 58.8568C111.33 58.6029 111.07 58.3067 110.881 57.9681C110.699 57.6231 110.607 57.226 110.607 56.7767C110.607 56.3405 110.702 55.9304 110.891 55.5463C111.079 55.1556 111.353 54.8138 111.711 54.5209C112.069 54.2214 112.505 53.987 113.02 53.8177C113.534 53.642 114.113 53.5541 114.758 53.5541C115.656 53.5541 116.428 53.7006 117.072 53.9935C117.723 54.2865 118.221 54.6901 118.566 55.2045C118.911 55.7123 119.084 56.2852 119.084 56.9232H116.506C116.506 56.6433 116.441 56.3894 116.311 56.1615C116.187 55.9336 115.995 55.7513 115.734 55.6146C115.474 55.4714 115.145 55.3998 114.748 55.3998C114.39 55.3998 114.087 55.4584 113.84 55.5756C113.599 55.6927 113.417 55.8457 113.293 56.0345C113.169 56.2233 113.107 56.4317 113.107 56.6595C113.107 56.8288 113.14 56.9818 113.205 57.1185C113.277 57.2487 113.391 57.3692 113.547 57.4799C113.703 57.5905 113.915 57.6914 114.182 57.7826C114.455 57.8737 114.79 57.9616 115.188 58.0463C115.975 58.2025 116.662 58.4108 117.248 58.6713C117.84 58.9252 118.303 59.2637 118.635 59.6869C118.967 60.1101 119.133 60.6504 119.133 61.308C119.133 61.7767 119.032 62.2064 118.83 62.597C118.628 62.9812 118.335 63.3164 117.951 63.6029C117.567 63.8894 117.108 64.114 116.574 64.2767C116.04 64.433 115.438 64.5111 114.768 64.5111C113.798 64.5111 112.977 64.3386 112.307 63.9935C111.636 63.642 111.128 63.1993 110.783 62.6654C110.438 62.125 110.266 61.5651 110.266 60.9857H112.736C112.756 61.3959 112.867 61.7247 113.068 61.972C113.27 62.2194 113.524 62.3985 113.83 62.5092C114.143 62.6133 114.471 62.6654 114.816 62.6654C115.207 62.6654 115.536 62.6133 115.803 62.5092C116.07 62.3985 116.271 62.252 116.408 62.0697C116.545 61.8809 116.613 61.6661 116.613 61.4252ZM125.842 64.5111C125.041 64.5111 124.322 64.3809 123.684 64.1205C123.046 63.8601 122.502 63.4987 122.053 63.0365C121.61 62.5677 121.268 62.0241 121.027 61.4056C120.793 60.7806 120.676 60.1101 120.676 59.3939V59.0033C120.676 58.1895 120.793 57.4506 121.027 56.7865C121.262 56.1159 121.594 55.5398 122.023 55.058C122.453 54.5762 122.967 54.2051 123.566 53.9447C124.165 53.6843 124.826 53.5541 125.549 53.5541C126.298 53.5541 126.958 53.681 127.531 53.9349C128.104 54.1823 128.583 54.5339 128.967 54.9896C129.351 55.4454 129.641 55.9922 129.836 56.6302C130.031 57.2618 130.129 57.9616 130.129 58.7299V59.8138H121.848V58.0365H127.59V57.8412C127.577 57.431 127.499 57.0567 127.355 56.7181C127.212 56.3731 126.991 56.0997 126.691 55.8978C126.392 55.6895 126.005 55.5853 125.529 55.5853C125.145 55.5853 124.81 55.67 124.523 55.8392C124.243 56.002 124.009 56.2364 123.82 56.5424C123.638 56.8418 123.501 57.1999 123.41 57.6166C123.319 58.0332 123.273 58.4955 123.273 59.0033V59.3939C123.273 59.8366 123.332 60.2468 123.449 60.6244C123.573 61.002 123.752 61.3308 123.986 61.6107C124.227 61.8842 124.514 62.099 124.846 62.2552C125.184 62.405 125.568 62.4799 125.998 62.4799C126.538 62.4799 127.027 62.3757 127.463 62.1674C127.906 61.9525 128.29 61.6368 128.615 61.2201L129.914 62.5677C129.693 62.8933 129.393 63.2058 129.016 63.5052C128.645 63.8047 128.195 64.0489 127.668 64.2377C127.141 64.42 126.532 64.5111 125.842 64.5111Z" fill="white"/>
<path d="M89.2929 37.5492C89.6834 37.9397 90.3166 37.9397 90.7071 37.5492L97.0711 31.1852C97.4616 30.7947 97.4616 30.1615 97.0711 29.771C96.6805 29.3805 96.0474 29.3805 95.6569 29.771L90 35.4278L84.3431 29.771C83.9526 29.3805 83.3195 29.3805 82.9289 29.771C82.5384 30.1615 82.5384 30.7947 82.9289 31.1852L89.2929 37.5492ZM89 9.47363L89 36.8421H91L91 9.47363H89Z" fill="white"/>
</svg>
