<svg width="179" height="79" viewBox="0 0 179 79" fill="none" xmlns="http://www.w3.org/2000/svg">
<path d="M84.5 0.0891274C46.4932 2.99036 0 79 0 79H179C179 79 125.936 -3.07384 84.5 0.0891274Z" fill="#EEC42E"/>
<path d="M61.6025 66H58.2295L58.251 63.6797H61.6025C62.512 63.6797 63.2747 63.4792 63.8906 63.0781C64.5065 62.6699 64.972 62.0863 65.2871 61.3271C65.6022 60.5609 65.7598 59.6442 65.7598 58.5771V57.7715C65.7598 56.9479 65.6702 56.221 65.4912 55.5908C65.3122 54.9606 65.0472 54.4307 64.6963 54.001C64.3525 53.5713 63.9264 53.2454 63.418 53.0234C62.9095 52.8014 62.3258 52.6904 61.667 52.6904H58.165V50.3594H61.667C62.7126 50.3594 63.665 50.5348 64.5244 50.8857C65.391 51.2367 66.1393 51.7415 66.7695 52.4004C67.4069 53.0521 67.8939 53.8327 68.2305 54.7422C68.5742 55.6517 68.7461 56.6686 68.7461 57.793V58.5771C68.7461 59.6943 68.5742 60.7113 68.2305 61.6279C67.8939 62.5374 67.4069 63.318 66.7695 63.9697C66.1393 64.6214 65.3874 65.1227 64.5137 65.4736C63.64 65.8245 62.6696 66 61.6025 66ZM59.8838 50.3594V66H56.9297V50.3594H59.8838ZM76.2656 66.2148C75.3848 66.2148 74.5934 66.0716 73.8916 65.7852C73.1898 65.4987 72.5918 65.1012 72.0977 64.5928C71.6107 64.0771 71.2347 63.4792 70.9697 62.7988C70.7119 62.1113 70.583 61.3737 70.583 60.5859V60.1562C70.583 59.2611 70.7119 58.4482 70.9697 57.7178C71.2275 56.9801 71.5928 56.3464 72.0654 55.8164C72.5381 55.2865 73.1038 54.8783 73.7627 54.5918C74.4215 54.3053 75.1484 54.1621 75.9434 54.1621C76.7669 54.1621 77.4938 54.3018 78.124 54.5811C78.7542 54.8532 79.2806 55.2399 79.7031 55.7412C80.1257 56.2425 80.4443 56.8441 80.6592 57.5459C80.874 58.2406 80.9814 59.0104 80.9814 59.8555V61.0479H71.8721V59.0928H78.1885V58.8779C78.1742 58.4268 78.0882 58.015 77.9307 57.6426C77.7731 57.263 77.5296 56.9622 77.2002 56.7402C76.8708 56.5111 76.4447 56.3965 75.9219 56.3965C75.4993 56.3965 75.1305 56.4896 74.8154 56.6758C74.5075 56.8548 74.2497 57.1126 74.042 57.4492C73.8415 57.7786 73.6911 58.1725 73.5908 58.6309C73.4906 59.0892 73.4404 59.5977 73.4404 60.1562V60.5859C73.4404 61.0729 73.5049 61.5241 73.6338 61.9395C73.7699 62.3548 73.9668 62.7165 74.2246 63.0244C74.4896 63.3252 74.8047 63.5615 75.1699 63.7334C75.5423 63.8981 75.9648 63.9805 76.4375 63.9805C77.0319 63.9805 77.569 63.8659 78.0488 63.6367C78.5358 63.4004 78.9583 63.0531 79.3164 62.5947L80.7451 64.0771C80.5016 64.4352 80.1722 64.779 79.7568 65.1084C79.3486 65.4378 78.8545 65.7064 78.2744 65.9141C77.6943 66.1146 77.0247 66.2148 76.2656 66.2148ZM88.3828 54.377V56.418H81.7227V54.377H88.3828ZM83.5059 51.5195H86.3525V62.6484C86.3525 62.9922 86.3991 63.2572 86.4922 63.4434C86.5853 63.6296 86.7249 63.7549 86.9111 63.8193C87.0973 63.8838 87.3193 63.916 87.5771 63.916C87.7633 63.916 87.9352 63.9053 88.0928 63.8838C88.2503 63.8623 88.3828 63.8408 88.4902 63.8193L88.501 65.9463C88.2646 66.0251 87.9961 66.0895 87.6953 66.1396C87.4017 66.1898 87.0687 66.2148 86.6963 66.2148C86.0589 66.2148 85.5003 66.1074 85.0205 65.8926C84.5407 65.6706 84.1683 65.3161 83.9033 64.8291C83.6383 64.335 83.5059 63.6833 83.5059 62.874V51.5195ZM96.6758 63.5293V58.1689C96.6758 57.7751 96.6077 57.4349 96.4717 57.1484C96.3356 56.862 96.1279 56.64 95.8486 56.4824C95.5693 56.3249 95.2148 56.2461 94.7852 56.2461C94.4056 56.2461 94.0726 56.3105 93.7861 56.4395C93.5068 56.5684 93.292 56.751 93.1416 56.9873C92.9912 57.2165 92.916 57.4814 92.916 57.7822H90.0693C90.0693 57.3024 90.1839 56.8477 90.4131 56.418C90.6423 55.9811 90.9681 55.5944 91.3906 55.2578C91.8203 54.9141 92.3324 54.6455 92.9268 54.4521C93.5283 54.2588 94.2015 54.1621 94.9463 54.1621C95.8271 54.1621 96.6113 54.3125 97.2988 54.6133C97.9935 54.9069 98.5378 55.3509 98.9316 55.9453C99.3327 56.5397 99.5332 57.2881 99.5332 58.1904V63.2607C99.5332 63.8408 99.569 64.3385 99.6406 64.7539C99.7194 65.1621 99.834 65.5166 99.9844 65.8174V66H97.0947C96.9587 65.7064 96.8548 65.334 96.7832 64.8828C96.7116 64.4245 96.6758 63.9733 96.6758 63.5293ZM97.0732 58.9209L97.0947 60.6074H95.3008C94.8568 60.6074 94.4665 60.654 94.1299 60.7471C93.7933 60.833 93.5176 60.9619 93.3027 61.1338C93.0879 61.2985 92.9268 61.499 92.8193 61.7354C92.7119 61.9645 92.6582 62.2259 92.6582 62.5195C92.6582 62.806 92.7227 63.0638 92.8516 63.293C92.9876 63.5221 93.181 63.7048 93.4316 63.8408C93.6895 63.9697 93.9902 64.0342 94.334 64.0342C94.8353 64.0342 95.2721 63.9339 95.6445 63.7334C96.0169 63.5257 96.307 63.2751 96.5146 62.9814C96.7223 62.6878 96.8333 62.4085 96.8477 62.1436L97.6641 63.3682C97.5638 63.6618 97.4134 63.9733 97.2129 64.3027C97.0124 64.6322 96.7546 64.9401 96.4395 65.2266C96.1243 65.513 95.7448 65.7493 95.3008 65.9355C94.8568 66.1217 94.3411 66.2148 93.7539 66.2148C93.002 66.2148 92.3288 66.0645 91.7344 65.7637C91.14 65.4629 90.6709 65.0511 90.3271 64.5283C89.9834 64.0055 89.8115 63.4111 89.8115 62.7451C89.8115 62.1292 89.9261 61.585 90.1553 61.1123C90.3844 60.6396 90.7246 60.2422 91.1758 59.9199C91.627 59.5905 92.1855 59.3434 92.8516 59.1787C93.5247 59.0068 94.2946 58.9209 95.1611 58.9209H97.0732ZM105.098 54.377V66H102.251V54.377H105.098ZM102.058 51.3369C102.058 50.9144 102.201 50.5635 102.487 50.2842C102.781 50.0049 103.175 49.8652 103.669 49.8652C104.163 49.8652 104.553 50.0049 104.84 50.2842C105.133 50.5635 105.28 50.9144 105.28 51.3369C105.28 51.7523 105.133 52.0996 104.84 52.3789C104.553 52.6582 104.163 52.7979 103.669 52.7979C103.175 52.7979 102.781 52.6582 102.487 52.3789C102.201 52.0996 102.058 51.7523 102.058 51.3369ZM110.812 49.5V66H107.966V49.5H110.812ZM119.911 62.8203C119.911 62.5768 119.847 62.3584 119.718 62.165C119.589 61.9717 119.345 61.7962 118.987 61.6387C118.636 61.474 118.121 61.32 117.44 61.1768C116.839 61.0479 116.284 60.8867 115.775 60.6934C115.267 60.5 114.83 60.2673 114.465 59.9951C114.1 59.7158 113.813 59.39 113.605 59.0176C113.405 58.638 113.305 58.2012 113.305 57.707C113.305 57.2272 113.409 56.776 113.616 56.3535C113.824 55.9238 114.125 55.5479 114.519 55.2256C114.912 54.8962 115.392 54.6383 115.958 54.4521C116.524 54.2588 117.161 54.1621 117.87 54.1621C118.858 54.1621 119.707 54.3232 120.416 54.6455C121.132 54.9678 121.68 55.4118 122.06 55.9775C122.439 56.5361 122.629 57.1663 122.629 57.8682H119.793C119.793 57.5602 119.721 57.2809 119.578 57.0303C119.442 56.7796 119.231 56.5791 118.944 56.4287C118.658 56.2712 118.296 56.1924 117.859 56.1924C117.465 56.1924 117.132 56.2568 116.86 56.3857C116.595 56.5146 116.395 56.6829 116.259 56.8906C116.123 57.0983 116.055 57.3275 116.055 57.5781C116.055 57.7643 116.09 57.9326 116.162 58.083C116.241 58.2262 116.366 58.3587 116.538 58.4805C116.71 58.6022 116.943 58.7132 117.236 58.8135C117.537 58.9137 117.906 59.0104 118.343 59.1035C119.209 59.2754 119.965 59.5046 120.609 59.791C121.261 60.0703 121.77 60.4427 122.135 60.9082C122.5 61.3737 122.683 61.9681 122.683 62.6914C122.683 63.207 122.572 63.6797 122.35 64.1094C122.128 64.5319 121.805 64.9007 121.383 65.2158C120.96 65.5309 120.455 65.778 119.868 65.957C119.281 66.1289 118.618 66.2148 117.881 66.2148C116.814 66.2148 115.911 66.0251 115.174 65.6455C114.436 65.2588 113.878 64.7718 113.498 64.1846C113.118 63.5902 112.929 62.9743 112.929 62.3369H115.646C115.668 62.7881 115.79 63.1497 116.012 63.4219C116.234 63.694 116.513 63.891 116.85 64.0127C117.193 64.1273 117.555 64.1846 117.935 64.1846C118.364 64.1846 118.726 64.1273 119.02 64.0127C119.313 63.891 119.535 63.7298 119.686 63.5293C119.836 63.3216 119.911 63.0853 119.911 62.8203Z" fill="white"/>
<path d="M90.7071 13.2929C90.3166 12.9024 89.6834 12.9024 89.2929 13.2929L82.9289 19.6569C82.5384 20.0474 82.5384 20.6805 82.9289 21.0711C83.3195 21.4616 83.9526 21.4616 84.3431 21.0711L90 15.4142L95.6569 21.0711C96.0474 21.4616 96.6805 21.4616 97.0711 21.0711C97.4616 20.6805 97.4616 20.0474 97.0711 19.6569L90.7071 13.2929ZM91 40V14H89V40H91Z" fill="white"/>
</svg>
