<svg width="255" height="293" viewBox="0 0 255 293" fill="none" xmlns="http://www.w3.org/2000/svg">
<path d="M35 291.625C29.6939 291.625 25.375 287.307 25.375 282C25.375 276.693 29.6939 272.375 35 272.375C40.3061 272.375 44.625 276.693 44.625 282C44.625 287.307 40.3061 291.625 35 291.625ZM35 273.75C30.4501 273.75 26.75 277.45 26.75 282C26.75 286.55 30.4501 290.25 35 290.25C39.5499 290.25 43.25 286.55 43.25 282C43.25 277.45 39.5499 273.75 35 273.75Z" fill="#1461FF"/>
<path d="M35 284.98C36.6456 284.98 37.9796 283.646 37.9796 282C37.9796 280.354 36.6456 279.02 35 279.02C33.3544 279.02 32.0204 280.354 32.0204 282C32.0204 283.646 33.3544 284.98 35 284.98Z" fill="#CA23C5"/>
<path d="M59.2358 288.139C58.6525 288.139 58.1271 288.023 57.6598 287.791C57.1925 287.559 56.8179 287.241 56.5362 286.837C56.2545 286.432 56.1004 285.972 56.0739 285.455H57.267C57.3134 285.915 57.5223 286.296 57.8935 286.598C58.268 286.896 58.7154 287.045 59.2358 287.045C59.6534 287.045 60.0246 286.948 60.3494 286.752C60.6776 286.557 60.9344 286.288 61.12 285.947C61.3089 285.602 61.4034 285.213 61.4034 284.778C61.4034 284.334 61.3056 283.938 61.1101 283.59C60.9179 283.239 60.6527 282.962 60.3146 282.76C59.9766 282.558 59.5904 282.455 59.1562 282.452C58.8447 282.448 58.5249 282.496 58.1967 282.596C57.8686 282.692 57.5985 282.816 57.3864 282.969L56.233 282.83L56.8494 277.818H62.1392V278.912H57.8835L57.5256 281.915H57.5852C57.794 281.749 58.0559 281.612 58.3707 281.502C58.6856 281.393 59.0137 281.338 59.3551 281.338C59.9782 281.338 60.5334 281.487 61.0206 281.786C61.5111 282.08 61.8956 282.485 62.174 282.999C62.4557 283.512 62.5966 284.099 62.5966 284.759C62.5966 285.408 62.4508 285.988 62.1591 286.499C61.8707 287.006 61.473 287.407 60.9659 287.702C60.4588 287.993 59.8821 288.139 59.2358 288.139ZM68.688 288V277.818H69.921V282.352H75.35V277.818H76.5829V288H75.35V283.446H69.921V288H68.688ZM78.8922 288V280.364H80.0655V288H78.8922ZM79.4888 279.091C79.2601 279.091 79.0629 279.013 78.8972 278.857C78.7348 278.701 78.6536 278.514 78.6536 278.295C78.6536 278.077 78.7348 277.889 78.8972 277.734C79.0629 277.578 79.2601 277.5 79.4888 277.5C79.7175 277.5 79.9131 277.578 80.0755 277.734C80.2412 277.889 80.324 278.077 80.324 278.295C80.324 278.514 80.2412 278.701 80.0755 278.857C79.9131 279.013 79.7175 279.091 79.4888 279.091ZM85.2969 291.023C84.7301 291.023 84.2429 290.95 83.8352 290.804C83.4276 290.661 83.0878 290.473 82.8161 290.237C82.5476 290.005 82.3338 289.757 82.1747 289.491L83.1094 288.835C83.2154 288.974 83.3497 289.134 83.5121 289.312C83.6745 289.495 83.8965 289.652 84.1783 289.785C84.4633 289.921 84.8362 289.989 85.2969 289.989C85.9134 289.989 86.4221 289.839 86.8232 289.541C87.2242 289.243 87.4247 288.776 87.4247 288.139V286.588H87.3253C87.2391 286.727 87.1165 286.9 86.9574 287.105C86.8016 287.307 86.5762 287.488 86.2812 287.647C85.9896 287.803 85.5952 287.881 85.098 287.881C84.4815 287.881 83.928 287.735 83.4375 287.443C82.9503 287.152 82.5642 286.727 82.2791 286.17C81.9974 285.614 81.8565 284.937 81.8565 284.142C81.8565 283.36 81.9941 282.679 82.2692 282.099C82.5443 281.515 82.9271 281.065 83.4176 280.746C83.9081 280.425 84.4749 280.264 85.1179 280.264C85.6151 280.264 86.0095 280.347 86.3011 280.513C86.5961 280.675 86.8215 280.861 86.9773 281.07C87.1364 281.275 87.259 281.444 87.3452 281.577H87.4645V280.364H88.598V288.219C88.598 288.875 88.4489 289.409 88.1506 289.82C87.8556 290.234 87.4579 290.537 86.9574 290.729C86.4602 290.925 85.9067 291.023 85.2969 291.023ZM85.2571 286.827C85.7277 286.827 86.1255 286.719 86.4503 286.504C86.7751 286.288 87.022 285.978 87.1911 285.574C87.3601 285.17 87.4446 284.686 87.4446 284.122C87.4446 283.572 87.3617 283.086 87.196 282.665C87.0303 282.245 86.785 281.915 86.4602 281.676C86.1354 281.437 85.7344 281.318 85.2571 281.318C84.7599 281.318 84.3456 281.444 84.0142 281.696C83.6861 281.948 83.4392 282.286 83.2734 282.71C83.111 283.134 83.0298 283.605 83.0298 284.122C83.0298 284.652 83.1127 285.121 83.2784 285.529C83.4474 285.933 83.696 286.252 84.0241 286.484C84.3556 286.712 84.7666 286.827 85.2571 286.827ZM91.919 283.406V288H90.7457V277.818H91.919V281.557H92.0185C92.1974 281.162 92.4659 280.849 92.8239 280.617C93.1851 280.382 93.6657 280.264 94.2656 280.264C94.786 280.264 95.2417 280.369 95.6328 280.577C96.0239 280.783 96.3272 281.099 96.5426 281.527C96.7614 281.951 96.8707 282.491 96.8707 283.148V288H95.6974V283.227C95.6974 282.621 95.54 282.152 95.2251 281.82C94.9136 281.486 94.4811 281.318 93.9276 281.318C93.5431 281.318 93.1984 281.399 92.8935 281.562C92.5919 281.724 92.3532 281.961 92.1776 282.273C92.0052 282.584 91.919 282.962 91.919 283.406ZM102.219 288.159C101.483 288.159 100.848 287.997 100.315 287.672C99.7845 287.344 99.3752 286.886 99.0868 286.3C98.8018 285.71 98.6593 285.024 98.6593 284.241C98.6593 283.459 98.8018 282.77 99.0868 282.173C99.3752 281.573 99.7762 281.106 100.29 280.771C100.807 280.433 101.41 280.264 102.1 280.264C102.497 280.264 102.89 280.33 103.278 280.463C103.666 280.596 104.019 280.811 104.337 281.109C104.655 281.404 104.909 281.795 105.097 282.283C105.286 282.77 105.381 283.37 105.381 284.082V284.58H99.4945V283.565H104.188C104.188 283.134 104.102 282.75 103.929 282.412C103.76 282.074 103.518 281.807 103.203 281.612C102.892 281.416 102.524 281.318 102.1 281.318C101.632 281.318 101.228 281.434 100.887 281.666C100.548 281.895 100.288 282.193 100.106 282.561C99.9237 282.929 99.8326 283.323 99.8326 283.744V284.42C99.8326 284.997 99.932 285.486 100.131 285.887C100.333 286.285 100.613 286.588 100.971 286.797C101.329 287.002 101.745 287.105 102.219 287.105C102.527 287.105 102.806 287.062 103.054 286.976C103.306 286.886 103.523 286.754 103.705 286.578C103.888 286.399 104.029 286.177 104.128 285.912L105.262 286.23C105.142 286.615 104.942 286.953 104.66 287.244C104.378 287.533 104.03 287.758 103.616 287.92C103.202 288.08 102.736 288.159 102.219 288.159ZM107.166 288V280.364H108.299V281.517H108.379C108.518 281.139 108.77 280.833 109.134 280.597C109.499 280.362 109.91 280.244 110.367 280.244C110.454 280.244 110.561 280.246 110.691 280.249C110.82 280.253 110.918 280.258 110.984 280.264V281.457C110.944 281.447 110.853 281.433 110.71 281.413C110.571 281.389 110.424 281.378 110.268 281.378C109.897 281.378 109.565 281.456 109.274 281.612C108.985 281.764 108.757 281.976 108.588 282.248C108.422 282.516 108.339 282.823 108.339 283.168V288H107.166ZM122.039 280.364C121.98 279.86 121.738 279.469 121.314 279.19C120.889 278.912 120.369 278.773 119.752 278.773C119.302 278.773 118.907 278.846 118.569 278.991C118.234 279.137 117.973 279.338 117.784 279.593C117.598 279.848 117.505 280.138 117.505 280.463C117.505 280.735 117.57 280.969 117.699 281.164C117.832 281.356 118.001 281.517 118.206 281.646C118.412 281.772 118.627 281.877 118.853 281.96C119.078 282.039 119.285 282.104 119.474 282.153L120.508 282.432C120.773 282.501 121.068 282.598 121.393 282.72C121.721 282.843 122.034 283.01 122.333 283.222C122.634 283.431 122.883 283.7 123.078 284.028C123.274 284.356 123.372 284.759 123.372 285.236C123.372 285.786 123.228 286.283 122.939 286.727C122.654 287.171 122.237 287.524 121.686 287.786C121.14 288.048 120.475 288.179 119.693 288.179C118.964 288.179 118.332 288.061 117.799 287.826C117.268 287.591 116.851 287.263 116.546 286.842C116.244 286.421 116.074 285.932 116.034 285.375H117.306C117.34 285.759 117.469 286.078 117.694 286.33C117.923 286.578 118.211 286.764 118.559 286.886C118.911 287.006 119.288 287.065 119.693 287.065C120.163 287.065 120.586 286.989 120.961 286.837C121.335 286.681 121.632 286.465 121.85 286.19C122.069 285.912 122.179 285.587 122.179 285.216C122.179 284.878 122.084 284.603 121.895 284.391C121.706 284.179 121.458 284.006 121.15 283.874C120.841 283.741 120.508 283.625 120.15 283.526L118.897 283.168C118.102 282.939 117.472 282.612 117.008 282.188C116.544 281.764 116.312 281.209 116.312 280.523C116.312 279.953 116.466 279.455 116.775 279.031C117.086 278.604 117.504 278.272 118.027 278.037C118.554 277.798 119.143 277.679 119.792 277.679C120.449 277.679 121.032 277.797 121.542 278.032C122.053 278.264 122.457 278.582 122.755 278.987C123.057 279.391 123.216 279.85 123.233 280.364H122.039ZM128.561 280.364V281.358H124.604V280.364H128.561ZM125.757 278.534H126.93V285.812C126.93 286.144 126.978 286.393 127.074 286.558C127.174 286.721 127.3 286.83 127.452 286.886C127.608 286.939 127.772 286.966 127.944 286.966C128.074 286.966 128.18 286.959 128.263 286.946C128.345 286.929 128.412 286.916 128.461 286.906L128.7 287.96C128.621 287.99 128.51 288.02 128.367 288.05C128.224 288.083 128.044 288.099 127.825 288.099C127.494 288.099 127.169 288.028 126.851 287.886C126.536 287.743 126.274 287.526 126.065 287.234C125.86 286.943 125.757 286.575 125.757 286.131V278.534ZM135.138 284.878V280.364H136.312V288H135.138V286.707H135.059C134.88 287.095 134.601 287.425 134.224 287.697C133.846 287.965 133.368 288.099 132.792 288.099C132.314 288.099 131.89 287.995 131.519 287.786C131.148 287.574 130.856 287.256 130.644 286.832C130.432 286.404 130.326 285.866 130.326 285.216V280.364H131.499V285.136C131.499 285.693 131.655 286.137 131.966 286.469C132.281 286.8 132.682 286.966 133.17 286.966C133.461 286.966 133.758 286.891 134.059 286.742C134.364 286.593 134.62 286.364 134.825 286.056C135.034 285.748 135.138 285.355 135.138 284.878ZM141.344 288.159C140.708 288.159 140.146 287.998 139.659 287.677C139.172 287.352 138.79 286.895 138.515 286.305C138.24 285.711 138.103 285.01 138.103 284.202C138.103 283.4 138.24 282.704 138.515 282.114C138.79 281.524 139.173 281.068 139.664 280.746C140.154 280.425 140.721 280.264 141.364 280.264C141.861 280.264 142.254 280.347 142.542 280.513C142.834 280.675 143.056 280.861 143.208 281.07C143.364 281.275 143.485 281.444 143.571 281.577H143.671V277.818H144.844V288H143.711V286.827H143.571C143.485 286.966 143.363 287.142 143.203 287.354C143.044 287.562 142.817 287.75 142.522 287.915C142.227 288.078 141.835 288.159 141.344 288.159ZM141.503 287.105C141.974 287.105 142.372 286.982 142.696 286.737C143.021 286.489 143.268 286.146 143.437 285.708C143.606 285.267 143.691 284.759 143.691 284.182C143.691 283.612 143.608 283.113 143.442 282.685C143.276 282.254 143.031 281.92 142.706 281.681C142.382 281.439 141.98 281.318 141.503 281.318C141.006 281.318 140.592 281.446 140.26 281.701C139.932 281.953 139.685 282.296 139.52 282.73C139.357 283.161 139.276 283.645 139.276 284.182C139.276 284.725 139.359 285.219 139.525 285.663C139.694 286.104 139.942 286.455 140.27 286.717C140.602 286.976 141.013 287.105 141.503 287.105ZM147.156 288V280.364H148.329V288H147.156ZM147.752 279.091C147.524 279.091 147.327 279.013 147.161 278.857C146.998 278.701 146.917 278.514 146.917 278.295C146.917 278.077 146.998 277.889 147.161 277.734C147.327 277.578 147.524 277.5 147.752 277.5C147.981 277.5 148.177 277.578 148.339 277.734C148.505 277.889 148.588 278.077 148.588 278.295C148.588 278.514 148.505 278.701 148.339 278.857C148.177 279.013 147.981 279.091 147.752 279.091ZM153.68 288.159C152.944 288.159 152.309 287.997 151.776 287.672C151.245 287.344 150.836 286.886 150.548 286.3C150.263 285.71 150.12 285.024 150.12 284.241C150.12 283.459 150.263 282.77 150.548 282.173C150.836 281.573 151.237 281.106 151.751 280.771C152.268 280.433 152.871 280.264 153.561 280.264C153.958 280.264 154.351 280.33 154.739 280.463C155.127 280.596 155.48 280.811 155.798 281.109C156.116 281.404 156.369 281.795 156.558 282.283C156.747 282.77 156.842 283.37 156.842 284.082V284.58H150.955V283.565H155.649C155.649 283.134 155.562 282.75 155.39 282.412C155.221 282.074 154.979 281.807 154.664 281.612C154.353 281.416 153.985 281.318 153.561 281.318C153.093 281.318 152.689 281.434 152.347 281.666C152.009 281.895 151.749 282.193 151.567 282.561C151.385 282.929 151.294 283.323 151.294 283.744V284.42C151.294 284.997 151.393 285.486 151.592 285.887C151.794 286.285 152.074 286.588 152.432 286.797C152.79 287.002 153.206 287.105 153.68 287.105C153.988 287.105 154.267 287.062 154.515 286.976C154.767 286.886 154.984 286.754 155.166 286.578C155.349 286.399 155.49 286.177 155.589 285.912L156.722 286.23C156.603 286.615 156.403 286.953 156.121 287.244C155.839 287.533 155.491 287.758 155.077 287.92C154.663 288.08 154.197 288.159 153.68 288.159ZM164.036 282.074L162.982 282.372C162.915 282.196 162.818 282.026 162.688 281.86C162.562 281.691 162.39 281.552 162.171 281.442C161.953 281.333 161.673 281.278 161.331 281.278C160.864 281.278 160.474 281.386 160.163 281.602C159.855 281.814 159.7 282.084 159.7 282.412C159.7 282.704 159.807 282.934 160.019 283.103C160.231 283.272 160.562 283.413 161.013 283.526L162.146 283.804C162.829 283.97 163.338 284.223 163.673 284.565C164.008 284.903 164.175 285.339 164.175 285.872C164.175 286.31 164.049 286.701 163.797 287.045C163.548 287.39 163.2 287.662 162.753 287.861C162.306 288.06 161.785 288.159 161.192 288.159C160.413 288.159 159.768 287.99 159.258 287.652C158.748 287.314 158.424 286.82 158.289 286.17L159.402 285.892C159.508 286.303 159.709 286.611 160.004 286.817C160.302 287.022 160.691 287.125 161.172 287.125C161.719 287.125 162.153 287.009 162.475 286.777C162.799 286.542 162.962 286.26 162.962 285.932C162.962 285.667 162.869 285.445 162.683 285.266C162.498 285.083 162.213 284.947 161.828 284.858L160.556 284.56C159.856 284.394 159.343 284.137 159.014 283.789C158.69 283.438 158.527 282.999 158.527 282.472C158.527 282.041 158.648 281.66 158.89 281.328C159.135 280.997 159.468 280.737 159.889 280.548C160.314 280.359 160.794 280.264 161.331 280.264C162.087 280.264 162.68 280.43 163.111 280.761C163.545 281.093 163.853 281.53 164.036 282.074ZM178.629 282.909C178.629 283.983 178.435 284.911 178.047 285.693C177.659 286.475 177.127 287.079 176.451 287.503C175.775 287.927 175.003 288.139 174.134 288.139C173.266 288.139 172.494 287.927 171.817 287.503C171.141 287.079 170.609 286.475 170.222 285.693C169.834 284.911 169.64 283.983 169.64 282.909C169.64 281.835 169.834 280.907 170.222 280.125C170.609 279.343 171.141 278.74 171.817 278.315C172.494 277.891 173.266 277.679 174.134 277.679C175.003 277.679 175.775 277.891 176.451 278.315C177.127 278.74 177.659 279.343 178.047 280.125C178.435 280.907 178.629 281.835 178.629 282.909ZM177.435 282.909C177.435 282.027 177.288 281.283 176.993 280.677C176.701 280.07 176.305 279.611 175.805 279.3C175.308 278.988 174.751 278.832 174.134 278.832C173.518 278.832 172.959 278.988 172.459 279.3C171.962 279.611 171.566 280.07 171.271 280.677C170.979 281.283 170.833 282.027 170.833 282.909C170.833 283.791 170.979 284.535 171.271 285.141C171.566 285.748 171.962 286.207 172.459 286.518C172.959 286.83 173.518 286.986 174.134 286.986C174.751 286.986 175.308 286.83 175.805 286.518C176.305 286.207 176.701 285.748 176.993 285.141C177.288 284.535 177.435 283.791 177.435 282.909ZM183.943 280.364V281.358H179.827V280.364H183.943ZM181.06 288V279.31C181.06 278.872 181.162 278.508 181.368 278.216C181.573 277.924 181.84 277.705 182.168 277.56C182.496 277.414 182.843 277.341 183.207 277.341C183.496 277.341 183.731 277.364 183.913 277.411C184.096 277.457 184.232 277.5 184.321 277.54L183.983 278.554C183.923 278.534 183.84 278.509 183.734 278.479C183.632 278.45 183.496 278.435 183.327 278.435C182.939 278.435 182.659 278.532 182.487 278.728C182.317 278.924 182.233 279.21 182.233 279.588V288H181.06ZM188.988 280.364V281.358H184.872V280.364H188.988ZM186.105 288V279.31C186.105 278.872 186.207 278.508 186.413 278.216C186.618 277.924 186.885 277.705 187.213 277.56C187.541 277.414 187.888 277.341 188.252 277.341C188.541 277.341 188.776 277.364 188.958 277.411C189.141 277.457 189.276 277.5 189.366 277.54L189.028 278.554C188.968 278.534 188.885 278.509 188.779 278.479C188.677 278.45 188.541 278.435 188.372 278.435C187.984 278.435 187.704 278.532 187.531 278.728C187.362 278.924 187.278 279.21 187.278 279.588V288H186.105ZM193.52 288.159C192.784 288.159 192.149 287.997 191.616 287.672C191.085 287.344 190.676 286.886 190.388 286.3C190.103 285.71 189.96 285.024 189.96 284.241C189.96 283.459 190.103 282.77 190.388 282.173C190.676 281.573 191.077 281.106 191.591 280.771C192.108 280.433 192.711 280.264 193.4 280.264C193.798 280.264 194.191 280.33 194.579 280.463C194.966 280.596 195.319 280.811 195.638 281.109C195.956 281.404 196.209 281.795 196.398 282.283C196.587 282.77 196.682 283.37 196.682 284.082V284.58H190.795V283.565H195.488C195.488 283.134 195.402 282.75 195.23 282.412C195.061 282.074 194.819 281.807 194.504 281.612C194.193 281.416 193.825 281.318 193.4 281.318C192.933 281.318 192.529 281.434 192.187 281.666C191.849 281.895 191.589 282.193 191.407 282.561C191.224 282.929 191.133 283.323 191.133 283.744V284.42C191.133 284.997 191.233 285.486 191.432 285.887C191.634 286.285 191.914 286.588 192.272 286.797C192.63 287.002 193.046 287.105 193.52 287.105C193.828 287.105 194.106 287.062 194.355 286.976C194.607 286.886 194.824 286.754 195.006 286.578C195.189 286.399 195.329 286.177 195.429 285.912L196.562 286.23C196.443 286.615 196.242 286.953 195.961 287.244C195.679 287.533 195.331 287.758 194.917 287.92C194.502 288.08 194.037 288.159 193.52 288.159ZM198.466 288V280.364H199.6V281.517H199.68C199.819 281.139 200.071 280.833 200.435 280.597C200.8 280.362 201.211 280.244 201.668 280.244C201.754 280.244 201.862 280.246 201.991 280.249C202.121 280.253 202.218 280.258 202.285 280.264V281.457C202.245 281.447 202.154 281.433 202.011 281.413C201.872 281.389 201.724 281.378 201.569 281.378C201.198 281.378 200.866 281.456 200.574 281.612C200.286 281.764 200.057 281.976 199.888 282.248C199.723 282.516 199.64 282.823 199.64 283.168V288H198.466ZM209.085 282.074L208.031 282.372C207.964 282.196 207.866 282.026 207.737 281.86C207.611 281.691 207.439 281.552 207.22 281.442C207.001 281.333 206.721 281.278 206.38 281.278C205.913 281.278 205.523 281.386 205.212 281.602C204.903 281.814 204.749 282.084 204.749 282.412C204.749 282.704 204.855 282.934 205.067 283.103C205.28 283.272 205.611 283.413 206.062 283.526L207.195 283.804C207.878 283.97 208.387 284.223 208.722 284.565C209.056 284.903 209.224 285.339 209.224 285.872C209.224 286.31 209.098 286.701 208.846 287.045C208.597 287.39 208.249 287.662 207.802 287.861C207.354 288.06 206.834 288.159 206.241 288.159C205.462 288.159 204.817 287.99 204.307 287.652C203.796 287.314 203.473 286.82 203.337 286.17L204.451 285.892C204.557 286.303 204.758 286.611 205.053 286.817C205.351 287.022 205.74 287.125 206.221 287.125C206.768 287.125 207.202 287.009 207.523 286.777C207.848 286.542 208.011 286.26 208.011 285.932C208.011 285.667 207.918 285.445 207.732 285.266C207.547 285.083 207.262 284.947 206.877 284.858L205.604 284.56C204.905 284.394 204.391 284.137 204.063 283.789C203.738 283.438 203.576 282.999 203.576 282.472C203.576 282.041 203.697 281.66 203.939 281.328C204.184 280.997 204.517 280.737 204.938 280.548C205.362 280.359 205.843 280.264 206.38 280.264C207.136 280.264 207.729 280.43 208.16 280.761C208.594 281.093 208.902 281.53 209.085 282.074Z" fill="black"/>
<path d="M54.6761 245.912V244.818H62.3125V245.912H59.1108V255H57.8778V245.912H54.6761ZM66.0511 255.159C65.3617 255.159 64.7569 254.995 64.2365 254.667C63.7195 254.339 63.3151 253.88 63.0234 253.29C62.7351 252.7 62.5909 252.01 62.5909 251.222C62.5909 250.426 62.7351 249.732 63.0234 249.138C63.3151 248.545 63.7195 248.085 64.2365 247.756C64.7569 247.428 65.3617 247.264 66.0511 247.264C66.7405 247.264 67.3438 247.428 67.8608 247.756C68.3812 248.085 68.7855 248.545 69.0739 249.138C69.3655 249.732 69.5114 250.426 69.5114 251.222C69.5114 252.01 69.3655 252.7 69.0739 253.29C68.7855 253.88 68.3812 254.339 67.8608 254.667C67.3438 254.995 66.7405 255.159 66.0511 255.159ZM66.0511 254.105C66.5748 254.105 67.0057 253.971 67.3438 253.702C67.6818 253.434 67.9321 253.081 68.0945 252.643C68.2569 252.206 68.3381 251.732 68.3381 251.222C68.3381 250.711 68.2569 250.236 68.0945 249.795C67.9321 249.354 67.6818 248.998 67.3438 248.726C67.0057 248.454 66.5748 248.318 66.0511 248.318C65.5275 248.318 65.0966 248.454 64.7585 248.726C64.4205 248.998 64.1702 249.354 64.0078 249.795C63.8454 250.236 63.7642 250.711 63.7642 251.222C63.7642 251.732 63.8454 252.206 64.0078 252.643C64.1702 253.081 64.4205 253.434 64.7585 253.702C65.0966 253.971 65.5275 254.105 66.0511 254.105ZM74.6234 247.364V248.358H70.666V247.364H74.6234ZM71.8194 245.534H72.9927V252.812C72.9927 253.144 73.0408 253.393 73.1369 253.558C73.2363 253.721 73.3623 253.83 73.5147 253.886C73.6705 253.939 73.8346 253.966 74.0069 253.966C74.1362 253.966 74.2422 253.959 74.3251 253.946C74.408 253.929 74.4743 253.916 74.524 253.906L74.7626 254.96C74.6831 254.99 74.572 255.02 74.4295 255.05C74.287 255.083 74.1064 255.099 73.8876 255.099C73.5562 255.099 73.2314 255.028 72.9132 254.886C72.5983 254.743 72.3365 254.526 72.1277 254.234C71.9222 253.943 71.8194 253.575 71.8194 253.131V245.534ZM78.6355 255.179C78.1516 255.179 77.7124 255.088 77.318 254.906C76.9236 254.72 76.6104 254.453 76.3784 254.105C76.1464 253.754 76.0304 253.33 76.0304 252.832C76.0304 252.395 76.1165 252.04 76.2889 251.768C76.4612 251.493 76.6916 251.278 76.9799 251.122C77.2683 250.966 77.5865 250.85 77.9345 250.774C78.2858 250.695 78.6388 250.632 78.9934 250.585C79.4574 250.526 79.8336 250.481 80.122 250.451C80.4136 250.418 80.6258 250.363 80.7583 250.287C80.8942 250.211 80.9622 250.078 80.9622 249.889V249.849C80.9622 249.359 80.8279 248.978 80.5595 248.706C80.2943 248.434 79.8916 248.298 79.3514 248.298C78.7913 248.298 78.3521 248.421 78.0339 248.666C77.7157 248.911 77.492 249.173 77.3627 249.452L76.2491 249.054C76.448 248.59 76.7131 248.229 77.0446 247.97C77.3793 247.708 77.7439 247.526 78.1383 247.423C78.536 247.317 78.9271 247.264 79.3116 247.264C79.5569 247.264 79.8386 247.294 80.1568 247.354C80.4783 247.41 80.7882 247.528 81.0865 247.707C81.3881 247.886 81.6383 248.156 81.8372 248.517C82.036 248.878 82.1355 249.362 82.1355 249.969V255H80.9622V253.966H80.9025C80.823 254.132 80.6904 254.309 80.5048 254.498C80.3192 254.687 80.0723 254.848 79.764 254.98C79.4558 255.113 79.0796 255.179 78.6355 255.179ZM78.8145 254.125C79.2785 254.125 79.6696 254.034 79.9877 253.852C80.3092 253.669 80.5512 253.434 80.7136 253.146C80.8793 252.857 80.9622 252.554 80.9622 252.236V251.162C80.9125 251.222 80.8031 251.276 80.6341 251.326C80.4683 251.372 80.2761 251.414 80.0574 251.45C79.8419 251.483 79.6315 251.513 79.426 251.54C79.2238 251.563 79.0597 251.583 78.9338 251.599C78.6288 251.639 78.3438 251.704 78.0787 251.793C77.8168 251.879 77.6047 252.01 77.4423 252.186C77.2832 252.358 77.2037 252.594 77.2037 252.892C77.2037 253.3 77.3545 253.608 77.6561 253.817C77.961 254.022 78.3471 254.125 78.8145 254.125ZM85.4503 244.818V255H84.277V244.818H85.4503ZM92.9288 244.818V255H91.6958V244.818H92.9288ZM96.4151 250.406V255H95.2418V247.364H96.3754V248.557H96.4748C96.6538 248.169 96.9255 247.857 97.2901 247.622C97.6547 247.384 98.1254 247.264 98.7021 247.264C99.2191 247.264 99.6715 247.37 100.059 247.582C100.447 247.791 100.749 248.109 100.964 248.537C101.18 248.961 101.287 249.498 101.287 250.148V255H100.114V250.227C100.114 249.627 99.9582 249.16 99.6467 248.825C99.3351 248.487 98.9076 248.318 98.364 248.318C97.9895 248.318 97.6547 248.399 97.3597 248.562C97.0681 248.724 96.8377 248.961 96.6687 249.273C96.4996 249.584 96.4151 249.962 96.4151 250.406ZM106.752 247.364V248.358H102.795V247.364H106.752ZM103.948 245.534H105.122V252.812C105.122 253.144 105.17 253.393 105.266 253.558C105.365 253.721 105.491 253.83 105.644 253.886C105.799 253.939 105.963 253.966 106.136 253.966C106.265 253.966 106.371 253.959 106.454 253.946C106.537 253.929 106.603 253.916 106.653 253.906L106.892 254.96C106.812 254.99 106.701 255.02 106.558 255.05C106.416 255.083 106.235 255.099 106.017 255.099C105.685 255.099 105.36 255.028 105.042 254.886C104.727 254.743 104.465 254.526 104.257 254.234C104.051 253.943 103.948 253.575 103.948 253.131V245.534ZM111.637 255.159C110.901 255.159 110.266 254.997 109.733 254.672C109.202 254.344 108.793 253.886 108.505 253.3C108.22 252.71 108.077 252.024 108.077 251.241C108.077 250.459 108.22 249.77 108.505 249.173C108.793 248.573 109.194 248.106 109.708 247.771C110.225 247.433 110.828 247.264 111.518 247.264C111.915 247.264 112.308 247.33 112.696 247.463C113.084 247.596 113.437 247.811 113.755 248.109C114.073 248.404 114.327 248.795 114.515 249.283C114.704 249.77 114.799 250.37 114.799 251.082V251.58H108.912V250.565H113.606C113.606 250.134 113.519 249.75 113.347 249.412C113.178 249.074 112.936 248.807 112.621 248.612C112.31 248.416 111.942 248.318 111.518 248.318C111.05 248.318 110.646 248.434 110.305 248.666C109.966 248.895 109.706 249.193 109.524 249.561C109.342 249.929 109.251 250.323 109.251 250.744V251.42C109.251 251.997 109.35 252.486 109.549 252.887C109.751 253.285 110.031 253.588 110.389 253.797C110.747 254.002 111.163 254.105 111.637 254.105C111.945 254.105 112.224 254.062 112.472 253.976C112.724 253.886 112.941 253.754 113.123 253.578C113.306 253.399 113.447 253.177 113.546 252.912L114.68 253.23C114.56 253.615 114.36 253.953 114.078 254.244C113.796 254.533 113.448 254.758 113.034 254.92C112.62 255.08 112.154 255.159 111.637 255.159ZM116.584 255V247.364H117.717V248.517H117.797C117.936 248.139 118.188 247.833 118.552 247.597C118.917 247.362 119.328 247.244 119.785 247.244C119.872 247.244 119.979 247.246 120.108 247.249C120.238 247.253 120.336 247.258 120.402 247.264V248.457C120.362 248.447 120.271 248.433 120.128 248.413C119.989 248.389 119.842 248.378 119.686 248.378C119.315 248.378 118.983 248.456 118.692 248.612C118.403 248.764 118.175 248.976 118.006 249.248C117.84 249.516 117.757 249.823 117.757 250.168V255H116.584ZM122.966 250.406V255H121.793V247.364H122.926V248.557H123.026C123.205 248.169 123.476 247.857 123.841 247.622C124.205 247.384 124.676 247.264 125.253 247.264C125.77 247.264 126.222 247.37 126.61 247.582C126.998 247.791 127.299 248.109 127.515 248.537C127.73 248.961 127.838 249.498 127.838 250.148V255H126.665V250.227C126.665 249.627 126.509 249.16 126.197 248.825C125.886 248.487 125.458 248.318 124.915 248.318C124.54 248.318 124.205 248.399 123.911 248.562C123.619 248.724 123.388 248.961 123.219 249.273C123.05 249.584 122.966 249.962 122.966 250.406ZM135.391 249.074L134.337 249.372C134.271 249.196 134.173 249.026 134.044 248.86C133.918 248.691 133.746 248.552 133.527 248.442C133.308 248.333 133.028 248.278 132.687 248.278C132.219 248.278 131.83 248.386 131.518 248.602C131.21 248.814 131.056 249.084 131.056 249.412C131.056 249.704 131.162 249.934 131.374 250.103C131.586 250.272 131.918 250.413 132.368 250.526L133.502 250.804C134.185 250.97 134.693 251.223 135.028 251.565C135.363 251.903 135.53 252.339 135.53 252.872C135.53 253.31 135.404 253.701 135.153 254.045C134.904 254.39 134.556 254.662 134.108 254.861C133.661 255.06 133.141 255.159 132.547 255.159C131.769 255.159 131.124 254.99 130.613 254.652C130.103 254.314 129.78 253.82 129.644 253.17L130.758 252.892C130.864 253.303 131.064 253.611 131.359 253.817C131.657 254.022 132.047 254.125 132.528 254.125C133.074 254.125 133.509 254.009 133.83 253.777C134.155 253.542 134.317 253.26 134.317 252.932C134.317 252.667 134.224 252.445 134.039 252.266C133.853 252.083 133.568 251.947 133.184 251.858L131.911 251.56C131.212 251.394 130.698 251.137 130.37 250.789C130.045 250.438 129.883 249.999 129.883 249.472C129.883 249.041 130.004 248.66 130.246 248.328C130.491 247.997 130.824 247.737 131.245 247.548C131.669 247.359 132.15 247.264 132.687 247.264C133.442 247.264 134.036 247.43 134.466 247.761C134.901 248.093 135.209 248.53 135.391 249.074ZM138.47 250.406V255H137.297V244.818H138.47V248.557H138.569C138.748 248.162 139.017 247.849 139.375 247.617C139.736 247.382 140.217 247.264 140.816 247.264C141.337 247.264 141.792 247.369 142.184 247.577C142.575 247.783 142.878 248.099 143.093 248.527C143.312 248.951 143.422 249.491 143.422 250.148V255H142.248V250.227C142.248 249.621 142.091 249.152 141.776 248.82C141.464 248.486 141.032 248.318 140.478 248.318C140.094 248.318 139.749 248.399 139.444 248.562C139.143 248.724 138.904 248.961 138.728 249.273C138.556 249.584 138.47 249.962 138.47 250.406ZM145.568 255V247.364H146.741V255H145.568ZM146.165 246.091C145.936 246.091 145.739 246.013 145.573 245.857C145.411 245.701 145.329 245.514 145.329 245.295C145.329 245.077 145.411 244.889 145.573 244.734C145.739 244.578 145.936 244.5 146.165 244.5C146.393 244.5 146.589 244.578 146.751 244.734C146.917 244.889 147 245.077 147 245.295C147 245.514 146.917 245.701 146.751 245.857C146.589 246.013 146.393 246.091 146.165 246.091ZM148.89 257.864V247.364H150.024V248.577H150.163C150.249 248.444 150.368 248.275 150.521 248.07C150.677 247.861 150.899 247.675 151.187 247.513C151.479 247.347 151.873 247.264 152.37 247.264C153.013 247.264 153.58 247.425 154.071 247.746C154.561 248.068 154.944 248.524 155.219 249.114C155.494 249.704 155.632 250.4 155.632 251.202C155.632 252.01 155.494 252.711 155.219 253.305C154.944 253.895 154.563 254.352 154.076 254.677C153.588 254.998 153.027 255.159 152.39 255.159C151.9 255.159 151.507 255.078 151.212 254.915C150.917 254.75 150.69 254.562 150.531 254.354C150.372 254.142 150.249 253.966 150.163 253.827H150.064V257.864H148.89ZM150.044 251.182C150.044 251.759 150.128 252.267 150.297 252.708C150.466 253.146 150.713 253.489 151.038 253.737C151.363 253.982 151.761 254.105 152.231 254.105C152.722 254.105 153.131 253.976 153.459 253.717C153.791 253.455 154.039 253.104 154.205 252.663C154.374 252.219 154.458 251.725 154.458 251.182C154.458 250.645 154.376 250.161 154.21 249.73C154.047 249.296 153.801 248.953 153.469 248.701C153.141 248.446 152.728 248.318 152.231 248.318C151.754 248.318 151.353 248.439 151.028 248.681C150.703 248.92 150.458 249.254 150.292 249.685C150.127 250.113 150.044 250.612 150.044 251.182ZM170.109 249.909C170.109 250.983 169.915 251.911 169.527 252.693C169.14 253.475 168.608 254.079 167.931 254.503C167.255 254.927 166.483 255.139 165.615 255.139C164.746 255.139 163.974 254.927 163.298 254.503C162.622 254.079 162.09 253.475 161.702 252.693C161.314 251.911 161.12 250.983 161.12 249.909C161.12 248.835 161.314 247.907 161.702 247.125C162.09 246.343 162.622 245.74 163.298 245.315C163.974 244.891 164.746 244.679 165.615 244.679C166.483 244.679 167.255 244.891 167.931 245.315C168.608 245.74 169.14 246.343 169.527 247.125C169.915 247.907 170.109 248.835 170.109 249.909ZM168.916 249.909C168.916 249.027 168.768 248.283 168.473 247.677C168.182 247.07 167.786 246.611 167.285 246.3C166.788 245.988 166.231 245.832 165.615 245.832C164.998 245.832 164.44 245.988 163.939 246.3C163.442 246.611 163.046 247.07 162.751 247.677C162.459 248.283 162.314 249.027 162.314 249.909C162.314 250.791 162.459 251.535 162.751 252.141C163.046 252.748 163.442 253.207 163.939 253.518C164.44 253.83 164.998 253.986 165.615 253.986C166.231 253.986 166.788 253.83 167.285 253.518C167.786 253.207 168.182 252.748 168.473 252.141C168.768 251.535 168.916 250.791 168.916 249.909ZM175.424 247.364V248.358H171.307V247.364H175.424ZM172.54 255V246.31C172.54 245.872 172.643 245.508 172.848 245.216C173.054 244.924 173.321 244.705 173.649 244.56C173.977 244.414 174.323 244.341 174.688 244.341C174.976 244.341 175.212 244.364 175.394 244.411C175.576 244.457 175.712 244.5 175.801 244.54L175.463 245.554C175.404 245.534 175.321 245.509 175.215 245.479C175.112 245.45 174.976 245.435 174.807 245.435C174.419 245.435 174.139 245.532 173.967 245.728C173.798 245.924 173.713 246.21 173.713 246.588V255H172.54ZM180.469 247.364V248.358H176.352V247.364H180.469ZM177.585 255V246.31C177.585 245.872 177.688 245.508 177.893 245.216C178.099 244.924 178.366 244.705 178.694 244.56C179.022 244.414 179.368 244.341 179.733 244.341C180.021 244.341 180.256 244.364 180.439 244.411C180.621 244.457 180.757 244.5 180.846 244.54L180.508 245.554C180.449 245.534 180.366 245.509 180.26 245.479C180.157 245.45 180.021 245.435 179.852 245.435C179.464 245.435 179.184 245.532 179.012 245.728C178.843 245.924 178.758 246.21 178.758 246.588V255H177.585ZM185 255.159C184.264 255.159 183.63 254.997 183.096 254.672C182.566 254.344 182.156 253.886 181.868 253.3C181.583 252.71 181.441 252.024 181.441 251.241C181.441 250.459 181.583 249.77 181.868 249.173C182.156 248.573 182.557 248.106 183.071 247.771C183.588 247.433 184.191 247.264 184.881 247.264C185.279 247.264 185.671 247.33 186.059 247.463C186.447 247.596 186.8 247.811 187.118 248.109C187.436 248.404 187.69 248.795 187.879 249.283C188.068 249.77 188.162 250.37 188.162 251.082V251.58H182.276V250.565H186.969C186.969 250.134 186.883 249.75 186.71 249.412C186.541 249.074 186.299 248.807 185.985 248.612C185.673 248.416 185.305 248.318 184.881 248.318C184.414 248.318 184.009 248.434 183.668 248.666C183.33 248.895 183.07 249.193 182.887 249.561C182.705 249.929 182.614 250.323 182.614 250.744V251.42C182.614 251.997 182.713 252.486 182.912 252.887C183.114 253.285 183.394 253.588 183.752 253.797C184.11 254.002 184.526 254.105 185 254.105C185.308 254.105 185.587 254.062 185.835 253.976C186.087 253.886 186.304 253.754 186.487 253.578C186.669 253.399 186.81 253.177 186.909 252.912L188.043 253.23C187.923 253.615 187.723 253.953 187.441 254.244C187.16 254.533 186.811 254.758 186.397 254.92C185.983 255.08 185.517 255.159 185 255.159ZM189.947 255V247.364H191.08V248.517H191.16C191.299 248.139 191.551 247.833 191.916 247.597C192.28 247.362 192.691 247.244 193.149 247.244C193.235 247.244 193.343 247.246 193.472 247.249C193.601 247.253 193.699 247.258 193.765 247.264V248.457C193.725 248.447 193.634 248.433 193.492 248.413C193.352 248.389 193.205 248.378 193.049 248.378C192.678 248.378 192.347 248.456 192.055 248.612C191.767 248.764 191.538 248.976 191.369 249.248C191.203 249.516 191.12 249.823 191.12 250.168V255H189.947ZM200.565 249.074L199.511 249.372C199.445 249.196 199.347 249.026 199.218 248.86C199.092 248.691 198.919 248.552 198.701 248.442C198.482 248.333 198.202 248.278 197.86 248.278C197.393 248.278 197.004 248.386 196.692 248.602C196.384 248.814 196.23 249.084 196.23 249.412C196.23 249.704 196.336 249.934 196.548 250.103C196.76 250.272 197.092 250.413 197.542 250.526L198.676 250.804C199.359 250.97 199.867 251.223 200.202 251.565C200.537 251.903 200.704 252.339 200.704 252.872C200.704 253.31 200.578 253.701 200.326 254.045C200.078 254.39 199.73 254.662 199.282 254.861C198.835 255.06 198.315 255.159 197.721 255.159C196.942 255.159 196.298 254.99 195.787 254.652C195.277 254.314 194.954 253.82 194.818 253.17L195.931 252.892C196.038 253.303 196.238 253.611 196.533 253.817C196.831 254.022 197.221 254.125 197.701 254.125C198.248 254.125 198.682 254.009 199.004 253.777C199.329 253.542 199.491 253.26 199.491 252.932C199.491 252.667 199.398 252.445 199.213 252.266C199.027 252.083 198.742 251.947 198.358 251.858L197.085 251.56C196.386 251.394 195.872 251.137 195.544 250.789C195.219 250.438 195.056 249.999 195.056 249.472C195.056 249.041 195.177 248.66 195.419 248.328C195.665 247.997 195.998 247.737 196.419 247.548C196.843 247.359 197.324 247.264 197.86 247.264C198.616 247.264 199.209 247.43 199.64 247.761C200.074 248.093 200.383 248.53 200.565 249.074ZM203.325 255.08C203.08 255.08 202.87 254.992 202.694 254.816C202.518 254.64 202.431 254.43 202.431 254.185C202.431 253.939 202.518 253.729 202.694 253.553C202.87 253.378 203.08 253.29 203.325 253.29C203.571 253.29 203.781 253.378 203.957 253.553C204.133 253.729 204.22 253.939 204.22 254.185C204.22 254.347 204.179 254.496 204.096 254.632C204.017 254.768 203.909 254.877 203.773 254.96C203.64 255.04 203.491 255.08 203.325 255.08ZM203.325 249.412C203.08 249.412 202.87 249.324 202.694 249.148C202.518 248.973 202.431 248.762 202.431 248.517C202.431 248.272 202.518 248.061 202.694 247.886C202.87 247.71 203.08 247.622 203.325 247.622C203.571 247.622 203.781 247.71 203.957 247.886C204.133 248.061 204.22 248.272 204.22 248.517C204.22 248.679 204.179 248.829 204.096 248.964C204.017 249.1 203.909 249.21 203.773 249.293C203.64 249.372 203.491 249.412 203.325 249.412ZM213.425 255.139C212.842 255.139 212.317 255.023 211.849 254.791C211.382 254.559 211.007 254.241 210.726 253.837C210.444 253.432 210.29 252.972 210.263 252.455H211.456C211.503 252.915 211.712 253.296 212.083 253.598C212.457 253.896 212.905 254.045 213.425 254.045C213.843 254.045 214.214 253.948 214.539 253.752C214.867 253.557 215.124 253.288 215.309 252.947C215.498 252.602 215.593 252.213 215.593 251.778C215.593 251.334 215.495 250.938 215.3 250.59C215.107 250.239 214.842 249.962 214.504 249.76C214.166 249.558 213.78 249.455 213.346 249.452C213.034 249.448 212.714 249.496 212.386 249.596C212.058 249.692 211.788 249.816 211.576 249.969L210.422 249.83L211.039 244.818H216.329V245.912H212.073L211.715 248.915H211.775C211.983 248.749 212.245 248.612 212.56 248.502C212.875 248.393 213.203 248.338 213.545 248.338C214.168 248.338 214.723 248.487 215.21 248.786C215.701 249.08 216.085 249.485 216.363 249.999C216.645 250.512 216.786 251.099 216.786 251.759C216.786 252.408 216.64 252.988 216.349 253.499C216.06 254.006 215.662 254.407 215.155 254.702C214.648 254.993 214.072 255.139 213.425 255.139ZM222.142 255.139C221.724 255.133 221.306 255.053 220.889 254.901C220.471 254.748 220.09 254.491 219.745 254.13C219.401 253.765 219.124 253.273 218.915 252.653C218.706 252.03 218.602 251.248 218.602 250.307C218.602 249.405 218.686 248.607 218.855 247.911C219.025 247.211 219.27 246.623 219.591 246.146C219.913 245.665 220.301 245.3 220.755 245.052C221.212 244.803 221.727 244.679 222.301 244.679C222.871 244.679 223.378 244.793 223.822 245.022C224.27 245.247 224.634 245.562 224.916 245.967C225.198 246.371 225.38 246.837 225.463 247.364H224.25C224.137 246.906 223.918 246.527 223.593 246.225C223.269 245.924 222.838 245.773 222.301 245.773C221.512 245.773 220.891 246.116 220.436 246.802C219.986 247.488 219.759 248.451 219.755 249.69H219.835C220.02 249.409 220.241 249.168 220.496 248.969C220.755 248.767 221.04 248.612 221.351 248.502C221.663 248.393 221.993 248.338 222.341 248.338C222.924 248.338 223.458 248.484 223.941 248.776C224.425 249.064 224.813 249.463 225.105 249.974C225.396 250.481 225.542 251.062 225.542 251.719C225.542 252.348 225.401 252.925 225.12 253.449C224.838 253.969 224.442 254.384 223.931 254.692C223.424 254.997 222.828 255.146 222.142 255.139ZM222.142 254.045C222.559 254.045 222.934 253.941 223.265 253.732C223.6 253.523 223.864 253.243 224.056 252.892C224.251 252.541 224.349 252.15 224.349 251.719C224.349 251.298 224.255 250.915 224.066 250.57C223.88 250.222 223.623 249.946 223.295 249.74C222.97 249.535 222.599 249.432 222.181 249.432C221.867 249.432 221.573 249.495 221.301 249.621C221.03 249.743 220.791 249.912 220.586 250.128C220.383 250.343 220.224 250.59 220.108 250.869C219.992 251.144 219.934 251.434 219.934 251.739C219.934 252.143 220.029 252.521 220.218 252.872C220.41 253.223 220.672 253.507 221.003 253.722C221.338 253.938 221.717 254.045 222.142 254.045Z" fill="black"/>
<path d="M35 258.625C29.6939 258.625 25.375 254.307 25.375 249C25.375 243.693 29.6939 239.375 35 239.375C40.3061 239.375 44.625 243.693 44.625 249C44.625 254.307 40.3061 258.625 35 258.625ZM35 240.75C30.4501 240.75 26.75 244.45 26.75 249C26.75 253.55 30.4501 257.25 35 257.25C39.5499 257.25 43.25 253.55 43.25 249C43.25 244.45 39.5499 240.75 35 240.75Z" fill="#1461FF"/>
<path d="M35 251.98C36.6456 251.98 37.9796 250.646 37.9796 249C37.9796 247.354 36.6456 246.02 35 246.02C33.3544 246.02 32.0204 247.354 32.0204 249C32.0204 250.646 33.3544 251.98 35 251.98Z" fill="#D320C1"/>
<path d="M54.6761 211.912V210.818H62.3125V211.912H59.1108V221H57.8778V211.912H54.6761ZM66.0511 221.159C65.3617 221.159 64.7569 220.995 64.2365 220.667C63.7195 220.339 63.3151 219.88 63.0234 219.29C62.7351 218.7 62.5909 218.01 62.5909 217.222C62.5909 216.426 62.7351 215.732 63.0234 215.138C63.3151 214.545 63.7195 214.085 64.2365 213.756C64.7569 213.428 65.3617 213.264 66.0511 213.264C66.7405 213.264 67.3438 213.428 67.8608 213.756C68.3812 214.085 68.7855 214.545 69.0739 215.138C69.3655 215.732 69.5114 216.426 69.5114 217.222C69.5114 218.01 69.3655 218.7 69.0739 219.29C68.7855 219.88 68.3812 220.339 67.8608 220.667C67.3438 220.995 66.7405 221.159 66.0511 221.159ZM66.0511 220.105C66.5748 220.105 67.0057 219.971 67.3438 219.702C67.6818 219.434 67.9321 219.081 68.0945 218.643C68.2569 218.206 68.3381 217.732 68.3381 217.222C68.3381 216.711 68.2569 216.236 68.0945 215.795C67.9321 215.354 67.6818 214.998 67.3438 214.726C67.0057 214.454 66.5748 214.318 66.0511 214.318C65.5275 214.318 65.0966 214.454 64.7585 214.726C64.4205 214.998 64.1702 215.354 64.0078 215.795C63.8454 216.236 63.7642 216.711 63.7642 217.222C63.7642 217.732 63.8454 218.206 64.0078 218.643C64.1702 219.081 64.4205 219.434 64.7585 219.702C65.0966 219.971 65.5275 220.105 66.0511 220.105ZM74.6234 213.364V214.358H70.666V213.364H74.6234ZM71.8194 211.534H72.9927V218.812C72.9927 219.144 73.0408 219.393 73.1369 219.558C73.2363 219.721 73.3623 219.83 73.5147 219.886C73.6705 219.939 73.8346 219.966 74.0069 219.966C74.1362 219.966 74.2422 219.959 74.3251 219.946C74.408 219.929 74.4743 219.916 74.524 219.906L74.7626 220.96C74.6831 220.99 74.572 221.02 74.4295 221.05C74.287 221.083 74.1064 221.099 73.8876 221.099C73.5562 221.099 73.2314 221.028 72.9132 220.886C72.5983 220.743 72.3365 220.526 72.1277 220.234C71.9222 219.943 71.8194 219.575 71.8194 219.131V211.534ZM78.6355 221.179C78.1516 221.179 77.7124 221.088 77.318 220.906C76.9236 220.72 76.6104 220.453 76.3784 220.105C76.1464 219.754 76.0304 219.33 76.0304 218.832C76.0304 218.395 76.1165 218.04 76.2889 217.768C76.4612 217.493 76.6916 217.278 76.9799 217.122C77.2683 216.966 77.5865 216.85 77.9345 216.774C78.2858 216.695 78.6388 216.632 78.9934 216.585C79.4574 216.526 79.8336 216.481 80.122 216.451C80.4136 216.418 80.6258 216.363 80.7583 216.287C80.8942 216.211 80.9622 216.078 80.9622 215.889V215.849C80.9622 215.359 80.8279 214.978 80.5595 214.706C80.2943 214.434 79.8916 214.298 79.3514 214.298C78.7913 214.298 78.3521 214.421 78.0339 214.666C77.7157 214.911 77.492 215.173 77.3627 215.452L76.2491 215.054C76.448 214.59 76.7131 214.229 77.0446 213.97C77.3793 213.708 77.7439 213.526 78.1383 213.423C78.536 213.317 78.9271 213.264 79.3116 213.264C79.5569 213.264 79.8386 213.294 80.1568 213.354C80.4783 213.41 80.7882 213.528 81.0865 213.707C81.3881 213.886 81.6383 214.156 81.8372 214.517C82.036 214.878 82.1355 215.362 82.1355 215.969V221H80.9622V219.966H80.9025C80.823 220.132 80.6904 220.309 80.5048 220.498C80.3192 220.687 80.0723 220.848 79.764 220.98C79.4558 221.113 79.0796 221.179 78.6355 221.179ZM78.8145 220.125C79.2785 220.125 79.6696 220.034 79.9877 219.852C80.3092 219.669 80.5512 219.434 80.7136 219.146C80.8793 218.857 80.9622 218.554 80.9622 218.236V217.162C80.9125 217.222 80.8031 217.276 80.6341 217.326C80.4683 217.372 80.2761 217.414 80.0574 217.45C79.8419 217.483 79.6315 217.513 79.426 217.54C79.2238 217.563 79.0597 217.583 78.9338 217.599C78.6288 217.639 78.3438 217.704 78.0787 217.793C77.8168 217.879 77.6047 218.01 77.4423 218.186C77.2832 218.358 77.2037 218.594 77.2037 218.892C77.2037 219.3 77.3545 219.608 77.6561 219.817C77.961 220.022 78.3471 220.125 78.8145 220.125ZM85.4503 210.818V221H84.277V210.818H85.4503ZM91.6958 221V210.818H97.801V211.912H92.9288V215.352H97.3436V216.446H92.9288V221H91.6958ZM99.3558 211.912V210.818H106.992V211.912H103.79V221H102.558V211.912H99.3558ZM108.895 221V210.818H115.04V211.912H110.128V215.352H114.722V216.446H110.128V219.906H115.119V221H108.895ZM129.791 215.909C129.791 216.983 129.597 217.911 129.209 218.693C128.821 219.475 128.289 220.079 127.613 220.503C126.937 220.927 126.165 221.139 125.296 221.139C124.428 221.139 123.656 220.927 122.98 220.503C122.303 220.079 121.771 219.475 121.384 218.693C120.996 217.911 120.802 216.983 120.802 215.909C120.802 214.835 120.996 213.907 121.384 213.125C121.771 212.343 122.303 211.74 122.98 211.315C123.656 210.891 124.428 210.679 125.296 210.679C126.165 210.679 126.937 210.891 127.613 211.315C128.289 211.74 128.821 212.343 129.209 213.125C129.597 213.907 129.791 214.835 129.791 215.909ZM128.597 215.909C128.597 215.027 128.45 214.283 128.155 213.677C127.863 213.07 127.467 212.611 126.967 212.3C126.47 211.988 125.913 211.832 125.296 211.832C124.68 211.832 124.121 211.988 123.621 212.3C123.124 212.611 122.728 213.07 122.433 213.677C122.141 214.283 121.995 215.027 121.995 215.909C121.995 216.791 122.141 217.535 122.433 218.141C122.728 218.748 123.124 219.207 123.621 219.518C124.121 219.83 124.68 219.986 125.296 219.986C125.913 219.986 126.47 219.83 126.967 219.518C127.467 219.207 127.863 218.748 128.155 218.141C128.45 217.535 128.597 216.791 128.597 215.909ZM135.105 213.364V214.358H130.989V213.364H135.105ZM132.222 221V212.31C132.222 211.872 132.325 211.508 132.53 211.216C132.735 210.924 133.002 210.705 133.33 210.56C133.659 210.414 134.005 210.341 134.369 210.341C134.658 210.341 134.893 210.364 135.075 210.411C135.258 210.457 135.394 210.5 135.483 210.54L135.145 211.554C135.085 211.534 135.003 211.509 134.896 211.479C134.794 211.45 134.658 211.435 134.489 211.435C134.101 211.435 133.821 211.532 133.649 211.728C133.48 211.924 133.395 212.21 133.395 212.588V221H132.222ZM140.15 213.364V214.358H136.034V213.364H140.15ZM137.267 221V212.31C137.267 211.872 137.369 211.508 137.575 211.216C137.78 210.924 138.047 210.705 138.375 210.56C138.703 210.414 139.05 210.341 139.414 210.341C139.703 210.341 139.938 210.364 140.12 210.411C140.303 210.457 140.439 210.5 140.528 210.54L140.19 211.554C140.13 211.534 140.047 211.509 139.941 211.479C139.839 211.45 139.703 211.435 139.534 211.435C139.146 211.435 138.866 211.532 138.694 211.728C138.525 211.924 138.44 212.21 138.44 212.588V221H137.267ZM144.682 221.159C143.946 221.159 143.311 220.997 142.778 220.672C142.247 220.344 141.838 219.886 141.55 219.3C141.265 218.71 141.122 218.024 141.122 217.241C141.122 216.459 141.265 215.77 141.55 215.173C141.838 214.573 142.239 214.106 142.753 213.771C143.27 213.433 143.873 213.264 144.562 213.264C144.96 213.264 145.353 213.33 145.741 213.463C146.129 213.596 146.482 213.811 146.8 214.109C147.118 214.404 147.371 214.795 147.56 215.283C147.749 215.77 147.844 216.37 147.844 217.082V217.58H141.957V216.565H146.651C146.651 216.134 146.564 215.75 146.392 215.412C146.223 215.074 145.981 214.807 145.666 214.612C145.355 214.416 144.987 214.318 144.562 214.318C144.095 214.318 143.691 214.434 143.349 214.666C143.011 214.895 142.751 215.193 142.569 215.561C142.387 215.929 142.295 216.323 142.295 216.744V217.42C142.295 217.997 142.395 218.486 142.594 218.887C142.796 219.285 143.076 219.588 143.434 219.797C143.792 220.002 144.208 220.105 144.682 220.105C144.99 220.105 145.268 220.062 145.517 219.976C145.769 219.886 145.986 219.754 146.168 219.578C146.351 219.399 146.491 219.177 146.591 218.912L147.724 219.23C147.605 219.615 147.405 219.953 147.123 220.244C146.841 220.533 146.493 220.758 146.079 220.92C145.665 221.08 145.199 221.159 144.682 221.159ZM149.629 221V213.364H150.762V214.517H150.842C150.981 214.139 151.233 213.833 151.597 213.597C151.962 213.362 152.373 213.244 152.83 213.244C152.916 213.244 153.024 213.246 153.153 213.249C153.283 213.253 153.38 213.258 153.447 213.264V214.457C153.407 214.447 153.316 214.433 153.173 214.413C153.034 214.389 152.887 214.378 152.731 214.378C152.36 214.378 152.028 214.456 151.737 214.612C151.448 214.764 151.219 214.976 151.05 215.248C150.885 215.516 150.802 215.823 150.802 216.168V221H149.629ZM160.247 215.074L159.193 215.372C159.126 215.196 159.029 215.026 158.899 214.86C158.773 214.691 158.601 214.552 158.382 214.442C158.164 214.333 157.883 214.278 157.542 214.278C157.075 214.278 156.685 214.386 156.374 214.602C156.066 214.814 155.911 215.084 155.911 215.412C155.911 215.704 156.017 215.934 156.23 216.103C156.442 216.272 156.773 216.413 157.224 216.526L158.357 216.804C159.04 216.97 159.549 217.223 159.884 217.565C160.218 217.903 160.386 218.339 160.386 218.872C160.386 219.31 160.26 219.701 160.008 220.045C159.759 220.39 159.411 220.662 158.964 220.861C158.517 221.06 157.996 221.159 157.403 221.159C156.624 221.159 155.979 220.99 155.469 220.652C154.959 220.314 154.635 219.82 154.499 219.17L155.613 218.892C155.719 219.303 155.92 219.611 156.215 219.817C156.513 220.022 156.902 220.125 157.383 220.125C157.93 220.125 158.364 220.009 158.686 219.777C159.01 219.542 159.173 219.26 159.173 218.932C159.173 218.667 159.08 218.445 158.894 218.266C158.709 218.083 158.424 217.947 158.039 217.858L156.767 217.56C156.067 217.394 155.553 217.137 155.225 216.789C154.901 216.438 154.738 215.999 154.738 215.472C154.738 215.041 154.859 214.66 155.101 214.328C155.346 213.997 155.679 213.737 156.1 213.548C156.525 213.359 157.005 213.264 157.542 213.264C158.298 213.264 158.891 213.43 159.322 213.761C159.756 214.093 160.064 214.53 160.247 215.074ZM163.007 221.08C162.762 221.08 162.551 220.992 162.376 220.816C162.2 220.64 162.112 220.43 162.112 220.185C162.112 219.939 162.2 219.729 162.376 219.553C162.551 219.378 162.762 219.29 163.007 219.29C163.252 219.29 163.463 219.378 163.638 219.553C163.814 219.729 163.902 219.939 163.902 220.185C163.902 220.347 163.861 220.496 163.778 220.632C163.698 220.768 163.59 220.877 163.455 220.96C163.322 221.04 163.173 221.08 163.007 221.08ZM163.007 215.412C162.762 215.412 162.551 215.324 162.376 215.148C162.2 214.973 162.112 214.762 162.112 214.517C162.112 214.272 162.2 214.061 162.376 213.886C162.551 213.71 162.762 213.622 163.007 213.622C163.252 213.622 163.463 213.71 163.638 213.886C163.814 214.061 163.902 214.272 163.902 214.517C163.902 214.679 163.861 214.829 163.778 214.964C163.698 215.1 163.59 215.21 163.455 215.293C163.322 215.372 163.173 215.412 163.007 215.412ZM173.505 210.818V221H172.272V212.111H172.212L169.726 213.761V212.509L172.272 210.818H173.505ZM176.751 221L181.305 211.991V211.912H176.055V210.818H182.578V211.972L178.044 221H176.751ZM187.536 210.679C187.953 210.682 188.371 210.762 188.789 210.918C189.206 211.073 189.587 211.332 189.932 211.693C190.277 212.051 190.553 212.54 190.762 213.16C190.971 213.78 191.075 214.557 191.075 215.491C191.075 216.396 190.989 217.2 190.817 217.903C190.648 218.602 190.403 219.192 190.081 219.673C189.763 220.153 189.375 220.518 188.918 220.766C188.464 221.015 187.95 221.139 187.377 221.139C186.807 221.139 186.298 221.027 185.85 220.801C185.406 220.572 185.042 220.256 184.757 219.852C184.475 219.444 184.294 218.972 184.215 218.435H185.428C185.537 218.902 185.754 219.288 186.079 219.593C186.407 219.895 186.84 220.045 187.377 220.045C188.162 220.045 188.782 219.702 189.236 219.016C189.693 218.33 189.922 217.361 189.922 216.108H189.843C189.657 216.386 189.436 216.627 189.181 216.829C188.926 217.031 188.643 217.187 188.331 217.296C188.02 217.406 187.688 217.46 187.337 217.46C186.753 217.46 186.218 217.316 185.731 217.028C185.247 216.736 184.859 216.337 184.568 215.83C184.279 215.319 184.135 214.736 184.135 214.08C184.135 213.456 184.274 212.886 184.553 212.369C184.834 211.849 185.229 211.435 185.736 211.126C186.246 210.818 186.846 210.669 187.536 210.679ZM187.536 211.773C187.118 211.773 186.742 211.877 186.407 212.086C186.076 212.291 185.812 212.57 185.617 212.921C185.424 213.269 185.328 213.655 185.328 214.08C185.328 214.504 185.421 214.89 185.607 215.238C185.796 215.583 186.052 215.858 186.377 216.063C186.705 216.265 187.078 216.366 187.496 216.366C187.811 216.366 188.104 216.305 188.376 216.183C188.648 216.057 188.885 215.886 189.087 215.67C189.292 215.452 189.453 215.205 189.569 214.93C189.685 214.651 189.743 214.361 189.743 214.06C189.743 213.662 189.647 213.289 189.455 212.941C189.266 212.593 189.004 212.311 188.669 212.096C188.338 211.88 187.96 211.773 187.536 211.773Z" fill="black"/>
<path d="M35 224.625C29.6939 224.625 25.375 220.307 25.375 215C25.375 209.693 29.6939 205.375 35 205.375C40.3061 205.375 44.625 209.693 44.625 215C44.625 220.307 40.3061 224.625 35 224.625ZM35 206.75C30.4501 206.75 26.75 210.45 26.75 215C26.75 219.55 30.4501 223.25 35 223.25C39.5499 223.25 43.25 219.55 43.25 215C43.25 210.45 39.5499 206.75 35 206.75Z" fill="#1461FF"/>
<path d="M35 217.98C36.6456 217.98 37.9796 216.646 37.9796 215C37.9796 213.354 36.6456 212.02 35 212.02C33.3544 212.02 32.0204 213.354 32.0204 215C32.0204 216.646 33.3544 217.98 35 217.98Z" fill="#D320C1"/>
<g filter="url(#filter0_i_295_341)">
<circle cx="125.872" cy="119.396" r="69.6233" fill="#E9EFF6"/>
</g>
<g filter="url(#filter1_d_295_341)">
<circle cx="126.517" cy="118.751" r="59.3087" fill="white"/>
</g>
<path d="M117.578 120.473V123H106.392V120.844L111.682 115.172C112.214 114.581 112.633 114.061 112.94 113.611C113.247 113.155 113.468 112.747 113.602 112.387C113.745 112.02 113.816 111.672 113.816 111.343C113.816 110.849 113.733 110.426 113.569 110.074C113.404 109.714 113.161 109.437 112.839 109.243C112.524 109.048 112.135 108.951 111.671 108.951C111.177 108.951 110.75 109.07 110.391 109.31C110.039 109.55 109.769 109.883 109.582 110.31C109.402 110.736 109.312 111.219 109.312 111.758H106.067C106.067 110.785 106.299 109.894 106.763 109.085C107.227 108.269 107.882 107.622 108.728 107.143C109.574 106.656 110.578 106.413 111.738 106.413C112.884 106.413 113.85 106.6 114.636 106.974C115.429 107.341 116.028 107.873 116.433 108.569C116.844 109.258 117.05 110.081 117.05 111.04C117.05 111.579 116.964 112.106 116.792 112.623C116.62 113.132 116.373 113.641 116.051 114.15C115.736 114.652 115.354 115.161 114.905 115.678C114.456 116.194 113.958 116.73 113.412 117.284L110.57 120.473H117.578ZM131.975 116.891V119.429H120.194L120.037 117.463L126.854 106.648H129.425L126.64 111.309L123.249 116.891H131.975ZM130.122 106.648V123H126.887V106.648H130.122ZM145.652 113.387V116.217C145.652 117.445 145.521 118.504 145.259 119.395C144.997 120.278 144.619 121.005 144.125 121.574C143.638 122.135 143.058 122.551 142.384 122.82C141.711 123.09 140.962 123.225 140.138 123.225C139.479 123.225 138.865 123.142 138.296 122.978C137.727 122.805 137.215 122.54 136.758 122.18C136.309 121.821 135.919 121.368 135.59 120.821C135.268 120.267 135.021 119.608 134.849 118.845C134.677 118.081 134.59 117.205 134.59 116.217V113.387C134.59 112.159 134.721 111.107 134.983 110.231C135.253 109.347 135.631 108.625 136.118 108.063C136.612 107.502 137.196 107.09 137.87 106.828C138.544 106.559 139.292 106.424 140.116 106.424C140.775 106.424 141.385 106.51 141.946 106.682C142.515 106.847 143.028 107.105 143.485 107.457C143.942 107.809 144.331 108.262 144.653 108.816C144.975 109.362 145.222 110.018 145.394 110.781C145.566 111.537 145.652 112.406 145.652 113.387ZM142.407 116.644V112.949C142.407 112.357 142.373 111.841 142.306 111.399C142.246 110.957 142.152 110.583 142.025 110.276C141.898 109.961 141.74 109.707 141.553 109.512C141.366 109.318 141.153 109.175 140.913 109.085C140.674 108.996 140.408 108.951 140.116 108.951C139.749 108.951 139.423 109.022 139.139 109.164C138.862 109.306 138.626 109.535 138.431 109.849C138.237 110.156 138.087 110.568 137.982 111.084C137.885 111.594 137.836 112.215 137.836 112.949V116.644C137.836 117.235 137.866 117.755 137.926 118.205C137.993 118.654 138.091 119.039 138.218 119.361C138.353 119.676 138.51 119.934 138.69 120.136C138.877 120.331 139.09 120.473 139.33 120.563C139.577 120.653 139.846 120.698 140.138 120.698C140.498 120.698 140.816 120.627 141.093 120.484C141.377 120.335 141.617 120.103 141.812 119.788C142.014 119.466 142.163 119.047 142.261 118.53C142.358 118.014 142.407 117.385 142.407 116.644Z" fill="#1C1E2F"/>
<path d="M103.851 131.141V138.25H102.391V131.141H103.851ZM106.038 131.141V132.288H100.237V131.141H106.038ZM105.711 135.662V135.56C105.711 135.172 105.766 134.816 105.877 134.49C105.988 134.161 106.149 133.877 106.36 133.636C106.572 133.395 106.832 133.208 107.142 133.074C107.451 132.938 107.806 132.869 108.206 132.869C108.606 132.869 108.963 132.938 109.275 133.074C109.588 133.208 109.85 133.395 110.062 133.636C110.276 133.877 110.439 134.161 110.55 134.49C110.661 134.816 110.716 135.172 110.716 135.56V135.662C110.716 136.046 110.661 136.403 110.55 136.731C110.439 137.057 110.276 137.342 110.062 137.586C109.85 137.827 109.59 138.014 109.28 138.147C108.971 138.281 108.616 138.348 108.216 138.348C107.815 138.348 107.459 138.281 107.147 138.147C106.837 138.014 106.575 137.827 106.36 137.586C106.149 137.342 105.988 137.057 105.877 136.731C105.766 136.403 105.711 136.046 105.711 135.662ZM107.117 135.56V135.662C107.117 135.883 107.137 136.09 107.176 136.282C107.215 136.474 107.277 136.644 107.361 136.79C107.449 136.933 107.563 137.046 107.703 137.127C107.843 137.208 108.014 137.249 108.216 137.249C108.411 137.249 108.579 137.208 108.719 137.127C108.859 137.046 108.971 136.933 109.056 136.79C109.14 136.644 109.202 136.474 109.241 136.282C109.284 136.09 109.305 135.883 109.305 135.662V135.56C109.305 135.345 109.284 135.143 109.241 134.954C109.202 134.762 109.139 134.593 109.051 134.446C108.966 134.297 108.854 134.179 108.714 134.095C108.574 134.01 108.405 133.968 108.206 133.968C108.008 133.968 107.838 134.01 107.698 134.095C107.562 134.179 107.449 134.297 107.361 134.446C107.277 134.593 107.215 134.762 107.176 134.954C107.137 135.143 107.117 135.345 107.117 135.56ZM114.168 132.967V133.963H111.092V132.967H114.168ZM111.854 131.663H113.26V136.658C113.26 136.811 113.279 136.928 113.318 137.01C113.361 137.091 113.423 137.148 113.504 137.181C113.585 137.21 113.688 137.225 113.812 137.225C113.899 137.225 113.978 137.221 114.046 137.215C114.118 137.205 114.178 137.195 114.227 137.186L114.231 138.221C114.111 138.26 113.981 138.291 113.841 138.313C113.701 138.336 113.546 138.348 113.377 138.348C113.068 138.348 112.798 138.297 112.566 138.196C112.339 138.092 112.163 137.926 112.039 137.698C111.915 137.47 111.854 137.171 111.854 136.8V131.663ZM117.82 137.059V134.705C117.82 134.536 117.793 134.391 117.737 134.271C117.682 134.147 117.596 134.051 117.479 133.982C117.365 133.914 117.217 133.88 117.034 133.88C116.878 133.88 116.743 133.908 116.629 133.963C116.515 134.015 116.427 134.091 116.365 134.192C116.303 134.29 116.273 134.406 116.273 134.539H114.866C114.866 134.314 114.918 134.101 115.023 133.899C115.127 133.698 115.278 133.52 115.477 133.367C115.675 133.211 115.911 133.089 116.185 133.001C116.461 132.913 116.771 132.869 117.112 132.869C117.523 132.869 117.887 132.938 118.206 133.074C118.525 133.211 118.776 133.416 118.958 133.689C119.144 133.963 119.236 134.305 119.236 134.715V136.976C119.236 137.265 119.254 137.503 119.29 137.688C119.326 137.871 119.378 138.03 119.446 138.167V138.25H118.025C117.957 138.107 117.905 137.928 117.869 137.713C117.837 137.495 117.82 137.277 117.82 137.059ZM118.006 135.032L118.016 135.828H117.23C117.044 135.828 116.883 135.849 116.746 135.892C116.609 135.934 116.497 135.994 116.409 136.072C116.321 136.147 116.256 136.235 116.214 136.336C116.175 136.437 116.155 136.548 116.155 136.668C116.155 136.788 116.183 136.897 116.238 136.995C116.294 137.09 116.373 137.164 116.478 137.22C116.582 137.272 116.704 137.298 116.844 137.298C117.055 137.298 117.239 137.256 117.396 137.171C117.552 137.086 117.672 136.982 117.757 136.858C117.845 136.735 117.89 136.618 117.894 136.507L118.265 137.103C118.213 137.236 118.141 137.374 118.05 137.518C117.962 137.661 117.85 137.796 117.713 137.923C117.576 138.047 117.412 138.149 117.22 138.23C117.028 138.309 116.8 138.348 116.536 138.348C116.201 138.348 115.897 138.281 115.623 138.147C115.353 138.011 115.138 137.824 114.979 137.586C114.822 137.345 114.744 137.072 114.744 136.766C114.744 136.489 114.796 136.243 114.9 136.028C115.005 135.813 115.158 135.633 115.359 135.486C115.565 135.337 115.82 135.224 116.126 135.149C116.432 135.071 116.787 135.032 117.19 135.032H118.006ZM121.805 130.75V138.25H120.394V130.75H121.805ZM131.385 134.529V134.866C131.385 135.407 131.312 135.892 131.165 136.321C131.019 136.751 130.812 137.117 130.545 137.42C130.278 137.719 129.959 137.949 129.588 138.108C129.22 138.268 128.812 138.348 128.362 138.348C127.916 138.348 127.508 138.268 127.137 138.108C126.769 137.949 126.45 137.719 126.18 137.42C125.91 137.117 125.7 136.751 125.55 136.321C125.403 135.892 125.33 135.407 125.33 134.866V134.529C125.33 133.986 125.403 133.501 125.55 133.074C125.696 132.645 125.903 132.278 126.17 131.976C126.44 131.673 126.759 131.442 127.127 131.282C127.498 131.123 127.907 131.043 128.353 131.043C128.802 131.043 129.21 131.123 129.578 131.282C129.949 131.442 130.268 131.673 130.535 131.976C130.805 132.278 131.014 132.645 131.16 133.074C131.31 133.501 131.385 133.986 131.385 134.529ZM129.905 134.866V134.52C129.905 134.142 129.871 133.81 129.803 133.523C129.734 133.237 129.634 132.996 129.5 132.801C129.367 132.605 129.204 132.459 129.012 132.361C128.82 132.26 128.6 132.21 128.353 132.21C128.105 132.21 127.885 132.26 127.693 132.361C127.505 132.459 127.343 132.605 127.21 132.801C127.08 132.996 126.981 133.237 126.912 133.523C126.844 133.81 126.81 134.142 126.81 134.52V134.866C126.81 135.241 126.844 135.573 126.912 135.862C126.981 136.149 127.081 136.391 127.215 136.59C127.348 136.785 127.511 136.933 127.703 137.034C127.895 137.135 128.115 137.186 128.362 137.186C128.61 137.186 128.829 137.135 129.022 137.034C129.214 136.933 129.375 136.785 129.505 136.59C129.635 136.391 129.734 136.149 129.803 135.862C129.871 135.573 129.905 135.241 129.905 134.866ZM134.144 138.25H132.728V132.498C132.728 132.098 132.806 131.761 132.962 131.487C133.121 131.211 133.344 131.002 133.631 130.862C133.921 130.719 134.264 130.647 134.661 130.647C134.791 130.647 134.917 130.657 135.037 130.677C135.158 130.693 135.275 130.714 135.389 130.74L135.374 131.8C135.312 131.784 135.247 131.772 135.179 131.766C135.11 131.759 135.031 131.756 134.94 131.756C134.77 131.756 134.625 131.785 134.505 131.844C134.388 131.899 134.298 131.982 134.236 132.093C134.175 132.203 134.144 132.339 134.144 132.498V138.25ZM135.198 132.967V133.963H131.941V132.967H135.198ZM137.728 138.25H136.312V132.498C136.312 132.098 136.39 131.761 136.546 131.487C136.705 131.211 136.928 131.002 137.215 130.862C137.505 130.719 137.848 130.647 138.245 130.647C138.375 130.647 138.501 130.657 138.621 130.677C138.742 130.693 138.859 130.714 138.973 130.74L138.958 131.8C138.896 131.784 138.831 131.772 138.763 131.766C138.694 131.759 138.615 131.756 138.523 131.756C138.354 131.756 138.209 131.785 138.089 131.844C137.972 131.899 137.882 131.982 137.82 132.093C137.759 132.203 137.728 132.339 137.728 132.498V138.25ZM138.782 132.967V133.963H135.525V132.967H138.782ZM141.834 138.348C141.424 138.348 141.056 138.283 140.731 138.152C140.405 138.019 140.128 137.835 139.9 137.601C139.676 137.366 139.503 137.094 139.383 136.785C139.262 136.473 139.202 136.141 139.202 135.789V135.594C139.202 135.193 139.259 134.827 139.373 134.495C139.487 134.163 139.65 133.875 139.861 133.631C140.076 133.387 140.337 133.2 140.643 133.069C140.949 132.936 141.294 132.869 141.678 132.869C142.052 132.869 142.384 132.931 142.674 133.055C142.964 133.178 143.206 133.354 143.401 133.582C143.6 133.81 143.75 134.083 143.851 134.402C143.952 134.718 144.002 135.07 144.002 135.457V136.043H139.803V135.105H142.62V134.998C142.62 134.803 142.584 134.629 142.513 134.476C142.444 134.319 142.34 134.196 142.2 134.104C142.06 134.013 141.881 133.968 141.663 133.968C141.478 133.968 141.318 134.008 141.185 134.09C141.051 134.171 140.942 134.285 140.857 134.432C140.776 134.578 140.714 134.751 140.672 134.949C140.633 135.145 140.613 135.359 140.613 135.594V135.789C140.613 136.001 140.643 136.196 140.701 136.375C140.763 136.554 140.849 136.709 140.96 136.839C141.074 136.969 141.211 137.07 141.37 137.142C141.533 137.213 141.717 137.249 141.922 137.249C142.176 137.249 142.412 137.2 142.63 137.103C142.851 137.002 143.042 136.85 143.201 136.648L143.885 137.391C143.774 137.55 143.623 137.703 143.431 137.85C143.242 137.996 143.014 138.117 142.747 138.211C142.48 138.302 142.176 138.348 141.834 138.348ZM146.209 134.119V138.25H144.803V132.967H146.126L146.209 134.119ZM147.801 132.933L147.776 134.236C147.708 134.227 147.625 134.218 147.527 134.212C147.433 134.202 147.347 134.197 147.269 134.197C147.07 134.197 146.898 134.223 146.751 134.275C146.608 134.324 146.487 134.397 146.39 134.495C146.295 134.593 146.224 134.712 146.175 134.852C146.129 134.992 146.103 135.151 146.097 135.33L145.814 135.242C145.814 134.9 145.848 134.586 145.916 134.3C145.984 134.01 146.084 133.758 146.214 133.543C146.347 133.328 146.51 133.162 146.702 133.045C146.894 132.928 147.114 132.869 147.361 132.869C147.44 132.869 147.519 132.876 147.601 132.889C147.682 132.898 147.749 132.913 147.801 132.933ZM151.321 136.79C151.321 136.689 151.292 136.598 151.233 136.517C151.175 136.435 151.066 136.36 150.906 136.292C150.75 136.22 150.524 136.155 150.228 136.097C149.961 136.038 149.712 135.965 149.481 135.877C149.253 135.786 149.054 135.677 148.885 135.55C148.719 135.423 148.589 135.273 148.494 135.101C148.4 134.925 148.353 134.725 148.353 134.5C148.353 134.279 148.4 134.07 148.494 133.875C148.592 133.68 148.73 133.507 148.909 133.357C149.092 133.204 149.313 133.086 149.573 133.001C149.837 132.913 150.133 132.869 150.462 132.869C150.921 132.869 151.315 132.942 151.644 133.089C151.976 133.235 152.23 133.437 152.405 133.694C152.584 133.948 152.674 134.238 152.674 134.563H151.268C151.268 134.427 151.238 134.305 151.18 134.197C151.124 134.087 151.037 134 150.916 133.938C150.799 133.873 150.646 133.841 150.457 133.841C150.301 133.841 150.166 133.868 150.052 133.924C149.938 133.976 149.85 134.048 149.788 134.139C149.73 134.227 149.7 134.324 149.7 134.432C149.7 134.513 149.717 134.586 149.749 134.651C149.785 134.713 149.842 134.77 149.92 134.822C149.998 134.874 150.099 134.923 150.223 134.969C150.35 135.011 150.506 135.05 150.691 135.086C151.072 135.164 151.412 135.267 151.712 135.394C152.011 135.517 152.249 135.687 152.425 135.901C152.601 136.113 152.689 136.391 152.689 136.736C152.689 136.971 152.636 137.186 152.532 137.381C152.428 137.576 152.278 137.747 152.083 137.894C151.888 138.037 151.653 138.149 151.38 138.23C151.11 138.309 150.805 138.348 150.467 138.348C149.975 138.348 149.559 138.26 149.217 138.084C148.878 137.908 148.621 137.685 148.445 137.415C148.273 137.142 148.187 136.862 148.187 136.575H149.52C149.526 136.767 149.575 136.922 149.666 137.039C149.76 137.156 149.879 137.241 150.023 137.293C150.169 137.345 150.327 137.371 150.496 137.371C150.678 137.371 150.83 137.347 150.95 137.298C151.071 137.246 151.162 137.177 151.224 137.093C151.289 137.005 151.321 136.904 151.321 136.79Z" fill="#475799"/>
<path d="M54.4148 116.281C54.0813 135.11 61.0523 153.336 73.8656 167.137C86.6788 180.937 104.339 189.239 123.14 190.302L123.272 187.963C105.075 186.935 87.9834 178.899 75.5822 165.543C63.1811 152.186 56.4342 134.546 56.7569 116.323L54.4148 116.281Z" fill="url(#paint0_linear_295_341)"/>
<path d="M129.232 48.126C110.408 47.5703 92.1009 54.3257 78.1502 66.9751C64.1994 79.6245 55.6893 97.185 54.405 115.973L56.7421 116.133C57.9851 97.9489 66.2215 80.9531 79.7237 68.7105C93.2258 56.4678 110.944 49.9296 129.163 50.4675L129.232 48.126Z" fill="url(#paint1_linear_295_341)"/>
<path d="M123.444 190.813C142.272 191.147 160.499 184.176 174.299 171.362C188.1 158.549 196.402 140.889 197.464 122.088L195.125 121.956C194.097 140.153 186.062 157.244 172.705 169.646C159.349 182.047 141.708 188.794 123.485 188.471L123.444 190.813Z" fill="url(#paint2_linear_295_341)"/>
<g filter="url(#filter2_b_295_341)">
<path d="M142.436 50.1165C142.436 59.0174 135.221 66.233 126.32 66.233C117.419 66.233 110.203 59.0174 110.203 50.1165C110.203 41.2156 117.419 34 126.32 34C135.221 34 142.436 41.2156 142.436 50.1165Z" fill="white" fill-opacity="0.2"/>
</g>
<circle cx="126.319" cy="50.1163" r="5.80194" fill="white"/>
<path d="M197.418 121.976C197.752 103.147 190.781 84.9208 177.967 71.1203C165.154 57.3199 147.494 49.0176 128.693 47.9552L128.561 50.294C146.758 51.3223 163.849 59.3575 176.251 72.7142C188.652 86.0709 195.399 103.711 195.076 121.934L197.418 121.976Z" fill="url(#paint3_linear_295_341)"/>
<circle cx="126.517" cy="49.7734" r="5.66865" fill="white" stroke="#2458FF" stroke-width="1.55591"/>
<path d="M59.4718 166.456C59.7297 166.199 61.2984 164.845 62.0505 164.2M52.3806 155.175L55.6039 153.563M47.5456 142.926C47.8035 142.926 50.0168 142.282 51.0913 141.959M44.967 130.356L48.5126 129.711M44 117.462C44.2579 117.204 46.4712 117.355 47.5456 117.462M45.2893 104.247L48.5126 104.891M48.1903 91.6759L51.4136 92.6429M53.3476 79.4274L56.2485 81.039M60.1165 68.1458L63.0175 70.4021M69.1417 58.7982L71.3981 61.0545M79.134 50.4176L81.068 52.9963M90.4155 43.6487L92.0272 46.5497M102.342 38.8138L103.309 42.0371M114.913 35.9128L115.557 39.1361M127.161 34.9458C127.161 35.4615 127.161 37.5244 127.161 38.4914M140.054 35.9128L139.41 39.1361M152.948 38.8138C152.948 39.3295 152.088 41.3924 151.658 42.3594M164.874 43.971L163.262 47.1943M176.155 51.0623L173.899 53.9633M185.825 59.4429C185.825 59.7008 184.106 61.2694 183.247 62.0215M194.528 69.4351L191.627 71.6914M201.297 80.7167L198.074 82.3283M206.132 92.9652L202.586 93.9322M209.033 105.536L205.487 106.181M210 118.429H206.454M208.711 131.645L205.165 131M206.132 144.538L202.264 142.926M200.652 156.464L197.429 154.853M193.883 167.423L190.983 165.489" stroke="#C7CBDC" stroke-width="0.518637"/>
<path d="M3.36328 14.2363V19H1.88672V6.39648H5.34961C6.69727 6.39648 7.74023 6.72461 8.47852 7.38086C9.22266 8.03711 9.59473 8.96289 9.59473 10.1582C9.59473 11.3535 9.18164 12.332 8.35547 13.0938C7.53516 13.8555 6.4248 14.2363 5.02441 14.2363H3.36328ZM3.36328 7.73242V12.9004H4.91016C5.92969 12.9004 6.70605 12.6689 7.23926 12.2061C7.77832 11.7373 8.04785 11.0781 8.04785 10.2285C8.04785 8.56445 7.06348 7.73242 5.09473 7.73242H3.36328ZM13.2246 19H11.7832V5.67578H13.2246V19ZM22.585 19H21.1436V17.5938H21.1084C20.4814 18.6719 19.5586 19.2109 18.3398 19.2109C17.4434 19.2109 16.7402 18.9736 16.2305 18.499C15.7266 18.0244 15.4746 17.3945 15.4746 16.6094C15.4746 14.9277 16.4648 13.9492 18.4453 13.6738L21.1436 13.2959C21.1436 11.7666 20.5254 11.002 19.2891 11.002C18.2051 11.002 17.2266 11.3711 16.3535 12.1094V10.6328C17.2383 10.0703 18.2578 9.78906 19.4121 9.78906C21.5273 9.78906 22.585 10.9082 22.585 13.1465V19ZM21.1436 14.4473L18.9727 14.7461C18.3047 14.8398 17.8008 15.0068 17.4609 15.2471C17.1211 15.4814 16.9512 15.9004 16.9512 16.5039C16.9512 16.9434 17.1064 17.3037 17.417 17.585C17.7334 17.8604 18.1523 17.998 18.6738 17.998C19.3887 17.998 19.9775 17.749 20.4404 17.251C20.9092 16.7471 21.1436 16.1113 21.1436 15.3438V14.4473ZM31.4355 18.5869C30.7441 19.0029 29.9238 19.2109 28.9746 19.2109C27.6914 19.2109 26.6543 18.7949 25.8633 17.9629C25.0781 17.125 24.6855 16.041 24.6855 14.7109C24.6855 13.2285 25.1104 12.0391 25.96 11.1426C26.8096 10.2402 27.9434 9.78906 29.3613 9.78906C30.1523 9.78906 30.8496 9.93555 31.4531 10.2285V11.7051C30.7852 11.2363 30.0703 11.002 29.3086 11.002C28.3887 11.002 27.6328 11.333 27.041 11.9951C26.4551 12.6514 26.1621 13.5156 26.1621 14.5879C26.1621 15.6426 26.4375 16.4746 26.9883 17.084C27.5449 17.6934 28.2891 17.998 29.2207 17.998C30.0059 17.998 30.7441 17.7373 31.4355 17.2158V18.5869ZM40.8486 14.8604H34.4941C34.5176 15.8623 34.7871 16.6357 35.3027 17.1807C35.8184 17.7256 36.5273 17.998 37.4297 17.998C38.4434 17.998 39.375 17.6641 40.2246 16.9961V18.3496C39.4336 18.9238 38.3877 19.2109 37.0869 19.2109C35.8154 19.2109 34.8164 18.8037 34.0898 17.9893C33.3633 17.1689 33 16.0176 33 14.5352C33 13.1348 33.3955 11.9951 34.1865 11.1162C34.9834 10.2314 35.9707 9.78906 37.1484 9.78906C38.3262 9.78906 39.2373 10.1699 39.8818 10.9316C40.5264 11.6934 40.8486 12.751 40.8486 14.1045V14.8604ZM39.3721 13.6387C39.3662 12.8066 39.1641 12.1592 38.7656 11.6963C38.373 11.2334 37.8252 11.002 37.1221 11.002C36.4424 11.002 35.8652 11.2451 35.3906 11.7314C34.916 12.2178 34.623 12.8535 34.5117 13.6387H39.3721ZM55.8164 19H54.375V13.832C54.375 12.8359 54.2197 12.1152 53.9092 11.6699C53.6045 11.2246 53.0889 11.002 52.3623 11.002C51.7471 11.002 51.2227 11.2832 50.7891 11.8457C50.3613 12.4082 50.1475 13.082 50.1475 13.8672V19H48.7061V13.6562C48.7061 11.8867 48.0234 11.002 46.6582 11.002C46.0254 11.002 45.5039 11.2686 45.0938 11.8018C44.6836 12.3291 44.4785 13.0176 44.4785 13.8672V19H43.0371V10H44.4785V11.4238H44.5137C45.1523 10.334 46.084 9.78906 47.3086 9.78906C47.9238 9.78906 48.46 9.96191 48.917 10.3076C49.374 10.6475 49.6875 11.0957 49.8574 11.6523C50.5254 10.4102 51.5215 9.78906 52.8457 9.78906C54.8262 9.78906 55.8164 11.0107 55.8164 13.4541V19ZM65.7744 14.8604H59.4199C59.4434 15.8623 59.7129 16.6357 60.2285 17.1807C60.7441 17.7256 61.4531 17.998 62.3555 17.998C63.3691 17.998 64.3008 17.6641 65.1504 16.9961V18.3496C64.3594 18.9238 63.3135 19.2109 62.0127 19.2109C60.7412 19.2109 59.7422 18.8037 59.0156 17.9893C58.2891 17.1689 57.9258 16.0176 57.9258 14.5352C57.9258 13.1348 58.3213 11.9951 59.1123 11.1162C59.9092 10.2314 60.8965 9.78906 62.0742 9.78906C63.252 9.78906 64.1631 10.1699 64.8076 10.9316C65.4521 11.6934 65.7744 12.751 65.7744 14.1045V14.8604ZM64.2979 13.6387C64.292 12.8066 64.0898 12.1592 63.6914 11.6963C63.2988 11.2334 62.751 11.002 62.0479 11.002C61.3682 11.002 60.791 11.2451 60.3164 11.7314C59.8418 12.2178 59.5488 12.8535 59.4375 13.6387H64.2979ZM75.4336 19H73.9922V13.8672C73.9922 11.957 73.2949 11.002 71.9004 11.002C71.1797 11.002 70.582 11.2744 70.1074 11.8193C69.6387 12.3584 69.4043 13.041 69.4043 13.8672V19H67.9629V10H69.4043V11.4941H69.4395C70.1191 10.3574 71.1035 9.78906 72.3926 9.78906C73.377 9.78906 74.1299 10.1084 74.6514 10.7471C75.1729 11.3799 75.4336 12.2969 75.4336 13.498V19ZM82.333 18.9121C81.9932 19.0996 81.5449 19.1934 80.9883 19.1934C79.4121 19.1934 78.624 18.3145 78.624 16.5566V11.2305H77.0771V10H78.624V7.80273L80.0654 7.33691V10H82.333V11.2305H80.0654V16.3018C80.0654 16.9053 80.168 17.3359 80.373 17.5938C80.5781 17.8516 80.918 17.9805 81.3926 17.9805C81.7559 17.9805 82.0693 17.8809 82.333 17.6816V18.9121ZM88.8018 18.4902V16.75C89.001 16.9258 89.2383 17.084 89.5137 17.2246C89.7949 17.3652 90.0879 17.4854 90.3926 17.585C90.7031 17.6787 91.0137 17.752 91.3242 17.8047C91.6348 17.8574 91.9219 17.8838 92.1855 17.8838C93.0938 17.8838 93.7705 17.7168 94.2158 17.3828C94.667 17.043 94.8926 16.5566 94.8926 15.9238C94.8926 15.584 94.8164 15.2881 94.6641 15.0361C94.5176 14.7842 94.3125 14.5557 94.0488 14.3506C93.7852 14.1396 93.4717 13.9404 93.1084 13.7529C92.751 13.5596 92.3643 13.3574 91.9482 13.1465C91.5088 12.9238 91.0986 12.6982 90.7178 12.4697C90.3369 12.2412 90.0059 11.9893 89.7246 11.7139C89.4434 11.4385 89.2207 11.1279 89.0566 10.7822C88.8984 10.4307 88.8193 10.0205 88.8193 9.55176C88.8193 8.97754 88.9453 8.47949 89.1973 8.05762C89.4492 7.62988 89.7803 7.27832 90.1904 7.00293C90.6006 6.72754 91.0664 6.52246 91.5879 6.3877C92.1152 6.25293 92.6514 6.18555 93.1963 6.18555C94.4385 6.18555 95.3438 6.33496 95.9121 6.63379V8.29492C95.168 7.7793 94.2129 7.52148 93.0469 7.52148C92.7246 7.52148 92.4023 7.55664 92.0801 7.62695C91.7578 7.69141 91.4707 7.7998 91.2188 7.95215C90.9668 8.10449 90.7617 8.30078 90.6035 8.54102C90.4453 8.78125 90.3662 9.07422 90.3662 9.41992C90.3662 9.74219 90.4248 10.0205 90.542 10.2549C90.665 10.4893 90.8438 10.7031 91.0781 10.8965C91.3125 11.0898 91.5967 11.2773 91.9307 11.459C92.2705 11.6406 92.6602 11.8398 93.0996 12.0566C93.5508 12.2793 93.9785 12.5137 94.3828 12.7598C94.7871 13.0059 95.1416 13.2783 95.4463 13.5771C95.751 13.876 95.9912 14.207 96.167 14.5703C96.3486 14.9336 96.4395 15.3496 96.4395 15.8184C96.4395 16.4395 96.3164 16.9668 96.0703 17.4004C95.8301 17.8281 95.502 18.1768 95.0859 18.4463C94.6758 18.7158 94.2012 18.9092 93.6621 19.0264C93.123 19.1494 92.5547 19.2109 91.957 19.2109C91.7578 19.2109 91.5117 19.1934 91.2188 19.1582C90.9258 19.1289 90.627 19.082 90.3223 19.0176C90.0176 18.959 89.7275 18.8857 89.4521 18.7979C89.1826 18.7041 88.9658 18.6016 88.8018 18.4902ZM106.037 19H104.596V17.5762H104.561C103.963 18.666 103.037 19.2109 101.783 19.2109C99.6387 19.2109 98.5664 17.9336 98.5664 15.3789V10H99.999V15.1504C99.999 17.0488 100.726 17.998 102.179 17.998C102.882 17.998 103.459 17.7402 103.91 17.2246C104.367 16.7031 104.596 16.0234 104.596 15.1855V10H106.037V19ZM121.734 19H120.293V13.832C120.293 12.8359 120.138 12.1152 119.827 11.6699C119.522 11.2246 119.007 11.002 118.28 11.002C117.665 11.002 117.141 11.2832 116.707 11.8457C116.279 12.4082 116.065 13.082 116.065 13.8672V19H114.624V13.6562C114.624 11.8867 113.941 11.002 112.576 11.002C111.943 11.002 111.422 11.2686 111.012 11.8018C110.602 12.3291 110.396 13.0176 110.396 13.8672V19H108.955V10H110.396V11.4238H110.432C111.07 10.334 112.002 9.78906 113.227 9.78906C113.842 9.78906 114.378 9.96191 114.835 10.3076C115.292 10.6475 115.605 11.0957 115.775 11.6523C116.443 10.4102 117.439 9.78906 118.764 9.78906C120.744 9.78906 121.734 11.0107 121.734 13.4541V19ZM137.238 19H135.797V13.832C135.797 12.8359 135.642 12.1152 135.331 11.6699C135.026 11.2246 134.511 11.002 133.784 11.002C133.169 11.002 132.645 11.2832 132.211 11.8457C131.783 12.4082 131.569 13.082 131.569 13.8672V19H130.128V13.6562C130.128 11.8867 129.445 11.002 128.08 11.002C127.447 11.002 126.926 11.2686 126.516 11.8018C126.105 12.3291 125.9 13.0176 125.9 13.8672V19H124.459V10H125.9V11.4238H125.936C126.574 10.334 127.506 9.78906 128.73 9.78906C129.346 9.78906 129.882 9.96191 130.339 10.3076C130.796 10.6475 131.109 11.0957 131.279 11.6523C131.947 10.4102 132.943 9.78906 134.268 9.78906C136.248 9.78906 137.238 11.0107 137.238 13.4541V19ZM146.405 19H144.964V17.5938H144.929C144.302 18.6719 143.379 19.2109 142.16 19.2109C141.264 19.2109 140.561 18.9736 140.051 18.499C139.547 18.0244 139.295 17.3945 139.295 16.6094C139.295 14.9277 140.285 13.9492 142.266 13.6738L144.964 13.2959C144.964 11.7666 144.346 11.002 143.109 11.002C142.025 11.002 141.047 11.3711 140.174 12.1094V10.6328C141.059 10.0703 142.078 9.78906 143.232 9.78906C145.348 9.78906 146.405 10.9082 146.405 13.1465V19ZM144.964 14.4473L142.793 14.7461C142.125 14.8398 141.621 15.0068 141.281 15.2471C140.941 15.4814 140.771 15.9004 140.771 16.5039C140.771 16.9434 140.927 17.3037 141.237 17.585C141.554 17.8604 141.973 17.998 142.494 17.998C143.209 17.998 143.798 17.749 144.261 17.251C144.729 16.7471 144.964 16.1113 144.964 15.3438V14.4473ZM153.814 11.459C153.562 11.2656 153.199 11.1689 152.725 11.1689C152.109 11.1689 151.594 11.459 151.178 12.0391C150.768 12.6191 150.562 13.4102 150.562 14.4121V19H149.121V10H150.562V11.8545H150.598C150.803 11.2217 151.116 10.7295 151.538 10.3779C151.96 10.0205 152.432 9.8418 152.953 9.8418C153.328 9.8418 153.615 9.88281 153.814 9.96484V11.459ZM163.263 10L159.123 20.4414C158.385 22.3047 157.348 23.2363 156.012 23.2363C155.637 23.2363 155.323 23.1982 155.071 23.1221V21.8301C155.382 21.9355 155.666 21.9883 155.924 21.9883C156.65 21.9883 157.195 21.5547 157.559 20.6875L158.279 18.9824L154.764 10H156.363L158.798 16.9258C158.827 17.0137 158.889 17.2422 158.982 17.6113H159.035C159.064 17.4707 159.123 17.248 159.211 16.9434L161.769 10H163.263ZM173.52 19.2109C172.189 19.2109 171.126 18.792 170.329 17.9541C169.538 17.1104 169.143 15.9941 169.143 14.6055C169.143 13.0938 169.556 11.9131 170.382 11.0635C171.208 10.2139 172.324 9.78906 173.73 9.78906C175.072 9.78906 176.118 10.2021 176.868 11.0283C177.624 11.8545 178.002 13 178.002 14.4648C178.002 15.9004 177.595 17.0518 176.78 17.9189C175.972 18.7803 174.885 19.2109 173.52 19.2109ZM173.625 11.002C172.699 11.002 171.967 11.3184 171.428 11.9512C170.889 12.5781 170.619 13.4453 170.619 14.5527C170.619 15.6191 170.892 16.46 171.437 17.0752C171.981 17.6904 172.711 17.998 173.625 17.998C174.557 17.998 175.271 17.6963 175.77 17.0928C176.273 16.4893 176.525 15.6309 176.525 14.5176C176.525 13.3926 176.273 12.5254 175.77 11.916C175.271 11.3066 174.557 11.002 173.625 11.002ZM184.418 6.94141C184.137 6.7832 183.817 6.7041 183.46 6.7041C182.452 6.7041 181.948 7.33984 181.948 8.61133V10H184.058V11.2305H181.948V19H180.516V11.2305H178.978V10H180.516V8.54102C180.516 7.59766 180.788 6.85352 181.333 6.30859C181.878 5.75781 182.558 5.48242 183.372 5.48242C183.812 5.48242 184.16 5.53516 184.418 5.64062V6.94141ZM191.994 19H190.553V5.67578H191.994V19ZM201.354 19H199.913V17.5938H199.878C199.251 18.6719 198.328 19.2109 197.109 19.2109C196.213 19.2109 195.51 18.9736 195 18.499C194.496 18.0244 194.244 17.3945 194.244 16.6094C194.244 14.9277 195.234 13.9492 197.215 13.6738L199.913 13.2959C199.913 11.7666 199.295 11.002 198.059 11.002C196.975 11.002 195.996 11.3711 195.123 12.1094V10.6328C196.008 10.0703 197.027 9.78906 198.182 9.78906C200.297 9.78906 201.354 10.9082 201.354 13.1465V19ZM199.913 14.4473L197.742 14.7461C197.074 14.8398 196.57 15.0068 196.23 15.2471C195.891 15.4814 195.721 15.9004 195.721 16.5039C195.721 16.9434 195.876 17.3037 196.187 17.585C196.503 17.8604 196.922 17.998 197.443 17.998C198.158 17.998 198.747 17.749 199.21 17.251C199.679 16.7471 199.913 16.1113 199.913 15.3438V14.4473ZM203.525 18.6748V17.1279C204.311 17.708 205.175 17.998 206.118 17.998C207.384 17.998 208.017 17.5762 208.017 16.7324C208.017 16.4922 207.961 16.29 207.85 16.126C207.744 15.9561 207.598 15.8066 207.41 15.6777C207.229 15.5488 207.012 15.4346 206.76 15.335C206.514 15.2295 206.247 15.1211 205.96 15.0098C205.562 14.8516 205.21 14.6934 204.905 14.5352C204.606 14.3711 204.354 14.1895 204.149 13.9902C203.95 13.7852 203.798 13.5537 203.692 13.2959C203.593 13.0381 203.543 12.7363 203.543 12.3906C203.543 11.9688 203.64 11.5967 203.833 11.2744C204.026 10.9463 204.284 10.6738 204.606 10.457C204.929 10.2344 205.295 10.0674 205.705 9.95605C206.121 9.84473 206.549 9.78906 206.988 9.78906C207.768 9.78906 208.465 9.92383 209.08 10.1934V11.6523C208.418 11.2188 207.656 11.002 206.795 11.002C206.525 11.002 206.282 11.0342 206.065 11.0986C205.849 11.1572 205.661 11.2422 205.503 11.3535C205.351 11.4648 205.23 11.5996 205.143 11.7578C205.061 11.9102 205.02 12.0801 205.02 12.2676C205.02 12.502 205.061 12.6982 205.143 12.8564C205.23 13.0146 205.356 13.1553 205.521 13.2783C205.685 13.4014 205.884 13.5127 206.118 13.6123C206.353 13.7119 206.619 13.8203 206.918 13.9375C207.316 14.0898 207.674 14.248 207.99 14.4121C208.307 14.5703 208.576 14.752 208.799 14.957C209.021 15.1562 209.191 15.3877 209.309 15.6514C209.432 15.915 209.493 16.2285 209.493 16.5918C209.493 17.0371 209.394 17.4238 209.194 17.752C209.001 18.0801 208.74 18.3525 208.412 18.5693C208.084 18.7861 207.706 18.9473 207.278 19.0527C206.851 19.1582 206.402 19.2109 205.934 19.2109C205.008 19.2109 204.205 19.0322 203.525 18.6748ZM215.892 18.9121C215.552 19.0996 215.104 19.1934 214.547 19.1934C212.971 19.1934 212.183 18.3145 212.183 16.5566V11.2305H210.636V10H212.183V7.80273L213.624 7.33691V10H215.892V11.2305H213.624V16.3018C213.624 16.9053 213.727 17.3359 213.932 17.5938C214.137 17.8516 214.477 17.9805 214.951 17.9805C215.314 17.9805 215.628 17.8809 215.892 17.6816V18.9121ZM229.919 10L225.779 20.4414C225.041 22.3047 224.004 23.2363 222.668 23.2363C222.293 23.2363 221.979 23.1982 221.728 23.1221V21.8301C222.038 21.9355 222.322 21.9883 222.58 21.9883C223.307 21.9883 223.852 21.5547 224.215 20.6875L224.936 18.9824L221.42 10H223.02L225.454 16.9258C225.483 17.0137 225.545 17.2422 225.639 17.6113H225.691C225.721 17.4707 225.779 17.248 225.867 16.9434L228.425 10H229.919ZM238.62 14.8604H232.266C232.289 15.8623 232.559 16.6357 233.074 17.1807C233.59 17.7256 234.299 17.998 235.201 17.998C236.215 17.998 237.146 17.6641 237.996 16.9961V18.3496C237.205 18.9238 236.159 19.2109 234.858 19.2109C233.587 19.2109 232.588 18.8037 231.861 17.9893C231.135 17.1689 230.771 16.0176 230.771 14.5352C230.771 13.1348 231.167 11.9951 231.958 11.1162C232.755 10.2314 233.742 9.78906 234.92 9.78906C236.098 9.78906 237.009 10.1699 237.653 10.9316C238.298 11.6934 238.62 12.751 238.62 14.1045V14.8604ZM237.144 13.6387C237.138 12.8066 236.936 12.1592 236.537 11.6963C236.145 11.2334 235.597 11.002 234.894 11.002C234.214 11.002 233.637 11.2451 233.162 11.7314C232.688 12.2178 232.395 12.8535 232.283 13.6387H237.144ZM247.251 19H245.81V17.5938H245.774C245.147 18.6719 244.225 19.2109 243.006 19.2109C242.109 19.2109 241.406 18.9736 240.896 18.499C240.393 18.0244 240.141 17.3945 240.141 16.6094C240.141 14.9277 241.131 13.9492 243.111 13.6738L245.81 13.2959C245.81 11.7666 245.191 11.002 243.955 11.002C242.871 11.002 241.893 11.3711 241.02 12.1094V10.6328C241.904 10.0703 242.924 9.78906 244.078 9.78906C246.193 9.78906 247.251 10.9082 247.251 13.1465V19ZM245.81 14.4473L243.639 14.7461C242.971 14.8398 242.467 15.0068 242.127 15.2471C241.787 15.4814 241.617 15.9004 241.617 16.5039C241.617 16.9434 241.772 17.3037 242.083 17.585C242.399 17.8604 242.818 17.998 243.34 17.998C244.055 17.998 244.644 17.749 245.106 17.251C245.575 16.7471 245.81 16.1113 245.81 15.3438V14.4473ZM254.66 11.459C254.408 11.2656 254.045 11.1689 253.57 11.1689C252.955 11.1689 252.439 11.459 252.023 12.0391C251.613 12.6191 251.408 13.4102 251.408 14.4121V19H249.967V10H251.408V11.8545H251.443C251.648 11.2217 251.962 10.7295 252.384 10.3779C252.806 10.0205 253.277 9.8418 253.799 9.8418C254.174 9.8418 254.461 9.88281 254.66 9.96484V11.459Z" fill="#1B2767"/>
<defs>
<filter id="filter0_i_295_341" x="56.2485" y="49.7729" width="139.247" height="139.247" filterUnits="userSpaceOnUse" color-interpolation-filters="sRGB">
<feFlood flood-opacity="0" result="BackgroundImageFix"/>
<feBlend mode="normal" in="SourceGraphic" in2="BackgroundImageFix" result="shape"/>
<feColorMatrix in="SourceAlpha" type="matrix" values="0 0 0 0 0 0 0 0 0 0 0 0 0 0 0 0 0 0 127 0" result="hardAlpha"/>
<feOffset/>
<feGaussianBlur stdDeviation="4.66773"/>
<feComposite in2="hardAlpha" operator="arithmetic" k2="-1" k3="1"/>
<feColorMatrix type="matrix" values="0 0 0 0 0 0 0 0 0 0 0 0 0 0 0 0 0 0 0.1 0"/>
<feBlend mode="normal" in2="shape" result="effect1_innerShadow_295_341"/>
</filter>
<filter id="filter1_d_295_341" x="17.4192" y="21.0636" width="218.196" height="218.196" filterUnits="userSpaceOnUse" color-interpolation-filters="sRGB">
<feFlood flood-opacity="0" result="BackgroundImageFix"/>
<feColorMatrix in="SourceAlpha" type="matrix" values="0 0 0 0 0 0 0 0 0 0 0 0 0 0 0 0 0 0 127 0" result="hardAlpha"/>
<feOffset dy="11.41"/>
<feGaussianBlur stdDeviation="24.8946"/>
<feColorMatrix type="matrix" values="0 0 0 0 0.666667 0 0 0 0 0.768627 0 0 0 0 0.905882 0 0 0 1 0"/>
<feBlend mode="normal" in2="BackgroundImageFix" result="effect1_dropShadow_295_341"/>
<feBlend mode="normal" in="SourceGraphic" in2="effect1_dropShadow_295_341" result="shape"/>
</filter>
<filter id="filter2_b_295_341" x="105.017" y="28.8136" width="42.6058" height="42.6058" filterUnits="userSpaceOnUse" color-interpolation-filters="sRGB">
<feFlood flood-opacity="0" result="BackgroundImageFix"/>
<feGaussianBlur in="BackgroundImage" stdDeviation="2.59318"/>
<feComposite in2="SourceAlpha" operator="in" result="effect1_backgroundBlur_295_341"/>
<feBlend mode="normal" in="SourceGraphic" in2="effect1_backgroundBlur_295_341" result="shape"/>
</filter>
<linearGradient id="paint0_linear_295_341" x1="54.8604" y1="152.8" x2="90.2902" y2="187.748" gradientUnits="userSpaceOnUse">
<stop offset="0.0052011" stop-color="#D320C1"/>
<stop offset="0.498033" stop-color="#C624C6"/>
<stop offset="0.970779" stop-color="#1461FF"/>
</linearGradient>
<linearGradient id="paint1_linear_295_341" x1="92.71" y1="48.1405" x2="57.3462" y2="83.1553" gradientUnits="userSpaceOnUse">
<stop offset="0.0052011" stop-color="#D320C1"/>
<stop offset="0.498033" stop-color="#C624C6"/>
<stop offset="0.970779" stop-color="#1461FF"/>
</linearGradient>
<linearGradient id="paint2_linear_295_341" x1="159.963" y1="190.367" x2="194.911" y2="154.938" gradientUnits="userSpaceOnUse">
<stop offset="0.0052011" stop-color="#D320C1"/>
<stop offset="0.498033" stop-color="#C624C6"/>
<stop offset="0.970779" stop-color="#1461FF"/>
</linearGradient>
<linearGradient id="paint3_linear_295_341" x1="196.972" y1="85.4568" x2="161.543" y2="50.5088" gradientUnits="userSpaceOnUse">
<stop offset="0.0052011" stop-color="#D320C1"/>
<stop offset="0.498033" stop-color="#C624C6"/>
<stop offset="0.970779" stop-color="#1461FF"/>
</linearGradient>
</defs>
</svg>
