<svg width="238" height="289" viewBox="0 0 238 289" fill="none" xmlns="http://www.w3.org/2000/svg">
<path d="M36 287.625C30.6939 287.625 26.375 283.307 26.375 278C26.375 272.693 30.6939 268.375 36 268.375C41.3061 268.375 45.625 272.693 45.625 278C45.625 283.307 41.3061 287.625 36 287.625ZM36 269.75C31.4501 269.75 27.75 273.45 27.75 278C27.75 282.55 31.4501 286.25 36 286.25C40.5499 286.25 44.25 282.55 44.25 278C44.25 273.45 40.5499 269.75 36 269.75Z" fill="#1461FF"/>
<path d="M36 280.98C37.6456 280.98 38.9796 279.646 38.9796 278C38.9796 276.354 37.6456 275.02 36 275.02C34.3544 275.02 33.0204 276.354 33.0204 278C33.0204 279.646 34.3544 280.98 36 280.98Z" fill="#CA23C5"/>
<path d="M69.7912 240.153C70.1491 240.156 70.5071 240.224 70.8651 240.358C71.223 240.491 71.5497 240.713 71.8452 241.023C72.1406 241.33 72.3778 241.749 72.5568 242.28C72.7358 242.811 72.8253 243.477 72.8253 244.278C72.8253 245.054 72.7514 245.743 72.6037 246.345C72.4588 246.945 72.2486 247.45 71.973 247.862C71.7003 248.274 71.3679 248.587 70.9759 248.8C70.5866 249.013 70.1463 249.119 69.6548 249.119C69.1662 249.119 68.7301 249.023 68.3466 248.83C67.9659 248.634 67.6534 248.362 67.4091 248.016C67.1676 247.666 67.0128 247.261 66.9446 246.801H67.9844C68.0781 247.202 68.2642 247.533 68.5426 247.794C68.8239 248.053 69.1946 248.182 69.6548 248.182C70.3281 248.182 70.8594 247.888 71.2486 247.3C71.6406 246.712 71.8366 245.881 71.8366 244.807H71.7685C71.6094 245.045 71.4205 245.251 71.2017 245.425C70.983 245.598 70.7401 245.732 70.473 245.825C70.206 245.919 69.9219 245.966 69.6207 245.966C69.1207 245.966 68.6619 245.842 68.2443 245.595C67.8295 245.345 67.4972 245.003 67.2472 244.568C67 244.131 66.8764 243.631 66.8764 243.068C66.8764 242.534 66.9957 242.045 67.2344 241.602C67.4759 241.156 67.8139 240.801 68.2486 240.537C68.6861 240.273 69.2003 240.145 69.7912 240.153ZM69.7912 241.091C69.4332 241.091 69.1108 241.18 68.8239 241.359C68.5398 241.536 68.3139 241.774 68.1463 242.075C67.9815 242.374 67.8991 242.705 67.8991 243.068C67.8991 243.432 67.9787 243.763 68.1378 244.061C68.2997 244.357 68.5199 244.592 68.7983 244.768C69.0795 244.942 69.3991 245.028 69.7571 245.028C70.027 245.028 70.2784 244.976 70.5114 244.871C70.7443 244.763 70.9474 244.616 71.1207 244.432C71.2969 244.244 71.4347 244.033 71.5341 243.797C71.6335 243.558 71.6832 243.31 71.6832 243.051C71.6832 242.71 71.6009 242.391 71.4361 242.092C71.2741 241.794 71.0497 241.553 70.7628 241.368C70.4787 241.183 70.1548 241.091 69.7912 241.091ZM77.2965 249.119C76.7113 249.119 76.1942 249.016 75.7454 248.808C75.2994 248.598 74.9513 248.31 74.7013 247.943C74.4513 247.574 74.3278 247.153 74.3306 246.682C74.3278 246.312 74.4002 245.972 74.5479 245.659C74.6957 245.344 74.8974 245.081 75.1531 244.871C75.4116 244.658 75.6999 244.523 76.0181 244.466V244.415C75.6005 244.307 75.2681 244.072 75.021 243.712C74.7738 243.348 74.6516 242.935 74.6545 242.472C74.6516 242.028 74.7638 241.632 74.9911 241.283C75.2184 240.933 75.5309 240.658 75.9286 240.456C76.3292 240.254 76.7852 240.153 77.2965 240.153C77.8022 240.153 78.2539 240.254 78.6516 240.456C79.0494 240.658 79.3619 240.933 79.5891 241.283C79.8192 241.632 79.9357 242.028 79.9386 242.472C79.9357 242.935 79.8093 243.348 79.5593 243.712C79.3121 244.072 78.984 244.307 78.5749 244.415V244.466C78.8903 244.523 79.1744 244.658 79.4272 244.871C79.68 245.081 79.8817 245.344 80.0323 245.659C80.1829 245.972 80.2596 246.312 80.2624 246.682C80.2596 247.153 80.1317 247.574 79.8789 247.943C79.6289 248.31 79.2809 248.598 78.8349 248.808C78.3917 249.016 77.8789 249.119 77.2965 249.119ZM77.2965 248.182C77.6914 248.182 78.0323 248.118 78.3192 247.99C78.6062 247.862 78.8278 247.682 78.984 247.449C79.1403 247.216 79.2198 246.943 79.2227 246.631C79.2198 246.301 79.1346 246.01 78.967 245.757C78.7994 245.504 78.5707 245.305 78.2809 245.161C77.994 245.016 77.6658 244.943 77.2965 244.943C76.9244 244.943 76.592 245.016 76.2994 245.161C76.0096 245.305 75.7809 245.504 75.6133 245.757C75.4485 246.01 75.3675 246.301 75.3704 246.631C75.3675 246.943 75.4428 247.216 75.5962 247.449C75.7525 247.682 75.9755 247.862 76.2653 247.99C76.555 248.118 76.8988 248.182 77.2965 248.182ZM77.2965 244.04C77.609 244.04 77.886 243.977 78.1275 243.852C78.3718 243.727 78.5636 243.553 78.7028 243.328C78.842 243.104 78.913 242.841 78.9158 242.54C78.913 242.244 78.8434 241.987 78.707 241.768C78.5707 241.547 78.3817 241.376 78.1403 241.257C77.8988 241.135 77.6175 241.074 77.2965 241.074C76.9698 241.074 76.6843 241.135 76.44 241.257C76.1957 241.376 76.0067 241.547 75.8732 241.768C75.7397 241.987 75.6744 242.244 75.6772 242.54C75.6744 242.841 75.7411 243.104 75.8775 243.328C76.0167 243.553 76.2085 243.727 76.4528 243.852C76.6971 243.977 76.9783 244.04 77.2965 244.04ZM86.3445 247.364V246.903C86.3445 246.585 86.4098 246.294 86.5405 246.03C86.674 245.763 86.8672 245.55 87.12 245.391C87.3757 245.229 87.6854 245.148 88.049 245.148C88.4183 245.148 88.728 245.229 88.978 245.391C89.228 245.55 89.4169 245.763 89.5447 246.03C89.6726 246.294 89.7365 246.585 89.7365 246.903V247.364C89.7365 247.682 89.6712 247.974 89.5405 248.241C89.4126 248.506 89.2223 248.719 88.9695 248.881C88.7195 249.04 88.4126 249.119 88.049 249.119C87.6797 249.119 87.3686 249.04 87.1158 248.881C86.8629 248.719 86.6712 248.506 86.5405 248.241C86.4098 247.974 86.3445 247.682 86.3445 247.364ZM87.2138 246.903V247.364C87.2138 247.628 87.2763 247.865 87.4013 248.075C87.5263 248.283 87.7422 248.386 88.049 248.386C88.3473 248.386 88.5575 248.283 88.6797 248.075C88.8047 247.865 88.8672 247.628 88.8672 247.364V246.903C88.8672 246.639 88.8075 246.403 88.6882 246.196C88.5689 245.986 88.3558 245.881 88.049 245.881C87.7507 245.881 87.5362 245.986 87.4055 246.196C87.2777 246.403 87.2138 246.639 87.2138 246.903ZM81.9979 242.369V241.909C81.9979 241.591 82.0632 241.3 82.1939 241.036C82.3274 240.768 82.5206 240.555 82.7734 240.396C83.0291 240.234 83.3388 240.153 83.7024 240.153C84.0717 240.153 84.3814 240.234 84.6314 240.396C84.8814 240.555 85.0703 240.768 85.1982 241.036C85.326 241.3 85.3899 241.591 85.3899 241.909V242.369C85.3899 242.687 85.3246 242.98 85.1939 243.247C85.0661 243.511 84.8757 243.724 84.6229 243.886C84.3729 244.045 84.0661 244.125 83.7024 244.125C83.3331 244.125 83.022 244.045 82.7692 243.886C82.5163 243.724 82.3246 243.511 82.1939 243.247C82.0632 242.98 81.9979 242.687 81.9979 242.369ZM82.8672 241.909V242.369C82.8672 242.634 82.9297 242.871 83.0547 243.081C83.1797 243.288 83.3956 243.392 83.7024 243.392C84.0007 243.392 84.2109 243.288 84.3331 243.081C84.4581 242.871 84.5206 242.634 84.5206 242.369V241.909C84.5206 241.645 84.4609 241.409 84.3416 241.202C84.2223 240.991 84.0092 240.886 83.7024 240.886C83.4041 240.886 83.1896 240.991 83.0589 241.202C82.9311 241.409 82.8672 241.645 82.8672 241.909ZM82.3217 249L88.3217 240.273H89.2933L83.2933 249H82.3217ZM95.174 249V240.273H98.1229C98.8075 240.273 99.3672 240.396 99.8018 240.643C100.239 240.888 100.563 241.219 100.773 241.636C100.984 242.054 101.089 242.52 101.089 243.034C101.089 243.548 100.984 244.016 100.773 244.436C100.566 244.857 100.245 245.192 99.8104 245.442C99.3757 245.689 98.8189 245.812 98.1399 245.812H96.0263V244.875H98.1058C98.5746 244.875 98.951 244.794 99.2351 244.632C99.5192 244.47 99.7251 244.251 99.853 243.976C99.9837 243.697 100.049 243.384 100.049 243.034C100.049 242.685 99.9837 242.372 99.853 242.097C99.7251 241.821 99.5178 241.605 99.2308 241.449C98.9439 241.29 98.5632 241.21 98.0888 241.21H96.2308V249H95.174ZM103.661 240.273V249H102.655V240.273H103.661ZM107.429 249.153C107.014 249.153 106.637 249.075 106.299 248.919C105.961 248.76 105.693 248.531 105.494 248.233C105.295 247.932 105.196 247.568 105.196 247.142C105.196 246.767 105.27 246.463 105.417 246.23C105.565 245.994 105.762 245.81 106.01 245.676C106.257 245.543 106.529 245.443 106.828 245.378C107.129 245.31 107.431 245.256 107.735 245.216C108.133 245.165 108.456 245.126 108.703 245.101C108.953 245.072 109.135 245.026 109.248 244.96C109.365 244.895 109.423 244.781 109.423 244.619V244.585C109.423 244.165 109.308 243.838 109.078 243.605C108.85 243.372 108.505 243.256 108.042 243.256C107.562 243.256 107.186 243.361 106.913 243.571C106.64 243.781 106.449 244.006 106.338 244.244L105.383 243.903C105.554 243.506 105.781 243.196 106.065 242.974C106.352 242.75 106.664 242.594 107.002 242.506C107.343 242.415 107.679 242.369 108.008 242.369C108.218 242.369 108.46 242.395 108.733 242.446C109.008 242.494 109.274 242.595 109.529 242.749C109.788 242.902 110.002 243.134 110.173 243.443C110.343 243.753 110.429 244.168 110.429 244.688V249H109.423V248.114H109.372C109.304 248.256 109.19 248.408 109.031 248.57C108.872 248.732 108.66 248.869 108.396 248.983C108.132 249.097 107.809 249.153 107.429 249.153ZM107.582 248.25C107.98 248.25 108.315 248.172 108.588 248.016C108.863 247.859 109.071 247.658 109.21 247.411C109.352 247.163 109.423 246.903 109.423 246.631V245.71C109.38 245.761 109.287 245.808 109.142 245.851C109 245.891 108.835 245.926 108.647 245.957C108.463 245.986 108.282 246.011 108.106 246.034C107.933 246.054 107.792 246.071 107.684 246.085C107.423 246.119 107.179 246.175 106.951 246.251C106.727 246.325 106.545 246.437 106.406 246.588C106.27 246.736 106.201 246.937 106.201 247.193C106.201 247.543 106.331 247.807 106.589 247.986C106.85 248.162 107.181 248.25 107.582 248.25ZM114.923 249.136C114.31 249.136 113.781 248.991 113.338 248.702C112.895 248.412 112.554 248.013 112.315 247.504C112.077 246.996 111.957 246.415 111.957 245.761C111.957 245.097 112.08 244.51 112.324 244.001C112.571 243.49 112.915 243.091 113.355 242.804C113.798 242.514 114.315 242.369 114.906 242.369C115.366 242.369 115.781 242.455 116.151 242.625C116.52 242.795 116.822 243.034 117.058 243.341C117.294 243.648 117.44 244.006 117.497 244.415H116.491C116.415 244.116 116.244 243.852 115.98 243.622C115.719 243.389 115.366 243.273 114.923 243.273C114.531 243.273 114.188 243.375 113.892 243.58C113.599 243.781 113.371 244.067 113.206 244.436C113.044 244.803 112.963 245.233 112.963 245.727C112.963 246.233 113.043 246.673 113.202 247.048C113.364 247.423 113.591 247.714 113.884 247.922C114.179 248.129 114.526 248.233 114.923 248.233C115.185 248.233 115.422 248.188 115.635 248.097C115.848 248.006 116.028 247.875 116.176 247.705C116.324 247.534 116.429 247.33 116.491 247.091H117.497C117.44 247.477 117.3 247.825 117.075 248.135C116.854 248.442 116.56 248.686 116.193 248.868C115.83 249.047 115.406 249.136 114.923 249.136ZM121.712 249.136C121.081 249.136 120.537 248.997 120.08 248.719C119.625 248.438 119.274 248.045 119.027 247.543C118.783 247.037 118.661 246.449 118.661 245.778C118.661 245.108 118.783 244.517 119.027 244.006C119.274 243.491 119.618 243.091 120.058 242.804C120.501 242.514 121.018 242.369 121.609 242.369C121.95 242.369 122.287 242.426 122.619 242.54C122.952 242.653 123.254 242.838 123.527 243.094C123.8 243.347 124.017 243.682 124.179 244.099C124.341 244.517 124.422 245.031 124.422 245.642V246.068H119.376V245.199H123.399C123.399 244.83 123.325 244.5 123.178 244.21C123.033 243.92 122.825 243.692 122.555 243.524C122.288 243.357 121.973 243.273 121.609 243.273C121.209 243.273 120.862 243.372 120.57 243.571C120.28 243.767 120.057 244.023 119.901 244.338C119.744 244.653 119.666 244.991 119.666 245.352V245.932C119.666 246.426 119.751 246.845 119.922 247.189C120.095 247.53 120.335 247.79 120.642 247.969C120.949 248.145 121.305 248.233 121.712 248.233C121.976 248.233 122.214 248.196 122.428 248.122C122.643 248.045 122.83 247.932 122.986 247.781C123.142 247.628 123.263 247.437 123.348 247.21L124.32 247.483C124.217 247.812 124.045 248.102 123.804 248.352C123.563 248.599 123.264 248.793 122.909 248.932C122.554 249.068 122.155 249.136 121.712 249.136ZM128.423 249.136C127.878 249.136 127.396 248.999 126.979 248.723C126.561 248.445 126.234 248.053 125.999 247.547C125.763 247.038 125.645 246.438 125.645 245.744C125.645 245.057 125.763 244.46 125.999 243.955C126.234 243.449 126.563 243.058 126.983 242.783C127.403 242.507 127.889 242.369 128.44 242.369C128.866 242.369 129.203 242.44 129.45 242.582C129.7 242.722 129.891 242.881 130.021 243.06C130.155 243.236 130.259 243.381 130.332 243.494H130.418V240.273H131.423V249H130.452V247.994H130.332C130.259 248.114 130.153 248.264 130.017 248.446C129.881 248.625 129.686 248.786 129.433 248.928C129.18 249.067 128.844 249.136 128.423 249.136ZM128.56 248.233C128.963 248.233 129.304 248.128 129.582 247.918C129.861 247.705 130.072 247.411 130.217 247.036C130.362 246.658 130.435 246.222 130.435 245.727C130.435 245.239 130.364 244.811 130.222 244.445C130.08 244.075 129.869 243.788 129.591 243.584C129.313 243.376 128.969 243.273 128.56 243.273C128.134 243.273 127.778 243.382 127.494 243.601C127.213 243.817 127.001 244.111 126.859 244.483C126.72 244.852 126.651 245.267 126.651 245.727C126.651 246.193 126.722 246.616 126.864 246.997C127.009 247.375 127.222 247.676 127.503 247.901C127.787 248.122 128.139 248.233 128.56 248.233ZM139.439 249.136C138.848 249.136 138.33 248.996 137.884 248.714C137.44 248.433 137.094 248.04 136.844 247.534C136.597 247.028 136.473 246.437 136.473 245.761C136.473 245.08 136.597 244.484 136.844 243.976C137.094 243.467 137.44 243.072 137.884 242.791C138.33 242.51 138.848 242.369 139.439 242.369C140.03 242.369 140.547 242.51 140.99 242.791C141.436 243.072 141.783 243.467 142.03 243.976C142.28 244.484 142.405 245.08 142.405 245.761C142.405 246.437 142.28 247.028 142.03 247.534C141.783 248.04 141.436 248.433 140.99 248.714C140.547 248.996 140.03 249.136 139.439 249.136ZM139.439 248.233C139.888 248.233 140.257 248.118 140.547 247.888C140.837 247.658 141.051 247.355 141.19 246.98C141.33 246.605 141.399 246.199 141.399 245.761C141.399 245.324 141.33 244.916 141.19 244.538C141.051 244.161 140.837 243.855 140.547 243.622C140.257 243.389 139.888 243.273 139.439 243.273C138.99 243.273 138.621 243.389 138.331 243.622C138.041 243.855 137.827 244.161 137.688 244.538C137.548 244.916 137.479 245.324 137.479 245.761C137.479 246.199 137.548 246.605 137.688 246.98C137.827 247.355 138.041 247.658 138.331 247.888C138.621 248.118 138.99 248.233 139.439 248.233ZM144.946 245.062V249H143.94V242.455H144.912V243.477H144.997C145.15 243.145 145.383 242.878 145.696 242.676C146.008 242.472 146.412 242.369 146.906 242.369C147.349 242.369 147.737 242.46 148.069 242.642C148.402 242.821 148.66 243.094 148.845 243.46C149.029 243.824 149.122 244.284 149.122 244.841V249H148.116V244.909C148.116 244.395 147.983 243.994 147.716 243.707C147.449 243.418 147.082 243.273 146.616 243.273C146.295 243.273 146.008 243.342 145.755 243.482C145.505 243.621 145.308 243.824 145.163 244.091C145.018 244.358 144.946 244.682 144.946 245.062ZM161.494 243H160.437C160.374 242.696 160.265 242.429 160.109 242.199C159.955 241.969 159.768 241.776 159.546 241.619C159.327 241.46 159.085 241.341 158.817 241.261C158.55 241.182 158.272 241.142 157.982 241.142C157.454 241.142 156.975 241.276 156.546 241.543C156.12 241.81 155.781 242.203 155.528 242.723C155.278 243.243 155.153 243.881 155.153 244.636C155.153 245.392 155.278 246.03 155.528 246.55C155.781 247.07 156.12 247.463 156.546 247.73C156.975 247.997 157.454 248.131 157.982 248.131C158.272 248.131 158.55 248.091 158.817 248.011C159.085 247.932 159.327 247.814 159.546 247.658C159.768 247.499 159.955 247.304 160.109 247.074C160.265 246.841 160.374 246.574 160.437 246.273H161.494C161.414 246.719 161.269 247.118 161.059 247.47C160.849 247.822 160.587 248.122 160.275 248.369C159.962 248.614 159.612 248.8 159.222 248.928C158.836 249.055 158.423 249.119 157.982 249.119C157.238 249.119 156.576 248.938 155.996 248.574C155.417 248.21 154.961 247.693 154.629 247.023C154.296 246.352 154.13 245.557 154.13 244.636C154.13 243.716 154.296 242.92 154.629 242.25C154.961 241.58 155.417 241.062 155.996 240.699C156.576 240.335 157.238 240.153 157.982 240.153C158.423 240.153 158.836 240.217 159.222 240.345C159.612 240.473 159.962 240.661 160.275 240.908C160.587 241.152 160.849 241.45 161.059 241.803C161.269 242.152 161.414 242.551 161.494 243ZM164.991 249.153C164.576 249.153 164.2 249.075 163.862 248.919C163.524 248.76 163.255 248.531 163.056 248.233C162.858 247.932 162.758 247.568 162.758 247.142C162.758 246.767 162.832 246.463 162.98 246.23C163.127 245.994 163.325 245.81 163.572 245.676C163.819 245.543 164.092 245.443 164.39 245.378C164.691 245.31 164.994 245.256 165.298 245.216C165.696 245.165 166.018 245.126 166.265 245.101C166.515 245.072 166.697 245.026 166.811 244.96C166.927 244.895 166.985 244.781 166.985 244.619V244.585C166.985 244.165 166.87 243.838 166.64 243.605C166.413 243.372 166.068 243.256 165.605 243.256C165.125 243.256 164.748 243.361 164.475 243.571C164.203 243.781 164.011 244.006 163.9 244.244L162.946 243.903C163.116 243.506 163.343 243.196 163.627 242.974C163.914 242.75 164.227 242.594 164.565 242.506C164.906 242.415 165.241 242.369 165.571 242.369C165.781 242.369 166.022 242.395 166.295 242.446C166.571 242.494 166.836 242.595 167.092 242.749C167.35 242.902 167.565 243.134 167.735 243.443C167.906 243.753 167.991 244.168 167.991 244.688V249H166.985V248.114H166.934C166.866 248.256 166.752 248.408 166.593 248.57C166.434 248.732 166.223 248.869 165.958 248.983C165.694 249.097 165.372 249.153 164.991 249.153ZM165.145 248.25C165.542 248.25 165.877 248.172 166.15 248.016C166.426 247.859 166.633 247.658 166.772 247.411C166.914 247.163 166.985 246.903 166.985 246.631V245.71C166.943 245.761 166.849 245.808 166.704 245.851C166.562 245.891 166.397 245.926 166.21 245.957C166.025 245.986 165.845 246.011 165.669 246.034C165.495 246.054 165.355 246.071 165.247 246.085C164.985 246.119 164.741 246.175 164.514 246.251C164.289 246.325 164.108 246.437 163.968 246.588C163.832 246.736 163.764 246.937 163.764 247.193C163.764 247.543 163.893 247.807 164.152 247.986C164.413 248.162 164.744 248.25 165.145 248.25ZM169.827 249V242.455H170.798V243.477H170.884C171.02 243.128 171.24 242.857 171.544 242.663C171.848 242.467 172.213 242.369 172.639 242.369C173.071 242.369 173.43 242.467 173.717 242.663C174.007 242.857 174.233 243.128 174.395 243.477H174.463C174.631 243.139 174.882 242.871 175.217 242.672C175.553 242.47 175.955 242.369 176.423 242.369C177.009 242.369 177.487 242.553 177.859 242.919C178.232 243.283 178.418 243.849 178.418 244.619V249H177.412V244.619C177.412 244.136 177.28 243.791 177.016 243.584C176.751 243.376 176.44 243.273 176.082 243.273C175.622 243.273 175.266 243.412 175.013 243.69C174.76 243.966 174.634 244.315 174.634 244.739V249H173.611V244.517C173.611 244.145 173.49 243.845 173.249 243.618C173.007 243.388 172.696 243.273 172.315 243.273C172.054 243.273 171.81 243.342 171.582 243.482C171.358 243.621 171.176 243.814 171.037 244.061C170.901 244.305 170.832 244.588 170.832 244.909V249H169.827ZM180.256 251.455V242.455H181.228V243.494H181.347C181.421 243.381 181.523 243.236 181.654 243.06C181.788 242.881 181.978 242.722 182.225 242.582C182.475 242.44 182.813 242.369 183.239 242.369C183.79 242.369 184.276 242.507 184.697 242.783C185.117 243.058 185.445 243.449 185.681 243.955C185.917 244.46 186.035 245.057 186.035 245.744C186.035 246.438 185.917 247.038 185.681 247.547C185.445 248.053 185.119 248.445 184.701 248.723C184.283 248.999 183.802 249.136 183.256 249.136C182.836 249.136 182.499 249.067 182.246 248.928C181.994 248.786 181.799 248.625 181.663 248.446C181.526 248.264 181.421 248.114 181.347 247.994H181.262V251.455H180.256ZM181.245 245.727C181.245 246.222 181.317 246.658 181.462 247.036C181.607 247.411 181.819 247.705 182.097 247.918C182.376 248.128 182.717 248.233 183.12 248.233C183.54 248.233 183.891 248.122 184.173 247.901C184.457 247.676 184.67 247.375 184.812 246.997C184.957 246.616 185.029 246.193 185.029 245.727C185.029 245.267 184.958 244.852 184.816 244.483C184.677 244.111 184.465 243.817 184.181 243.601C183.9 243.382 183.546 243.273 183.12 243.273C182.711 243.273 182.367 243.376 182.089 243.584C181.81 243.788 181.6 244.075 181.458 244.445C181.316 244.811 181.245 245.239 181.245 245.727ZM191.694 246.324V242.455H192.7V249H191.694V247.892H191.626C191.472 248.224 191.234 248.507 190.91 248.74C190.586 248.97 190.177 249.085 189.683 249.085C189.273 249.085 188.91 248.996 188.592 248.817C188.273 248.635 188.023 248.362 187.842 247.999C187.66 247.632 187.569 247.17 187.569 246.614V242.455H188.575V246.545C188.575 247.023 188.708 247.403 188.975 247.688C189.245 247.972 189.589 248.114 190.006 248.114C190.256 248.114 190.511 248.05 190.769 247.922C191.031 247.794 191.249 247.598 191.425 247.334C191.604 247.07 191.694 246.733 191.694 246.324ZM199.178 243.92L198.275 244.176C198.218 244.026 198.134 243.879 198.023 243.737C197.915 243.592 197.767 243.473 197.58 243.379C197.392 243.286 197.152 243.239 196.86 243.239C196.459 243.239 196.125 243.331 195.858 243.516C195.594 243.697 195.462 243.929 195.462 244.21C195.462 244.46 195.553 244.658 195.735 244.803C195.917 244.947 196.201 245.068 196.587 245.165L197.559 245.403C198.144 245.545 198.58 245.763 198.867 246.055C199.154 246.345 199.297 246.719 199.297 247.176C199.297 247.551 199.189 247.886 198.973 248.182C198.76 248.477 198.462 248.71 198.078 248.881C197.695 249.051 197.249 249.136 196.74 249.136C196.073 249.136 195.52 248.991 195.083 248.702C194.645 248.412 194.368 247.989 194.252 247.432L195.206 247.193C195.297 247.545 195.469 247.81 195.722 247.986C195.978 248.162 196.311 248.25 196.723 248.25C197.192 248.25 197.564 248.151 197.84 247.952C198.118 247.75 198.257 247.509 198.257 247.227C198.257 247 198.178 246.81 198.019 246.656C197.86 246.5 197.615 246.384 197.286 246.307L196.195 246.051C195.596 245.909 195.155 245.689 194.874 245.391C194.596 245.089 194.456 244.713 194.456 244.261C194.456 243.892 194.56 243.565 194.767 243.281C194.978 242.997 195.263 242.774 195.624 242.612C195.988 242.45 196.4 242.369 196.86 242.369C197.507 242.369 198.016 242.511 198.385 242.795C198.757 243.08 199.022 243.455 199.178 243.92Z" fill="black"/>
<path d="M67.2647 282V281.233L70.1454 278.08C70.4835 277.71 70.7619 277.389 70.9806 277.116C71.1994 276.841 71.3613 276.582 71.4664 276.341C71.5744 276.097 71.6284 275.841 71.6284 275.574C71.6284 275.267 71.5545 275.001 71.4068 274.777C71.2619 274.553 71.063 274.379 70.8102 274.257C70.5574 274.135 70.2733 274.074 69.9579 274.074C69.6227 274.074 69.3301 274.143 69.0801 274.283C68.8329 274.419 68.6412 274.611 68.5048 274.858C68.3713 275.105 68.3045 275.395 68.3045 275.727H67.2988C67.2988 275.216 67.4167 274.767 67.6525 274.381C67.8883 273.994 68.2093 273.693 68.6156 273.477C69.0247 273.261 69.4835 273.153 69.992 273.153C70.5034 273.153 70.9565 273.261 71.3514 273.477C71.7463 273.693 72.0559 273.984 72.2804 274.351C72.5048 274.717 72.617 275.125 72.617 275.574C72.617 275.895 72.5588 276.209 72.4423 276.516C72.3287 276.82 72.1298 277.159 71.8457 277.534C71.5645 277.906 71.1738 278.361 70.6738 278.898L68.7136 280.994V281.062H72.7704V282H67.2647ZM78.9792 280.364V279.903C78.9792 279.585 79.0446 279.294 79.1752 279.03C79.3088 278.763 79.502 278.55 79.7548 278.391C80.0105 278.229 80.3201 278.148 80.6838 278.148C81.0531 278.148 81.3627 278.229 81.6127 278.391C81.8627 278.55 82.0517 278.763 82.1795 279.03C82.3074 279.294 82.3713 279.585 82.3713 279.903V280.364C82.3713 280.682 82.3059 280.974 82.1752 281.241C82.0474 281.506 81.8571 281.719 81.6042 281.881C81.3542 282.04 81.0474 282.119 80.6838 282.119C80.3145 282.119 80.0034 282.04 79.7505 281.881C79.4977 281.719 79.3059 281.506 79.1752 281.241C79.0446 280.974 78.9792 280.682 78.9792 280.364ZM79.8485 279.903V280.364C79.8485 280.628 79.911 280.865 80.036 281.075C80.161 281.283 80.377 281.386 80.6838 281.386C80.9821 281.386 81.1923 281.283 81.3145 281.075C81.4395 280.865 81.502 280.628 81.502 280.364V279.903C81.502 279.639 81.4423 279.403 81.323 279.196C81.2037 278.986 80.9906 278.881 80.6838 278.881C80.3855 278.881 80.171 278.986 80.0403 279.196C79.9125 279.403 79.8485 279.639 79.8485 279.903ZM74.6326 275.369V274.909C74.6326 274.591 74.698 274.3 74.8287 274.036C74.9622 273.768 75.1554 273.555 75.4082 273.396C75.6639 273.234 75.9735 273.153 76.3372 273.153C76.7065 273.153 77.0162 273.234 77.2662 273.396C77.5162 273.555 77.7051 273.768 77.8329 274.036C77.9608 274.3 78.0247 274.591 78.0247 274.909V275.369C78.0247 275.687 77.9593 275.98 77.8287 276.247C77.7008 276.511 77.5105 276.724 77.2576 276.886C77.0076 277.045 76.7008 277.125 76.3372 277.125C75.9679 277.125 75.6568 277.045 75.4039 276.886C75.1511 276.724 74.9593 276.511 74.8287 276.247C74.698 275.98 74.6326 275.687 74.6326 275.369ZM75.502 274.909V275.369C75.502 275.634 75.5645 275.871 75.6895 276.081C75.8145 276.288 76.0304 276.392 76.3372 276.392C76.6355 276.392 76.8457 276.288 76.9679 276.081C77.0929 275.871 77.1554 275.634 77.1554 275.369V274.909C77.1554 274.645 77.0957 274.409 76.9764 274.202C76.8571 273.991 76.644 273.886 76.3372 273.886C76.0389 273.886 75.8244 273.991 75.6937 274.202C75.5659 274.409 75.502 274.645 75.502 274.909ZM74.9565 282L80.9565 273.273H81.9281L75.9281 282H74.9565ZM95.1724 277.636C95.1724 278.557 95.0062 279.352 94.6738 280.023C94.3414 280.693 93.8855 281.21 93.3059 281.574C92.7264 281.938 92.0645 282.119 91.3201 282.119C90.5758 282.119 89.9139 281.938 89.3343 281.574C88.7548 281.21 88.2988 280.693 87.9664 280.023C87.6341 279.352 87.4679 278.557 87.4679 277.636C87.4679 276.716 87.6341 275.92 87.9664 275.25C88.2988 274.58 88.7548 274.062 89.3343 273.699C89.9139 273.335 90.5758 273.153 91.3201 273.153C92.0645 273.153 92.7264 273.335 93.3059 273.699C93.8855 274.062 94.3414 274.58 94.6738 275.25C95.0062 275.92 95.1724 276.716 95.1724 277.636ZM94.1497 277.636C94.1497 276.881 94.0233 276.243 93.7704 275.723C93.5204 275.203 93.1809 274.81 92.752 274.543C92.3258 274.276 91.8485 274.142 91.3201 274.142C90.7917 274.142 90.313 274.276 89.8841 274.543C89.4579 274.81 89.1184 275.203 88.8656 275.723C88.6156 276.243 88.4906 276.881 88.4906 277.636C88.4906 278.392 88.6156 279.03 88.8656 279.55C89.1184 280.07 89.4579 280.463 89.8841 280.73C90.313 280.997 90.7917 281.131 91.3201 281.131C91.8485 281.131 92.3258 280.997 92.752 280.73C93.1809 280.463 93.5204 280.07 93.7704 279.55C94.0233 279.03 94.1497 278.392 94.1497 277.636ZM99.6596 275.455V276.307H96.2676V275.455H99.6596ZM97.2562 273.886H98.2619V280.125C98.2619 280.409 98.3031 280.622 98.3855 280.764C98.4707 280.903 98.5787 280.997 98.7093 281.045C98.8429 281.091 98.9835 281.114 99.1312 281.114C99.242 281.114 99.3329 281.108 99.4039 281.097C99.475 281.082 99.5318 281.071 99.5744 281.062L99.7789 281.966C99.7108 281.991 99.6156 282.017 99.4934 282.043C99.3713 282.071 99.2164 282.085 99.0289 282.085C98.7449 282.085 98.4664 282.024 98.1937 281.902C97.9238 281.78 97.6994 281.594 97.5204 281.344C97.3443 281.094 97.2562 280.778 97.2562 280.398V273.886ZM102.319 278.062V282H101.313V273.273H102.319V276.477H102.404C102.557 276.139 102.787 275.871 103.094 275.672C103.404 275.47 103.816 275.369 104.33 275.369C104.776 275.369 105.167 275.459 105.502 275.638C105.837 275.814 106.097 276.085 106.282 276.452C106.469 276.815 106.563 277.278 106.563 277.841V282H105.557V277.909C105.557 277.389 105.422 276.987 105.153 276.703C104.885 276.416 104.515 276.273 104.04 276.273C103.711 276.273 103.415 276.342 103.154 276.482C102.895 276.621 102.691 276.824 102.54 277.091C102.393 277.358 102.319 277.682 102.319 278.062ZM111.147 282.136C110.517 282.136 109.972 281.997 109.515 281.719C109.061 281.438 108.71 281.045 108.463 280.543C108.218 280.037 108.096 279.449 108.096 278.778C108.096 278.108 108.218 277.517 108.463 277.006C108.71 276.491 109.053 276.091 109.494 275.804C109.937 275.514 110.454 275.369 111.045 275.369C111.386 275.369 111.722 275.426 112.055 275.54C112.387 275.653 112.69 275.838 112.963 276.094C113.235 276.347 113.453 276.682 113.615 277.099C113.776 277.517 113.857 278.031 113.857 278.642V279.068H108.812V278.199H112.835C112.835 277.83 112.761 277.5 112.613 277.21C112.468 276.92 112.261 276.692 111.991 276.524C111.724 276.357 111.409 276.273 111.045 276.273C110.644 276.273 110.298 276.372 110.005 276.571C109.715 276.767 109.492 277.023 109.336 277.338C109.18 277.653 109.102 277.991 109.102 278.352V278.932C109.102 279.426 109.187 279.845 109.357 280.189C109.531 280.53 109.771 280.79 110.078 280.969C110.384 281.145 110.741 281.233 111.147 281.233C111.411 281.233 111.65 281.196 111.863 281.122C112.079 281.045 112.265 280.932 112.421 280.781C112.578 280.628 112.698 280.437 112.784 280.21L113.755 280.483C113.653 280.812 113.481 281.102 113.24 281.352C112.998 281.599 112.7 281.793 112.345 281.932C111.99 282.068 111.59 282.136 111.147 282.136ZM115.387 282V275.455H116.359V276.443H116.427C116.546 276.119 116.762 275.857 117.075 275.655C117.387 275.453 117.74 275.352 118.132 275.352C118.205 275.352 118.298 275.354 118.409 275.357C118.519 275.359 118.603 275.364 118.66 275.369V276.392C118.626 276.384 118.548 276.371 118.426 276.354C118.306 276.334 118.18 276.324 118.046 276.324C117.728 276.324 117.444 276.391 117.194 276.524C116.947 276.655 116.751 276.837 116.606 277.07C116.464 277.3 116.393 277.562 116.393 277.858V282H115.387ZM124.488 276.92L123.585 277.176C123.528 277.026 123.444 276.879 123.334 276.737C123.226 276.592 123.078 276.473 122.89 276.379C122.703 276.286 122.463 276.239 122.17 276.239C121.77 276.239 121.436 276.331 121.169 276.516C120.905 276.697 120.773 276.929 120.773 277.21C120.773 277.46 120.863 277.658 121.045 277.803C121.227 277.947 121.511 278.068 121.898 278.165L122.869 278.403C123.454 278.545 123.89 278.763 124.177 279.055C124.464 279.345 124.608 279.719 124.608 280.176C124.608 280.551 124.5 280.886 124.284 281.182C124.071 281.477 123.773 281.71 123.389 281.881C123.006 282.051 122.559 282.136 122.051 282.136C121.383 282.136 120.831 281.991 120.393 281.702C119.956 281.412 119.679 280.989 119.562 280.432L120.517 280.193C120.608 280.545 120.78 280.81 121.032 280.986C121.288 281.162 121.622 281.25 122.034 281.25C122.503 281.25 122.875 281.151 123.15 280.952C123.429 280.75 123.568 280.509 123.568 280.227C123.568 280 123.488 279.81 123.329 279.656C123.17 279.5 122.926 279.384 122.596 279.307L121.506 279.051C120.906 278.909 120.466 278.689 120.184 278.391C119.906 278.089 119.767 277.713 119.767 277.261C119.767 276.892 119.871 276.565 120.078 276.281C120.288 275.997 120.574 275.774 120.934 275.612C121.298 275.45 121.71 275.369 122.17 275.369C122.818 275.369 123.327 275.511 123.696 275.795C124.068 276.08 124.332 276.455 124.488 276.92ZM129.207 272.864L126.394 283.312H125.474L128.286 272.864H129.207ZM130.535 282V273.273H131.592V277.159H136.246V273.273H137.302V282H136.246V278.097H131.592V282H130.535ZM139.282 282V275.455H140.287V282H139.282ZM139.793 274.364C139.597 274.364 139.428 274.297 139.286 274.163C139.147 274.03 139.077 273.869 139.077 273.682C139.077 273.494 139.147 273.334 139.286 273.2C139.428 273.067 139.597 273 139.793 273C139.989 273 140.157 273.067 140.296 273.2C140.438 273.334 140.509 273.494 140.509 273.682C140.509 273.869 140.438 274.03 140.296 274.163C140.157 274.297 139.989 274.364 139.793 274.364ZM144.771 284.591C144.286 284.591 143.868 284.528 143.519 284.403C143.169 284.281 142.878 284.119 142.645 283.918C142.415 283.719 142.232 283.506 142.095 283.278L142.896 282.716C142.987 282.835 143.102 282.972 143.242 283.125C143.381 283.281 143.571 283.416 143.813 283.53C144.057 283.646 144.377 283.705 144.771 283.705C145.3 283.705 145.736 283.577 146.08 283.321C146.423 283.065 146.595 282.665 146.595 282.119V280.79H146.51C146.436 280.909 146.331 281.057 146.195 281.233C146.061 281.406 145.868 281.561 145.615 281.697C145.365 281.831 145.027 281.898 144.601 281.898C144.073 281.898 143.598 281.773 143.178 281.523C142.76 281.273 142.429 280.909 142.185 280.432C141.943 279.955 141.823 279.375 141.823 278.693C141.823 278.023 141.941 277.439 142.176 276.942C142.412 276.442 142.74 276.055 143.161 275.783C143.581 275.507 144.067 275.369 144.618 275.369C145.044 275.369 145.382 275.44 145.632 275.582C145.885 275.722 146.078 275.881 146.212 276.06C146.348 276.236 146.453 276.381 146.527 276.494H146.629V275.455H147.601V282.188C147.601 282.75 147.473 283.207 147.218 283.56C146.965 283.915 146.624 284.175 146.195 284.339C145.769 284.507 145.294 284.591 144.771 284.591ZM144.737 280.994C145.141 280.994 145.482 280.902 145.76 280.717C146.039 280.533 146.25 280.267 146.395 279.92C146.54 279.574 146.612 279.159 146.612 278.676C146.612 278.205 146.541 277.788 146.399 277.428C146.257 277.067 146.047 276.784 145.769 276.58C145.49 276.375 145.146 276.273 144.737 276.273C144.311 276.273 143.956 276.381 143.672 276.597C143.391 276.812 143.179 277.102 143.037 277.466C142.898 277.83 142.828 278.233 142.828 278.676C142.828 279.131 142.899 279.533 143.041 279.882C143.186 280.229 143.399 280.501 143.681 280.7C143.965 280.896 144.317 280.994 144.737 280.994ZM150.448 278.062V282H149.442V273.273H150.448V276.477H150.533C150.686 276.139 150.916 275.871 151.223 275.672C151.533 275.47 151.945 275.369 152.459 275.369C152.905 275.369 153.296 275.459 153.631 275.638C153.966 275.814 154.226 276.085 154.411 276.452C154.598 276.815 154.692 277.278 154.692 277.841V282H153.686V277.909C153.686 277.389 153.551 276.987 153.281 276.703C153.014 276.416 152.644 276.273 152.169 276.273C151.84 276.273 151.544 276.342 151.283 276.482C151.024 276.621 150.82 276.824 150.669 277.091C150.521 277.358 150.448 277.682 150.448 278.062ZM159.276 282.136C158.645 282.136 158.101 281.997 157.644 281.719C157.189 281.438 156.839 281.045 156.591 280.543C156.347 280.037 156.225 279.449 156.225 278.778C156.225 278.108 156.347 277.517 156.591 277.006C156.839 276.491 157.182 276.091 157.623 275.804C158.066 275.514 158.583 275.369 159.174 275.369C159.515 275.369 159.851 275.426 160.184 275.54C160.516 275.653 160.819 275.838 161.091 276.094C161.364 276.347 161.581 276.682 161.743 277.099C161.905 277.517 161.986 278.031 161.986 278.642V279.068H156.941V278.199H160.964C160.964 277.83 160.89 277.5 160.742 277.21C160.597 276.92 160.39 276.692 160.12 276.524C159.853 276.357 159.537 276.273 159.174 276.273C158.773 276.273 158.427 276.372 158.134 276.571C157.844 276.767 157.621 277.023 157.465 277.338C157.309 277.653 157.231 277.991 157.231 278.352V278.932C157.231 279.426 157.316 279.845 157.486 280.189C157.66 280.53 157.9 280.79 158.206 280.969C158.513 281.145 158.87 281.233 159.276 281.233C159.54 281.233 159.779 281.196 159.992 281.122C160.208 281.045 160.394 280.932 160.55 280.781C160.706 280.628 160.827 280.437 160.912 280.21L161.884 280.483C161.782 280.812 161.61 281.102 161.368 281.352C161.127 281.599 160.829 281.793 160.474 281.932C160.118 282.068 159.719 282.136 159.276 282.136ZM163.516 282V275.455H164.488V276.443H164.556C164.675 276.119 164.891 275.857 165.204 275.655C165.516 275.453 165.868 275.352 166.26 275.352C166.334 275.352 166.427 275.354 166.537 275.357C166.648 275.359 166.732 275.364 166.789 275.369V276.392C166.755 276.384 166.677 276.371 166.555 276.354C166.435 276.334 166.309 276.324 166.175 276.324C165.857 276.324 165.573 276.391 165.323 276.524C165.076 276.655 164.88 276.837 164.735 277.07C164.593 277.3 164.522 277.562 164.522 277.858V282H163.516ZM171.251 277.79V278.727H167.432V277.79H171.251ZM177.929 275.455C177.878 275.023 177.671 274.688 177.307 274.449C176.943 274.21 176.497 274.091 175.969 274.091C175.583 274.091 175.244 274.153 174.955 274.278C174.668 274.403 174.443 274.575 174.281 274.794C174.122 275.013 174.043 275.261 174.043 275.54C174.043 275.773 174.098 275.973 174.209 276.141C174.323 276.305 174.468 276.443 174.644 276.554C174.82 276.662 175.004 276.751 175.198 276.822C175.391 276.891 175.568 276.946 175.73 276.989L176.617 277.227C176.844 277.287 177.097 277.369 177.375 277.474C177.656 277.58 177.925 277.723 178.181 277.905C178.439 278.084 178.652 278.314 178.82 278.595C178.987 278.876 179.071 279.222 179.071 279.631C179.071 280.102 178.948 280.528 178.7 280.909C178.456 281.29 178.098 281.592 177.627 281.817C177.158 282.041 176.588 282.153 175.918 282.153C175.293 282.153 174.752 282.053 174.294 281.851C173.84 281.649 173.482 281.368 173.22 281.007C172.962 280.646 172.816 280.227 172.781 279.75H173.872C173.901 280.08 174.012 280.352 174.205 280.568C174.401 280.781 174.648 280.94 174.946 281.045C175.247 281.148 175.571 281.199 175.918 281.199C176.321 281.199 176.683 281.134 177.004 281.003C177.325 280.869 177.58 280.685 177.767 280.449C177.955 280.21 178.048 279.932 178.048 279.614C178.048 279.324 177.968 279.088 177.806 278.906C177.644 278.724 177.431 278.577 177.166 278.463C176.902 278.349 176.617 278.25 176.31 278.165L175.236 277.858C174.554 277.662 174.014 277.382 173.617 277.018C173.219 276.655 173.02 276.179 173.02 275.591C173.02 275.102 173.152 274.676 173.416 274.312C173.683 273.946 174.041 273.662 174.49 273.46C174.942 273.256 175.446 273.153 176.003 273.153C176.566 273.153 177.066 273.254 177.503 273.456C177.941 273.655 178.287 273.928 178.543 274.274C178.801 274.621 178.938 275.014 178.952 275.455H177.929ZM183.519 275.455V276.307H180.127V275.455H183.519ZM181.116 273.886H182.121V280.125C182.121 280.409 182.162 280.622 182.245 280.764C182.33 280.903 182.438 280.997 182.569 281.045C182.702 281.091 182.843 281.114 182.991 281.114C183.101 281.114 183.192 281.108 183.263 281.097C183.334 281.082 183.391 281.071 183.434 281.062L183.638 281.966C183.57 281.991 183.475 282.017 183.353 282.043C183.231 282.071 183.076 282.085 182.888 282.085C182.604 282.085 182.326 282.024 182.053 281.902C181.783 281.78 181.559 281.594 181.38 281.344C181.204 281.094 181.116 280.778 181.116 280.398V273.886ZM189.157 279.324V275.455H190.162V282H189.157V280.892H189.089C188.935 281.224 188.697 281.507 188.373 281.74C188.049 281.97 187.64 282.085 187.145 282.085C186.736 282.085 186.373 281.996 186.055 281.817C185.736 281.635 185.486 281.362 185.305 280.999C185.123 280.632 185.032 280.17 185.032 279.614V275.455H186.037V279.545C186.037 280.023 186.171 280.403 186.438 280.688C186.708 280.972 187.052 281.114 187.469 281.114C187.719 281.114 187.974 281.05 188.232 280.922C188.493 280.794 188.712 280.598 188.888 280.334C189.067 280.07 189.157 279.733 189.157 279.324ZM194.476 282.136C193.931 282.136 193.449 281.999 193.031 281.723C192.614 281.445 192.287 281.053 192.051 280.547C191.816 280.038 191.698 279.438 191.698 278.744C191.698 278.057 191.816 277.46 192.051 276.955C192.287 276.449 192.615 276.058 193.036 275.783C193.456 275.507 193.942 275.369 194.493 275.369C194.919 275.369 195.256 275.44 195.503 275.582C195.753 275.722 195.943 275.881 196.074 276.06C196.208 276.236 196.311 276.381 196.385 276.494H196.47V273.273H197.476V282H196.504V280.994H196.385C196.311 281.114 196.206 281.264 196.07 281.446C195.933 281.625 195.739 281.786 195.486 281.928C195.233 282.067 194.896 282.136 194.476 282.136ZM194.612 281.233C195.016 281.233 195.357 281.128 195.635 280.918C195.914 280.705 196.125 280.411 196.27 280.036C196.415 279.658 196.487 279.222 196.487 278.727C196.487 278.239 196.416 277.811 196.274 277.445C196.132 277.075 195.922 276.788 195.644 276.584C195.365 276.376 195.021 276.273 194.612 276.273C194.186 276.273 193.831 276.382 193.547 276.601C193.266 276.817 193.054 277.111 192.912 277.483C192.773 277.852 192.703 278.267 192.703 278.727C192.703 279.193 192.774 279.616 192.916 279.997C193.061 280.375 193.274 280.676 193.556 280.901C193.84 281.122 194.192 281.233 194.612 281.233ZM199.458 282V275.455H200.463V282H199.458ZM199.969 274.364C199.773 274.364 199.604 274.297 199.462 274.163C199.323 274.03 199.253 273.869 199.253 273.682C199.253 273.494 199.323 273.334 199.462 273.2C199.604 273.067 199.773 273 199.969 273C200.165 273 200.333 273.067 200.472 273.2C200.614 273.334 200.685 273.494 200.685 273.682C200.685 273.869 200.614 274.03 200.472 274.163C200.333 274.297 200.165 274.364 199.969 274.364ZM205.05 282.136C204.419 282.136 203.875 281.997 203.417 281.719C202.963 281.438 202.612 281.045 202.365 280.543C202.121 280.037 201.998 279.449 201.998 278.778C201.998 278.108 202.121 277.517 202.365 277.006C202.612 276.491 202.956 276.091 203.396 275.804C203.839 275.514 204.356 275.369 204.947 275.369C205.288 275.369 205.625 275.426 205.957 275.54C206.29 275.653 206.592 275.838 206.865 276.094C207.138 276.347 207.355 276.682 207.517 277.099C207.679 277.517 207.76 278.031 207.76 278.642V279.068H202.714V278.199H206.737C206.737 277.83 206.663 277.5 206.515 277.21C206.371 276.92 206.163 276.692 205.893 276.524C205.626 276.357 205.311 276.273 204.947 276.273C204.547 276.273 204.2 276.372 203.907 276.571C203.618 276.767 203.395 277.023 203.238 277.338C203.082 277.653 203.004 277.991 203.004 278.352V278.932C203.004 279.426 203.089 279.845 203.26 280.189C203.433 280.53 203.673 280.79 203.98 280.969C204.287 281.145 204.643 281.233 205.05 281.233C205.314 281.233 205.552 281.196 205.765 281.122C205.981 281.045 206.167 280.932 206.324 280.781C206.48 280.628 206.601 280.437 206.686 280.21L207.657 280.483C207.555 280.812 207.383 281.102 207.142 281.352C206.9 281.599 206.602 281.793 206.247 281.932C205.892 282.068 205.493 282.136 205.05 282.136ZM213.926 276.92L213.023 277.176C212.966 277.026 212.882 276.879 212.771 276.737C212.663 276.592 212.515 276.473 212.328 276.379C212.14 276.286 211.9 276.239 211.608 276.239C211.207 276.239 210.873 276.331 210.606 276.516C210.342 276.697 210.21 276.929 210.21 277.21C210.21 277.46 210.301 277.658 210.483 277.803C210.665 277.947 210.949 278.068 211.335 278.165L212.307 278.403C212.892 278.545 213.328 278.763 213.615 279.055C213.902 279.345 214.045 279.719 214.045 280.176C214.045 280.551 213.937 280.886 213.721 281.182C213.508 281.477 213.21 281.71 212.827 281.881C212.443 282.051 211.997 282.136 211.488 282.136C210.821 282.136 210.268 281.991 209.831 281.702C209.393 281.412 209.116 280.989 209 280.432L209.954 280.193C210.045 280.545 210.217 280.81 210.47 280.986C210.726 281.162 211.059 281.25 211.471 281.25C211.94 281.25 212.312 281.151 212.588 280.952C212.866 280.75 213.006 280.509 213.006 280.227C213.006 280 212.926 279.81 212.767 279.656C212.608 279.5 212.363 279.384 212.034 279.307L210.943 279.051C210.344 278.909 209.903 278.689 209.622 278.391C209.344 278.089 209.204 277.713 209.204 277.261C209.204 276.892 209.308 276.565 209.515 276.281C209.726 275.997 210.011 275.774 210.372 275.612C210.736 275.45 211.148 275.369 211.608 275.369C212.256 275.369 212.764 275.511 213.133 275.795C213.506 276.08 213.77 276.455 213.926 276.92Z" fill="black"/>
<path d="M37 254.625C31.6939 254.625 27.375 250.307 27.375 245C27.375 239.693 31.6939 235.375 37 235.375C42.3061 235.375 46.625 239.693 46.625 245C46.625 250.307 42.3061 254.625 37 254.625ZM37 236.75C32.4501 236.75 28.75 240.45 28.75 245C28.75 249.55 32.4501 253.25 37 253.25C41.5499 253.25 45.25 249.55 45.25 245C45.25 240.45 41.5499 236.75 37 236.75Z" fill="#1461FF"/>
<path d="M37 247.98C38.6456 247.98 39.9796 246.646 39.9796 245C39.9796 243.354 38.6456 242.02 37 242.02C35.3544 242.02 34.0204 243.354 34.0204 245C34.0204 246.646 35.3544 247.98 37 247.98Z" fill="#D320C1"/>
<g filter="url(#filter0_i_295_341)">
<circle cx="118.567" cy="125.294" r="73.6163" fill="#E9EFF6"/>
</g>
<g filter="url(#filter1_d_295_341)">
<circle cx="119.25" cy="124.612" r="62.7102" fill="white"/>
</g>
<path d="M99.3364 108.376V124.049H96.2427V111.942L92.5259 113.124V110.685L99.0034 108.376H99.3364ZM115.836 114.853V117.56C115.836 118.735 115.71 119.748 115.46 120.6C115.209 121.446 114.847 122.14 114.375 122.684C113.909 123.222 113.354 123.619 112.71 123.877C112.065 124.135 111.349 124.264 110.561 124.264C109.931 124.264 109.344 124.185 108.799 124.027C108.255 123.863 107.765 123.608 107.328 123.265C106.898 122.921 106.526 122.488 106.211 121.965C105.903 121.435 105.666 120.805 105.502 120.074C105.337 119.344 105.255 118.506 105.255 117.56V114.853C105.255 113.679 105.38 112.673 105.631 111.835C105.888 110.99 106.25 110.299 106.715 109.762C107.188 109.224 107.747 108.831 108.391 108.58C109.036 108.322 109.752 108.193 110.54 108.193C111.17 108.193 111.754 108.276 112.291 108.44C112.835 108.598 113.325 108.845 113.762 109.182C114.199 109.518 114.572 109.951 114.88 110.481C115.187 111.004 115.424 111.631 115.589 112.361C115.753 113.085 115.836 113.915 115.836 114.853ZM112.731 117.969V114.434C112.731 113.869 112.699 113.375 112.634 112.952C112.577 112.53 112.488 112.171 112.366 111.878C112.244 111.577 112.094 111.334 111.915 111.147C111.736 110.961 111.532 110.825 111.302 110.739C111.073 110.653 110.819 110.61 110.54 110.61C110.189 110.61 109.877 110.678 109.605 110.814C109.34 110.95 109.115 111.169 108.928 111.47C108.742 111.763 108.599 112.157 108.499 112.651C108.406 113.138 108.359 113.733 108.359 114.434V117.969C108.359 118.534 108.388 119.032 108.445 119.462C108.509 119.891 108.603 120.26 108.724 120.568C108.853 120.869 109.004 121.116 109.175 121.309C109.354 121.496 109.559 121.632 109.788 121.718C110.024 121.804 110.282 121.847 110.561 121.847C110.905 121.847 111.209 121.779 111.474 121.642C111.746 121.499 111.976 121.277 112.162 120.976C112.355 120.668 112.498 120.267 112.591 119.773C112.685 119.279 112.731 118.678 112.731 117.969ZM129.348 114.853V117.56C129.348 118.735 129.223 119.748 128.972 120.6C128.722 121.446 128.36 122.14 127.887 122.684C127.422 123.222 126.867 123.619 126.222 123.877C125.578 124.135 124.862 124.264 124.074 124.264C123.444 124.264 122.857 124.185 122.312 124.027C121.768 123.863 121.277 123.608 120.841 123.265C120.411 122.921 120.038 122.488 119.723 121.965C119.415 121.435 119.179 120.805 119.014 120.074C118.85 119.344 118.767 118.506 118.767 117.56V114.853C118.767 113.679 118.893 112.673 119.143 111.835C119.401 110.99 119.763 110.299 120.228 109.762C120.701 109.224 121.26 108.831 121.904 108.58C122.549 108.322 123.265 108.193 124.052 108.193C124.683 108.193 125.266 108.276 125.803 108.44C126.348 108.598 126.838 108.845 127.275 109.182C127.712 109.518 128.084 109.951 128.392 110.481C128.7 111.004 128.937 111.631 129.101 112.361C129.266 113.085 129.348 113.915 129.348 114.853ZM126.244 117.969V114.434C126.244 113.869 126.212 113.375 126.147 112.952C126.09 112.53 126 112.171 125.879 111.878C125.757 111.577 125.607 111.334 125.427 111.147C125.248 110.961 125.044 110.825 124.815 110.739C124.586 110.653 124.332 110.61 124.052 110.61C123.702 110.61 123.39 110.678 123.118 110.814C122.853 110.95 122.627 111.169 122.441 111.47C122.255 111.763 122.112 112.157 122.011 112.651C121.918 113.138 121.872 113.733 121.872 114.434V117.969C121.872 118.534 121.9 119.032 121.958 119.462C122.022 119.891 122.115 120.26 122.237 120.568C122.366 120.869 122.516 121.116 122.688 121.309C122.867 121.496 123.071 121.632 123.301 121.718C123.537 121.804 123.795 121.847 124.074 121.847C124.418 121.847 124.722 121.779 124.987 121.642C125.259 121.499 125.488 121.277 125.675 120.976C125.868 120.668 126.011 120.267 126.104 119.773C126.197 119.279 126.244 118.678 126.244 117.969ZM132.291 112.243V111.416C132.291 110.821 132.42 110.281 132.678 109.794C132.935 109.307 133.315 108.917 133.816 108.623C134.318 108.329 134.933 108.182 135.664 108.182C136.416 108.182 137.043 108.329 137.544 108.623C138.052 108.917 138.432 109.307 138.682 109.794C138.94 110.281 139.069 110.821 139.069 111.416V112.243C139.069 112.823 138.94 113.357 138.682 113.844C138.432 114.331 138.056 114.721 137.555 115.015C137.053 115.308 136.434 115.455 135.696 115.455C134.951 115.455 134.325 115.308 133.816 115.015C133.315 114.721 132.935 114.331 132.678 113.844C132.42 113.357 132.291 112.823 132.291 112.243ZM134.343 111.416V112.243C134.343 112.494 134.389 112.734 134.482 112.963C134.583 113.185 134.733 113.367 134.933 113.511C135.141 113.647 135.392 113.715 135.685 113.715C135.993 113.715 136.244 113.647 136.437 113.511C136.631 113.367 136.774 113.185 136.867 112.963C136.96 112.734 137.007 112.494 137.007 112.243V111.416C137.007 111.151 136.957 110.907 136.856 110.685C136.763 110.456 136.616 110.274 136.416 110.138C136.223 109.994 135.972 109.923 135.664 109.923C135.377 109.923 135.134 109.994 134.933 110.138C134.733 110.274 134.583 110.456 134.482 110.685C134.389 110.907 134.343 111.151 134.343 111.416ZM139.767 121.041V120.214C139.767 119.627 139.896 119.089 140.154 118.602C140.419 118.115 140.802 117.725 141.304 117.432C141.812 117.138 142.435 116.991 143.173 116.991C143.918 116.991 144.541 117.138 145.042 117.432C145.543 117.725 145.923 118.115 146.181 118.602C146.438 119.089 146.567 119.627 146.567 120.214V121.041C146.567 121.628 146.438 122.165 146.181 122.652C145.93 123.139 145.554 123.53 145.053 123.823C144.551 124.117 143.932 124.264 143.194 124.264C142.449 124.264 141.823 124.117 141.314 123.823C140.806 123.53 140.419 123.139 140.154 122.652C139.896 122.165 139.767 121.628 139.767 121.041ZM141.83 120.214V121.041C141.83 121.299 141.887 121.542 142.002 121.771C142.116 122.001 142.274 122.183 142.474 122.319C142.682 122.455 142.922 122.523 143.194 122.523C143.538 122.523 143.807 122.455 144 122.319C144.193 122.183 144.326 122.001 144.397 121.771C144.476 121.542 144.515 121.299 144.515 121.041V120.214C144.515 119.956 144.465 119.716 144.365 119.494C144.265 119.265 144.114 119.082 143.914 118.946C143.721 118.803 143.474 118.731 143.173 118.731C142.872 118.731 142.621 118.803 142.421 118.946C142.227 119.082 142.081 119.265 141.98 119.494C141.88 119.716 141.83 119.956 141.83 120.214ZM143.935 110.642L136.298 122.867L134.794 122.072L142.432 109.848L143.935 110.642Z" fill="#1C1E2F"/>
<path d="M101.253 138.284V141.102C101.142 141.235 100.971 141.38 100.74 141.536C100.509 141.689 100.211 141.821 99.8467 141.932C99.4821 142.042 99.041 142.098 98.5234 142.098C98.0645 142.098 97.6462 142.023 97.2686 141.873C96.891 141.72 96.5654 141.497 96.292 141.204C96.0218 140.911 95.8135 140.553 95.667 140.13C95.5205 139.703 95.4473 139.217 95.4473 138.67V138.226C95.4473 137.679 95.5173 137.192 95.6572 136.766C95.8005 136.339 96.0039 135.979 96.2676 135.687C96.5312 135.394 96.8454 135.171 97.21 135.018C97.5745 134.865 97.9798 134.788 98.4258 134.788C99.0443 134.788 99.5521 134.889 99.9492 135.091C100.346 135.289 100.649 135.566 100.857 135.921C101.069 136.272 101.199 136.676 101.248 137.132H99.8271C99.7913 136.891 99.723 136.681 99.6221 136.502C99.5212 136.323 99.3763 136.183 99.1875 136.082C99.002 135.981 98.7611 135.931 98.4648 135.931C98.2207 135.931 98.0026 135.981 97.8105 136.082C97.6217 136.18 97.4622 136.325 97.332 136.517C97.2018 136.709 97.1025 136.946 97.0342 137.229C96.9658 137.513 96.9316 137.841 96.9316 138.216V138.67C96.9316 139.041 96.9674 139.37 97.0391 139.656C97.1107 139.939 97.2165 140.179 97.3564 140.374C97.4997 140.566 97.6755 140.711 97.8838 140.809C98.0921 140.906 98.3346 140.955 98.6113 140.955C98.8424 140.955 99.0345 140.936 99.1875 140.896C99.3438 140.857 99.4691 140.81 99.5635 140.755C99.6611 140.696 99.736 140.641 99.7881 140.589V139.329H98.4502V138.284H101.253ZM102.122 139.412V139.31C102.122 138.922 102.177 138.566 102.288 138.24C102.399 137.911 102.56 137.627 102.771 137.386C102.983 137.145 103.243 136.958 103.553 136.824C103.862 136.688 104.217 136.619 104.617 136.619C105.018 136.619 105.374 136.688 105.687 136.824C105.999 136.958 106.261 137.145 106.473 137.386C106.688 137.627 106.85 137.911 106.961 138.24C107.072 138.566 107.127 138.922 107.127 139.31V139.412C107.127 139.796 107.072 140.153 106.961 140.481C106.85 140.807 106.688 141.092 106.473 141.336C106.261 141.577 106.001 141.764 105.691 141.897C105.382 142.031 105.027 142.098 104.627 142.098C104.227 142.098 103.87 142.031 103.558 141.897C103.248 141.764 102.986 141.577 102.771 141.336C102.56 141.092 102.399 140.807 102.288 140.481C102.177 140.153 102.122 139.796 102.122 139.412ZM103.528 139.31V139.412C103.528 139.633 103.548 139.84 103.587 140.032C103.626 140.224 103.688 140.394 103.772 140.54C103.86 140.683 103.974 140.796 104.114 140.877C104.254 140.958 104.425 140.999 104.627 140.999C104.822 140.999 104.99 140.958 105.13 140.877C105.27 140.796 105.382 140.683 105.467 140.54C105.551 140.394 105.613 140.224 105.652 140.032C105.695 139.84 105.716 139.633 105.716 139.412V139.31C105.716 139.095 105.695 138.893 105.652 138.704C105.613 138.512 105.55 138.343 105.462 138.196C105.377 138.047 105.265 137.929 105.125 137.845C104.985 137.76 104.816 137.718 104.617 137.718C104.419 137.718 104.249 137.76 104.109 137.845C103.973 137.929 103.86 138.047 103.772 138.196C103.688 138.343 103.626 138.512 103.587 138.704C103.548 138.893 103.528 139.095 103.528 139.31ZM110.579 136.717V137.713H107.503V136.717H110.579ZM108.265 135.413H109.671V140.408C109.671 140.561 109.69 140.678 109.729 140.76C109.772 140.841 109.834 140.898 109.915 140.931C109.996 140.96 110.099 140.975 110.223 140.975C110.311 140.975 110.389 140.971 110.457 140.965C110.529 140.955 110.589 140.945 110.638 140.936L110.643 141.971C110.522 142.01 110.392 142.041 110.252 142.063C110.112 142.086 109.957 142.098 109.788 142.098C109.479 142.098 109.209 142.047 108.978 141.946C108.75 141.842 108.574 141.676 108.45 141.448C108.326 141.22 108.265 140.921 108.265 140.55V135.413ZM116.727 139.466H114.915V138.323H116.727C117.007 138.323 117.234 138.278 117.41 138.187C117.586 138.092 117.715 137.962 117.796 137.796C117.877 137.63 117.918 137.443 117.918 137.234C117.918 137.023 117.877 136.826 117.796 136.644C117.715 136.461 117.586 136.315 117.41 136.204C117.234 136.093 117.007 136.038 116.727 136.038H115.423V142H113.958V134.891H116.727C117.283 134.891 117.76 134.992 118.157 135.193C118.558 135.392 118.864 135.667 119.075 136.019C119.287 136.37 119.393 136.772 119.393 137.225C119.393 137.684 119.287 138.081 119.075 138.416C118.864 138.751 118.558 139.01 118.157 139.192C117.76 139.375 117.283 139.466 116.727 139.466ZM121.8 134.5V142H120.389V134.5H121.8ZM125.813 140.809V138.455C125.813 138.286 125.786 138.141 125.73 138.021C125.675 137.897 125.589 137.801 125.472 137.732C125.358 137.664 125.21 137.63 125.027 137.63C124.871 137.63 124.736 137.658 124.622 137.713C124.508 137.765 124.42 137.841 124.358 137.942C124.297 138.04 124.266 138.156 124.266 138.289H122.859C122.859 138.064 122.911 137.851 123.016 137.649C123.12 137.448 123.271 137.27 123.47 137.117C123.668 136.961 123.904 136.839 124.178 136.751C124.454 136.663 124.764 136.619 125.105 136.619C125.516 136.619 125.88 136.688 126.199 136.824C126.518 136.961 126.769 137.166 126.951 137.439C127.137 137.713 127.229 138.055 127.229 138.465V140.726C127.229 141.015 127.247 141.253 127.283 141.438C127.319 141.621 127.371 141.78 127.439 141.917V142H126.019C125.95 141.857 125.898 141.678 125.862 141.463C125.83 141.245 125.813 141.027 125.813 140.809ZM125.999 138.782L126.009 139.578H125.223C125.037 139.578 124.876 139.599 124.739 139.642C124.603 139.684 124.49 139.744 124.402 139.822C124.314 139.897 124.249 139.985 124.207 140.086C124.168 140.187 124.148 140.298 124.148 140.418C124.148 140.538 124.176 140.647 124.231 140.745C124.287 140.84 124.367 140.914 124.471 140.97C124.575 141.022 124.697 141.048 124.837 141.048C125.049 141.048 125.232 141.006 125.389 140.921C125.545 140.836 125.665 140.732 125.75 140.608C125.838 140.485 125.883 140.368 125.887 140.257L126.258 140.853C126.206 140.986 126.134 141.124 126.043 141.268C125.955 141.411 125.843 141.546 125.706 141.673C125.569 141.797 125.405 141.899 125.213 141.98C125.021 142.059 124.793 142.098 124.529 142.098C124.194 142.098 123.89 142.031 123.616 141.897C123.346 141.761 123.131 141.574 122.972 141.336C122.815 141.095 122.737 140.822 122.737 140.516C122.737 140.239 122.789 139.993 122.894 139.778C122.998 139.563 123.151 139.383 123.353 139.236C123.558 139.087 123.813 138.974 124.119 138.899C124.425 138.821 124.78 138.782 125.184 138.782H125.999ZM130.496 140.999C130.669 140.999 130.822 140.966 130.955 140.901C131.089 140.833 131.193 140.739 131.268 140.618C131.346 140.494 131.386 140.35 131.39 140.184H132.713C132.71 140.555 132.61 140.885 132.415 141.175C132.22 141.461 131.958 141.688 131.629 141.854C131.3 142.016 130.932 142.098 130.525 142.098C130.115 142.098 129.757 142.029 129.451 141.893C129.148 141.756 128.896 141.567 128.694 141.326C128.493 141.082 128.341 140.799 128.24 140.477C128.139 140.151 128.089 139.803 128.089 139.432V139.29C128.089 138.916 128.139 138.567 128.24 138.245C128.341 137.92 128.493 137.636 128.694 137.396C128.896 137.151 129.148 136.961 129.451 136.824C129.754 136.688 130.109 136.619 130.516 136.619C130.949 136.619 131.328 136.702 131.653 136.868C131.982 137.034 132.239 137.272 132.425 137.581C132.614 137.887 132.71 138.25 132.713 138.67H131.39C131.386 138.494 131.349 138.335 131.277 138.191C131.209 138.048 131.108 137.934 130.975 137.85C130.844 137.762 130.683 137.718 130.491 137.718C130.286 137.718 130.118 137.762 129.988 137.85C129.858 137.934 129.757 138.051 129.686 138.201C129.614 138.348 129.563 138.515 129.534 138.704C129.508 138.89 129.495 139.085 129.495 139.29V139.432C129.495 139.637 129.508 139.834 129.534 140.022C129.56 140.211 129.609 140.379 129.681 140.525C129.756 140.672 129.858 140.787 129.988 140.872C130.118 140.957 130.288 140.999 130.496 140.999ZM135.96 142.098C135.55 142.098 135.182 142.033 134.856 141.902C134.531 141.769 134.254 141.585 134.026 141.351C133.802 141.116 133.629 140.844 133.509 140.535C133.388 140.223 133.328 139.891 133.328 139.539V139.344C133.328 138.943 133.385 138.577 133.499 138.245C133.613 137.913 133.776 137.625 133.987 137.381C134.202 137.137 134.463 136.95 134.769 136.819C135.075 136.686 135.42 136.619 135.804 136.619C136.178 136.619 136.51 136.681 136.8 136.805C137.09 136.928 137.332 137.104 137.527 137.332C137.726 137.56 137.876 137.833 137.977 138.152C138.077 138.468 138.128 138.82 138.128 139.207V139.793H133.929V138.855H136.746V138.748C136.746 138.553 136.71 138.379 136.639 138.226C136.57 138.069 136.466 137.946 136.326 137.854C136.186 137.763 136.007 137.718 135.789 137.718C135.604 137.718 135.444 137.758 135.311 137.84C135.177 137.921 135.068 138.035 134.983 138.182C134.902 138.328 134.84 138.501 134.798 138.699C134.759 138.895 134.739 139.109 134.739 139.344V139.539C134.739 139.751 134.769 139.946 134.827 140.125C134.889 140.304 134.975 140.459 135.086 140.589C135.2 140.719 135.337 140.82 135.496 140.892C135.659 140.963 135.843 140.999 136.048 140.999C136.302 140.999 136.538 140.95 136.756 140.853C136.977 140.752 137.168 140.6 137.327 140.398L138.011 141.141C137.9 141.3 137.749 141.453 137.557 141.6C137.368 141.746 137.14 141.867 136.873 141.961C136.606 142.052 136.302 142.098 135.96 142.098ZM142.049 140.848V134.5H143.465V142H142.19L142.049 140.848ZM138.709 139.422V139.319C138.709 138.916 138.755 138.549 138.846 138.221C138.937 137.889 139.07 137.604 139.246 137.366C139.422 137.129 139.638 136.945 139.896 136.814C140.153 136.684 140.446 136.619 140.774 136.619C141.084 136.619 141.354 136.684 141.585 136.814C141.819 136.945 142.018 137.13 142.181 137.371C142.347 137.609 142.48 137.89 142.581 138.216C142.682 138.538 142.755 138.891 142.801 139.275V139.5C142.755 139.868 142.682 140.21 142.581 140.525C142.48 140.841 142.347 141.118 142.181 141.355C142.018 141.59 141.819 141.772 141.585 141.902C141.351 142.033 141.077 142.098 140.765 142.098C140.436 142.098 140.143 142.031 139.886 141.897C139.632 141.764 139.417 141.577 139.241 141.336C139.069 141.095 138.937 140.812 138.846 140.486C138.755 140.161 138.709 139.806 138.709 139.422ZM140.115 139.319V139.422C140.115 139.64 140.132 139.843 140.164 140.032C140.2 140.221 140.257 140.389 140.335 140.535C140.416 140.678 140.521 140.791 140.647 140.872C140.778 140.95 140.936 140.989 141.121 140.989C141.362 140.989 141.561 140.936 141.717 140.828C141.873 140.717 141.992 140.566 142.073 140.374C142.158 140.182 142.207 139.961 142.22 139.71V139.07C142.21 138.865 142.181 138.681 142.132 138.519C142.086 138.353 142.018 138.211 141.927 138.094C141.839 137.977 141.728 137.885 141.595 137.82C141.465 137.755 141.31 137.723 141.131 137.723C140.949 137.723 140.792 137.765 140.662 137.85C140.532 137.931 140.426 138.043 140.345 138.187C140.267 138.33 140.208 138.499 140.169 138.694C140.133 138.886 140.115 139.095 140.115 139.319Z" fill="#475799"/>
<path d="M43.0121 122C42.6595 141.909 50.0303 161.18 63.5784 175.772C77.1265 190.364 95.799 199.143 115.679 200.266L115.819 197.793C96.578 196.706 78.506 188.21 65.3936 174.087C52.2811 159.964 45.1473 141.312 45.4886 122.044L43.0121 122Z" fill="url(#paint0_linear_295_341)"/>
<path d="M122.12 49.9361C102.217 49.3485 82.8595 56.4913 68.1086 69.8662C53.3578 83.2411 44.3596 101.809 43.0016 121.674L45.4728 121.843C46.787 102.616 55.4959 84.6459 69.7724 71.7011C84.0489 58.7563 102.784 51.8432 122.047 52.4119L122.12 49.9361Z" fill="url(#paint1_linear_295_341)"/>
<path d="M116 200.807C135.908 201.159 155.18 193.788 169.772 180.24C184.364 166.692 193.142 148.02 194.266 128.14L191.793 128C190.705 147.241 182.209 165.313 168.087 178.425C153.964 191.538 135.312 198.671 116.044 198.33L116 200.807Z" fill="url(#paint2_linear_295_341)"/>
<g filter="url(#filter2_b_295_341)">
<path d="M136.082 52.0408C136.082 61.4522 128.452 69.0816 119.041 69.0816C109.629 69.0816 102 61.4522 102 52.0408C102 42.6294 109.629 35 119.041 35C128.452 35 136.082 42.6294 136.082 52.0408Z" fill="white" fill-opacity="0.2"/>
</g>
<circle cx="119.04" cy="52.0406" r="6.13469" fill="white"/>
<path d="M194.217 128.021C194.569 108.113 187.199 88.8411 173.65 74.2492C160.102 59.6572 141.43 50.8788 121.55 49.7555L121.41 52.2284C140.651 53.3157 158.723 61.8117 171.835 75.9344C184.948 90.0571 192.082 108.709 191.74 127.977L194.217 128.021Z" fill="url(#paint3_linear_295_341)"/>
<circle cx="119.249" cy="51.678" r="6.03837" fill="white" stroke="#2458FF" stroke-width="1.55591"/>
<path d="M48.3592 175.053C48.6318 174.78 50.2905 173.349 51.0857 172.667M40.8612 163.124L44.2694 161.42M35.749 150.173C36.0216 150.173 38.3619 149.492 39.498 149.151M33.0224 136.882L36.7714 136.2M32 123.249C32.2727 122.976 34.6129 123.135 35.749 123.249M33.3633 109.275L36.7714 109.957M36.4306 95.9836L39.8388 97.0061M41.8837 83.0326L44.951 84.7367M49.0408 71.1041L52.1082 73.4898M58.5837 61.2204L60.9694 63.6061M69.149 52.3592L71.1939 55.0857M81.0775 45.202L82.7816 48.2694M93.6877 40.0898L94.7102 43.498M106.98 37.0224L107.661 40.4306M119.931 36C119.931 36.5453 119.931 38.7265 119.931 39.749M133.563 37.0224L132.882 40.4306M147.196 40.0898C147.196 40.6351 146.287 42.8163 145.833 43.8388M159.806 45.5429L158.102 48.951M171.735 53.0408L169.349 56.1081M181.959 61.902C181.959 62.1747 180.141 63.8333 179.233 64.6286M191.161 72.4673L188.094 74.853M198.318 84.3959L194.91 86.1M203.431 97.3469L199.682 98.3693M206.498 110.639L202.749 111.32M207.52 124.271H203.771M206.157 138.245L202.408 137.563M203.431 151.877L199.341 150.173M197.637 164.488L194.228 162.784M190.479 176.075L187.412 174.031" stroke="#C7CBDC" stroke-width="0.518637"/>
<path d="M3.25684 14.2363V19H1.78027V6.39648H5.24316C6.59082 6.39648 7.63379 6.72461 8.37207 7.38086C9.11621 8.03711 9.48828 8.96289 9.48828 10.1582C9.48828 11.3535 9.0752 12.332 8.24902 13.0938C7.42871 13.8555 6.31836 14.2363 4.91797 14.2363H3.25684ZM3.25684 7.73242V12.9004H4.80371C5.82324 12.9004 6.59961 12.6689 7.13281 12.2061C7.67188 11.7373 7.94141 11.0781 7.94141 10.2285C7.94141 8.56445 6.95703 7.73242 4.98828 7.73242H3.25684ZM13.1182 19H11.6768V5.67578H13.1182V19ZM22.4785 19H21.0371V17.5938H21.002C20.375 18.6719 19.4521 19.2109 18.2334 19.2109C17.3369 19.2109 16.6338 18.9736 16.124 18.499C15.6201 18.0244 15.3682 17.3945 15.3682 16.6094C15.3682 14.9277 16.3584 13.9492 18.3389 13.6738L21.0371 13.2959C21.0371 11.7666 20.4189 11.002 19.1826 11.002C18.0986 11.002 17.1201 11.3711 16.2471 12.1094V10.6328C17.1318 10.0703 18.1514 9.78906 19.3057 9.78906C21.4209 9.78906 22.4785 10.9082 22.4785 13.1465V19ZM21.0371 14.4473L18.8662 14.7461C18.1982 14.8398 17.6943 15.0068 17.3545 15.2471C17.0146 15.4814 16.8447 15.9004 16.8447 16.5039C16.8447 16.9434 17 17.3037 17.3105 17.585C17.627 17.8604 18.0459 17.998 18.5674 17.998C19.2822 17.998 19.8711 17.749 20.334 17.251C20.8027 16.7471 21.0371 16.1113 21.0371 15.3438V14.4473ZM31.3291 18.5869C30.6377 19.0029 29.8174 19.2109 28.8682 19.2109C27.585 19.2109 26.5479 18.7949 25.7568 17.9629C24.9717 17.125 24.5791 16.041 24.5791 14.7109C24.5791 13.2285 25.0039 12.0391 25.8535 11.1426C26.7031 10.2402 27.8369 9.78906 29.2549 9.78906C30.0459 9.78906 30.7432 9.93555 31.3467 10.2285V11.7051C30.6787 11.2363 29.9639 11.002 29.2021 11.002C28.2822 11.002 27.5264 11.333 26.9346 11.9951C26.3486 12.6514 26.0557 13.5156 26.0557 14.5879C26.0557 15.6426 26.3311 16.4746 26.8818 17.084C27.4385 17.6934 28.1826 17.998 29.1143 17.998C29.8994 17.998 30.6377 17.7373 31.3291 17.2158V18.5869ZM40.7422 14.8604H34.3877C34.4111 15.8623 34.6807 16.6357 35.1963 17.1807C35.7119 17.7256 36.4209 17.998 37.3232 17.998C38.3369 17.998 39.2686 17.6641 40.1182 16.9961V18.3496C39.3271 18.9238 38.2812 19.2109 36.9805 19.2109C35.709 19.2109 34.71 18.8037 33.9834 17.9893C33.2568 17.1689 32.8936 16.0176 32.8936 14.5352C32.8936 13.1348 33.2891 11.9951 34.0801 11.1162C34.877 10.2314 35.8643 9.78906 37.042 9.78906C38.2197 9.78906 39.1309 10.1699 39.7754 10.9316C40.4199 11.6934 40.7422 12.751 40.7422 14.1045V14.8604ZM39.2656 13.6387C39.2598 12.8066 39.0576 12.1592 38.6592 11.6963C38.2666 11.2334 37.7188 11.002 37.0156 11.002C36.3359 11.002 35.7588 11.2451 35.2842 11.7314C34.8096 12.2178 34.5166 12.8535 34.4053 13.6387H39.2656ZM55.71 19H54.2686V13.832C54.2686 12.8359 54.1133 12.1152 53.8027 11.6699C53.498 11.2246 52.9824 11.002 52.2559 11.002C51.6406 11.002 51.1162 11.2832 50.6826 11.8457C50.2549 12.4082 50.041 13.082 50.041 13.8672V19H48.5996V13.6562C48.5996 11.8867 47.917 11.002 46.5518 11.002C45.9189 11.002 45.3975 11.2686 44.9873 11.8018C44.5771 12.3291 44.3721 13.0176 44.3721 13.8672V19H42.9307V10H44.3721V11.4238H44.4072C45.0459 10.334 45.9775 9.78906 47.2021 9.78906C47.8174 9.78906 48.3535 9.96191 48.8105 10.3076C49.2676 10.6475 49.5811 11.0957 49.751 11.6523C50.4189 10.4102 51.415 9.78906 52.7393 9.78906C54.7197 9.78906 55.71 11.0107 55.71 13.4541V19ZM65.668 14.8604H59.3135C59.3369 15.8623 59.6064 16.6357 60.1221 17.1807C60.6377 17.7256 61.3467 17.998 62.249 17.998C63.2627 17.998 64.1943 17.6641 65.0439 16.9961V18.3496C64.2529 18.9238 63.207 19.2109 61.9062 19.2109C60.6348 19.2109 59.6357 18.8037 58.9092 17.9893C58.1826 17.1689 57.8193 16.0176 57.8193 14.5352C57.8193 13.1348 58.2148 11.9951 59.0059 11.1162C59.8027 10.2314 60.79 9.78906 61.9678 9.78906C63.1455 9.78906 64.0566 10.1699 64.7012 10.9316C65.3457 11.6934 65.668 12.751 65.668 14.1045V14.8604ZM64.1914 13.6387C64.1855 12.8066 63.9834 12.1592 63.585 11.6963C63.1924 11.2334 62.6445 11.002 61.9414 11.002C61.2617 11.002 60.6846 11.2451 60.21 11.7314C59.7354 12.2178 59.4424 12.8535 59.3311 13.6387H64.1914ZM75.3271 19H73.8857V13.8672C73.8857 11.957 73.1885 11.002 71.7939 11.002C71.0732 11.002 70.4756 11.2744 70.001 11.8193C69.5322 12.3584 69.2979 13.041 69.2979 13.8672V19H67.8564V10H69.2979V11.4941H69.333C70.0127 10.3574 70.9971 9.78906 72.2861 9.78906C73.2705 9.78906 74.0234 10.1084 74.5449 10.7471C75.0664 11.3799 75.3271 12.2969 75.3271 13.498V19ZM82.2266 18.9121C81.8867 19.0996 81.4385 19.1934 80.8818 19.1934C79.3057 19.1934 78.5176 18.3145 78.5176 16.5566V11.2305H76.9707V10H78.5176V7.80273L79.959 7.33691V10H82.2266V11.2305H79.959V16.3018C79.959 16.9053 80.0615 17.3359 80.2666 17.5938C80.4717 17.8516 80.8115 17.9805 81.2861 17.9805C81.6494 17.9805 81.9629 17.8809 82.2266 17.6816V18.9121ZM93.7842 11.459C93.5322 11.2656 93.1689 11.1689 92.6943 11.1689C92.0791 11.1689 91.5635 11.459 91.1475 12.0391C90.7373 12.6191 90.5322 13.4102 90.5322 14.4121V19H89.0908V10H90.5322V11.8545H90.5674C90.7725 11.2217 91.0859 10.7295 91.5078 10.3779C91.9297 10.0205 92.4014 9.8418 92.9229 9.8418C93.2979 9.8418 93.585 9.88281 93.7842 9.96484V11.459ZM101.791 19H100.35V17.5938H100.314C99.6875 18.6719 98.7646 19.2109 97.5459 19.2109C96.6494 19.2109 95.9463 18.9736 95.4365 18.499C94.9326 18.0244 94.6807 17.3945 94.6807 16.6094C94.6807 14.9277 95.6709 13.9492 97.6514 13.6738L100.35 13.2959C100.35 11.7666 99.7314 11.002 98.4951 11.002C97.4111 11.002 96.4326 11.3711 95.5596 12.1094V10.6328C96.4443 10.0703 97.4639 9.78906 98.6182 9.78906C100.733 9.78906 101.791 10.9082 101.791 13.1465V19ZM100.35 14.4473L98.1787 14.7461C97.5107 14.8398 97.0068 15.0068 96.667 15.2471C96.3271 15.4814 96.1572 15.9004 96.1572 16.5039C96.1572 16.9434 96.3125 17.3037 96.623 17.585C96.9395 17.8604 97.3584 17.998 97.8799 17.998C98.5947 17.998 99.1836 17.749 99.6465 17.251C100.115 16.7471 100.35 16.1113 100.35 15.3438V14.4473ZM108.682 18.9121C108.342 19.0996 107.894 19.1934 107.337 19.1934C105.761 19.1934 104.973 18.3145 104.973 16.5566V11.2305H103.426V10H104.973V7.80273L106.414 7.33691V10H108.682V11.2305H106.414V16.3018C106.414 16.9053 106.517 17.3359 106.722 17.5938C106.927 17.8516 107.267 17.9805 107.741 17.9805C108.104 17.9805 108.418 17.8809 108.682 17.6816V18.9121ZM111.345 7.71484C111.087 7.71484 110.867 7.62695 110.686 7.45117C110.504 7.27539 110.413 7.05273 110.413 6.7832C110.413 6.51367 110.504 6.29102 110.686 6.11523C110.867 5.93359 111.087 5.84277 111.345 5.84277C111.608 5.84277 111.831 5.93359 112.013 6.11523C112.2 6.29102 112.294 6.51367 112.294 6.7832C112.294 7.04102 112.2 7.26074 112.013 7.44238C111.831 7.62402 111.608 7.71484 111.345 7.71484ZM112.048 19H110.606V10H112.048V19ZM118.728 19.2109C117.397 19.2109 116.334 18.792 115.537 17.9541C114.746 17.1104 114.351 15.9941 114.351 14.6055C114.351 13.0938 114.764 11.9131 115.59 11.0635C116.416 10.2139 117.532 9.78906 118.938 9.78906C120.28 9.78906 121.326 10.2021 122.076 11.0283C122.832 11.8545 123.21 13 123.21 14.4648C123.21 15.9004 122.803 17.0518 121.988 17.9189C121.18 18.7803 120.093 19.2109 118.728 19.2109ZM118.833 11.002C117.907 11.002 117.175 11.3184 116.636 11.9512C116.097 12.5781 115.827 13.4453 115.827 14.5527C115.827 15.6191 116.1 16.46 116.645 17.0752C117.189 17.6904 117.919 17.998 118.833 17.998C119.765 17.998 120.479 17.6963 120.978 17.0928C121.481 16.4893 121.733 15.6309 121.733 14.5176C121.733 13.3926 121.481 12.5254 120.978 11.916C120.479 11.3066 119.765 11.002 118.833 11.002ZM134.214 19.2109C132.884 19.2109 131.82 18.792 131.023 17.9541C130.232 17.1104 129.837 15.9941 129.837 14.6055C129.837 13.0938 130.25 11.9131 131.076 11.0635C131.902 10.2139 133.019 9.78906 134.425 9.78906C135.767 9.78906 136.812 10.2021 137.562 11.0283C138.318 11.8545 138.696 13 138.696 14.4648C138.696 15.9004 138.289 17.0518 137.475 17.9189C136.666 18.7803 135.579 19.2109 134.214 19.2109ZM134.319 11.002C133.394 11.002 132.661 11.3184 132.122 11.9512C131.583 12.5781 131.313 13.4453 131.313 14.5527C131.313 15.6191 131.586 16.46 132.131 17.0752C132.676 17.6904 133.405 17.998 134.319 17.998C135.251 17.998 135.966 17.6963 136.464 17.0928C136.968 16.4893 137.22 15.6309 137.22 14.5176C137.22 13.3926 136.968 12.5254 136.464 11.916C135.966 11.3066 135.251 11.002 134.319 11.002ZM145.112 6.94141C144.831 6.7832 144.512 6.7041 144.154 6.7041C143.146 6.7041 142.643 7.33984 142.643 8.61133V10H144.752V11.2305H142.643V19H141.21V11.2305H139.672V10H141.21V8.54102C141.21 7.59766 141.482 6.85352 142.027 6.30859C142.572 5.75781 143.252 5.48242 144.066 5.48242C144.506 5.48242 144.854 5.53516 145.112 5.64062V6.94141ZM152.688 19H151.247V5.67578H152.688V19ZM162.049 19H160.607V17.5938H160.572C159.945 18.6719 159.022 19.2109 157.804 19.2109C156.907 19.2109 156.204 18.9736 155.694 18.499C155.19 18.0244 154.938 17.3945 154.938 16.6094C154.938 14.9277 155.929 13.9492 157.909 13.6738L160.607 13.2959C160.607 11.7666 159.989 11.002 158.753 11.002C157.669 11.002 156.69 11.3711 155.817 12.1094V10.6328C156.702 10.0703 157.722 9.78906 158.876 9.78906C160.991 9.78906 162.049 10.9082 162.049 13.1465V19ZM160.607 14.4473L158.437 14.7461C157.769 14.8398 157.265 15.0068 156.925 15.2471C156.585 15.4814 156.415 15.9004 156.415 16.5039C156.415 16.9434 156.57 17.3037 156.881 17.585C157.197 17.8604 157.616 17.998 158.138 17.998C158.853 17.998 159.441 17.749 159.904 17.251C160.373 16.7471 160.607 16.1113 160.607 15.3438V14.4473ZM164.22 18.6748V17.1279C165.005 17.708 165.869 17.998 166.812 17.998C168.078 17.998 168.711 17.5762 168.711 16.7324C168.711 16.4922 168.655 16.29 168.544 16.126C168.438 15.9561 168.292 15.8066 168.104 15.6777C167.923 15.5488 167.706 15.4346 167.454 15.335C167.208 15.2295 166.941 15.1211 166.654 15.0098C166.256 14.8516 165.904 14.6934 165.6 14.5352C165.301 14.3711 165.049 14.1895 164.844 13.9902C164.645 13.7852 164.492 13.5537 164.387 13.2959C164.287 13.0381 164.237 12.7363 164.237 12.3906C164.237 11.9688 164.334 11.5967 164.527 11.2744C164.721 10.9463 164.979 10.6738 165.301 10.457C165.623 10.2344 165.989 10.0674 166.399 9.95605C166.815 9.84473 167.243 9.78906 167.683 9.78906C168.462 9.78906 169.159 9.92383 169.774 10.1934V11.6523C169.112 11.2188 168.351 11.002 167.489 11.002C167.22 11.002 166.977 11.0342 166.76 11.0986C166.543 11.1572 166.355 11.2422 166.197 11.3535C166.045 11.4648 165.925 11.5996 165.837 11.7578C165.755 11.9102 165.714 12.0801 165.714 12.2676C165.714 12.502 165.755 12.6982 165.837 12.8564C165.925 13.0146 166.051 13.1553 166.215 13.2783C166.379 13.4014 166.578 13.5127 166.812 13.6123C167.047 13.7119 167.313 13.8203 167.612 13.9375C168.011 14.0898 168.368 14.248 168.685 14.4121C169.001 14.5703 169.271 14.752 169.493 14.957C169.716 15.1562 169.886 15.3877 170.003 15.6514C170.126 15.915 170.188 16.2285 170.188 16.5918C170.188 17.0371 170.088 17.4238 169.889 17.752C169.695 18.0801 169.435 18.3525 169.106 18.5693C168.778 18.7861 168.4 18.9473 167.973 19.0527C167.545 19.1582 167.097 19.2109 166.628 19.2109C165.702 19.2109 164.899 19.0322 164.22 18.6748ZM176.586 18.9121C176.246 19.0996 175.798 19.1934 175.241 19.1934C173.665 19.1934 172.877 18.3145 172.877 16.5566V11.2305H171.33V10H172.877V7.80273L174.318 7.33691V10H176.586V11.2305H174.318V16.3018C174.318 16.9053 174.421 17.3359 174.626 17.5938C174.831 17.8516 175.171 17.9805 175.646 17.9805C176.009 17.9805 176.322 17.8809 176.586 17.6816V18.9121ZM188.776 9.70117C188.776 9.31445 188.715 8.97754 188.592 8.69043C188.475 8.40332 188.311 8.16602 188.1 7.97852C187.895 7.78516 187.651 7.6416 187.37 7.54785C187.089 7.4541 186.784 7.40723 186.456 7.40723C186.175 7.40723 185.899 7.44531 185.63 7.52148C185.36 7.59766 185.097 7.70313 184.839 7.83789C184.587 7.97266 184.341 8.13379 184.101 8.32129C183.866 8.50879 183.646 8.7168 183.441 8.94531V7.39844C183.846 7.00586 184.297 6.70703 184.795 6.50195C185.299 6.29102 185.911 6.18555 186.632 6.18555C187.147 6.18555 187.625 6.26172 188.064 6.41406C188.504 6.56055 188.885 6.77734 189.207 7.06445C189.529 7.35156 189.781 7.70605 189.963 8.12793C190.15 8.5498 190.244 9.0332 190.244 9.57812C190.244 10.0762 190.186 10.5273 190.068 10.9316C189.957 11.3359 189.784 11.7168 189.55 12.0742C189.321 12.4316 189.031 12.7744 188.68 13.1025C188.328 13.4307 187.915 13.7646 187.44 14.1045C186.849 14.5264 186.359 14.8867 185.973 15.1855C185.592 15.4844 185.287 15.7656 185.059 16.0293C184.836 16.2871 184.678 16.5479 184.584 16.8115C184.496 17.0693 184.452 17.3682 184.452 17.708H190.728V19H182.949V18.376C182.949 17.8369 183.008 17.3623 183.125 16.9521C183.242 16.542 183.436 16.1523 183.705 15.7832C183.975 15.4141 184.326 15.0449 184.76 14.6758C185.199 14.3066 185.735 13.8906 186.368 13.4277C186.825 13.0996 187.206 12.7861 187.511 12.4873C187.821 12.1885 188.07 11.8896 188.258 11.5908C188.445 11.292 188.577 10.9902 188.653 10.6855C188.735 10.375 188.776 10.0469 188.776 9.70117ZM205.256 10L201.116 20.4414C200.378 22.3047 199.341 23.2363 198.005 23.2363C197.63 23.2363 197.316 23.1982 197.064 23.1221V21.8301C197.375 21.9355 197.659 21.9883 197.917 21.9883C198.644 21.9883 199.188 21.5547 199.552 20.6875L200.272 18.9824L196.757 10H198.356L200.791 16.9258C200.82 17.0137 200.882 17.2422 200.976 17.6113H201.028C201.058 17.4707 201.116 17.248 201.204 16.9434L203.762 10H205.256ZM213.957 14.8604H207.603C207.626 15.8623 207.896 16.6357 208.411 17.1807C208.927 17.7256 209.636 17.998 210.538 17.998C211.552 17.998 212.483 17.6641 213.333 16.9961V18.3496C212.542 18.9238 211.496 19.2109 210.195 19.2109C208.924 19.2109 207.925 18.8037 207.198 17.9893C206.472 17.1689 206.108 16.0176 206.108 14.5352C206.108 13.1348 206.504 11.9951 207.295 11.1162C208.092 10.2314 209.079 9.78906 210.257 9.78906C211.435 9.78906 212.346 10.1699 212.99 10.9316C213.635 11.6934 213.957 12.751 213.957 14.1045V14.8604ZM212.48 13.6387C212.475 12.8066 212.272 12.1592 211.874 11.6963C211.481 11.2334 210.934 11.002 210.23 11.002C209.551 11.002 208.974 11.2451 208.499 11.7314C208.024 12.2178 207.731 12.8535 207.62 13.6387H212.48ZM222.588 19H221.146V17.5938H221.111C220.484 18.6719 219.562 19.2109 218.343 19.2109C217.446 19.2109 216.743 18.9736 216.233 18.499C215.729 18.0244 215.478 17.3945 215.478 16.6094C215.478 14.9277 216.468 13.9492 218.448 13.6738L221.146 13.2959C221.146 11.7666 220.528 11.002 219.292 11.002C218.208 11.002 217.229 11.3711 216.356 12.1094V10.6328C217.241 10.0703 218.261 9.78906 219.415 9.78906C221.53 9.78906 222.588 10.9082 222.588 13.1465V19ZM221.146 14.4473L218.976 14.7461C218.308 14.8398 217.804 15.0068 217.464 15.2471C217.124 15.4814 216.954 15.9004 216.954 16.5039C216.954 16.9434 217.109 17.3037 217.42 17.585C217.736 17.8604 218.155 17.998 218.677 17.998C219.392 17.998 219.98 17.749 220.443 17.251C220.912 16.7471 221.146 16.1113 221.146 15.3438V14.4473ZM229.997 11.459C229.745 11.2656 229.382 11.1689 228.907 11.1689C228.292 11.1689 227.776 11.459 227.36 12.0391C226.95 12.6191 226.745 13.4102 226.745 14.4121V19H225.304V10H226.745V11.8545H226.78C226.985 11.2217 227.299 10.7295 227.721 10.3779C228.143 10.0205 228.614 9.8418 229.136 9.8418C229.511 9.8418 229.798 9.88281 229.997 9.96484V11.459ZM231.14 18.6748V17.1279C231.925 17.708 232.789 17.998 233.732 17.998C234.998 17.998 235.631 17.5762 235.631 16.7324C235.631 16.4922 235.575 16.29 235.464 16.126C235.358 15.9561 235.212 15.8066 235.024 15.6777C234.843 15.5488 234.626 15.4346 234.374 15.335C234.128 15.2295 233.861 15.1211 233.574 15.0098C233.176 14.8516 232.824 14.6934 232.52 14.5352C232.221 14.3711 231.969 14.1895 231.764 13.9902C231.564 13.7852 231.412 13.5537 231.307 13.2959C231.207 13.0381 231.157 12.7363 231.157 12.3906C231.157 11.9688 231.254 11.5967 231.447 11.2744C231.641 10.9463 231.898 10.6738 232.221 10.457C232.543 10.2344 232.909 10.0674 233.319 9.95605C233.735 9.84473 234.163 9.78906 234.603 9.78906C235.382 9.78906 236.079 9.92383 236.694 10.1934V11.6523C236.032 11.2188 235.271 11.002 234.409 11.002C234.14 11.002 233.896 11.0342 233.68 11.0986C233.463 11.1572 233.275 11.2422 233.117 11.3535C232.965 11.4648 232.845 11.5996 232.757 11.7578C232.675 11.9102 232.634 12.0801 232.634 12.2676C232.634 12.502 232.675 12.6982 232.757 12.8564C232.845 13.0146 232.971 13.1553 233.135 13.2783C233.299 13.4014 233.498 13.5127 233.732 13.6123C233.967 13.7119 234.233 13.8203 234.532 13.9375C234.931 14.0898 235.288 14.248 235.604 14.4121C235.921 14.5703 236.19 14.752 236.413 14.957C236.636 15.1562 236.806 15.3877 236.923 15.6514C237.046 15.915 237.107 16.2285 237.107 16.5918C237.107 17.0371 237.008 17.4238 236.809 17.752C236.615 18.0801 236.354 18.3525 236.026 18.5693C235.698 18.7861 235.32 18.9473 234.893 19.0527C234.465 19.1582 234.017 19.2109 233.548 19.2109C232.622 19.2109 231.819 19.0322 231.14 18.6748Z" fill="#1B2767"/>
<defs>
<filter id="filter0_i_295_341" x="44.9509" y="51.6776" width="147.233" height="147.233" filterUnits="userSpaceOnUse" color-interpolation-filters="sRGB">
<feFlood flood-opacity="0" result="BackgroundImageFix"/>
<feBlend mode="normal" in="SourceGraphic" in2="BackgroundImageFix" result="shape"/>
<feColorMatrix in="SourceAlpha" type="matrix" values="0 0 0 0 0 0 0 0 0 0 0 0 0 0 0 0 0 0 127 0" result="hardAlpha"/>
<feOffset/>
<feGaussianBlur stdDeviation="4.66773"/>
<feComposite in2="hardAlpha" operator="arithmetic" k2="-1" k3="1"/>
<feColorMatrix type="matrix" values="0 0 0 0 0 0 0 0 0 0 0 0 0 0 0 0 0 0 0.1 0"/>
<feBlend mode="normal" in2="shape" result="effect1_innerShadow_295_341"/>
</filter>
<filter id="filter1_d_295_341" x="6.75028" y="23.5227" width="224.999" height="224.999" filterUnits="userSpaceOnUse" color-interpolation-filters="sRGB">
<feFlood flood-opacity="0" result="BackgroundImageFix"/>
<feColorMatrix in="SourceAlpha" type="matrix" values="0 0 0 0 0 0 0 0 0 0 0 0 0 0 0 0 0 0 127 0" result="hardAlpha"/>
<feOffset dy="11.41"/>
<feGaussianBlur stdDeviation="24.8946"/>
<feColorMatrix type="matrix" values="0 0 0 0 0.666667 0 0 0 0 0.768627 0 0 0 0 0.905882 0 0 0 1 0"/>
<feBlend mode="normal" in2="BackgroundImageFix" result="effect1_dropShadow_295_341"/>
<feBlend mode="normal" in="SourceGraphic" in2="effect1_dropShadow_295_341" result="shape"/>
</filter>
<filter id="filter2_b_295_341" x="96.8136" y="29.8136" width="44.4544" height="44.4544" filterUnits="userSpaceOnUse" color-interpolation-filters="sRGB">
<feFlood flood-opacity="0" result="BackgroundImageFix"/>
<feGaussianBlur in="BackgroundImage" stdDeviation="2.59318"/>
<feComposite in2="SourceAlpha" operator="in" result="effect1_backgroundBlur_295_341"/>
<feBlend mode="normal" in="SourceGraphic" in2="effect1_backgroundBlur_295_341" result="shape"/>
</filter>
<linearGradient id="paint0_linear_295_341" x1="43.4833" y1="160.614" x2="80.945" y2="197.566" gradientUnits="userSpaceOnUse">
<stop offset="0.0052011" stop-color="#D320C1"/>
<stop offset="0.498033" stop-color="#C624C6"/>
<stop offset="0.970779" stop-color="#1461FF"/>
</linearGradient>
<linearGradient id="paint1_linear_295_341" x1="83.5034" y1="49.9514" x2="46.1116" y2="86.9743" gradientUnits="userSpaceOnUse">
<stop offset="0.0052011" stop-color="#D320C1"/>
<stop offset="0.498033" stop-color="#C624C6"/>
<stop offset="0.970779" stop-color="#1461FF"/>
</linearGradient>
<linearGradient id="paint2_linear_295_341" x1="154.613" y1="200.335" x2="191.566" y2="162.874" gradientUnits="userSpaceOnUse">
<stop offset="0.0052011" stop-color="#D320C1"/>
<stop offset="0.498033" stop-color="#C624C6"/>
<stop offset="0.970779" stop-color="#1461FF"/>
</linearGradient>
<linearGradient id="paint3_linear_295_341" x1="193.746" y1="89.4078" x2="156.284" y2="52.4556" gradientUnits="userSpaceOnUse">
<stop offset="0.0052011" stop-color="#D320C1"/>
<stop offset="0.498033" stop-color="#C624C6"/>
<stop offset="0.970779" stop-color="#1461FF"/>
</linearGradient>
</defs>
</svg>
