<svg width="255" height="293" viewBox="0 0 255 293" fill="none" xmlns="http://www.w3.org/2000/svg">
<path d="M35 291.625C29.6939 291.625 25.375 287.307 25.375 282C25.375 276.693 29.6939 272.375 35 272.375C40.3061 272.375 44.625 276.693 44.625 282C44.625 287.307 40.3061 291.625 35 291.625ZM35 273.75C30.4501 273.75 26.75 277.45 26.75 282C26.75 286.55 30.4501 290.25 35 290.25C39.5499 290.25 43.25 286.55 43.25 282C43.25 277.45 39.5499 273.75 35 273.75Z" fill="#1461FF"/>
<path d="M35 284.98C36.6456 284.98 37.9796 283.646 37.9796 282C37.9796 280.354 36.6456 279.02 35 279.02C33.3544 279.02 32.0204 280.354 32.0204 282C32.0204 283.646 33.3544 284.98 35 284.98Z" fill="#00B0F0"/>
<path d="M56.233 288V277.818H57.4659V282.352H62.8949V277.818H64.1278V288H62.8949V283.446H57.4659V288H56.233ZM66.4371 288V280.364H67.6104V288H66.4371ZM67.0337 279.091C66.805 279.091 66.6078 279.013 66.4421 278.857C66.2797 278.701 66.1985 278.514 66.1985 278.295C66.1985 278.077 66.2797 277.889 66.4421 277.734C66.6078 277.578 66.805 277.5 67.0337 277.5C67.2624 277.5 67.458 277.578 67.6204 277.734C67.7861 277.889 67.869 278.077 67.869 278.295C67.869 278.514 67.7861 278.701 67.6204 278.857C67.458 279.013 67.2624 279.091 67.0337 279.091ZM72.8418 291.023C72.275 291.023 71.7878 290.95 71.3801 290.804C70.9725 290.661 70.6328 290.473 70.361 290.237C70.0925 290.005 69.8787 289.757 69.7196 289.491L70.6543 288.835C70.7604 288.974 70.8946 289.134 71.057 289.312C71.2194 289.495 71.4415 289.652 71.7232 289.785C72.0082 289.921 72.3811 289.989 72.8418 289.989C73.4583 289.989 73.967 289.839 74.3681 289.541C74.7691 289.243 74.9696 288.776 74.9696 288.139V286.588H74.8702C74.784 286.727 74.6614 286.9 74.5023 287.105C74.3465 287.307 74.1212 287.488 73.8262 287.647C73.5345 287.803 73.1401 287.881 72.6429 287.881C72.0265 287.881 71.473 287.735 70.9824 287.443C70.4952 287.152 70.1091 286.727 69.824 286.17C69.5423 285.614 69.4015 284.937 69.4015 284.142C69.4015 283.36 69.539 282.679 69.8141 282.099C70.0892 281.515 70.472 281.065 70.9625 280.746C71.4531 280.425 72.0198 280.264 72.6628 280.264C73.16 280.264 73.5544 280.347 73.8461 280.513C74.141 280.675 74.3664 280.861 74.5222 281.07C74.6813 281.275 74.8039 281.444 74.8901 281.577H75.0094V280.364H76.1429V288.219C76.1429 288.875 75.9938 289.409 75.6955 289.82C75.4005 290.234 75.0028 290.537 74.5023 290.729C74.0051 290.925 73.4516 291.023 72.8418 291.023ZM72.802 286.827C73.2727 286.827 73.6704 286.719 73.9952 286.504C74.32 286.288 74.5669 285.978 74.736 285.574C74.905 285.17 74.9895 284.686 74.9895 284.122C74.9895 283.572 74.9067 283.086 74.7409 282.665C74.5752 282.245 74.33 281.915 74.0051 281.676C73.6803 281.437 73.2793 281.318 72.802 281.318C72.3049 281.318 71.8906 281.444 71.5591 281.696C71.231 281.948 70.9841 282.286 70.8184 282.71C70.656 283.134 70.5748 283.605 70.5748 284.122C70.5748 284.652 70.6576 285.121 70.8233 285.529C70.9924 285.933 71.2409 286.252 71.5691 286.484C71.9005 286.712 72.3115 286.827 72.802 286.827ZM79.464 283.406V288H78.2907V277.818H79.464V281.557H79.5634C79.7424 281.162 80.0108 280.849 80.3688 280.617C80.7301 280.382 81.2106 280.264 81.8105 280.264C82.3309 280.264 82.7866 280.369 83.1777 280.577C83.5688 280.783 83.8721 281.099 84.0875 281.527C84.3063 281.951 84.4157 282.491 84.4157 283.148V288H83.2424V283.227C83.2424 282.621 83.0849 282.152 82.7701 281.82C82.4585 281.486 82.026 281.318 81.4725 281.318C81.088 281.318 80.7433 281.399 80.4384 281.562C80.1368 281.724 79.8981 281.961 79.7225 282.273C79.5501 282.584 79.464 282.962 79.464 283.406ZM89.7638 288.159C89.0281 288.159 88.3933 287.997 87.8597 287.672C87.3294 287.344 86.9201 286.886 86.6317 286.3C86.3467 285.71 86.2042 285.024 86.2042 284.241C86.2042 283.459 86.3467 282.77 86.6317 282.173C86.9201 281.573 87.3211 281.106 87.8349 280.771C88.3519 280.433 88.9551 280.264 89.6445 280.264C90.0423 280.264 90.435 280.33 90.8228 280.463C91.2106 280.596 91.5636 280.811 91.8817 281.109C92.1999 281.404 92.4535 281.795 92.6424 282.283C92.8313 282.77 92.9258 283.37 92.9258 284.082V284.58H87.0394V283.565H91.7326C91.7326 283.134 91.6464 282.75 91.4741 282.412C91.305 282.074 91.0631 281.807 90.7482 281.612C90.4367 281.416 90.0688 281.318 89.6445 281.318C89.1772 281.318 88.7728 281.434 88.4315 281.666C88.0934 281.895 87.8332 282.193 87.6509 282.561C87.4686 282.929 87.3775 283.323 87.3775 283.744V284.42C87.3775 284.997 87.4769 285.486 87.6758 285.887C87.878 286.285 88.158 286.588 88.516 286.797C88.8739 287.002 89.2899 287.105 89.7638 287.105C90.0721 287.105 90.3505 287.062 90.5991 286.976C90.851 286.886 91.0681 286.754 91.2504 286.578C91.4326 286.399 91.5735 286.177 91.6729 285.912L92.8065 286.23C92.6871 286.615 92.4866 286.953 92.2049 287.244C91.9232 287.533 91.5752 287.758 91.1609 287.92C90.7466 288.08 90.2809 288.159 89.7638 288.159ZM94.7106 288V280.364H95.8441V281.517H95.9237C96.0629 281.139 96.3147 280.833 96.6793 280.597C97.0439 280.362 97.4549 280.244 97.9123 280.244C97.9985 280.244 98.1062 280.246 98.2354 280.249C98.3647 280.253 98.4625 280.258 98.5288 280.264V281.457C98.489 281.447 98.3978 281.433 98.2553 281.413C98.1161 281.389 97.9686 281.378 97.8129 281.378C97.4416 281.378 97.1102 281.456 96.8185 281.612C96.5302 281.764 96.3015 281.976 96.1325 282.248C95.9667 282.516 95.8839 282.823 95.8839 283.168V288H94.7106ZM104.016 288V277.818H110.161V278.912H105.249V282.352H109.843V283.446H105.249V286.906H110.241V288H104.016ZM115.108 288.159C114.471 288.159 113.91 287.998 113.422 287.677C112.935 287.352 112.554 286.895 112.279 286.305C112.004 285.711 111.866 285.01 111.866 284.202C111.866 283.4 112.004 282.704 112.279 282.114C112.554 281.524 112.937 281.068 113.427 280.746C113.918 280.425 114.485 280.264 115.128 280.264C115.625 280.264 116.018 280.347 116.306 280.513C116.598 280.675 116.82 280.861 116.972 281.07C117.128 281.275 117.249 281.444 117.335 281.577H117.434V277.818H118.608V288H117.474V286.827H117.335C117.249 286.966 117.126 287.142 116.967 287.354C116.808 287.562 116.581 287.75 116.286 287.915C115.991 288.078 115.598 288.159 115.108 288.159ZM115.267 287.105C115.738 287.105 116.135 286.982 116.46 286.737C116.785 286.489 117.032 286.146 117.201 285.708C117.37 285.267 117.454 284.759 117.454 284.182C117.454 283.612 117.372 283.113 117.206 282.685C117.04 282.254 116.795 281.92 116.47 281.681C116.145 281.439 115.744 281.318 115.267 281.318C114.77 281.318 114.355 281.446 114.024 281.701C113.696 281.953 113.449 282.296 113.283 282.73C113.121 283.161 113.04 283.645 113.04 284.182C113.04 284.725 113.122 285.219 113.288 285.663C113.457 286.104 113.706 286.455 114.034 286.717C114.365 286.976 114.776 287.105 115.267 287.105ZM125.732 284.878V280.364H126.905V288H125.732V286.707H125.653C125.474 287.095 125.195 287.425 124.817 287.697C124.439 287.965 123.962 288.099 123.385 288.099C122.908 288.099 122.484 287.995 122.113 287.786C121.742 287.574 121.45 287.256 121.238 286.832C121.026 286.404 120.92 285.866 120.92 285.216V280.364H122.093V285.136C122.093 285.693 122.249 286.137 122.56 286.469C122.875 286.8 123.276 286.966 123.763 286.966C124.055 286.966 124.352 286.891 124.653 286.742C124.958 286.593 125.213 286.364 125.419 286.056C125.628 285.748 125.732 285.355 125.732 284.878ZM132.157 288.159C131.441 288.159 130.824 287.99 130.307 287.652C129.79 287.314 129.392 286.848 129.114 286.255C128.836 285.662 128.696 284.984 128.696 284.222C128.696 283.446 128.839 282.762 129.124 282.168C129.412 281.572 129.813 281.106 130.327 280.771C130.844 280.433 131.447 280.264 132.137 280.264C132.674 280.264 133.158 280.364 133.588 280.562C134.019 280.761 134.372 281.04 134.647 281.398C134.922 281.756 135.093 282.173 135.159 282.651H133.986C133.897 282.303 133.698 281.994 133.39 281.726C133.085 281.454 132.674 281.318 132.157 281.318C131.699 281.318 131.298 281.437 130.953 281.676C130.612 281.911 130.345 282.245 130.153 282.675C129.964 283.103 129.87 283.605 129.87 284.182C129.87 284.772 129.962 285.286 130.148 285.723C130.337 286.161 130.602 286.5 130.944 286.742C131.288 286.984 131.693 287.105 132.157 287.105C132.462 287.105 132.738 287.052 132.987 286.946C133.235 286.84 133.446 286.688 133.618 286.489C133.791 286.29 133.913 286.051 133.986 285.773H135.159C135.093 286.223 134.929 286.629 134.667 286.991C134.409 287.349 134.066 287.634 133.638 287.846C133.214 288.055 132.72 288.159 132.157 288.159ZM139.122 288.179C138.638 288.179 138.199 288.088 137.804 287.906C137.41 287.72 137.097 287.453 136.865 287.105C136.633 286.754 136.517 286.33 136.517 285.832C136.517 285.395 136.603 285.04 136.775 284.768C136.948 284.493 137.178 284.278 137.466 284.122C137.755 283.966 138.073 283.85 138.421 283.774C138.772 283.695 139.125 283.632 139.48 283.585C139.944 283.526 140.32 283.481 140.608 283.451C140.9 283.418 141.112 283.363 141.245 283.287C141.381 283.211 141.449 283.078 141.449 282.889V282.849C141.449 282.359 141.314 281.978 141.046 281.706C140.781 281.434 140.378 281.298 139.838 281.298C139.278 281.298 138.838 281.421 138.52 281.666C138.202 281.911 137.978 282.173 137.849 282.452L136.735 282.054C136.934 281.59 137.199 281.229 137.531 280.97C137.866 280.708 138.23 280.526 138.625 280.423C139.022 280.317 139.413 280.264 139.798 280.264C140.043 280.264 140.325 280.294 140.643 280.354C140.965 280.41 141.275 280.528 141.573 280.707C141.874 280.886 142.125 281.156 142.324 281.517C142.522 281.878 142.622 282.362 142.622 282.969V288H141.449V286.966H141.389C141.309 287.132 141.177 287.309 140.991 287.498C140.806 287.687 140.559 287.848 140.25 287.98C139.942 288.113 139.566 288.179 139.122 288.179ZM139.301 287.125C139.765 287.125 140.156 287.034 140.474 286.852C140.796 286.669 141.038 286.434 141.2 286.146C141.366 285.857 141.449 285.554 141.449 285.236V284.162C141.399 284.222 141.289 284.276 141.12 284.326C140.955 284.372 140.762 284.414 140.544 284.45C140.328 284.483 140.118 284.513 139.912 284.54C139.71 284.563 139.546 284.583 139.42 284.599C139.115 284.639 138.83 284.704 138.565 284.793C138.303 284.879 138.091 285.01 137.929 285.186C137.77 285.358 137.69 285.594 137.69 285.892C137.69 286.3 137.841 286.608 138.142 286.817C138.447 287.022 138.833 287.125 139.301 287.125ZM148.084 280.364V281.358H144.127V280.364H148.084ZM145.28 278.534H146.454V285.812C146.454 286.144 146.502 286.393 146.598 286.558C146.697 286.721 146.823 286.83 146.976 286.886C147.131 286.939 147.296 286.966 147.468 286.966C147.597 286.966 147.703 286.959 147.786 286.946C147.869 286.929 147.935 286.916 147.985 286.906L148.224 287.96C148.144 287.99 148.033 288.02 147.89 288.05C147.748 288.083 147.567 288.099 147.349 288.099C147.017 288.099 146.692 288.028 146.374 287.886C146.059 287.743 145.797 287.526 145.589 287.234C145.383 286.943 145.28 286.575 145.28 286.131V278.534ZM149.849 288V280.364H151.023V288H149.849ZM150.446 279.091C150.217 279.091 150.02 279.013 149.854 278.857C149.692 278.701 149.611 278.514 149.611 278.295C149.611 278.077 149.692 277.889 149.854 277.734C150.02 277.578 150.217 277.5 150.446 277.5C150.675 277.5 150.87 277.578 151.032 277.734C151.198 277.889 151.281 278.077 151.281 278.295C151.281 278.514 151.198 278.701 151.032 278.857C150.87 279.013 150.675 279.091 150.446 279.091ZM156.274 288.159C155.584 288.159 154.98 287.995 154.459 287.667C153.942 287.339 153.538 286.88 153.246 286.29C152.958 285.7 152.814 285.01 152.814 284.222C152.814 283.426 152.958 282.732 153.246 282.138C153.538 281.545 153.942 281.085 154.459 280.756C154.98 280.428 155.584 280.264 156.274 280.264C156.963 280.264 157.566 280.428 158.083 280.756C158.604 281.085 159.008 281.545 159.297 282.138C159.588 282.732 159.734 283.426 159.734 284.222C159.734 285.01 159.588 285.7 159.297 286.29C159.008 286.88 158.604 287.339 158.083 287.667C157.566 287.995 156.963 288.159 156.274 288.159ZM156.274 287.105C156.797 287.105 157.228 286.971 157.566 286.702C157.904 286.434 158.155 286.081 158.317 285.643C158.48 285.206 158.561 284.732 158.561 284.222C158.561 283.711 158.48 283.236 158.317 282.795C158.155 282.354 157.904 281.998 157.566 281.726C157.228 281.454 156.797 281.318 156.274 281.318C155.75 281.318 155.319 281.454 154.981 281.726C154.643 281.998 154.393 282.354 154.23 282.795C154.068 283.236 153.987 283.711 153.987 284.222C153.987 284.732 154.068 285.206 154.23 285.643C154.393 286.081 154.643 286.434 154.981 286.702C155.319 286.971 155.75 287.105 156.274 287.105ZM162.698 283.406V288H161.525V280.364H162.659V281.557H162.758C162.937 281.169 163.209 280.857 163.573 280.622C163.938 280.384 164.409 280.264 164.985 280.264C165.502 280.264 165.955 280.37 166.343 280.582C166.73 280.791 167.032 281.109 167.247 281.537C167.463 281.961 167.57 282.498 167.57 283.148V288H166.397V283.227C166.397 282.627 166.241 282.16 165.93 281.825C165.618 281.487 165.191 281.318 164.647 281.318C164.273 281.318 163.938 281.399 163.643 281.562C163.351 281.724 163.121 281.961 162.952 282.273C162.783 282.584 162.698 282.962 162.698 283.406ZM182.402 282.909C182.402 283.983 182.208 284.911 181.82 285.693C181.433 286.475 180.901 287.079 180.224 287.503C179.548 287.927 178.776 288.139 177.908 288.139C177.039 288.139 176.267 287.927 175.591 287.503C174.915 287.079 174.383 286.475 173.995 285.693C173.607 284.911 173.413 283.983 173.413 282.909C173.413 281.835 173.607 280.907 173.995 280.125C174.383 279.343 174.915 278.74 175.591 278.315C176.267 277.891 177.039 277.679 177.908 277.679C178.776 277.679 179.548 277.891 180.224 278.315C180.901 278.74 181.433 279.343 181.82 280.125C182.208 280.907 182.402 281.835 182.402 282.909ZM181.209 282.909C181.209 282.027 181.061 281.283 180.766 280.677C180.475 280.07 180.079 279.611 179.578 279.3C179.081 278.988 178.524 278.832 177.908 278.832C177.291 278.832 176.733 278.988 176.232 279.3C175.735 279.611 175.339 280.07 175.044 280.677C174.752 281.283 174.607 282.027 174.607 282.909C174.607 283.791 174.752 284.535 175.044 285.141C175.339 285.748 175.735 286.207 176.232 286.518C176.733 286.83 177.291 286.986 177.908 286.986C178.524 286.986 179.081 286.83 179.578 286.518C180.079 286.207 180.475 285.748 180.766 285.141C181.061 284.535 181.209 283.791 181.209 282.909ZM187.717 280.364V281.358H183.6V280.364H187.717ZM184.833 288V279.31C184.833 278.872 184.936 278.508 185.141 278.216C185.347 277.924 185.614 277.705 185.942 277.56C186.27 277.414 186.616 277.341 186.981 277.341C187.269 277.341 187.504 277.364 187.687 277.411C187.869 277.457 188.005 277.5 188.094 277.54L187.756 278.554C187.697 278.534 187.614 278.509 187.508 278.479C187.405 278.45 187.269 278.435 187.1 278.435C186.712 278.435 186.432 278.532 186.26 278.728C186.091 278.924 186.006 279.21 186.006 279.588V288H184.833ZM192.762 280.364V281.358H188.645V280.364H192.762ZM189.878 288V279.31C189.878 278.872 189.981 278.508 190.186 278.216C190.392 277.924 190.659 277.705 190.987 277.56C191.315 277.414 191.661 277.341 192.026 277.341C192.314 277.341 192.549 277.364 192.732 277.411C192.914 277.457 193.05 277.5 193.139 277.54L192.801 278.554C192.742 278.534 192.659 278.509 192.553 278.479C192.45 278.45 192.314 278.435 192.145 278.435C191.757 278.435 191.477 278.532 191.305 278.728C191.136 278.924 191.051 279.21 191.051 279.588V288H189.878ZM197.293 288.159C196.557 288.159 195.923 287.997 195.389 287.672C194.859 287.344 194.449 286.886 194.161 286.3C193.876 285.71 193.733 285.024 193.733 284.241C193.733 283.459 193.876 282.77 194.161 282.173C194.449 281.573 194.85 281.106 195.364 280.771C195.881 280.433 196.484 280.264 197.174 280.264C197.572 280.264 197.964 280.33 198.352 280.463C198.74 280.596 199.093 280.811 199.411 281.109C199.729 281.404 199.983 281.795 200.172 282.283C200.361 282.77 200.455 283.37 200.455 284.082V284.58H194.569V283.565H199.262C199.262 283.134 199.176 282.75 199.003 282.412C198.834 282.074 198.592 281.807 198.278 281.612C197.966 281.416 197.598 281.318 197.174 281.318C196.706 281.318 196.302 281.434 195.961 281.666C195.623 281.895 195.363 282.193 195.18 282.561C194.998 282.929 194.907 283.323 194.907 283.744V284.42C194.907 284.997 195.006 285.486 195.205 285.887C195.407 286.285 195.687 286.588 196.045 286.797C196.403 287.002 196.819 287.105 197.293 287.105C197.601 287.105 197.88 287.062 198.128 286.976C198.38 286.886 198.597 286.754 198.78 286.578C198.962 286.399 199.103 286.177 199.202 285.912L200.336 286.23C200.216 286.615 200.016 286.953 199.734 287.244C199.452 287.533 199.104 287.758 198.69 287.92C198.276 288.08 197.81 288.159 197.293 288.159ZM202.24 288V280.364H203.373V281.517H203.453C203.592 281.139 203.844 280.833 204.209 280.597C204.573 280.362 204.984 280.244 205.442 280.244C205.528 280.244 205.635 280.246 205.765 280.249C205.894 280.253 205.992 280.258 206.058 280.264V281.457C206.018 281.447 205.927 281.433 205.785 281.413C205.645 281.389 205.498 281.378 205.342 281.378C204.971 281.378 204.64 281.456 204.348 281.612C204.059 281.764 203.831 281.976 203.662 282.248C203.496 282.516 203.413 282.823 203.413 283.168V288H202.24ZM212.858 282.074L211.804 282.372C211.738 282.196 211.64 282.026 211.511 281.86C211.385 281.691 211.212 281.552 210.994 281.442C210.775 281.333 210.495 281.278 210.153 281.278C209.686 281.278 209.297 281.386 208.985 281.602C208.677 281.814 208.523 282.084 208.523 282.412C208.523 282.704 208.629 282.934 208.841 283.103C209.053 283.272 209.384 283.413 209.835 283.526L210.969 283.804C211.652 283.97 212.16 284.223 212.495 284.565C212.83 284.903 212.997 285.339 212.997 285.872C212.997 286.31 212.871 286.701 212.619 287.045C212.371 287.39 212.023 287.662 211.575 287.861C211.128 288.06 210.607 288.159 210.014 288.159C209.235 288.159 208.591 287.99 208.08 287.652C207.57 287.314 207.247 286.82 207.111 286.17L208.224 285.892C208.33 286.303 208.531 286.611 208.826 286.817C209.124 287.022 209.514 287.125 209.994 287.125C210.541 287.125 210.975 287.009 211.297 286.777C211.622 286.542 211.784 286.26 211.784 285.932C211.784 285.667 211.691 285.445 211.506 285.266C211.32 285.083 211.035 284.947 210.651 284.858L209.378 284.56C208.679 284.394 208.165 284.137 207.837 283.789C207.512 283.438 207.349 282.999 207.349 282.472C207.349 282.041 207.47 281.66 207.712 281.328C207.958 280.997 208.291 280.737 208.712 280.548C209.136 280.359 209.616 280.264 210.153 280.264C210.909 280.264 211.502 280.43 211.933 280.761C212.367 281.093 212.676 281.53 212.858 282.074ZM215.618 288.08C215.373 288.08 215.163 287.992 214.987 287.816C214.811 287.64 214.724 287.43 214.724 287.185C214.724 286.939 214.811 286.729 214.987 286.553C215.163 286.378 215.373 286.29 215.618 286.29C215.864 286.29 216.074 286.378 216.25 286.553C216.425 286.729 216.513 286.939 216.513 287.185C216.513 287.347 216.472 287.496 216.389 287.632C216.309 287.768 216.202 287.877 216.066 287.96C215.933 288.04 215.784 288.08 215.618 288.08ZM215.618 282.412C215.373 282.412 215.163 282.324 214.987 282.148C214.811 281.973 214.724 281.762 214.724 281.517C214.724 281.272 214.811 281.061 214.987 280.886C215.163 280.71 215.373 280.622 215.618 280.622C215.864 280.622 216.074 280.71 216.25 280.886C216.425 281.061 216.513 281.272 216.513 281.517C216.513 281.679 216.472 281.829 216.389 281.964C216.309 282.1 216.202 282.21 216.066 282.293C215.933 282.372 215.784 282.412 215.618 282.412ZM225.718 288.139C225.135 288.139 224.61 288.023 224.142 287.791C223.675 287.559 223.3 287.241 223.019 286.837C222.737 286.432 222.583 285.972 222.556 285.455H223.749C223.796 285.915 224.005 286.296 224.376 286.598C224.75 286.896 225.198 287.045 225.718 287.045C226.136 287.045 226.507 286.948 226.832 286.752C227.16 286.557 227.417 286.288 227.602 285.947C227.791 285.602 227.886 285.213 227.886 284.778C227.886 284.334 227.788 283.938 227.593 283.59C227.4 283.239 227.135 282.962 226.797 282.76C226.459 282.558 226.073 282.455 225.639 282.452C225.327 282.448 225.007 282.496 224.679 282.596C224.351 282.692 224.081 282.816 223.869 282.969L222.715 282.83L223.332 277.818H228.622V278.912H224.366L224.008 281.915H224.068C224.276 281.749 224.538 281.612 224.853 281.502C225.168 281.393 225.496 281.338 225.838 281.338C226.461 281.338 227.016 281.487 227.503 281.786C227.994 282.08 228.378 282.485 228.656 282.999C228.938 283.512 229.079 284.099 229.079 284.759C229.079 285.408 228.933 285.988 228.642 286.499C228.353 287.006 227.955 287.407 227.448 287.702C226.941 287.993 226.365 288.139 225.718 288.139Z" fill="black"/>
<path d="M54.6761 245.912V244.818H62.3125V245.912H59.1108V255H57.8778V245.912H54.6761ZM66.0511 255.159C65.3617 255.159 64.7569 254.995 64.2365 254.667C63.7195 254.339 63.3151 253.88 63.0234 253.29C62.7351 252.7 62.5909 252.01 62.5909 251.222C62.5909 250.426 62.7351 249.732 63.0234 249.138C63.3151 248.545 63.7195 248.085 64.2365 247.756C64.7569 247.428 65.3617 247.264 66.0511 247.264C66.7405 247.264 67.3438 247.428 67.8608 247.756C68.3812 248.085 68.7855 248.545 69.0739 249.138C69.3655 249.732 69.5114 250.426 69.5114 251.222C69.5114 252.01 69.3655 252.7 69.0739 253.29C68.7855 253.88 68.3812 254.339 67.8608 254.667C67.3438 254.995 66.7405 255.159 66.0511 255.159ZM66.0511 254.105C66.5748 254.105 67.0057 253.971 67.3438 253.702C67.6818 253.434 67.9321 253.081 68.0945 252.643C68.2569 252.206 68.3381 251.732 68.3381 251.222C68.3381 250.711 68.2569 250.236 68.0945 249.795C67.9321 249.354 67.6818 248.998 67.3438 248.726C67.0057 248.454 66.5748 248.318 66.0511 248.318C65.5275 248.318 65.0966 248.454 64.7585 248.726C64.4205 248.998 64.1702 249.354 64.0078 249.795C63.8454 250.236 63.7642 250.711 63.7642 251.222C63.7642 251.732 63.8454 252.206 64.0078 252.643C64.1702 253.081 64.4205 253.434 64.7585 253.702C65.0966 253.971 65.5275 254.105 66.0511 254.105ZM74.6234 247.364V248.358H70.666V247.364H74.6234ZM71.8194 245.534H72.9927V252.812C72.9927 253.144 73.0408 253.393 73.1369 253.558C73.2363 253.721 73.3623 253.83 73.5147 253.886C73.6705 253.939 73.8346 253.966 74.0069 253.966C74.1362 253.966 74.2422 253.959 74.3251 253.946C74.408 253.929 74.4743 253.916 74.524 253.906L74.7626 254.96C74.6831 254.99 74.572 255.02 74.4295 255.05C74.287 255.083 74.1064 255.099 73.8876 255.099C73.5562 255.099 73.2314 255.028 72.9132 254.886C72.5983 254.743 72.3365 254.526 72.1277 254.234C71.9222 253.943 71.8194 253.575 71.8194 253.131V245.534ZM78.6355 255.179C78.1516 255.179 77.7124 255.088 77.318 254.906C76.9236 254.72 76.6104 254.453 76.3784 254.105C76.1464 253.754 76.0304 253.33 76.0304 252.832C76.0304 252.395 76.1165 252.04 76.2889 251.768C76.4612 251.493 76.6916 251.278 76.9799 251.122C77.2683 250.966 77.5865 250.85 77.9345 250.774C78.2858 250.695 78.6388 250.632 78.9934 250.585C79.4574 250.526 79.8336 250.481 80.122 250.451C80.4136 250.418 80.6258 250.363 80.7583 250.287C80.8942 250.211 80.9622 250.078 80.9622 249.889V249.849C80.9622 249.359 80.8279 248.978 80.5595 248.706C80.2943 248.434 79.8916 248.298 79.3514 248.298C78.7913 248.298 78.3521 248.421 78.0339 248.666C77.7157 248.911 77.492 249.173 77.3627 249.452L76.2491 249.054C76.448 248.59 76.7131 248.229 77.0446 247.97C77.3793 247.708 77.7439 247.526 78.1383 247.423C78.536 247.317 78.9271 247.264 79.3116 247.264C79.5569 247.264 79.8386 247.294 80.1568 247.354C80.4783 247.41 80.7882 247.528 81.0865 247.707C81.3881 247.886 81.6383 248.156 81.8372 248.517C82.036 248.878 82.1355 249.362 82.1355 249.969V255H80.9622V253.966H80.9025C80.823 254.132 80.6904 254.309 80.5048 254.498C80.3192 254.687 80.0723 254.848 79.764 254.98C79.4558 255.113 79.0796 255.179 78.6355 255.179ZM78.8145 254.125C79.2785 254.125 79.6696 254.034 79.9877 253.852C80.3092 253.669 80.5512 253.434 80.7136 253.146C80.8793 252.857 80.9622 252.554 80.9622 252.236V251.162C80.9125 251.222 80.8031 251.276 80.6341 251.326C80.4683 251.372 80.2761 251.414 80.0574 251.45C79.8419 251.483 79.6315 251.513 79.426 251.54C79.2238 251.563 79.0597 251.583 78.9338 251.599C78.6288 251.639 78.3438 251.704 78.0787 251.793C77.8168 251.879 77.6047 252.01 77.4423 252.186C77.2832 252.358 77.2037 252.594 77.2037 252.892C77.2037 253.3 77.3545 253.608 77.6561 253.817C77.961 254.022 78.3471 254.125 78.8145 254.125ZM85.4503 244.818V255H84.277V244.818H85.4503ZM92.9288 244.818V255H91.6958V244.818H92.9288ZM96.4151 250.406V255H95.2418V247.364H96.3754V248.557H96.4748C96.6538 248.169 96.9255 247.857 97.2901 247.622C97.6547 247.384 98.1254 247.264 98.7021 247.264C99.2191 247.264 99.6715 247.37 100.059 247.582C100.447 247.791 100.749 248.109 100.964 248.537C101.18 248.961 101.287 249.498 101.287 250.148V255H100.114V250.227C100.114 249.627 99.9582 249.16 99.6467 248.825C99.3351 248.487 98.9076 248.318 98.364 248.318C97.9895 248.318 97.6547 248.399 97.3597 248.562C97.0681 248.724 96.8377 248.961 96.6687 249.273C96.4996 249.584 96.4151 249.962 96.4151 250.406ZM106.752 247.364V248.358H102.795V247.364H106.752ZM103.948 245.534H105.122V252.812C105.122 253.144 105.17 253.393 105.266 253.558C105.365 253.721 105.491 253.83 105.644 253.886C105.799 253.939 105.963 253.966 106.136 253.966C106.265 253.966 106.371 253.959 106.454 253.946C106.537 253.929 106.603 253.916 106.653 253.906L106.892 254.96C106.812 254.99 106.701 255.02 106.558 255.05C106.416 255.083 106.235 255.099 106.017 255.099C105.685 255.099 105.36 255.028 105.042 254.886C104.727 254.743 104.465 254.526 104.257 254.234C104.051 253.943 103.948 253.575 103.948 253.131V245.534ZM111.637 255.159C110.901 255.159 110.266 254.997 109.733 254.672C109.202 254.344 108.793 253.886 108.505 253.3C108.22 252.71 108.077 252.024 108.077 251.241C108.077 250.459 108.22 249.77 108.505 249.173C108.793 248.573 109.194 248.106 109.708 247.771C110.225 247.433 110.828 247.264 111.518 247.264C111.915 247.264 112.308 247.33 112.696 247.463C113.084 247.596 113.437 247.811 113.755 248.109C114.073 248.404 114.327 248.795 114.515 249.283C114.704 249.77 114.799 250.37 114.799 251.082V251.58H108.912V250.565H113.606C113.606 250.134 113.519 249.75 113.347 249.412C113.178 249.074 112.936 248.807 112.621 248.612C112.31 248.416 111.942 248.318 111.518 248.318C111.05 248.318 110.646 248.434 110.305 248.666C109.966 248.895 109.706 249.193 109.524 249.561C109.342 249.929 109.251 250.323 109.251 250.744V251.42C109.251 251.997 109.35 252.486 109.549 252.887C109.751 253.285 110.031 253.588 110.389 253.797C110.747 254.002 111.163 254.105 111.637 254.105C111.945 254.105 112.224 254.062 112.472 253.976C112.724 253.886 112.941 253.754 113.123 253.578C113.306 253.399 113.447 253.177 113.546 252.912L114.68 253.23C114.56 253.615 114.36 253.953 114.078 254.244C113.796 254.533 113.448 254.758 113.034 254.92C112.62 255.08 112.154 255.159 111.637 255.159ZM116.584 255V247.364H117.717V248.517H117.797C117.936 248.139 118.188 247.833 118.552 247.597C118.917 247.362 119.328 247.244 119.785 247.244C119.872 247.244 119.979 247.246 120.108 247.249C120.238 247.253 120.336 247.258 120.402 247.264V248.457C120.362 248.447 120.271 248.433 120.128 248.413C119.989 248.389 119.842 248.378 119.686 248.378C119.315 248.378 118.983 248.456 118.692 248.612C118.403 248.764 118.175 248.976 118.006 249.248C117.84 249.516 117.757 249.823 117.757 250.168V255H116.584ZM122.966 250.406V255H121.793V247.364H122.926V248.557H123.026C123.205 248.169 123.476 247.857 123.841 247.622C124.205 247.384 124.676 247.264 125.253 247.264C125.77 247.264 126.222 247.37 126.61 247.582C126.998 247.791 127.299 248.109 127.515 248.537C127.73 248.961 127.838 249.498 127.838 250.148V255H126.665V250.227C126.665 249.627 126.509 249.16 126.197 248.825C125.886 248.487 125.458 248.318 124.915 248.318C124.54 248.318 124.205 248.399 123.911 248.562C123.619 248.724 123.388 248.961 123.219 249.273C123.05 249.584 122.966 249.962 122.966 250.406ZM135.391 249.074L134.337 249.372C134.271 249.196 134.173 249.026 134.044 248.86C133.918 248.691 133.746 248.552 133.527 248.442C133.308 248.333 133.028 248.278 132.687 248.278C132.219 248.278 131.83 248.386 131.518 248.602C131.21 248.814 131.056 249.084 131.056 249.412C131.056 249.704 131.162 249.934 131.374 250.103C131.586 250.272 131.918 250.413 132.368 250.526L133.502 250.804C134.185 250.97 134.693 251.223 135.028 251.565C135.363 251.903 135.53 252.339 135.53 252.872C135.53 253.31 135.404 253.701 135.153 254.045C134.904 254.39 134.556 254.662 134.108 254.861C133.661 255.06 133.141 255.159 132.547 255.159C131.769 255.159 131.124 254.99 130.613 254.652C130.103 254.314 129.78 253.82 129.644 253.17L130.758 252.892C130.864 253.303 131.064 253.611 131.359 253.817C131.657 254.022 132.047 254.125 132.528 254.125C133.074 254.125 133.509 254.009 133.83 253.777C134.155 253.542 134.317 253.26 134.317 252.932C134.317 252.667 134.224 252.445 134.039 252.266C133.853 252.083 133.568 251.947 133.184 251.858L131.911 251.56C131.212 251.394 130.698 251.137 130.37 250.789C130.045 250.438 129.883 249.999 129.883 249.472C129.883 249.041 130.004 248.66 130.246 248.328C130.491 247.997 130.824 247.737 131.245 247.548C131.669 247.359 132.15 247.264 132.687 247.264C133.442 247.264 134.036 247.43 134.466 247.761C134.901 248.093 135.209 248.53 135.391 249.074ZM138.47 250.406V255H137.297V244.818H138.47V248.557H138.569C138.748 248.162 139.017 247.849 139.375 247.617C139.736 247.382 140.217 247.264 140.816 247.264C141.337 247.264 141.792 247.369 142.184 247.577C142.575 247.783 142.878 248.099 143.093 248.527C143.312 248.951 143.422 249.491 143.422 250.148V255H142.248V250.227C142.248 249.621 142.091 249.152 141.776 248.82C141.464 248.486 141.032 248.318 140.478 248.318C140.094 248.318 139.749 248.399 139.444 248.562C139.143 248.724 138.904 248.961 138.728 249.273C138.556 249.584 138.47 249.962 138.47 250.406ZM145.568 255V247.364H146.741V255H145.568ZM146.165 246.091C145.936 246.091 145.739 246.013 145.573 245.857C145.411 245.701 145.329 245.514 145.329 245.295C145.329 245.077 145.411 244.889 145.573 244.734C145.739 244.578 145.936 244.5 146.165 244.5C146.393 244.5 146.589 244.578 146.751 244.734C146.917 244.889 147 245.077 147 245.295C147 245.514 146.917 245.701 146.751 245.857C146.589 246.013 146.393 246.091 146.165 246.091ZM148.89 257.864V247.364H150.024V248.577H150.163C150.249 248.444 150.368 248.275 150.521 248.07C150.677 247.861 150.899 247.675 151.187 247.513C151.479 247.347 151.873 247.264 152.37 247.264C153.013 247.264 153.58 247.425 154.071 247.746C154.561 248.068 154.944 248.524 155.219 249.114C155.494 249.704 155.632 250.4 155.632 251.202C155.632 252.01 155.494 252.711 155.219 253.305C154.944 253.895 154.563 254.352 154.076 254.677C153.588 254.998 153.027 255.159 152.39 255.159C151.9 255.159 151.507 255.078 151.212 254.915C150.917 254.75 150.69 254.562 150.531 254.354C150.372 254.142 150.249 253.966 150.163 253.827H150.064V257.864H148.89ZM150.044 251.182C150.044 251.759 150.128 252.267 150.297 252.708C150.466 253.146 150.713 253.489 151.038 253.737C151.363 253.982 151.761 254.105 152.231 254.105C152.722 254.105 153.131 253.976 153.459 253.717C153.791 253.455 154.039 253.104 154.205 252.663C154.374 252.219 154.458 251.725 154.458 251.182C154.458 250.645 154.376 250.161 154.21 249.73C154.047 249.296 153.801 248.953 153.469 248.701C153.141 248.446 152.728 248.318 152.231 248.318C151.754 248.318 151.353 248.439 151.028 248.681C150.703 248.92 150.458 249.254 150.292 249.685C150.127 250.113 150.044 250.612 150.044 251.182ZM170.109 249.909C170.109 250.983 169.915 251.911 169.527 252.693C169.14 253.475 168.608 254.079 167.931 254.503C167.255 254.927 166.483 255.139 165.615 255.139C164.746 255.139 163.974 254.927 163.298 254.503C162.622 254.079 162.09 253.475 161.702 252.693C161.314 251.911 161.12 250.983 161.12 249.909C161.12 248.835 161.314 247.907 161.702 247.125C162.09 246.343 162.622 245.74 163.298 245.315C163.974 244.891 164.746 244.679 165.615 244.679C166.483 244.679 167.255 244.891 167.931 245.315C168.608 245.74 169.14 246.343 169.527 247.125C169.915 247.907 170.109 248.835 170.109 249.909ZM168.916 249.909C168.916 249.027 168.768 248.283 168.473 247.677C168.182 247.07 167.786 246.611 167.285 246.3C166.788 245.988 166.231 245.832 165.615 245.832C164.998 245.832 164.44 245.988 163.939 246.3C163.442 246.611 163.046 247.07 162.751 247.677C162.459 248.283 162.314 249.027 162.314 249.909C162.314 250.791 162.459 251.535 162.751 252.141C163.046 252.748 163.442 253.207 163.939 253.518C164.44 253.83 164.998 253.986 165.615 253.986C166.231 253.986 166.788 253.83 167.285 253.518C167.786 253.207 168.182 252.748 168.473 252.141C168.768 251.535 168.916 250.791 168.916 249.909ZM175.424 247.364V248.358H171.307V247.364H175.424ZM172.54 255V246.31C172.54 245.872 172.643 245.508 172.848 245.216C173.054 244.924 173.321 244.705 173.649 244.56C173.977 244.414 174.323 244.341 174.688 244.341C174.976 244.341 175.212 244.364 175.394 244.411C175.576 244.457 175.712 244.5 175.801 244.54L175.463 245.554C175.404 245.534 175.321 245.509 175.215 245.479C175.112 245.45 174.976 245.435 174.807 245.435C174.419 245.435 174.139 245.532 173.967 245.728C173.798 245.924 173.713 246.21 173.713 246.588V255H172.54ZM180.469 247.364V248.358H176.352V247.364H180.469ZM177.585 255V246.31C177.585 245.872 177.688 245.508 177.893 245.216C178.099 244.924 178.366 244.705 178.694 244.56C179.022 244.414 179.368 244.341 179.733 244.341C180.021 244.341 180.256 244.364 180.439 244.411C180.621 244.457 180.757 244.5 180.846 244.54L180.508 245.554C180.449 245.534 180.366 245.509 180.26 245.479C180.157 245.45 180.021 245.435 179.852 245.435C179.464 245.435 179.184 245.532 179.012 245.728C178.843 245.924 178.758 246.21 178.758 246.588V255H177.585ZM185 255.159C184.264 255.159 183.63 254.997 183.096 254.672C182.566 254.344 182.156 253.886 181.868 253.3C181.583 252.71 181.441 252.024 181.441 251.241C181.441 250.459 181.583 249.77 181.868 249.173C182.156 248.573 182.557 248.106 183.071 247.771C183.588 247.433 184.191 247.264 184.881 247.264C185.279 247.264 185.671 247.33 186.059 247.463C186.447 247.596 186.8 247.811 187.118 248.109C187.436 248.404 187.69 248.795 187.879 249.283C188.068 249.77 188.162 250.37 188.162 251.082V251.58H182.276V250.565H186.969C186.969 250.134 186.883 249.75 186.71 249.412C186.541 249.074 186.299 248.807 185.985 248.612C185.673 248.416 185.305 248.318 184.881 248.318C184.414 248.318 184.009 248.434 183.668 248.666C183.33 248.895 183.07 249.193 182.887 249.561C182.705 249.929 182.614 250.323 182.614 250.744V251.42C182.614 251.997 182.713 252.486 182.912 252.887C183.114 253.285 183.394 253.588 183.752 253.797C184.11 254.002 184.526 254.105 185 254.105C185.308 254.105 185.587 254.062 185.835 253.976C186.087 253.886 186.304 253.754 186.487 253.578C186.669 253.399 186.81 253.177 186.909 252.912L188.043 253.23C187.923 253.615 187.723 253.953 187.441 254.244C187.16 254.533 186.811 254.758 186.397 254.92C185.983 255.08 185.517 255.159 185 255.159ZM189.947 255V247.364H191.08V248.517H191.16C191.299 248.139 191.551 247.833 191.916 247.597C192.28 247.362 192.691 247.244 193.149 247.244C193.235 247.244 193.343 247.246 193.472 247.249C193.601 247.253 193.699 247.258 193.765 247.264V248.457C193.725 248.447 193.634 248.433 193.492 248.413C193.352 248.389 193.205 248.378 193.049 248.378C192.678 248.378 192.347 248.456 192.055 248.612C191.767 248.764 191.538 248.976 191.369 249.248C191.203 249.516 191.12 249.823 191.12 250.168V255H189.947ZM200.565 249.074L199.511 249.372C199.445 249.196 199.347 249.026 199.218 248.86C199.092 248.691 198.919 248.552 198.701 248.442C198.482 248.333 198.202 248.278 197.86 248.278C197.393 248.278 197.004 248.386 196.692 248.602C196.384 248.814 196.23 249.084 196.23 249.412C196.23 249.704 196.336 249.934 196.548 250.103C196.76 250.272 197.092 250.413 197.542 250.526L198.676 250.804C199.359 250.97 199.867 251.223 200.202 251.565C200.537 251.903 200.704 252.339 200.704 252.872C200.704 253.31 200.578 253.701 200.326 254.045C200.078 254.39 199.73 254.662 199.282 254.861C198.835 255.06 198.315 255.159 197.721 255.159C196.942 255.159 196.298 254.99 195.787 254.652C195.277 254.314 194.954 253.82 194.818 253.17L195.931 252.892C196.038 253.303 196.238 253.611 196.533 253.817C196.831 254.022 197.221 254.125 197.701 254.125C198.248 254.125 198.682 254.009 199.004 253.777C199.329 253.542 199.491 253.26 199.491 252.932C199.491 252.667 199.398 252.445 199.213 252.266C199.027 252.083 198.742 251.947 198.358 251.858L197.085 251.56C196.386 251.394 195.872 251.137 195.544 250.789C195.219 250.438 195.056 249.999 195.056 249.472C195.056 249.041 195.177 248.66 195.419 248.328C195.665 247.997 195.998 247.737 196.419 247.548C196.843 247.359 197.324 247.264 197.86 247.264C198.616 247.264 199.209 247.43 199.64 247.761C200.074 248.093 200.383 248.53 200.565 249.074ZM203.325 255.08C203.08 255.08 202.87 254.992 202.694 254.816C202.518 254.64 202.431 254.43 202.431 254.185C202.431 253.939 202.518 253.729 202.694 253.553C202.87 253.378 203.08 253.29 203.325 253.29C203.571 253.29 203.781 253.378 203.957 253.553C204.133 253.729 204.22 253.939 204.22 254.185C204.22 254.347 204.179 254.496 204.096 254.632C204.017 254.768 203.909 254.877 203.773 254.96C203.64 255.04 203.491 255.08 203.325 255.08ZM203.325 249.412C203.08 249.412 202.87 249.324 202.694 249.148C202.518 248.973 202.431 248.762 202.431 248.517C202.431 248.272 202.518 248.061 202.694 247.886C202.87 247.71 203.08 247.622 203.325 247.622C203.571 247.622 203.781 247.71 203.957 247.886C204.133 248.061 204.22 248.272 204.22 248.517C204.22 248.679 204.179 248.829 204.096 248.964C204.017 249.1 203.909 249.21 203.773 249.293C203.64 249.372 203.491 249.412 203.325 249.412ZM210.562 255L215.116 245.991V245.912H209.866V244.818H216.388V245.972L211.854 255H210.562ZM221.344 255.139C220.595 255.139 219.957 254.935 219.43 254.528C218.903 254.117 218.5 253.522 218.222 252.743C217.943 251.961 217.804 251.016 217.804 249.909C217.804 248.809 217.943 247.869 218.222 247.09C218.503 246.308 218.908 245.711 219.435 245.3C219.965 244.886 220.601 244.679 221.344 244.679C222.086 244.679 222.721 244.886 223.248 245.3C223.778 245.711 224.183 246.308 224.461 247.09C224.743 247.869 224.884 248.809 224.884 249.909C224.884 251.016 224.744 251.961 224.466 252.743C224.188 253.522 223.785 254.117 223.258 254.528C222.731 254.935 222.093 255.139 221.344 255.139ZM221.344 254.045C222.086 254.045 222.663 253.687 223.074 252.972C223.485 252.256 223.69 251.235 223.69 249.909C223.69 249.027 223.596 248.277 223.407 247.657C223.221 247.037 222.953 246.565 222.602 246.24C222.254 245.915 221.834 245.753 221.344 245.753C220.608 245.753 220.033 246.116 219.619 246.842C219.204 247.564 218.997 248.587 218.997 249.909C218.997 250.791 219.09 251.54 219.276 252.156C219.461 252.773 219.728 253.242 220.076 253.563C220.427 253.885 220.85 254.045 221.344 254.045Z" fill="black"/>
<path d="M35 258.625C29.6939 258.625 25.375 254.307 25.375 249C25.375 243.693 29.6939 239.375 35 239.375C40.3061 239.375 44.625 243.693 44.625 249C44.625 254.307 40.3061 258.625 35 258.625ZM35 240.75C30.4501 240.75 26.75 244.45 26.75 249C26.75 253.55 30.4501 257.25 35 257.25C39.5499 257.25 43.25 253.55 43.25 249C43.25 244.45 39.5499 240.75 35 240.75Z" fill="#1461FF"/>
<path d="M35 251.98C36.6456 251.98 37.9796 250.646 37.9796 249C37.9796 247.354 36.6456 246.02 35 246.02C33.3544 246.02 32.0204 247.354 32.0204 249C32.0204 250.646 33.3544 251.98 35 251.98Z" fill="#0070C0"/>
<path d="M54.6761 211.912V210.818H62.3125V211.912H59.1108V221H57.8778V211.912H54.6761ZM66.0511 221.159C65.3617 221.159 64.7569 220.995 64.2365 220.667C63.7195 220.339 63.3151 219.88 63.0234 219.29C62.7351 218.7 62.5909 218.01 62.5909 217.222C62.5909 216.426 62.7351 215.732 63.0234 215.138C63.3151 214.545 63.7195 214.085 64.2365 213.756C64.7569 213.428 65.3617 213.264 66.0511 213.264C66.7405 213.264 67.3438 213.428 67.8608 213.756C68.3812 214.085 68.7855 214.545 69.0739 215.138C69.3655 215.732 69.5114 216.426 69.5114 217.222C69.5114 218.01 69.3655 218.7 69.0739 219.29C68.7855 219.88 68.3812 220.339 67.8608 220.667C67.3438 220.995 66.7405 221.159 66.0511 221.159ZM66.0511 220.105C66.5748 220.105 67.0057 219.971 67.3438 219.702C67.6818 219.434 67.9321 219.081 68.0945 218.643C68.2569 218.206 68.3381 217.732 68.3381 217.222C68.3381 216.711 68.2569 216.236 68.0945 215.795C67.9321 215.354 67.6818 214.998 67.3438 214.726C67.0057 214.454 66.5748 214.318 66.0511 214.318C65.5275 214.318 65.0966 214.454 64.7585 214.726C64.4205 214.998 64.1702 215.354 64.0078 215.795C63.8454 216.236 63.7642 216.711 63.7642 217.222C63.7642 217.732 63.8454 218.206 64.0078 218.643C64.1702 219.081 64.4205 219.434 64.7585 219.702C65.0966 219.971 65.5275 220.105 66.0511 220.105ZM74.6234 213.364V214.358H70.666V213.364H74.6234ZM71.8194 211.534H72.9927V218.812C72.9927 219.144 73.0408 219.393 73.1369 219.558C73.2363 219.721 73.3623 219.83 73.5147 219.886C73.6705 219.939 73.8346 219.966 74.0069 219.966C74.1362 219.966 74.2422 219.959 74.3251 219.946C74.408 219.929 74.4743 219.916 74.524 219.906L74.7626 220.96C74.6831 220.99 74.572 221.02 74.4295 221.05C74.287 221.083 74.1064 221.099 73.8876 221.099C73.5562 221.099 73.2314 221.028 72.9132 220.886C72.5983 220.743 72.3365 220.526 72.1277 220.234C71.9222 219.943 71.8194 219.575 71.8194 219.131V211.534ZM78.6355 221.179C78.1516 221.179 77.7124 221.088 77.318 220.906C76.9236 220.72 76.6104 220.453 76.3784 220.105C76.1464 219.754 76.0304 219.33 76.0304 218.832C76.0304 218.395 76.1165 218.04 76.2889 217.768C76.4612 217.493 76.6916 217.278 76.9799 217.122C77.2683 216.966 77.5865 216.85 77.9345 216.774C78.2858 216.695 78.6388 216.632 78.9934 216.585C79.4574 216.526 79.8336 216.481 80.122 216.451C80.4136 216.418 80.6258 216.363 80.7583 216.287C80.8942 216.211 80.9622 216.078 80.9622 215.889V215.849C80.9622 215.359 80.8279 214.978 80.5595 214.706C80.2943 214.434 79.8916 214.298 79.3514 214.298C78.7913 214.298 78.3521 214.421 78.0339 214.666C77.7157 214.911 77.492 215.173 77.3627 215.452L76.2491 215.054C76.448 214.59 76.7131 214.229 77.0446 213.97C77.3793 213.708 77.7439 213.526 78.1383 213.423C78.536 213.317 78.9271 213.264 79.3116 213.264C79.5569 213.264 79.8386 213.294 80.1568 213.354C80.4783 213.41 80.7882 213.528 81.0865 213.707C81.3881 213.886 81.6383 214.156 81.8372 214.517C82.036 214.878 82.1355 215.362 82.1355 215.969V221H80.9622V219.966H80.9025C80.823 220.132 80.6904 220.309 80.5048 220.498C80.3192 220.687 80.0723 220.848 79.764 220.98C79.4558 221.113 79.0796 221.179 78.6355 221.179ZM78.8145 220.125C79.2785 220.125 79.6696 220.034 79.9877 219.852C80.3092 219.669 80.5512 219.434 80.7136 219.146C80.8793 218.857 80.9622 218.554 80.9622 218.236V217.162C80.9125 217.222 80.8031 217.276 80.6341 217.326C80.4683 217.372 80.2761 217.414 80.0574 217.45C79.8419 217.483 79.6315 217.513 79.426 217.54C79.2238 217.563 79.0597 217.583 78.9338 217.599C78.6288 217.639 78.3438 217.704 78.0787 217.793C77.8168 217.879 77.6047 218.01 77.4423 218.186C77.2832 218.358 77.2037 218.594 77.2037 218.892C77.2037 219.3 77.3545 219.608 77.6561 219.817C77.961 220.022 78.3471 220.125 78.8145 220.125ZM85.4503 210.818V221H84.277V210.818H85.4503ZM91.6958 221V210.818H97.801V211.912H92.9288V215.352H97.3436V216.446H92.9288V221H91.6958ZM99.3558 211.912V210.818H106.992V211.912H103.79V221H102.558V211.912H99.3558ZM108.895 221V210.818H115.04V211.912H110.128V215.352H114.722V216.446H110.128V219.906H115.119V221H108.895ZM129.791 215.909C129.791 216.983 129.597 217.911 129.209 218.693C128.821 219.475 128.289 220.079 127.613 220.503C126.937 220.927 126.165 221.139 125.296 221.139C124.428 221.139 123.656 220.927 122.98 220.503C122.303 220.079 121.771 219.475 121.384 218.693C120.996 217.911 120.802 216.983 120.802 215.909C120.802 214.835 120.996 213.907 121.384 213.125C121.771 212.343 122.303 211.74 122.98 211.315C123.656 210.891 124.428 210.679 125.296 210.679C126.165 210.679 126.937 210.891 127.613 211.315C128.289 211.74 128.821 212.343 129.209 213.125C129.597 213.907 129.791 214.835 129.791 215.909ZM128.597 215.909C128.597 215.027 128.45 214.283 128.155 213.677C127.863 213.07 127.467 212.611 126.967 212.3C126.47 211.988 125.913 211.832 125.296 211.832C124.68 211.832 124.121 211.988 123.621 212.3C123.124 212.611 122.728 213.07 122.433 213.677C122.141 214.283 121.995 215.027 121.995 215.909C121.995 216.791 122.141 217.535 122.433 218.141C122.728 218.748 123.124 219.207 123.621 219.518C124.121 219.83 124.68 219.986 125.296 219.986C125.913 219.986 126.47 219.83 126.967 219.518C127.467 219.207 127.863 218.748 128.155 218.141C128.45 217.535 128.597 216.791 128.597 215.909ZM135.105 213.364V214.358H130.989V213.364H135.105ZM132.222 221V212.31C132.222 211.872 132.325 211.508 132.53 211.216C132.735 210.924 133.002 210.705 133.33 210.56C133.659 210.414 134.005 210.341 134.369 210.341C134.658 210.341 134.893 210.364 135.075 210.411C135.258 210.457 135.394 210.5 135.483 210.54L135.145 211.554C135.085 211.534 135.003 211.509 134.896 211.479C134.794 211.45 134.658 211.435 134.489 211.435C134.101 211.435 133.821 211.532 133.649 211.728C133.48 211.924 133.395 212.21 133.395 212.588V221H132.222ZM140.15 213.364V214.358H136.034V213.364H140.15ZM137.267 221V212.31C137.267 211.872 137.369 211.508 137.575 211.216C137.78 210.924 138.047 210.705 138.375 210.56C138.703 210.414 139.05 210.341 139.414 210.341C139.703 210.341 139.938 210.364 140.12 210.411C140.303 210.457 140.439 210.5 140.528 210.54L140.19 211.554C140.13 211.534 140.047 211.509 139.941 211.479C139.839 211.45 139.703 211.435 139.534 211.435C139.146 211.435 138.866 211.532 138.694 211.728C138.525 211.924 138.44 212.21 138.44 212.588V221H137.267ZM144.682 221.159C143.946 221.159 143.311 220.997 142.778 220.672C142.247 220.344 141.838 219.886 141.55 219.3C141.265 218.71 141.122 218.024 141.122 217.241C141.122 216.459 141.265 215.77 141.55 215.173C141.838 214.573 142.239 214.106 142.753 213.771C143.27 213.433 143.873 213.264 144.562 213.264C144.96 213.264 145.353 213.33 145.741 213.463C146.129 213.596 146.482 213.811 146.8 214.109C147.118 214.404 147.371 214.795 147.56 215.283C147.749 215.77 147.844 216.37 147.844 217.082V217.58H141.957V216.565H146.651C146.651 216.134 146.564 215.75 146.392 215.412C146.223 215.074 145.981 214.807 145.666 214.612C145.355 214.416 144.987 214.318 144.562 214.318C144.095 214.318 143.691 214.434 143.349 214.666C143.011 214.895 142.751 215.193 142.569 215.561C142.387 215.929 142.295 216.323 142.295 216.744V217.42C142.295 217.997 142.395 218.486 142.594 218.887C142.796 219.285 143.076 219.588 143.434 219.797C143.792 220.002 144.208 220.105 144.682 220.105C144.99 220.105 145.268 220.062 145.517 219.976C145.769 219.886 145.986 219.754 146.168 219.578C146.351 219.399 146.491 219.177 146.591 218.912L147.724 219.23C147.605 219.615 147.405 219.953 147.123 220.244C146.841 220.533 146.493 220.758 146.079 220.92C145.665 221.08 145.199 221.159 144.682 221.159ZM149.629 221V213.364H150.762V214.517H150.842C150.981 214.139 151.233 213.833 151.597 213.597C151.962 213.362 152.373 213.244 152.83 213.244C152.916 213.244 153.024 213.246 153.153 213.249C153.283 213.253 153.38 213.258 153.447 213.264V214.457C153.407 214.447 153.316 214.433 153.173 214.413C153.034 214.389 152.887 214.378 152.731 214.378C152.36 214.378 152.028 214.456 151.737 214.612C151.448 214.764 151.219 214.976 151.05 215.248C150.885 215.516 150.802 215.823 150.802 216.168V221H149.629ZM160.247 215.074L159.193 215.372C159.126 215.196 159.029 215.026 158.899 214.86C158.773 214.691 158.601 214.552 158.382 214.442C158.164 214.333 157.883 214.278 157.542 214.278C157.075 214.278 156.685 214.386 156.374 214.602C156.066 214.814 155.911 215.084 155.911 215.412C155.911 215.704 156.017 215.934 156.23 216.103C156.442 216.272 156.773 216.413 157.224 216.526L158.357 216.804C159.04 216.97 159.549 217.223 159.884 217.565C160.218 217.903 160.386 218.339 160.386 218.872C160.386 219.31 160.26 219.701 160.008 220.045C159.759 220.39 159.411 220.662 158.964 220.861C158.517 221.06 157.996 221.159 157.403 221.159C156.624 221.159 155.979 220.99 155.469 220.652C154.959 220.314 154.635 219.82 154.499 219.17L155.613 218.892C155.719 219.303 155.92 219.611 156.215 219.817C156.513 220.022 156.902 220.125 157.383 220.125C157.93 220.125 158.364 220.009 158.686 219.777C159.01 219.542 159.173 219.26 159.173 218.932C159.173 218.667 159.08 218.445 158.894 218.266C158.709 218.083 158.424 217.947 158.039 217.858L156.767 217.56C156.067 217.394 155.553 217.137 155.225 216.789C154.901 216.438 154.738 215.999 154.738 215.472C154.738 215.041 154.859 214.66 155.101 214.328C155.346 213.997 155.679 213.737 156.1 213.548C156.525 213.359 157.005 213.264 157.542 213.264C158.298 213.264 158.891 213.43 159.322 213.761C159.756 214.093 160.064 214.53 160.247 215.074ZM163.007 221.08C162.762 221.08 162.551 220.992 162.376 220.816C162.2 220.64 162.112 220.43 162.112 220.185C162.112 219.939 162.2 219.729 162.376 219.553C162.551 219.378 162.762 219.29 163.007 219.29C163.252 219.29 163.463 219.378 163.638 219.553C163.814 219.729 163.902 219.939 163.902 220.185C163.902 220.347 163.861 220.496 163.778 220.632C163.698 220.768 163.59 220.877 163.455 220.96C163.322 221.04 163.173 221.08 163.007 221.08ZM163.007 215.412C162.762 215.412 162.551 215.324 162.376 215.148C162.2 214.973 162.112 214.762 162.112 214.517C162.112 214.272 162.2 214.061 162.376 213.886C162.551 213.71 162.762 213.622 163.007 213.622C163.252 213.622 163.463 213.71 163.638 213.886C163.814 214.061 163.902 214.272 163.902 214.517C163.902 214.679 163.861 214.829 163.778 214.964C163.698 215.1 163.59 215.21 163.455 215.293C163.322 215.372 163.173 215.412 163.007 215.412ZM173.505 210.818V221H172.272V212.111H172.212L169.726 213.761V212.509L172.272 210.818H173.505ZM176.751 221L181.305 211.991V211.912H176.055V210.818H182.578V211.972L178.044 221H176.751ZM187.536 210.679C187.953 210.682 188.371 210.762 188.789 210.918C189.206 211.073 189.587 211.332 189.932 211.693C190.277 212.051 190.553 212.54 190.762 213.16C190.971 213.78 191.075 214.557 191.075 215.491C191.075 216.396 190.989 217.2 190.817 217.903C190.648 218.602 190.403 219.192 190.081 219.673C189.763 220.153 189.375 220.518 188.918 220.766C188.464 221.015 187.95 221.139 187.377 221.139C186.807 221.139 186.298 221.027 185.85 220.801C185.406 220.572 185.042 220.256 184.757 219.852C184.475 219.444 184.294 218.972 184.215 218.435H185.428C185.537 218.902 185.754 219.288 186.079 219.593C186.407 219.895 186.84 220.045 187.377 220.045C188.162 220.045 188.782 219.702 189.236 219.016C189.693 218.33 189.922 217.361 189.922 216.108H189.843C189.657 216.386 189.436 216.627 189.181 216.829C188.926 217.031 188.643 217.187 188.331 217.296C188.02 217.406 187.688 217.46 187.337 217.46C186.753 217.46 186.218 217.316 185.731 217.028C185.247 216.736 184.859 216.337 184.568 215.83C184.279 215.319 184.135 214.736 184.135 214.08C184.135 213.456 184.274 212.886 184.553 212.369C184.834 211.849 185.229 211.435 185.736 211.126C186.246 210.818 186.846 210.669 187.536 210.679ZM187.536 211.773C187.118 211.773 186.742 211.877 186.407 212.086C186.076 212.291 185.812 212.57 185.617 212.921C185.424 213.269 185.328 213.655 185.328 214.08C185.328 214.504 185.421 214.89 185.607 215.238C185.796 215.583 186.052 215.858 186.377 216.063C186.705 216.265 187.078 216.366 187.496 216.366C187.811 216.366 188.104 216.305 188.376 216.183C188.648 216.057 188.885 215.886 189.087 215.67C189.292 215.452 189.453 215.205 189.569 214.93C189.685 214.651 189.743 214.361 189.743 214.06C189.743 213.662 189.647 213.289 189.455 212.941C189.266 212.593 189.004 212.311 188.669 212.096C188.338 211.88 187.96 211.773 187.536 211.773Z" fill="black"/>
<path d="M35 224.625C29.6939 224.625 25.375 220.307 25.375 215C25.375 209.693 29.6939 205.375 35 205.375C40.3061 205.375 44.625 209.693 44.625 215C44.625 220.307 40.3061 224.625 35 224.625ZM35 206.75C30.4501 206.75 26.75 210.45 26.75 215C26.75 219.55 30.4501 223.25 35 223.25C39.5499 223.25 43.25 219.55 43.25 215C43.25 210.45 39.5499 206.75 35 206.75Z" fill="#1461FF"/>
<path d="M35 217.98C36.6456 217.98 37.9796 216.646 37.9796 215C37.9796 213.354 36.6456 212.02 35 212.02C33.3544 212.02 32.0204 213.354 32.0204 215C32.0204 216.646 33.3544 217.98 35 217.98Z" fill="#FC9D02"/>
<g filter="url(#filter0_d_295_341)">
<circle cx="127" cy="115" r="44" fill="white"/>
</g>
<path fill-rule="evenodd" clip-rule="evenodd" d="M126.508 57C158.812 57 185 83.1697 185 115.452C185 147.734 158.812 173.903 126.508 173.903C100.526 173.903 77.6581 156.777 70.3661 131.857L84.4013 127.755C91.2013 150.994 115.565 164.323 138.82 157.529C162.074 150.734 175.413 126.387 168.614 103.148C163.145 84.458 145.994 71.6129 126.508 71.6129V57Z" fill="#FC9D02"/>
<path fill-rule="evenodd" clip-rule="evenodd" d="M70.3661 131.857C61.2998 100.872 79.0854 68.4093 110.091 59.3492C113.102 58.4695 116.179 57.8333 119.291 57.4465L121.095 71.9478C97.052 74.9348 79.9842 96.8335 82.9733 120.86C83.2634 123.193 83.7415 125.499 84.4013 127.755L70.3661 131.857Z" fill="#0070C0"/>
<path fill-rule="evenodd" clip-rule="evenodd" d="M119.291 57.4466C121.685 57.1491 124.095 57 126.508 57V71.6129C124.699 71.6129 122.891 71.7247 121.095 71.9478L119.291 57.4466Z" fill="#00B0F0"/>
<path d="M118.578 117.473V120H107.392V117.844L112.682 112.172C113.214 111.581 113.633 111.061 113.94 110.611C114.247 110.155 114.468 109.747 114.602 109.387C114.745 109.02 114.816 108.672 114.816 108.343C114.816 107.849 114.733 107.426 114.569 107.074C114.404 106.714 114.161 106.437 113.839 106.243C113.524 106.048 113.135 105.951 112.671 105.951C112.177 105.951 111.75 106.07 111.391 106.31C111.039 106.55 110.769 106.883 110.582 107.31C110.402 107.736 110.312 108.219 110.312 108.758H107.067C107.067 107.785 107.299 106.894 107.763 106.085C108.227 105.269 108.882 104.622 109.728 104.143C110.574 103.656 111.578 103.413 112.738 103.413C113.884 103.413 114.85 103.6 115.636 103.974C116.429 104.341 117.028 104.873 117.433 105.569C117.844 106.258 118.05 107.081 118.05 108.04C118.05 108.579 117.964 109.106 117.792 109.623C117.62 110.132 117.373 110.641 117.051 111.15C116.736 111.652 116.354 112.161 115.905 112.678C115.456 113.194 114.958 113.73 114.412 114.284L111.57 117.473H118.578ZM124.563 112.554L121.98 111.937L122.912 103.648H132.099V106.265H125.574L125.169 109.893C125.387 109.765 125.716 109.631 126.158 109.488C126.599 109.339 127.094 109.264 127.64 109.264C128.434 109.264 129.138 109.387 129.751 109.634C130.365 109.881 130.886 110.241 131.312 110.712C131.747 111.184 132.076 111.761 132.301 112.442C132.525 113.123 132.638 113.894 132.638 114.755C132.638 115.482 132.525 116.174 132.301 116.833C132.076 117.484 131.736 118.068 131.279 118.585C130.822 119.094 130.249 119.495 129.561 119.787C128.872 120.079 128.056 120.225 127.112 120.225C126.409 120.225 125.727 120.12 125.068 119.91C124.417 119.701 123.829 119.39 123.305 118.978C122.789 118.566 122.373 118.068 122.059 117.484C121.752 116.893 121.591 116.219 121.576 115.463H124.788C124.833 115.927 124.952 116.328 125.147 116.665C125.349 116.994 125.615 117.249 125.944 117.428C126.274 117.608 126.659 117.698 127.101 117.698C127.513 117.698 127.865 117.619 128.157 117.462C128.449 117.305 128.685 117.088 128.864 116.811C129.044 116.526 129.175 116.197 129.257 115.822C129.347 115.44 129.392 115.029 129.392 114.587C129.392 114.145 129.34 113.745 129.235 113.385C129.13 113.026 128.969 112.715 128.752 112.453C128.535 112.191 128.258 111.989 127.921 111.847C127.591 111.704 127.206 111.633 126.764 111.633C126.165 111.633 125.701 111.727 125.372 111.914C125.05 112.101 124.78 112.315 124.563 112.554ZM147.102 113.891V116.429H135.321L135.164 114.463L141.981 103.648H144.552L141.767 108.309L138.376 113.891H147.102ZM145.249 103.648V120H142.014V103.648H145.249Z" fill="#1C1E2F"/>
<path d="M104.851 128.141V135.25H103.391V128.141H104.851ZM107.038 128.141V129.288H101.237V128.141H107.038ZM106.711 132.662V132.56C106.711 132.172 106.766 131.816 106.877 131.49C106.988 131.161 107.149 130.877 107.36 130.636C107.572 130.395 107.832 130.208 108.142 130.074C108.451 129.938 108.806 129.869 109.206 129.869C109.606 129.869 109.963 129.938 110.275 130.074C110.588 130.208 110.85 130.395 111.062 130.636C111.276 130.877 111.439 131.161 111.55 131.49C111.661 131.816 111.716 132.172 111.716 132.56V132.662C111.716 133.046 111.661 133.403 111.55 133.731C111.439 134.057 111.276 134.342 111.062 134.586C110.85 134.827 110.59 135.014 110.28 135.147C109.971 135.281 109.616 135.348 109.216 135.348C108.815 135.348 108.459 135.281 108.147 135.147C107.837 135.014 107.575 134.827 107.36 134.586C107.149 134.342 106.988 134.057 106.877 133.731C106.766 133.403 106.711 133.046 106.711 132.662ZM108.117 132.56V132.662C108.117 132.883 108.137 133.09 108.176 133.282C108.215 133.474 108.277 133.644 108.361 133.79C108.449 133.933 108.563 134.046 108.703 134.127C108.843 134.208 109.014 134.249 109.216 134.249C109.411 134.249 109.579 134.208 109.719 134.127C109.859 134.046 109.971 133.933 110.056 133.79C110.14 133.644 110.202 133.474 110.241 133.282C110.284 133.09 110.305 132.883 110.305 132.662V132.56C110.305 132.345 110.284 132.143 110.241 131.954C110.202 131.762 110.139 131.593 110.051 131.446C109.966 131.297 109.854 131.179 109.714 131.095C109.574 131.01 109.405 130.968 109.206 130.968C109.008 130.968 108.838 131.01 108.698 131.095C108.562 131.179 108.449 131.297 108.361 131.446C108.277 131.593 108.215 131.762 108.176 131.954C108.137 132.143 108.117 132.345 108.117 132.56ZM115.168 129.967V130.963H112.092V129.967H115.168ZM112.854 128.663H114.26V133.658C114.26 133.811 114.279 133.928 114.318 134.01C114.361 134.091 114.423 134.148 114.504 134.181C114.585 134.21 114.688 134.225 114.812 134.225C114.899 134.225 114.978 134.221 115.046 134.215C115.118 134.205 115.178 134.195 115.227 134.186L115.231 135.221C115.111 135.26 114.981 135.291 114.841 135.313C114.701 135.336 114.546 135.348 114.377 135.348C114.068 135.348 113.798 135.297 113.566 135.196C113.339 135.092 113.163 134.926 113.039 134.698C112.915 134.47 112.854 134.171 112.854 133.8V128.663ZM118.82 134.059V131.705C118.82 131.536 118.793 131.391 118.737 131.271C118.682 131.147 118.596 131.051 118.479 130.982C118.365 130.914 118.217 130.88 118.034 130.88C117.878 130.88 117.743 130.908 117.629 130.963C117.515 131.015 117.427 131.091 117.365 131.192C117.303 131.29 117.273 131.406 117.273 131.539H115.866C115.866 131.314 115.918 131.101 116.023 130.899C116.127 130.698 116.278 130.52 116.477 130.367C116.675 130.211 116.911 130.089 117.185 130.001C117.461 129.913 117.771 129.869 118.112 129.869C118.523 129.869 118.887 129.938 119.206 130.074C119.525 130.211 119.776 130.416 119.958 130.689C120.144 130.963 120.236 131.305 120.236 131.715V133.976C120.236 134.265 120.254 134.503 120.29 134.688C120.326 134.871 120.378 135.03 120.446 135.167V135.25H119.025C118.957 135.107 118.905 134.928 118.869 134.713C118.837 134.495 118.82 134.277 118.82 134.059ZM119.006 132.032L119.016 132.828H118.23C118.044 132.828 117.883 132.849 117.746 132.892C117.609 132.934 117.497 132.994 117.409 133.072C117.321 133.147 117.256 133.235 117.214 133.336C117.175 133.437 117.155 133.548 117.155 133.668C117.155 133.788 117.183 133.897 117.238 133.995C117.294 134.09 117.373 134.164 117.478 134.22C117.582 134.272 117.704 134.298 117.844 134.298C118.055 134.298 118.239 134.256 118.396 134.171C118.552 134.086 118.672 133.982 118.757 133.858C118.845 133.735 118.89 133.618 118.894 133.507L119.265 134.103C119.213 134.236 119.141 134.374 119.05 134.518C118.962 134.661 118.85 134.796 118.713 134.923C118.576 135.047 118.412 135.149 118.22 135.23C118.028 135.309 117.8 135.348 117.536 135.348C117.201 135.348 116.897 135.281 116.623 135.147C116.353 135.011 116.138 134.824 115.979 134.586C115.822 134.345 115.744 134.072 115.744 133.766C115.744 133.489 115.796 133.243 115.9 133.028C116.005 132.813 116.158 132.633 116.359 132.486C116.565 132.337 116.82 132.224 117.126 132.149C117.432 132.071 117.787 132.032 118.19 132.032H119.006ZM122.805 127.75V135.25H121.394V127.75H122.805ZM132.385 131.529V131.866C132.385 132.407 132.312 132.892 132.165 133.321C132.019 133.751 131.812 134.117 131.545 134.42C131.278 134.719 130.959 134.949 130.588 135.108C130.22 135.268 129.812 135.348 129.362 135.348C128.916 135.348 128.508 135.268 128.137 135.108C127.769 134.949 127.45 134.719 127.18 134.42C126.91 134.117 126.7 133.751 126.55 133.321C126.403 132.892 126.33 132.407 126.33 131.866V131.529C126.33 130.986 126.403 130.501 126.55 130.074C126.696 129.645 126.903 129.278 127.17 128.976C127.44 128.673 127.759 128.442 128.127 128.282C128.498 128.123 128.907 128.043 129.353 128.043C129.802 128.043 130.21 128.123 130.578 128.282C130.949 128.442 131.268 128.673 131.535 128.976C131.805 129.278 132.014 129.645 132.16 130.074C132.31 130.501 132.385 130.986 132.385 131.529ZM130.905 131.866V131.52C130.905 131.142 130.871 130.81 130.803 130.523C130.734 130.237 130.634 129.996 130.5 129.801C130.367 129.605 130.204 129.459 130.012 129.361C129.82 129.26 129.6 129.21 129.353 129.21C129.105 129.21 128.885 129.26 128.693 129.361C128.505 129.459 128.343 129.605 128.21 129.801C128.08 129.996 127.981 130.237 127.912 130.523C127.844 130.81 127.81 131.142 127.81 131.52V131.866C127.81 132.241 127.844 132.573 127.912 132.862C127.981 133.149 128.081 133.391 128.215 133.59C128.348 133.785 128.511 133.933 128.703 134.034C128.895 134.135 129.115 134.186 129.362 134.186C129.61 134.186 129.829 134.135 130.022 134.034C130.214 133.933 130.375 133.785 130.505 133.59C130.635 133.391 130.734 133.149 130.803 132.862C130.871 132.573 130.905 132.241 130.905 131.866ZM135.144 135.25H133.728V129.498C133.728 129.098 133.806 128.761 133.962 128.487C134.121 128.211 134.344 128.002 134.631 127.862C134.921 127.719 135.264 127.647 135.661 127.647C135.791 127.647 135.917 127.657 136.037 127.677C136.158 127.693 136.275 127.714 136.389 127.74L136.374 128.8C136.312 128.784 136.247 128.772 136.179 128.766C136.11 128.759 136.031 128.756 135.94 128.756C135.77 128.756 135.625 128.785 135.505 128.844C135.388 128.899 135.298 128.982 135.236 129.093C135.175 129.203 135.144 129.339 135.144 129.498V135.25ZM136.198 129.967V130.963H132.941V129.967H136.198ZM138.728 135.25H137.312V129.498C137.312 129.098 137.39 128.761 137.546 128.487C137.705 128.211 137.928 128.002 138.215 127.862C138.505 127.719 138.848 127.647 139.245 127.647C139.375 127.647 139.501 127.657 139.621 127.677C139.742 127.693 139.859 127.714 139.973 127.74L139.958 128.8C139.896 128.784 139.831 128.772 139.763 128.766C139.694 128.759 139.615 128.756 139.523 128.756C139.354 128.756 139.209 128.785 139.089 128.844C138.972 128.899 138.882 128.982 138.82 129.093C138.759 129.203 138.728 129.339 138.728 129.498V135.25ZM139.782 129.967V130.963H136.525V129.967H139.782ZM142.834 135.348C142.424 135.348 142.056 135.283 141.731 135.152C141.405 135.019 141.128 134.835 140.9 134.601C140.676 134.366 140.503 134.094 140.383 133.785C140.262 133.473 140.202 133.141 140.202 132.789V132.594C140.202 132.193 140.259 131.827 140.373 131.495C140.487 131.163 140.65 130.875 140.861 130.631C141.076 130.387 141.337 130.2 141.643 130.069C141.949 129.936 142.294 129.869 142.678 129.869C143.052 129.869 143.384 129.931 143.674 130.055C143.964 130.178 144.206 130.354 144.401 130.582C144.6 130.81 144.75 131.083 144.851 131.402C144.952 131.718 145.002 132.07 145.002 132.457V133.043H140.803V132.105H143.62V131.998C143.62 131.803 143.584 131.629 143.513 131.476C143.444 131.319 143.34 131.196 143.2 131.104C143.06 131.013 142.881 130.968 142.663 130.968C142.478 130.968 142.318 131.008 142.185 131.09C142.051 131.171 141.942 131.285 141.857 131.432C141.776 131.578 141.714 131.751 141.672 131.949C141.633 132.145 141.613 132.359 141.613 132.594V132.789C141.613 133.001 141.643 133.196 141.701 133.375C141.763 133.554 141.849 133.709 141.96 133.839C142.074 133.969 142.211 134.07 142.37 134.142C142.533 134.213 142.717 134.249 142.922 134.249C143.176 134.249 143.412 134.2 143.63 134.103C143.851 134.002 144.042 133.85 144.201 133.648L144.885 134.391C144.774 134.55 144.623 134.703 144.431 134.85C144.242 134.996 144.014 135.117 143.747 135.211C143.48 135.302 143.176 135.348 142.834 135.348ZM147.209 131.119V135.25H145.803V129.967H147.126L147.209 131.119ZM148.801 129.933L148.776 131.236C148.708 131.227 148.625 131.218 148.527 131.212C148.433 131.202 148.347 131.197 148.269 131.197C148.07 131.197 147.898 131.223 147.751 131.275C147.608 131.324 147.487 131.397 147.39 131.495C147.295 131.593 147.224 131.712 147.175 131.852C147.129 131.992 147.103 132.151 147.097 132.33L146.814 132.242C146.814 131.9 146.848 131.586 146.916 131.3C146.984 131.01 147.084 130.758 147.214 130.543C147.347 130.328 147.51 130.162 147.702 130.045C147.894 129.928 148.114 129.869 148.361 129.869C148.44 129.869 148.519 129.876 148.601 129.889C148.682 129.898 148.749 129.913 148.801 129.933ZM152.321 133.79C152.321 133.689 152.292 133.598 152.233 133.517C152.175 133.435 152.066 133.36 151.906 133.292C151.75 133.22 151.524 133.155 151.228 133.097C150.961 133.038 150.712 132.965 150.481 132.877C150.253 132.786 150.054 132.677 149.885 132.55C149.719 132.423 149.589 132.273 149.494 132.101C149.4 131.925 149.353 131.725 149.353 131.5C149.353 131.279 149.4 131.07 149.494 130.875C149.592 130.68 149.73 130.507 149.909 130.357C150.092 130.204 150.313 130.086 150.573 130.001C150.837 129.913 151.133 129.869 151.462 129.869C151.921 129.869 152.315 129.942 152.644 130.089C152.976 130.235 153.23 130.437 153.405 130.694C153.584 130.948 153.674 131.238 153.674 131.563H152.268C152.268 131.427 152.238 131.305 152.18 131.197C152.124 131.087 152.037 131 151.916 130.938C151.799 130.873 151.646 130.841 151.457 130.841C151.301 130.841 151.166 130.868 151.052 130.924C150.938 130.976 150.85 131.048 150.788 131.139C150.73 131.227 150.7 131.324 150.7 131.432C150.7 131.513 150.717 131.586 150.749 131.651C150.785 131.713 150.842 131.77 150.92 131.822C150.998 131.874 151.099 131.923 151.223 131.969C151.35 132.011 151.506 132.05 151.691 132.086C152.072 132.164 152.412 132.267 152.712 132.394C153.011 132.517 153.249 132.687 153.425 132.901C153.601 133.113 153.689 133.391 153.689 133.736C153.689 133.971 153.636 134.186 153.532 134.381C153.428 134.576 153.278 134.747 153.083 134.894C152.888 135.037 152.653 135.149 152.38 135.23C152.11 135.309 151.805 135.348 151.467 135.348C150.975 135.348 150.559 135.26 150.217 135.084C149.878 134.908 149.621 134.685 149.445 134.415C149.273 134.142 149.187 133.862 149.187 133.575H150.52C150.526 133.767 150.575 133.922 150.666 134.039C150.76 134.156 150.879 134.241 151.023 134.293C151.169 134.345 151.327 134.371 151.496 134.371C151.678 134.371 151.83 134.347 151.95 134.298C152.071 134.246 152.162 134.177 152.224 134.093C152.289 134.005 152.321 133.904 152.321 133.79Z" fill="#475799"/>
<path d="M59.4718 166.456C59.7297 166.199 61.2984 164.845 62.0505 164.2M52.3806 155.175L55.6039 153.563M47.5456 142.926C47.8035 142.926 50.0168 142.282 51.0913 141.959M44.967 130.356L48.5126 129.711M44 117.462C44.2579 117.204 46.4712 117.355 47.5456 117.462M45.2893 104.247L48.5126 104.891M48.1903 91.6759L51.4136 92.6429M53.3476 79.4274L56.2485 81.039M60.1165 68.1458L63.0175 70.4021M69.1417 58.7982L71.3981 61.0545M79.134 50.4176L81.068 52.9963M90.4155 43.6487L92.0272 46.5497M102.342 38.8138L103.309 42.0371M114.913 35.9128L115.557 39.1361M127.161 34.9458C127.161 35.4615 127.161 37.5244 127.161 38.4914M140.054 35.9128L139.41 39.1361M152.948 38.8138C152.948 39.3295 152.088 41.3924 151.658 42.3594M164.874 43.971L163.262 47.1943M176.155 51.0623L173.899 53.9633M185.825 59.4429C185.825 59.7008 184.106 61.2694 183.247 62.0215M194.528 69.4351L191.627 71.6914M201.297 80.7167L198.074 82.3283M206.132 92.9652L202.586 93.9322M209.033 105.536L205.487 106.181M210 118.429H206.454M208.711 131.645L205.165 131M206.132 144.538L202.264 142.926M200.652 156.464L197.429 154.853M193.883 167.423L190.983 165.489" stroke="#130F26" stroke-opacity="0.5" stroke-width="0.518637"/>
<path d="M3.36328 14.2363V19H1.88672V6.39648H5.34961C6.69727 6.39648 7.74023 6.72461 8.47852 7.38086C9.22266 8.03711 9.59473 8.96289 9.59473 10.1582C9.59473 11.3535 9.18164 12.332 8.35547 13.0938C7.53516 13.8555 6.4248 14.2363 5.02441 14.2363H3.36328ZM3.36328 7.73242V12.9004H4.91016C5.92969 12.9004 6.70605 12.6689 7.23926 12.2061C7.77832 11.7373 8.04785 11.0781 8.04785 10.2285C8.04785 8.56445 7.06348 7.73242 5.09473 7.73242H3.36328ZM13.2246 19H11.7832V5.67578H13.2246V19ZM22.585 19H21.1436V17.5938H21.1084C20.4814 18.6719 19.5586 19.2109 18.3398 19.2109C17.4434 19.2109 16.7402 18.9736 16.2305 18.499C15.7266 18.0244 15.4746 17.3945 15.4746 16.6094C15.4746 14.9277 16.4648 13.9492 18.4453 13.6738L21.1436 13.2959C21.1436 11.7666 20.5254 11.002 19.2891 11.002C18.2051 11.002 17.2266 11.3711 16.3535 12.1094V10.6328C17.2383 10.0703 18.2578 9.78906 19.4121 9.78906C21.5273 9.78906 22.585 10.9082 22.585 13.1465V19ZM21.1436 14.4473L18.9727 14.7461C18.3047 14.8398 17.8008 15.0068 17.4609 15.2471C17.1211 15.4814 16.9512 15.9004 16.9512 16.5039C16.9512 16.9434 17.1064 17.3037 17.417 17.585C17.7334 17.8604 18.1523 17.998 18.6738 17.998C19.3887 17.998 19.9775 17.749 20.4404 17.251C20.9092 16.7471 21.1436 16.1113 21.1436 15.3438V14.4473ZM31.4355 18.5869C30.7441 19.0029 29.9238 19.2109 28.9746 19.2109C27.6914 19.2109 26.6543 18.7949 25.8633 17.9629C25.0781 17.125 24.6855 16.041 24.6855 14.7109C24.6855 13.2285 25.1104 12.0391 25.96 11.1426C26.8096 10.2402 27.9434 9.78906 29.3613 9.78906C30.1523 9.78906 30.8496 9.93555 31.4531 10.2285V11.7051C30.7852 11.2363 30.0703 11.002 29.3086 11.002C28.3887 11.002 27.6328 11.333 27.041 11.9951C26.4551 12.6514 26.1621 13.5156 26.1621 14.5879C26.1621 15.6426 26.4375 16.4746 26.9883 17.084C27.5449 17.6934 28.2891 17.998 29.2207 17.998C30.0059 17.998 30.7441 17.7373 31.4355 17.2158V18.5869ZM40.8486 14.8604H34.4941C34.5176 15.8623 34.7871 16.6357 35.3027 17.1807C35.8184 17.7256 36.5273 17.998 37.4297 17.998C38.4434 17.998 39.375 17.6641 40.2246 16.9961V18.3496C39.4336 18.9238 38.3877 19.2109 37.0869 19.2109C35.8154 19.2109 34.8164 18.8037 34.0898 17.9893C33.3633 17.1689 33 16.0176 33 14.5352C33 13.1348 33.3955 11.9951 34.1865 11.1162C34.9834 10.2314 35.9707 9.78906 37.1484 9.78906C38.3262 9.78906 39.2373 10.1699 39.8818 10.9316C40.5264 11.6934 40.8486 12.751 40.8486 14.1045V14.8604ZM39.3721 13.6387C39.3662 12.8066 39.1641 12.1592 38.7656 11.6963C38.373 11.2334 37.8252 11.002 37.1221 11.002C36.4424 11.002 35.8652 11.2451 35.3906 11.7314C34.916 12.2178 34.623 12.8535 34.5117 13.6387H39.3721ZM55.8164 19H54.375V13.832C54.375 12.8359 54.2197 12.1152 53.9092 11.6699C53.6045 11.2246 53.0889 11.002 52.3623 11.002C51.7471 11.002 51.2227 11.2832 50.7891 11.8457C50.3613 12.4082 50.1475 13.082 50.1475 13.8672V19H48.7061V13.6562C48.7061 11.8867 48.0234 11.002 46.6582 11.002C46.0254 11.002 45.5039 11.2686 45.0938 11.8018C44.6836 12.3291 44.4785 13.0176 44.4785 13.8672V19H43.0371V10H44.4785V11.4238H44.5137C45.1523 10.334 46.084 9.78906 47.3086 9.78906C47.9238 9.78906 48.46 9.96191 48.917 10.3076C49.374 10.6475 49.6875 11.0957 49.8574 11.6523C50.5254 10.4102 51.5215 9.78906 52.8457 9.78906C54.8262 9.78906 55.8164 11.0107 55.8164 13.4541V19ZM65.7744 14.8604H59.4199C59.4434 15.8623 59.7129 16.6357 60.2285 17.1807C60.7441 17.7256 61.4531 17.998 62.3555 17.998C63.3691 17.998 64.3008 17.6641 65.1504 16.9961V18.3496C64.3594 18.9238 63.3135 19.2109 62.0127 19.2109C60.7412 19.2109 59.7422 18.8037 59.0156 17.9893C58.2891 17.1689 57.9258 16.0176 57.9258 14.5352C57.9258 13.1348 58.3213 11.9951 59.1123 11.1162C59.9092 10.2314 60.8965 9.78906 62.0742 9.78906C63.252 9.78906 64.1631 10.1699 64.8076 10.9316C65.4521 11.6934 65.7744 12.751 65.7744 14.1045V14.8604ZM64.2979 13.6387C64.292 12.8066 64.0898 12.1592 63.6914 11.6963C63.2988 11.2334 62.751 11.002 62.0479 11.002C61.3682 11.002 60.791 11.2451 60.3164 11.7314C59.8418 12.2178 59.5488 12.8535 59.4375 13.6387H64.2979ZM75.4336 19H73.9922V13.8672C73.9922 11.957 73.2949 11.002 71.9004 11.002C71.1797 11.002 70.582 11.2744 70.1074 11.8193C69.6387 12.3584 69.4043 13.041 69.4043 13.8672V19H67.9629V10H69.4043V11.4941H69.4395C70.1191 10.3574 71.1035 9.78906 72.3926 9.78906C73.377 9.78906 74.1299 10.1084 74.6514 10.7471C75.1729 11.3799 75.4336 12.2969 75.4336 13.498V19ZM82.333 18.9121C81.9932 19.0996 81.5449 19.1934 80.9883 19.1934C79.4121 19.1934 78.624 18.3145 78.624 16.5566V11.2305H77.0771V10H78.624V7.80273L80.0654 7.33691V10H82.333V11.2305H80.0654V16.3018C80.0654 16.9053 80.168 17.3359 80.373 17.5938C80.5781 17.8516 80.918 17.9805 81.3926 17.9805C81.7559 17.9805 82.0693 17.8809 82.333 17.6816V18.9121ZM88.8018 18.4902V16.75C89.001 16.9258 89.2383 17.084 89.5137 17.2246C89.7949 17.3652 90.0879 17.4854 90.3926 17.585C90.7031 17.6787 91.0137 17.752 91.3242 17.8047C91.6348 17.8574 91.9219 17.8838 92.1855 17.8838C93.0938 17.8838 93.7705 17.7168 94.2158 17.3828C94.667 17.043 94.8926 16.5566 94.8926 15.9238C94.8926 15.584 94.8164 15.2881 94.6641 15.0361C94.5176 14.7842 94.3125 14.5557 94.0488 14.3506C93.7852 14.1396 93.4717 13.9404 93.1084 13.7529C92.751 13.5596 92.3643 13.3574 91.9482 13.1465C91.5088 12.9238 91.0986 12.6982 90.7178 12.4697C90.3369 12.2412 90.0059 11.9893 89.7246 11.7139C89.4434 11.4385 89.2207 11.1279 89.0566 10.7822C88.8984 10.4307 88.8193 10.0205 88.8193 9.55176C88.8193 8.97754 88.9453 8.47949 89.1973 8.05762C89.4492 7.62988 89.7803 7.27832 90.1904 7.00293C90.6006 6.72754 91.0664 6.52246 91.5879 6.3877C92.1152 6.25293 92.6514 6.18555 93.1963 6.18555C94.4385 6.18555 95.3438 6.33496 95.9121 6.63379V8.29492C95.168 7.7793 94.2129 7.52148 93.0469 7.52148C92.7246 7.52148 92.4023 7.55664 92.0801 7.62695C91.7578 7.69141 91.4707 7.7998 91.2188 7.95215C90.9668 8.10449 90.7617 8.30078 90.6035 8.54102C90.4453 8.78125 90.3662 9.07422 90.3662 9.41992C90.3662 9.74219 90.4248 10.0205 90.542 10.2549C90.665 10.4893 90.8438 10.7031 91.0781 10.8965C91.3125 11.0898 91.5967 11.2773 91.9307 11.459C92.2705 11.6406 92.6602 11.8398 93.0996 12.0566C93.5508 12.2793 93.9785 12.5137 94.3828 12.7598C94.7871 13.0059 95.1416 13.2783 95.4463 13.5771C95.751 13.876 95.9912 14.207 96.167 14.5703C96.3486 14.9336 96.4395 15.3496 96.4395 15.8184C96.4395 16.4395 96.3164 16.9668 96.0703 17.4004C95.8301 17.8281 95.502 18.1768 95.0859 18.4463C94.6758 18.7158 94.2012 18.9092 93.6621 19.0264C93.123 19.1494 92.5547 19.2109 91.957 19.2109C91.7578 19.2109 91.5117 19.1934 91.2188 19.1582C90.9258 19.1289 90.627 19.082 90.3223 19.0176C90.0176 18.959 89.7275 18.8857 89.4521 18.7979C89.1826 18.7041 88.9658 18.6016 88.8018 18.4902ZM106.037 19H104.596V17.5762H104.561C103.963 18.666 103.037 19.2109 101.783 19.2109C99.6387 19.2109 98.5664 17.9336 98.5664 15.3789V10H99.999V15.1504C99.999 17.0488 100.726 17.998 102.179 17.998C102.882 17.998 103.459 17.7402 103.91 17.2246C104.367 16.7031 104.596 16.0234 104.596 15.1855V10H106.037V19ZM121.734 19H120.293V13.832C120.293 12.8359 120.138 12.1152 119.827 11.6699C119.522 11.2246 119.007 11.002 118.28 11.002C117.665 11.002 117.141 11.2832 116.707 11.8457C116.279 12.4082 116.065 13.082 116.065 13.8672V19H114.624V13.6562C114.624 11.8867 113.941 11.002 112.576 11.002C111.943 11.002 111.422 11.2686 111.012 11.8018C110.602 12.3291 110.396 13.0176 110.396 13.8672V19H108.955V10H110.396V11.4238H110.432C111.07 10.334 112.002 9.78906 113.227 9.78906C113.842 9.78906 114.378 9.96191 114.835 10.3076C115.292 10.6475 115.605 11.0957 115.775 11.6523C116.443 10.4102 117.439 9.78906 118.764 9.78906C120.744 9.78906 121.734 11.0107 121.734 13.4541V19ZM137.238 19H135.797V13.832C135.797 12.8359 135.642 12.1152 135.331 11.6699C135.026 11.2246 134.511 11.002 133.784 11.002C133.169 11.002 132.645 11.2832 132.211 11.8457C131.783 12.4082 131.569 13.082 131.569 13.8672V19H130.128V13.6562C130.128 11.8867 129.445 11.002 128.08 11.002C127.447 11.002 126.926 11.2686 126.516 11.8018C126.105 12.3291 125.9 13.0176 125.9 13.8672V19H124.459V10H125.9V11.4238H125.936C126.574 10.334 127.506 9.78906 128.73 9.78906C129.346 9.78906 129.882 9.96191 130.339 10.3076C130.796 10.6475 131.109 11.0957 131.279 11.6523C131.947 10.4102 132.943 9.78906 134.268 9.78906C136.248 9.78906 137.238 11.0107 137.238 13.4541V19ZM146.405 19H144.964V17.5938H144.929C144.302 18.6719 143.379 19.2109 142.16 19.2109C141.264 19.2109 140.561 18.9736 140.051 18.499C139.547 18.0244 139.295 17.3945 139.295 16.6094C139.295 14.9277 140.285 13.9492 142.266 13.6738L144.964 13.2959C144.964 11.7666 144.346 11.002 143.109 11.002C142.025 11.002 141.047 11.3711 140.174 12.1094V10.6328C141.059 10.0703 142.078 9.78906 143.232 9.78906C145.348 9.78906 146.405 10.9082 146.405 13.1465V19ZM144.964 14.4473L142.793 14.7461C142.125 14.8398 141.621 15.0068 141.281 15.2471C140.941 15.4814 140.771 15.9004 140.771 16.5039C140.771 16.9434 140.927 17.3037 141.237 17.585C141.554 17.8604 141.973 17.998 142.494 17.998C143.209 17.998 143.798 17.749 144.261 17.251C144.729 16.7471 144.964 16.1113 144.964 15.3438V14.4473ZM153.814 11.459C153.562 11.2656 153.199 11.1689 152.725 11.1689C152.109 11.1689 151.594 11.459 151.178 12.0391C150.768 12.6191 150.562 13.4102 150.562 14.4121V19H149.121V10H150.562V11.8545H150.598C150.803 11.2217 151.116 10.7295 151.538 10.3779C151.96 10.0205 152.432 9.8418 152.953 9.8418C153.328 9.8418 153.615 9.88281 153.814 9.96484V11.459ZM163.263 10L159.123 20.4414C158.385 22.3047 157.348 23.2363 156.012 23.2363C155.637 23.2363 155.323 23.1982 155.071 23.1221V21.8301C155.382 21.9355 155.666 21.9883 155.924 21.9883C156.65 21.9883 157.195 21.5547 157.559 20.6875L158.279 18.9824L154.764 10H156.363L158.798 16.9258C158.827 17.0137 158.889 17.2422 158.982 17.6113H159.035C159.064 17.4707 159.123 17.248 159.211 16.9434L161.769 10H163.263ZM173.52 19.2109C172.189 19.2109 171.126 18.792 170.329 17.9541C169.538 17.1104 169.143 15.9941 169.143 14.6055C169.143 13.0938 169.556 11.9131 170.382 11.0635C171.208 10.2139 172.324 9.78906 173.73 9.78906C175.072 9.78906 176.118 10.2021 176.868 11.0283C177.624 11.8545 178.002 13 178.002 14.4648C178.002 15.9004 177.595 17.0518 176.78 17.9189C175.972 18.7803 174.885 19.2109 173.52 19.2109ZM173.625 11.002C172.699 11.002 171.967 11.3184 171.428 11.9512C170.889 12.5781 170.619 13.4453 170.619 14.5527C170.619 15.6191 170.892 16.46 171.437 17.0752C171.981 17.6904 172.711 17.998 173.625 17.998C174.557 17.998 175.271 17.6963 175.77 17.0928C176.273 16.4893 176.525 15.6309 176.525 14.5176C176.525 13.3926 176.273 12.5254 175.77 11.916C175.271 11.3066 174.557 11.002 173.625 11.002ZM184.418 6.94141C184.137 6.7832 183.817 6.7041 183.46 6.7041C182.452 6.7041 181.948 7.33984 181.948 8.61133V10H184.058V11.2305H181.948V19H180.516V11.2305H178.978V10H180.516V8.54102C180.516 7.59766 180.788 6.85352 181.333 6.30859C181.878 5.75781 182.558 5.48242 183.372 5.48242C183.812 5.48242 184.16 5.53516 184.418 5.64062V6.94141ZM191.994 19H190.553V5.67578H191.994V19ZM201.354 19H199.913V17.5938H199.878C199.251 18.6719 198.328 19.2109 197.109 19.2109C196.213 19.2109 195.51 18.9736 195 18.499C194.496 18.0244 194.244 17.3945 194.244 16.6094C194.244 14.9277 195.234 13.9492 197.215 13.6738L199.913 13.2959C199.913 11.7666 199.295 11.002 198.059 11.002C196.975 11.002 195.996 11.3711 195.123 12.1094V10.6328C196.008 10.0703 197.027 9.78906 198.182 9.78906C200.297 9.78906 201.354 10.9082 201.354 13.1465V19ZM199.913 14.4473L197.742 14.7461C197.074 14.8398 196.57 15.0068 196.23 15.2471C195.891 15.4814 195.721 15.9004 195.721 16.5039C195.721 16.9434 195.876 17.3037 196.187 17.585C196.503 17.8604 196.922 17.998 197.443 17.998C198.158 17.998 198.747 17.749 199.21 17.251C199.679 16.7471 199.913 16.1113 199.913 15.3438V14.4473ZM203.525 18.6748V17.1279C204.311 17.708 205.175 17.998 206.118 17.998C207.384 17.998 208.017 17.5762 208.017 16.7324C208.017 16.4922 207.961 16.29 207.85 16.126C207.744 15.9561 207.598 15.8066 207.41 15.6777C207.229 15.5488 207.012 15.4346 206.76 15.335C206.514 15.2295 206.247 15.1211 205.96 15.0098C205.562 14.8516 205.21 14.6934 204.905 14.5352C204.606 14.3711 204.354 14.1895 204.149 13.9902C203.95 13.7852 203.798 13.5537 203.692 13.2959C203.593 13.0381 203.543 12.7363 203.543 12.3906C203.543 11.9688 203.64 11.5967 203.833 11.2744C204.026 10.9463 204.284 10.6738 204.606 10.457C204.929 10.2344 205.295 10.0674 205.705 9.95605C206.121 9.84473 206.549 9.78906 206.988 9.78906C207.768 9.78906 208.465 9.92383 209.08 10.1934V11.6523C208.418 11.2188 207.656 11.002 206.795 11.002C206.525 11.002 206.282 11.0342 206.065 11.0986C205.849 11.1572 205.661 11.2422 205.503 11.3535C205.351 11.4648 205.23 11.5996 205.143 11.7578C205.061 11.9102 205.02 12.0801 205.02 12.2676C205.02 12.502 205.061 12.6982 205.143 12.8564C205.23 13.0146 205.356 13.1553 205.521 13.2783C205.685 13.4014 205.884 13.5127 206.118 13.6123C206.353 13.7119 206.619 13.8203 206.918 13.9375C207.316 14.0898 207.674 14.248 207.99 14.4121C208.307 14.5703 208.576 14.752 208.799 14.957C209.021 15.1562 209.191 15.3877 209.309 15.6514C209.432 15.915 209.493 16.2285 209.493 16.5918C209.493 17.0371 209.394 17.4238 209.194 17.752C209.001 18.0801 208.74 18.3525 208.412 18.5693C208.084 18.7861 207.706 18.9473 207.278 19.0527C206.851 19.1582 206.402 19.2109 205.934 19.2109C205.008 19.2109 204.205 19.0322 203.525 18.6748ZM215.892 18.9121C215.552 19.0996 215.104 19.1934 214.547 19.1934C212.971 19.1934 212.183 18.3145 212.183 16.5566V11.2305H210.636V10H212.183V7.80273L213.624 7.33691V10H215.892V11.2305H213.624V16.3018C213.624 16.9053 213.727 17.3359 213.932 17.5938C214.137 17.8516 214.477 17.9805 214.951 17.9805C215.314 17.9805 215.628 17.8809 215.892 17.6816V18.9121ZM229.919 10L225.779 20.4414C225.041 22.3047 224.004 23.2363 222.668 23.2363C222.293 23.2363 221.979 23.1982 221.728 23.1221V21.8301C222.038 21.9355 222.322 21.9883 222.58 21.9883C223.307 21.9883 223.852 21.5547 224.215 20.6875L224.936 18.9824L221.42 10H223.02L225.454 16.9258C225.483 17.0137 225.545 17.2422 225.639 17.6113H225.691C225.721 17.4707 225.779 17.248 225.867 16.9434L228.425 10H229.919ZM238.62 14.8604H232.266C232.289 15.8623 232.559 16.6357 233.074 17.1807C233.59 17.7256 234.299 17.998 235.201 17.998C236.215 17.998 237.146 17.6641 237.996 16.9961V18.3496C237.205 18.9238 236.159 19.2109 234.858 19.2109C233.587 19.2109 232.588 18.8037 231.861 17.9893C231.135 17.1689 230.771 16.0176 230.771 14.5352C230.771 13.1348 231.167 11.9951 231.958 11.1162C232.755 10.2314 233.742 9.78906 234.92 9.78906C236.098 9.78906 237.009 10.1699 237.653 10.9316C238.298 11.6934 238.62 12.751 238.62 14.1045V14.8604ZM237.144 13.6387C237.138 12.8066 236.936 12.1592 236.537 11.6963C236.145 11.2334 235.597 11.002 234.894 11.002C234.214 11.002 233.637 11.2451 233.162 11.7314C232.688 12.2178 232.395 12.8535 232.283 13.6387H237.144ZM247.251 19H245.81V17.5938H245.774C245.147 18.6719 244.225 19.2109 243.006 19.2109C242.109 19.2109 241.406 18.9736 240.896 18.499C240.393 18.0244 240.141 17.3945 240.141 16.6094C240.141 14.9277 241.131 13.9492 243.111 13.6738L245.81 13.2959C245.81 11.7666 245.191 11.002 243.955 11.002C242.871 11.002 241.893 11.3711 241.02 12.1094V10.6328C241.904 10.0703 242.924 9.78906 244.078 9.78906C246.193 9.78906 247.251 10.9082 247.251 13.1465V19ZM245.81 14.4473L243.639 14.7461C242.971 14.8398 242.467 15.0068 242.127 15.2471C241.787 15.4814 241.617 15.9004 241.617 16.5039C241.617 16.9434 241.772 17.3037 242.083 17.585C242.399 17.8604 242.818 17.998 243.34 17.998C244.055 17.998 244.644 17.749 245.106 17.251C245.575 16.7471 245.81 16.1113 245.81 15.3438V14.4473ZM254.66 11.459C254.408 11.2656 254.045 11.1689 253.57 11.1689C252.955 11.1689 252.439 11.459 252.023 12.0391C251.613 12.6191 251.408 13.4102 251.408 14.4121V19H249.967V10H251.408V11.8545H251.443C251.648 11.2217 251.962 10.7295 252.384 10.3779C252.806 10.0205 253.277 9.8418 253.799 9.8418C254.174 9.8418 254.461 9.88281 254.66 9.96484V11.459Z" fill="#1B2767"/>
<defs>
<filter id="filter0_d_295_341" x="38" y="26" width="188" height="188" filterUnits="userSpaceOnUse" color-interpolation-filters="sRGB">
<feFlood flood-opacity="0" result="BackgroundImageFix"/>
<feColorMatrix in="SourceAlpha" type="matrix" values="0 0 0 0 0 0 0 0 0 0 0 0 0 0 0 0 0 0 127 0" result="hardAlpha"/>
<feMorphology radius="10" operator="dilate" in="SourceAlpha" result="effect1_dropShadow_295_341"/>
<feOffset dx="5" dy="5"/>
<feGaussianBlur stdDeviation="20"/>
<feColorMatrix type="matrix" values="0 0 0 0 0.38273 0 0 0 0 0.75538 0 0 0 0 0.779167 0 0 0 1 0"/>
<feBlend mode="normal" in2="BackgroundImageFix" result="effect1_dropShadow_295_341"/>
<feBlend mode="normal" in="SourceGraphic" in2="effect1_dropShadow_295_341" result="shape"/>
</filter>
</defs>
</svg>
