<svg width="238" height="289" viewBox="0 0 238 289" fill="none" xmlns="http://www.w3.org/2000/svg">
<path d="M36 287.625C30.6939 287.625 26.375 283.307 26.375 278C26.375 272.693 30.6939 268.375 36 268.375C41.3061 268.375 45.625 272.693 45.625 278C45.625 283.307 41.3061 287.625 36 287.625ZM36 269.75C31.4501 269.75 27.75 273.45 27.75 278C27.75 282.55 31.4501 286.25 36 286.25C40.5499 286.25 44.25 282.55 44.25 278C44.25 273.45 40.5499 269.75 36 269.75Z" fill="#1461FF"/>
<path d="M36 280.98C37.6456 280.98 38.9796 279.646 38.9796 278C38.9796 276.354 37.6456 275.02 36 275.02C34.3544 275.02 33.0204 276.354 33.0204 278C33.0204 279.646 34.3544 280.98 36 280.98Z" fill="#CA23C5"/>
<path d="M69.7912 240.153C70.1491 240.156 70.5071 240.224 70.8651 240.358C71.223 240.491 71.5497 240.713 71.8452 241.023C72.1406 241.33 72.3778 241.749 72.5568 242.28C72.7358 242.811 72.8253 243.477 72.8253 244.278C72.8253 245.054 72.7514 245.743 72.6037 246.345C72.4588 246.945 72.2486 247.45 71.973 247.862C71.7003 248.274 71.3679 248.587 70.9759 248.8C70.5866 249.013 70.1463 249.119 69.6548 249.119C69.1662 249.119 68.7301 249.023 68.3466 248.83C67.9659 248.634 67.6534 248.362 67.4091 248.016C67.1676 247.666 67.0128 247.261 66.9446 246.801H67.9844C68.0781 247.202 68.2642 247.533 68.5426 247.794C68.8239 248.053 69.1946 248.182 69.6548 248.182C70.3281 248.182 70.8594 247.888 71.2486 247.3C71.6406 246.712 71.8366 245.881 71.8366 244.807H71.7685C71.6094 245.045 71.4205 245.251 71.2017 245.425C70.983 245.598 70.7401 245.732 70.473 245.825C70.206 245.919 69.9219 245.966 69.6207 245.966C69.1207 245.966 68.6619 245.842 68.2443 245.595C67.8295 245.345 67.4972 245.003 67.2472 244.568C67 244.131 66.8764 243.631 66.8764 243.068C66.8764 242.534 66.9957 242.045 67.2344 241.602C67.4759 241.156 67.8139 240.801 68.2486 240.537C68.6861 240.273 69.2003 240.145 69.7912 240.153ZM69.7912 241.091C69.4332 241.091 69.1108 241.18 68.8239 241.359C68.5398 241.536 68.3139 241.774 68.1463 242.075C67.9815 242.374 67.8991 242.705 67.8991 243.068C67.8991 243.432 67.9787 243.763 68.1378 244.061C68.2997 244.357 68.5199 244.592 68.7983 244.768C69.0795 244.942 69.3991 245.028 69.7571 245.028C70.027 245.028 70.2784 244.976 70.5114 244.871C70.7443 244.763 70.9474 244.616 71.1207 244.432C71.2969 244.244 71.4347 244.033 71.5341 243.797C71.6335 243.558 71.6832 243.31 71.6832 243.051C71.6832 242.71 71.6009 242.391 71.4361 242.092C71.2741 241.794 71.0497 241.553 70.7628 241.368C70.4787 241.183 70.1548 241.091 69.7912 241.091ZM77.2965 249.119C76.7113 249.119 76.1942 249.016 75.7454 248.808C75.2994 248.598 74.9513 248.31 74.7013 247.943C74.4513 247.574 74.3278 247.153 74.3306 246.682C74.3278 246.312 74.4002 245.972 74.5479 245.659C74.6957 245.344 74.8974 245.081 75.1531 244.871C75.4116 244.658 75.6999 244.523 76.0181 244.466V244.415C75.6005 244.307 75.2681 244.072 75.021 243.712C74.7738 243.348 74.6516 242.935 74.6545 242.472C74.6516 242.028 74.7638 241.632 74.9911 241.283C75.2184 240.933 75.5309 240.658 75.9286 240.456C76.3292 240.254 76.7852 240.153 77.2965 240.153C77.8022 240.153 78.2539 240.254 78.6516 240.456C79.0494 240.658 79.3619 240.933 79.5891 241.283C79.8192 241.632 79.9357 242.028 79.9386 242.472C79.9357 242.935 79.8093 243.348 79.5593 243.712C79.3121 244.072 78.984 244.307 78.5749 244.415V244.466C78.8903 244.523 79.1744 244.658 79.4272 244.871C79.68 245.081 79.8817 245.344 80.0323 245.659C80.1829 245.972 80.2596 246.312 80.2624 246.682C80.2596 247.153 80.1317 247.574 79.8789 247.943C79.6289 248.31 79.2809 248.598 78.8349 248.808C78.3917 249.016 77.8789 249.119 77.2965 249.119ZM77.2965 248.182C77.6914 248.182 78.0323 248.118 78.3192 247.99C78.6062 247.862 78.8278 247.682 78.984 247.449C79.1403 247.216 79.2198 246.943 79.2227 246.631C79.2198 246.301 79.1346 246.01 78.967 245.757C78.7994 245.504 78.5707 245.305 78.2809 245.161C77.994 245.016 77.6658 244.943 77.2965 244.943C76.9244 244.943 76.592 245.016 76.2994 245.161C76.0096 245.305 75.7809 245.504 75.6133 245.757C75.4485 246.01 75.3675 246.301 75.3704 246.631C75.3675 246.943 75.4428 247.216 75.5962 247.449C75.7525 247.682 75.9755 247.862 76.2653 247.99C76.555 248.118 76.8988 248.182 77.2965 248.182ZM77.2965 244.04C77.609 244.04 77.886 243.977 78.1275 243.852C78.3718 243.727 78.5636 243.553 78.7028 243.328C78.842 243.104 78.913 242.841 78.9158 242.54C78.913 242.244 78.8434 241.987 78.707 241.768C78.5707 241.547 78.3817 241.376 78.1403 241.257C77.8988 241.135 77.6175 241.074 77.2965 241.074C76.9698 241.074 76.6843 241.135 76.44 241.257C76.1957 241.376 76.0067 241.547 75.8732 241.768C75.7397 241.987 75.6744 242.244 75.6772 242.54C75.6744 242.841 75.7411 243.104 75.8775 243.328C76.0167 243.553 76.2085 243.727 76.4528 243.852C76.6971 243.977 76.9783 244.04 77.2965 244.04ZM86.3445 247.364V246.903C86.3445 246.585 86.4098 246.294 86.5405 246.03C86.674 245.763 86.8672 245.55 87.12 245.391C87.3757 245.229 87.6854 245.148 88.049 245.148C88.4183 245.148 88.728 245.229 88.978 245.391C89.228 245.55 89.4169 245.763 89.5447 246.03C89.6726 246.294 89.7365 246.585 89.7365 246.903V247.364C89.7365 247.682 89.6712 247.974 89.5405 248.241C89.4126 248.506 89.2223 248.719 88.9695 248.881C88.7195 249.04 88.4126 249.119 88.049 249.119C87.6797 249.119 87.3686 249.04 87.1158 248.881C86.8629 248.719 86.6712 248.506 86.5405 248.241C86.4098 247.974 86.3445 247.682 86.3445 247.364ZM87.2138 246.903V247.364C87.2138 247.628 87.2763 247.865 87.4013 248.075C87.5263 248.283 87.7422 248.386 88.049 248.386C88.3473 248.386 88.5575 248.283 88.6797 248.075C88.8047 247.865 88.8672 247.628 88.8672 247.364V246.903C88.8672 246.639 88.8075 246.403 88.6882 246.196C88.5689 245.986 88.3558 245.881 88.049 245.881C87.7507 245.881 87.5362 245.986 87.4055 246.196C87.2777 246.403 87.2138 246.639 87.2138 246.903ZM81.9979 242.369V241.909C81.9979 241.591 82.0632 241.3 82.1939 241.036C82.3274 240.768 82.5206 240.555 82.7734 240.396C83.0291 240.234 83.3388 240.153 83.7024 240.153C84.0717 240.153 84.3814 240.234 84.6314 240.396C84.8814 240.555 85.0703 240.768 85.1982 241.036C85.326 241.3 85.3899 241.591 85.3899 241.909V242.369C85.3899 242.687 85.3246 242.98 85.1939 243.247C85.0661 243.511 84.8757 243.724 84.6229 243.886C84.3729 244.045 84.0661 244.125 83.7024 244.125C83.3331 244.125 83.022 244.045 82.7692 243.886C82.5163 243.724 82.3246 243.511 82.1939 243.247C82.0632 242.98 81.9979 242.687 81.9979 242.369ZM82.8672 241.909V242.369C82.8672 242.634 82.9297 242.871 83.0547 243.081C83.1797 243.288 83.3956 243.392 83.7024 243.392C84.0007 243.392 84.2109 243.288 84.3331 243.081C84.4581 242.871 84.5206 242.634 84.5206 242.369V241.909C84.5206 241.645 84.4609 241.409 84.3416 241.202C84.2223 240.991 84.0092 240.886 83.7024 240.886C83.4041 240.886 83.1896 240.991 83.0589 241.202C82.9311 241.409 82.8672 241.645 82.8672 241.909ZM82.3217 249L88.3217 240.273H89.2933L83.2933 249H82.3217ZM95.174 249V240.273H98.1229C98.8075 240.273 99.3672 240.396 99.8018 240.643C100.239 240.888 100.563 241.219 100.773 241.636C100.984 242.054 101.089 242.52 101.089 243.034C101.089 243.548 100.984 244.016 100.773 244.436C100.566 244.857 100.245 245.192 99.8104 245.442C99.3757 245.689 98.8189 245.812 98.1399 245.812H96.0263V244.875H98.1058C98.5746 244.875 98.951 244.794 99.2351 244.632C99.5192 244.47 99.7251 244.251 99.853 243.976C99.9837 243.697 100.049 243.384 100.049 243.034C100.049 242.685 99.9837 242.372 99.853 242.097C99.7251 241.821 99.5178 241.605 99.2308 241.449C98.9439 241.29 98.5632 241.21 98.0888 241.21H96.2308V249H95.174ZM103.661 240.273V249H102.655V240.273H103.661ZM107.429 249.153C107.014 249.153 106.637 249.075 106.299 248.919C105.961 248.76 105.693 248.531 105.494 248.233C105.295 247.932 105.196 247.568 105.196 247.142C105.196 246.767 105.27 246.463 105.417 246.23C105.565 245.994 105.762 245.81 106.01 245.676C106.257 245.543 106.529 245.443 106.828 245.378C107.129 245.31 107.431 245.256 107.735 245.216C108.133 245.165 108.456 245.126 108.703 245.101C108.953 245.072 109.135 245.026 109.248 244.96C109.365 244.895 109.423 244.781 109.423 244.619V244.585C109.423 244.165 109.308 243.838 109.078 243.605C108.85 243.372 108.505 243.256 108.042 243.256C107.562 243.256 107.186 243.361 106.913 243.571C106.64 243.781 106.449 244.006 106.338 244.244L105.383 243.903C105.554 243.506 105.781 243.196 106.065 242.974C106.352 242.75 106.664 242.594 107.002 242.506C107.343 242.415 107.679 242.369 108.008 242.369C108.218 242.369 108.46 242.395 108.733 242.446C109.008 242.494 109.274 242.595 109.529 242.749C109.788 242.902 110.002 243.134 110.173 243.443C110.343 243.753 110.429 244.168 110.429 244.688V249H109.423V248.114H109.372C109.304 248.256 109.19 248.408 109.031 248.57C108.872 248.732 108.66 248.869 108.396 248.983C108.132 249.097 107.809 249.153 107.429 249.153ZM107.582 248.25C107.98 248.25 108.315 248.172 108.588 248.016C108.863 247.859 109.071 247.658 109.21 247.411C109.352 247.163 109.423 246.903 109.423 246.631V245.71C109.38 245.761 109.287 245.808 109.142 245.851C109 245.891 108.835 245.926 108.647 245.957C108.463 245.986 108.282 246.011 108.106 246.034C107.933 246.054 107.792 246.071 107.684 246.085C107.423 246.119 107.179 246.175 106.951 246.251C106.727 246.325 106.545 246.437 106.406 246.588C106.27 246.736 106.201 246.937 106.201 247.193C106.201 247.543 106.331 247.807 106.589 247.986C106.85 248.162 107.181 248.25 107.582 248.25ZM114.923 249.136C114.31 249.136 113.781 248.991 113.338 248.702C112.895 248.412 112.554 248.013 112.315 247.504C112.077 246.996 111.957 246.415 111.957 245.761C111.957 245.097 112.08 244.51 112.324 244.001C112.571 243.49 112.915 243.091 113.355 242.804C113.798 242.514 114.315 242.369 114.906 242.369C115.366 242.369 115.781 242.455 116.151 242.625C116.52 242.795 116.822 243.034 117.058 243.341C117.294 243.648 117.44 244.006 117.497 244.415H116.491C116.415 244.116 116.244 243.852 115.98 243.622C115.719 243.389 115.366 243.273 114.923 243.273C114.531 243.273 114.188 243.375 113.892 243.58C113.599 243.781 113.371 244.067 113.206 244.436C113.044 244.803 112.963 245.233 112.963 245.727C112.963 246.233 113.043 246.673 113.202 247.048C113.364 247.423 113.591 247.714 113.884 247.922C114.179 248.129 114.526 248.233 114.923 248.233C115.185 248.233 115.422 248.188 115.635 248.097C115.848 248.006 116.028 247.875 116.176 247.705C116.324 247.534 116.429 247.33 116.491 247.091H117.497C117.44 247.477 117.3 247.825 117.075 248.135C116.854 248.442 116.56 248.686 116.193 248.868C115.83 249.047 115.406 249.136 114.923 249.136ZM121.712 249.136C121.081 249.136 120.537 248.997 120.08 248.719C119.625 248.438 119.274 248.045 119.027 247.543C118.783 247.037 118.661 246.449 118.661 245.778C118.661 245.108 118.783 244.517 119.027 244.006C119.274 243.491 119.618 243.091 120.058 242.804C120.501 242.514 121.018 242.369 121.609 242.369C121.95 242.369 122.287 242.426 122.619 242.54C122.952 242.653 123.254 242.838 123.527 243.094C123.8 243.347 124.017 243.682 124.179 244.099C124.341 244.517 124.422 245.031 124.422 245.642V246.068H119.376V245.199H123.399C123.399 244.83 123.325 244.5 123.178 244.21C123.033 243.92 122.825 243.692 122.555 243.524C122.288 243.357 121.973 243.273 121.609 243.273C121.209 243.273 120.862 243.372 120.57 243.571C120.28 243.767 120.057 244.023 119.901 244.338C119.744 244.653 119.666 244.991 119.666 245.352V245.932C119.666 246.426 119.751 246.845 119.922 247.189C120.095 247.53 120.335 247.79 120.642 247.969C120.949 248.145 121.305 248.233 121.712 248.233C121.976 248.233 122.214 248.196 122.428 248.122C122.643 248.045 122.83 247.932 122.986 247.781C123.142 247.628 123.263 247.437 123.348 247.21L124.32 247.483C124.217 247.812 124.045 248.102 123.804 248.352C123.563 248.599 123.264 248.793 122.909 248.932C122.554 249.068 122.155 249.136 121.712 249.136ZM128.423 249.136C127.878 249.136 127.396 248.999 126.979 248.723C126.561 248.445 126.234 248.053 125.999 247.547C125.763 247.038 125.645 246.438 125.645 245.744C125.645 245.057 125.763 244.46 125.999 243.955C126.234 243.449 126.563 243.058 126.983 242.783C127.403 242.507 127.889 242.369 128.44 242.369C128.866 242.369 129.203 242.44 129.45 242.582C129.7 242.722 129.891 242.881 130.021 243.06C130.155 243.236 130.259 243.381 130.332 243.494H130.418V240.273H131.423V249H130.452V247.994H130.332C130.259 248.114 130.153 248.264 130.017 248.446C129.881 248.625 129.686 248.786 129.433 248.928C129.18 249.067 128.844 249.136 128.423 249.136ZM128.56 248.233C128.963 248.233 129.304 248.128 129.582 247.918C129.861 247.705 130.072 247.411 130.217 247.036C130.362 246.658 130.435 246.222 130.435 245.727C130.435 245.239 130.364 244.811 130.222 244.445C130.08 244.075 129.869 243.788 129.591 243.584C129.313 243.376 128.969 243.273 128.56 243.273C128.134 243.273 127.778 243.382 127.494 243.601C127.213 243.817 127.001 244.111 126.859 244.483C126.72 244.852 126.651 245.267 126.651 245.727C126.651 246.193 126.722 246.616 126.864 246.997C127.009 247.375 127.222 247.676 127.503 247.901C127.787 248.122 128.139 248.233 128.56 248.233ZM139.439 249.136C138.848 249.136 138.33 248.996 137.884 248.714C137.44 248.433 137.094 248.04 136.844 247.534C136.597 247.028 136.473 246.437 136.473 245.761C136.473 245.08 136.597 244.484 136.844 243.976C137.094 243.467 137.44 243.072 137.884 242.791C138.33 242.51 138.848 242.369 139.439 242.369C140.03 242.369 140.547 242.51 140.99 242.791C141.436 243.072 141.783 243.467 142.03 243.976C142.28 244.484 142.405 245.08 142.405 245.761C142.405 246.437 142.28 247.028 142.03 247.534C141.783 248.04 141.436 248.433 140.99 248.714C140.547 248.996 140.03 249.136 139.439 249.136ZM139.439 248.233C139.888 248.233 140.257 248.118 140.547 247.888C140.837 247.658 141.051 247.355 141.19 246.98C141.33 246.605 141.399 246.199 141.399 245.761C141.399 245.324 141.33 244.916 141.19 244.538C141.051 244.161 140.837 243.855 140.547 243.622C140.257 243.389 139.888 243.273 139.439 243.273C138.99 243.273 138.621 243.389 138.331 243.622C138.041 243.855 137.827 244.161 137.688 244.538C137.548 244.916 137.479 245.324 137.479 245.761C137.479 246.199 137.548 246.605 137.688 246.98C137.827 247.355 138.041 247.658 138.331 247.888C138.621 248.118 138.99 248.233 139.439 248.233ZM144.946 245.062V249H143.94V242.455H144.912V243.477H144.997C145.15 243.145 145.383 242.878 145.696 242.676C146.008 242.472 146.412 242.369 146.906 242.369C147.349 242.369 147.737 242.46 148.069 242.642C148.402 242.821 148.66 243.094 148.845 243.46C149.029 243.824 149.122 244.284 149.122 244.841V249H148.116V244.909C148.116 244.395 147.983 243.994 147.716 243.707C147.449 243.418 147.082 243.273 146.616 243.273C146.295 243.273 146.008 243.342 145.755 243.482C145.505 243.621 145.308 243.824 145.163 244.091C145.018 244.358 144.946 244.682 144.946 245.062ZM161.494 243H160.437C160.374 242.696 160.265 242.429 160.109 242.199C159.955 241.969 159.768 241.776 159.546 241.619C159.327 241.46 159.085 241.341 158.817 241.261C158.55 241.182 158.272 241.142 157.982 241.142C157.454 241.142 156.975 241.276 156.546 241.543C156.12 241.81 155.781 242.203 155.528 242.723C155.278 243.243 155.153 243.881 155.153 244.636C155.153 245.392 155.278 246.03 155.528 246.55C155.781 247.07 156.12 247.463 156.546 247.73C156.975 247.997 157.454 248.131 157.982 248.131C158.272 248.131 158.55 248.091 158.817 248.011C159.085 247.932 159.327 247.814 159.546 247.658C159.768 247.499 159.955 247.304 160.109 247.074C160.265 246.841 160.374 246.574 160.437 246.273H161.494C161.414 246.719 161.269 247.118 161.059 247.47C160.849 247.822 160.587 248.122 160.275 248.369C159.962 248.614 159.612 248.8 159.222 248.928C158.836 249.055 158.423 249.119 157.982 249.119C157.238 249.119 156.576 248.938 155.996 248.574C155.417 248.21 154.961 247.693 154.629 247.023C154.296 246.352 154.13 245.557 154.13 244.636C154.13 243.716 154.296 242.92 154.629 242.25C154.961 241.58 155.417 241.062 155.996 240.699C156.576 240.335 157.238 240.153 157.982 240.153C158.423 240.153 158.836 240.217 159.222 240.345C159.612 240.473 159.962 240.661 160.275 240.908C160.587 241.152 160.849 241.45 161.059 241.803C161.269 242.152 161.414 242.551 161.494 243ZM164.991 249.153C164.576 249.153 164.2 249.075 163.862 248.919C163.524 248.76 163.255 248.531 163.056 248.233C162.858 247.932 162.758 247.568 162.758 247.142C162.758 246.767 162.832 246.463 162.98 246.23C163.127 245.994 163.325 245.81 163.572 245.676C163.819 245.543 164.092 245.443 164.39 245.378C164.691 245.31 164.994 245.256 165.298 245.216C165.696 245.165 166.018 245.126 166.265 245.101C166.515 245.072 166.697 245.026 166.811 244.96C166.927 244.895 166.985 244.781 166.985 244.619V244.585C166.985 244.165 166.87 243.838 166.64 243.605C166.413 243.372 166.068 243.256 165.605 243.256C165.125 243.256 164.748 243.361 164.475 243.571C164.203 243.781 164.011 244.006 163.9 244.244L162.946 243.903C163.116 243.506 163.343 243.196 163.627 242.974C163.914 242.75 164.227 242.594 164.565 242.506C164.906 242.415 165.241 242.369 165.571 242.369C165.781 242.369 166.022 242.395 166.295 242.446C166.571 242.494 166.836 242.595 167.092 242.749C167.35 242.902 167.565 243.134 167.735 243.443C167.906 243.753 167.991 244.168 167.991 244.688V249H166.985V248.114H166.934C166.866 248.256 166.752 248.408 166.593 248.57C166.434 248.732 166.223 248.869 165.958 248.983C165.694 249.097 165.372 249.153 164.991 249.153ZM165.145 248.25C165.542 248.25 165.877 248.172 166.15 248.016C166.426 247.859 166.633 247.658 166.772 247.411C166.914 247.163 166.985 246.903 166.985 246.631V245.71C166.943 245.761 166.849 245.808 166.704 245.851C166.562 245.891 166.397 245.926 166.21 245.957C166.025 245.986 165.845 246.011 165.669 246.034C165.495 246.054 165.355 246.071 165.247 246.085C164.985 246.119 164.741 246.175 164.514 246.251C164.289 246.325 164.108 246.437 163.968 246.588C163.832 246.736 163.764 246.937 163.764 247.193C163.764 247.543 163.893 247.807 164.152 247.986C164.413 248.162 164.744 248.25 165.145 248.25ZM169.827 249V242.455H170.798V243.477H170.884C171.02 243.128 171.24 242.857 171.544 242.663C171.848 242.467 172.213 242.369 172.639 242.369C173.071 242.369 173.43 242.467 173.717 242.663C174.007 242.857 174.233 243.128 174.395 243.477H174.463C174.631 243.139 174.882 242.871 175.217 242.672C175.553 242.47 175.955 242.369 176.423 242.369C177.009 242.369 177.487 242.553 177.859 242.919C178.232 243.283 178.418 243.849 178.418 244.619V249H177.412V244.619C177.412 244.136 177.28 243.791 177.016 243.584C176.751 243.376 176.44 243.273 176.082 243.273C175.622 243.273 175.266 243.412 175.013 243.69C174.76 243.966 174.634 244.315 174.634 244.739V249H173.611V244.517C173.611 244.145 173.49 243.845 173.249 243.618C173.007 243.388 172.696 243.273 172.315 243.273C172.054 243.273 171.81 243.342 171.582 243.482C171.358 243.621 171.176 243.814 171.037 244.061C170.901 244.305 170.832 244.588 170.832 244.909V249H169.827ZM180.256 251.455V242.455H181.228V243.494H181.347C181.421 243.381 181.523 243.236 181.654 243.06C181.788 242.881 181.978 242.722 182.225 242.582C182.475 242.44 182.813 242.369 183.239 242.369C183.79 242.369 184.276 242.507 184.697 242.783C185.117 243.058 185.445 243.449 185.681 243.955C185.917 244.46 186.035 245.057 186.035 245.744C186.035 246.438 185.917 247.038 185.681 247.547C185.445 248.053 185.119 248.445 184.701 248.723C184.283 248.999 183.802 249.136 183.256 249.136C182.836 249.136 182.499 249.067 182.246 248.928C181.994 248.786 181.799 248.625 181.663 248.446C181.526 248.264 181.421 248.114 181.347 247.994H181.262V251.455H180.256ZM181.245 245.727C181.245 246.222 181.317 246.658 181.462 247.036C181.607 247.411 181.819 247.705 182.097 247.918C182.376 248.128 182.717 248.233 183.12 248.233C183.54 248.233 183.891 248.122 184.173 247.901C184.457 247.676 184.67 247.375 184.812 246.997C184.957 246.616 185.029 246.193 185.029 245.727C185.029 245.267 184.958 244.852 184.816 244.483C184.677 244.111 184.465 243.817 184.181 243.601C183.9 243.382 183.546 243.273 183.12 243.273C182.711 243.273 182.367 243.376 182.089 243.584C181.81 243.788 181.6 244.075 181.458 244.445C181.316 244.811 181.245 245.239 181.245 245.727ZM191.694 246.324V242.455H192.7V249H191.694V247.892H191.626C191.472 248.224 191.234 248.507 190.91 248.74C190.586 248.97 190.177 249.085 189.683 249.085C189.273 249.085 188.91 248.996 188.592 248.817C188.273 248.635 188.023 248.362 187.842 247.999C187.66 247.632 187.569 247.17 187.569 246.614V242.455H188.575V246.545C188.575 247.023 188.708 247.403 188.975 247.688C189.245 247.972 189.589 248.114 190.006 248.114C190.256 248.114 190.511 248.05 190.769 247.922C191.031 247.794 191.249 247.598 191.425 247.334C191.604 247.07 191.694 246.733 191.694 246.324ZM199.178 243.92L198.275 244.176C198.218 244.026 198.134 243.879 198.023 243.737C197.915 243.592 197.767 243.473 197.58 243.379C197.392 243.286 197.152 243.239 196.86 243.239C196.459 243.239 196.125 243.331 195.858 243.516C195.594 243.697 195.462 243.929 195.462 244.21C195.462 244.46 195.553 244.658 195.735 244.803C195.917 244.947 196.201 245.068 196.587 245.165L197.559 245.403C198.144 245.545 198.58 245.763 198.867 246.055C199.154 246.345 199.297 246.719 199.297 247.176C199.297 247.551 199.189 247.886 198.973 248.182C198.76 248.477 198.462 248.71 198.078 248.881C197.695 249.051 197.249 249.136 196.74 249.136C196.073 249.136 195.52 248.991 195.083 248.702C194.645 248.412 194.368 247.989 194.252 247.432L195.206 247.193C195.297 247.545 195.469 247.81 195.722 247.986C195.978 248.162 196.311 248.25 196.723 248.25C197.192 248.25 197.564 248.151 197.84 247.952C198.118 247.75 198.257 247.509 198.257 247.227C198.257 247 198.178 246.81 198.019 246.656C197.86 246.5 197.615 246.384 197.286 246.307L196.195 246.051C195.596 245.909 195.155 245.689 194.874 245.391C194.596 245.089 194.456 244.713 194.456 244.261C194.456 243.892 194.56 243.565 194.767 243.281C194.978 242.997 195.263 242.774 195.624 242.612C195.988 242.45 196.4 242.369 196.86 242.369C197.507 242.369 198.016 242.511 198.385 242.795C198.757 243.08 199.022 243.455 199.178 243.92Z" fill="black"/>
<path d="M69.1035 282.119C68.4615 282.119 67.9146 281.945 67.4629 281.595C67.0112 281.243 66.666 280.733 66.4274 280.065C66.1887 279.395 66.0694 278.585 66.0694 277.636C66.0694 276.693 66.1887 275.888 66.4274 275.22C66.6689 274.55 67.0154 274.038 67.4672 273.686C67.9217 273.331 68.4672 273.153 69.1035 273.153C69.7399 273.153 70.2839 273.331 70.7356 273.686C71.1902 274.038 71.5368 274.55 71.7754 275.22C72.0169 275.888 72.1376 276.693 72.1376 277.636C72.1376 278.585 72.0183 279.395 71.7797 280.065C71.541 280.733 71.1958 281.243 70.7441 281.595C70.2924 281.945 69.7456 282.119 69.1035 282.119ZM69.1035 281.182C69.7399 281.182 70.2342 280.875 70.5865 280.261C70.9387 279.648 71.1149 278.773 71.1149 277.636C71.1149 276.881 71.0339 276.237 70.872 275.706C70.7129 275.175 70.4828 274.77 70.1816 274.491C69.8833 274.213 69.524 274.074 69.1035 274.074C68.4728 274.074 67.9799 274.385 67.6248 275.007C67.2697 275.626 67.0922 276.503 67.0922 277.636C67.0922 278.392 67.1717 279.034 67.3308 279.562C67.4899 280.091 67.7186 280.493 68.0169 280.768C68.318 281.044 68.6802 281.182 69.1035 281.182ZM73.7569 282V281.233L76.6376 278.08C76.9757 277.71 77.2541 277.389 77.4728 277.116C77.6916 276.841 77.8535 276.582 77.9586 276.341C78.0666 276.097 78.1206 275.841 78.1206 275.574C78.1206 275.267 78.0467 275.001 77.899 274.777C77.7541 274.553 77.5552 274.379 77.3024 274.257C77.0495 274.135 76.7654 274.074 76.4501 274.074C76.1149 274.074 75.8223 274.143 75.5723 274.283C75.3251 274.419 75.1333 274.611 74.997 274.858C74.8635 275.105 74.7967 275.395 74.7967 275.727H73.791C73.791 275.216 73.9089 274.767 74.1447 274.381C74.3805 273.994 74.7015 273.693 75.1078 273.477C75.5169 273.261 75.9757 273.153 76.4842 273.153C76.9956 273.153 77.4487 273.261 77.8436 273.477C78.2385 273.693 78.5481 273.984 78.7725 274.351C78.997 274.717 79.1092 275.125 79.1092 275.574C79.1092 275.895 79.051 276.209 78.9345 276.516C78.8208 276.82 78.622 277.159 78.3379 277.534C78.0566 277.906 77.666 278.361 77.166 278.898L75.2058 280.994V281.062H79.2626V282H73.7569ZM85.4714 280.364V279.903C85.4714 279.585 85.5368 279.294 85.6674 279.03C85.801 278.763 85.9941 278.55 86.247 278.391C86.5027 278.229 86.8123 278.148 87.176 278.148C87.5453 278.148 87.8549 278.229 88.1049 278.391C88.3549 278.55 88.5439 278.763 88.6717 279.03C88.7995 279.294 88.8635 279.585 88.8635 279.903V280.364C88.8635 280.682 88.7981 280.974 88.6674 281.241C88.5396 281.506 88.3493 281.719 88.0964 281.881C87.8464 282.04 87.5396 282.119 87.176 282.119C86.8066 282.119 86.4956 282.04 86.2427 281.881C85.9899 281.719 85.7981 281.506 85.6674 281.241C85.5368 280.974 85.4714 280.682 85.4714 280.364ZM86.3407 279.903V280.364C86.3407 280.628 86.4032 280.865 86.5282 281.075C86.6532 281.283 86.8691 281.386 87.176 281.386C87.4743 281.386 87.6845 281.283 87.8066 281.075C87.9316 280.865 87.9941 280.628 87.9941 280.364V279.903C87.9941 279.639 87.9345 279.403 87.8152 279.196C87.6958 278.986 87.4828 278.881 87.176 278.881C86.8777 278.881 86.6632 278.986 86.5325 279.196C86.4047 279.403 86.3407 279.639 86.3407 279.903ZM81.1248 275.369V274.909C81.1248 274.591 81.1902 274.3 81.3208 274.036C81.4544 273.768 81.6475 273.555 81.9004 273.396C82.1561 273.234 82.4657 273.153 82.8294 273.153C83.1987 273.153 83.5083 273.234 83.7583 273.396C84.0083 273.555 84.1973 273.768 84.3251 274.036C84.4529 274.3 84.5169 274.591 84.5169 274.909V275.369C84.5169 275.687 84.4515 275.98 84.3208 276.247C84.193 276.511 84.0027 276.724 83.7498 276.886C83.4998 277.045 83.193 277.125 82.8294 277.125C82.46 277.125 82.149 277.045 81.8961 276.886C81.6433 276.724 81.4515 276.511 81.3208 276.247C81.1902 275.98 81.1248 275.687 81.1248 275.369ZM81.9941 274.909V275.369C81.9941 275.634 82.0566 275.871 82.1816 276.081C82.3066 276.288 82.5225 276.392 82.8294 276.392C83.1277 276.392 83.3379 276.288 83.46 276.081C83.585 275.871 83.6475 275.634 83.6475 275.369V274.909C83.6475 274.645 83.5879 274.409 83.4686 274.202C83.3493 273.991 83.1362 273.886 82.8294 273.886C82.5311 273.886 82.3166 273.991 82.1859 274.202C82.0581 274.409 81.9941 274.645 81.9941 274.909ZM81.4487 282L87.4487 273.273H88.4203L82.4203 282H81.4487ZM94.301 282V273.273H97.2498C97.9345 273.273 98.4941 273.396 98.9288 273.643C99.3663 273.888 99.6902 274.219 99.9004 274.636C100.111 275.054 100.216 275.52 100.216 276.034C100.216 276.548 100.111 277.016 99.9004 277.436C99.693 277.857 99.372 278.192 98.9373 278.442C98.5027 278.689 97.9458 278.812 97.2669 278.812H95.1532V277.875H97.2328C97.7015 277.875 98.0779 277.794 98.362 277.632C98.6461 277.47 98.8521 277.251 98.9799 276.976C99.1106 276.697 99.176 276.384 99.176 276.034C99.176 275.685 99.1106 275.372 98.9799 275.097C98.8521 274.821 98.6447 274.605 98.3578 274.449C98.0708 274.29 97.6902 274.21 97.2157 274.21H95.3578V282H94.301ZM102.787 273.273V282H101.782V273.273H102.787ZM106.556 282.153C106.141 282.153 105.764 282.075 105.426 281.919C105.088 281.76 104.82 281.531 104.621 281.233C104.422 280.932 104.323 280.568 104.323 280.142C104.323 279.767 104.396 279.463 104.544 279.23C104.692 278.994 104.889 278.81 105.137 278.676C105.384 278.543 105.656 278.443 105.955 278.378C106.256 278.31 106.558 278.256 106.862 278.216C107.26 278.165 107.583 278.126 107.83 278.101C108.08 278.072 108.262 278.026 108.375 277.96C108.492 277.895 108.55 277.781 108.55 277.619V277.585C108.55 277.165 108.435 276.838 108.205 276.605C107.977 276.372 107.632 276.256 107.169 276.256C106.689 276.256 106.313 276.361 106.04 276.571C105.767 276.781 105.575 277.006 105.465 277.244L104.51 276.903C104.681 276.506 104.908 276.196 105.192 275.974C105.479 275.75 105.791 275.594 106.129 275.506C106.47 275.415 106.806 275.369 107.135 275.369C107.345 275.369 107.587 275.395 107.86 275.446C108.135 275.494 108.401 275.595 108.656 275.749C108.915 275.902 109.129 276.134 109.3 276.443C109.47 276.753 109.556 277.168 109.556 277.688V282H108.55V281.114H108.499C108.431 281.256 108.317 281.408 108.158 281.57C107.999 281.732 107.787 281.869 107.523 281.983C107.259 282.097 106.936 282.153 106.556 282.153ZM106.709 281.25C107.107 281.25 107.442 281.172 107.715 281.016C107.99 280.859 108.198 280.658 108.337 280.411C108.479 280.163 108.55 279.903 108.55 279.631V278.71C108.507 278.761 108.414 278.808 108.269 278.851C108.127 278.891 107.962 278.926 107.774 278.957C107.59 278.986 107.409 279.011 107.233 279.034C107.06 279.054 106.919 279.071 106.811 279.085C106.55 279.119 106.306 279.175 106.078 279.251C105.854 279.325 105.672 279.437 105.533 279.588C105.396 279.736 105.328 279.937 105.328 280.193C105.328 280.543 105.458 280.807 105.716 280.986C105.977 281.162 106.308 281.25 106.709 281.25ZM114.05 282.136C113.437 282.136 112.908 281.991 112.465 281.702C112.022 281.412 111.681 281.013 111.442 280.504C111.204 279.996 111.084 279.415 111.084 278.761C111.084 278.097 111.206 277.51 111.451 277.001C111.698 276.49 112.042 276.091 112.482 275.804C112.925 275.514 113.442 275.369 114.033 275.369C114.493 275.369 114.908 275.455 115.278 275.625C115.647 275.795 115.949 276.034 116.185 276.341C116.421 276.648 116.567 277.006 116.624 277.415H115.618C115.542 277.116 115.371 276.852 115.107 276.622C114.846 276.389 114.493 276.273 114.05 276.273C113.658 276.273 113.314 276.375 113.019 276.58C112.726 276.781 112.498 277.067 112.333 277.436C112.171 277.803 112.09 278.233 112.09 278.727C112.09 279.233 112.17 279.673 112.329 280.048C112.491 280.423 112.718 280.714 113.01 280.922C113.306 281.129 113.653 281.233 114.05 281.233C114.312 281.233 114.549 281.188 114.762 281.097C114.975 281.006 115.155 280.875 115.303 280.705C115.451 280.534 115.556 280.33 115.618 280.091H116.624C116.567 280.477 116.427 280.825 116.202 281.135C115.981 281.442 115.687 281.686 115.32 281.868C114.956 282.047 114.533 282.136 114.05 282.136ZM120.839 282.136C120.208 282.136 119.664 281.997 119.206 281.719C118.752 281.438 118.401 281.045 118.154 280.543C117.91 280.037 117.787 279.449 117.787 278.778C117.787 278.108 117.91 277.517 118.154 277.006C118.401 276.491 118.745 276.091 119.185 275.804C119.628 275.514 120.145 275.369 120.736 275.369C121.077 275.369 121.414 275.426 121.746 275.54C122.079 275.653 122.381 275.838 122.654 276.094C122.927 276.347 123.144 276.682 123.306 277.099C123.468 277.517 123.549 278.031 123.549 278.642V279.068H118.503V278.199H122.526C122.526 277.83 122.452 277.5 122.305 277.21C122.16 276.92 121.952 276.692 121.682 276.524C121.415 276.357 121.1 276.273 120.736 276.273C120.336 276.273 119.989 276.372 119.697 276.571C119.407 276.767 119.184 277.023 119.028 277.338C118.871 277.653 118.793 277.991 118.793 278.352V278.932C118.793 279.426 118.878 279.845 119.049 280.189C119.222 280.53 119.462 280.79 119.769 280.969C120.076 281.145 120.432 281.233 120.839 281.233C121.103 281.233 121.341 281.196 121.555 281.122C121.77 281.045 121.956 280.932 122.113 280.781C122.269 280.628 122.39 280.437 122.475 280.21L123.447 280.483C123.344 280.812 123.172 281.102 122.931 281.352C122.689 281.599 122.391 281.793 122.036 281.932C121.681 282.068 121.282 282.136 120.839 282.136ZM127.55 282.136C127.005 282.136 126.523 281.999 126.106 281.723C125.688 281.445 125.361 281.053 125.126 280.547C124.89 280.038 124.772 279.438 124.772 278.744C124.772 278.057 124.89 277.46 125.126 276.955C125.361 276.449 125.689 276.058 126.11 275.783C126.53 275.507 127.016 275.369 127.567 275.369C127.993 275.369 128.33 275.44 128.577 275.582C128.827 275.722 129.018 275.881 129.148 276.06C129.282 276.236 129.385 276.381 129.459 276.494H129.545V273.273H130.55V282H129.579V280.994H129.459C129.385 281.114 129.28 281.264 129.144 281.446C129.008 281.625 128.813 281.786 128.56 281.928C128.307 282.067 127.971 282.136 127.55 282.136ZM127.687 281.233C128.09 281.233 128.431 281.128 128.709 280.918C128.988 280.705 129.199 280.411 129.344 280.036C129.489 279.658 129.562 279.222 129.562 278.727C129.562 278.239 129.491 277.811 129.349 277.445C129.206 277.075 128.996 276.788 128.718 276.584C128.439 276.376 128.096 276.273 127.687 276.273C127.26 276.273 126.905 276.382 126.621 276.601C126.34 276.817 126.128 277.111 125.986 277.483C125.847 277.852 125.778 278.267 125.778 278.727C125.778 279.193 125.849 279.616 125.991 279.997C126.135 280.375 126.349 280.676 126.63 280.901C126.914 281.122 127.266 281.233 127.687 281.233ZM138.566 282.136C137.975 282.136 137.456 281.996 137.01 281.714C136.567 281.433 136.221 281.04 135.971 280.534C135.724 280.028 135.6 279.437 135.6 278.761C135.6 278.08 135.724 277.484 135.971 276.976C136.221 276.467 136.567 276.072 137.01 275.791C137.456 275.51 137.975 275.369 138.566 275.369C139.157 275.369 139.674 275.51 140.117 275.791C140.563 276.072 140.91 276.467 141.157 276.976C141.407 277.484 141.532 278.08 141.532 278.761C141.532 279.437 141.407 280.028 141.157 280.534C140.91 281.04 140.563 281.433 140.117 281.714C139.674 281.996 139.157 282.136 138.566 282.136ZM138.566 281.233C139.015 281.233 139.384 281.118 139.674 280.888C139.964 280.658 140.178 280.355 140.317 279.98C140.456 279.605 140.526 279.199 140.526 278.761C140.526 278.324 140.456 277.916 140.317 277.538C140.178 277.161 139.964 276.855 139.674 276.622C139.384 276.389 139.015 276.273 138.566 276.273C138.117 276.273 137.748 276.389 137.458 276.622C137.168 276.855 136.954 277.161 136.814 277.538C136.675 277.916 136.606 278.324 136.606 278.761C136.606 279.199 136.675 279.605 136.814 279.98C136.954 280.355 137.168 280.658 137.458 280.888C137.748 281.118 138.117 281.233 138.566 281.233ZM145.982 275.455V276.307H142.453V275.455H145.982ZM143.51 282V274.551C143.51 274.176 143.598 273.864 143.774 273.614C143.95 273.364 144.179 273.176 144.46 273.051C144.742 272.926 145.039 272.864 145.351 272.864C145.598 272.864 145.8 272.884 145.956 272.923C146.112 272.963 146.229 273 146.306 273.034L146.016 273.903C145.965 273.886 145.894 273.865 145.803 273.839C145.715 273.814 145.598 273.801 145.453 273.801C145.121 273.801 144.881 273.885 144.733 274.053C144.588 274.22 144.516 274.466 144.516 274.79V282H143.51ZM150.306 275.455V276.307H146.778V275.455H150.306ZM147.834 282V274.551C147.834 274.176 147.922 273.864 148.099 273.614C148.275 273.364 148.503 273.176 148.785 273.051C149.066 272.926 149.363 272.864 149.675 272.864C149.922 272.864 150.124 272.884 150.28 272.923C150.437 272.963 150.553 273 150.63 273.034L150.34 273.903C150.289 273.886 150.218 273.865 150.127 273.839C150.039 273.814 149.922 273.801 149.778 273.801C149.445 273.801 149.205 273.885 149.057 274.053C148.912 274.22 148.84 274.466 148.84 274.79V282H147.834ZM162.249 276H161.193C161.13 275.696 161.021 275.429 160.865 275.199C160.711 274.969 160.524 274.776 160.302 274.619C160.083 274.46 159.84 274.341 159.573 274.261C159.306 274.182 159.028 274.142 158.738 274.142C158.21 274.142 157.731 274.276 157.302 274.543C156.876 274.81 156.536 275.203 156.284 275.723C156.034 276.243 155.909 276.881 155.909 277.636C155.909 278.392 156.034 279.03 156.284 279.55C156.536 280.07 156.876 280.463 157.302 280.73C157.731 280.997 158.21 281.131 158.738 281.131C159.028 281.131 159.306 281.091 159.573 281.011C159.84 280.932 160.083 280.814 160.302 280.658C160.524 280.499 160.711 280.304 160.865 280.074C161.021 279.841 161.13 279.574 161.193 279.273H162.249C162.17 279.719 162.025 280.118 161.815 280.47C161.605 280.822 161.343 281.122 161.031 281.369C160.718 281.614 160.367 281.8 159.978 281.928C159.592 282.055 159.178 282.119 158.738 282.119C157.994 282.119 157.332 281.938 156.752 281.574C156.173 281.21 155.717 280.693 155.384 280.023C155.052 279.352 154.886 278.557 154.886 277.636C154.886 276.716 155.052 275.92 155.384 275.25C155.717 274.58 156.173 274.062 156.752 273.699C157.332 273.335 157.994 273.153 158.738 273.153C159.178 273.153 159.592 273.217 159.978 273.345C160.367 273.473 160.718 273.661 161.031 273.908C161.343 274.152 161.605 274.45 161.815 274.803C162.025 275.152 162.17 275.551 162.249 276ZM165.747 282.153C165.332 282.153 164.956 282.075 164.618 281.919C164.28 281.76 164.011 281.531 163.812 281.233C163.613 280.932 163.514 280.568 163.514 280.142C163.514 279.767 163.588 279.463 163.736 279.23C163.883 278.994 164.081 278.81 164.328 278.676C164.575 278.543 164.848 278.443 165.146 278.378C165.447 278.31 165.75 278.256 166.054 278.216C166.452 278.165 166.774 278.126 167.021 278.101C167.271 278.072 167.453 278.026 167.567 277.96C167.683 277.895 167.741 277.781 167.741 277.619V277.585C167.741 277.165 167.626 276.838 167.396 276.605C167.169 276.372 166.824 276.256 166.361 276.256C165.881 276.256 165.504 276.361 165.231 276.571C164.959 276.781 164.767 277.006 164.656 277.244L163.702 276.903C163.872 276.506 164.099 276.196 164.383 275.974C164.67 275.75 164.983 275.594 165.321 275.506C165.662 275.415 165.997 275.369 166.327 275.369C166.537 275.369 166.778 275.395 167.051 275.446C167.327 275.494 167.592 275.595 167.848 275.749C168.106 275.902 168.321 276.134 168.491 276.443C168.662 276.753 168.747 277.168 168.747 277.688V282H167.741V281.114H167.69C167.622 281.256 167.508 281.408 167.349 281.57C167.19 281.732 166.979 281.869 166.714 281.983C166.45 282.097 166.128 282.153 165.747 282.153ZM165.9 281.25C166.298 281.25 166.633 281.172 166.906 281.016C167.182 280.859 167.389 280.658 167.528 280.411C167.67 280.163 167.741 279.903 167.741 279.631V278.71C167.699 278.761 167.605 278.808 167.46 278.851C167.318 278.891 167.153 278.926 166.966 278.957C166.781 278.986 166.601 279.011 166.425 279.034C166.251 279.054 166.111 279.071 166.003 279.085C165.741 279.119 165.497 279.175 165.27 279.251C165.045 279.325 164.863 279.437 164.724 279.588C164.588 279.736 164.52 279.937 164.52 280.193C164.52 280.543 164.649 280.807 164.907 280.986C165.169 281.162 165.5 281.25 165.9 281.25ZM170.583 282V275.455H171.554V276.477H171.639C171.776 276.128 171.996 275.857 172.3 275.663C172.604 275.467 172.969 275.369 173.395 275.369C173.827 275.369 174.186 275.467 174.473 275.663C174.763 275.857 174.989 276.128 175.151 276.477H175.219C175.387 276.139 175.638 275.871 175.973 275.672C176.308 275.47 176.71 275.369 177.179 275.369C177.764 275.369 178.243 275.553 178.615 275.919C178.987 276.283 179.173 276.849 179.173 277.619V282H178.168V277.619C178.168 277.136 178.036 276.791 177.771 276.584C177.507 276.376 177.196 276.273 176.838 276.273C176.378 276.273 176.021 276.412 175.769 276.69C175.516 276.966 175.389 277.315 175.389 277.739V282H174.367V277.517C174.367 277.145 174.246 276.845 174.004 276.618C173.763 276.388 173.452 276.273 173.071 276.273C172.81 276.273 172.566 276.342 172.338 276.482C172.114 276.621 171.932 276.814 171.793 277.061C171.656 277.305 171.588 277.588 171.588 277.909V282H170.583ZM181.012 284.455V275.455H181.984V276.494H182.103C182.177 276.381 182.279 276.236 182.41 276.06C182.544 275.881 182.734 275.722 182.981 275.582C183.231 275.44 183.569 275.369 183.995 275.369C184.546 275.369 185.032 275.507 185.453 275.783C185.873 276.058 186.201 276.449 186.437 276.955C186.673 277.46 186.791 278.057 186.791 278.744C186.791 279.438 186.673 280.038 186.437 280.547C186.201 281.053 185.874 281.445 185.457 281.723C185.039 281.999 184.558 282.136 184.012 282.136C183.592 282.136 183.255 282.067 183.002 281.928C182.749 281.786 182.555 281.625 182.419 281.446C182.282 281.264 182.177 281.114 182.103 280.994H182.018V284.455H181.012ZM182.001 278.727C182.001 279.222 182.073 279.658 182.218 280.036C182.363 280.411 182.575 280.705 182.853 280.918C183.132 281.128 183.472 281.233 183.876 281.233C184.296 281.233 184.647 281.122 184.928 280.901C185.213 280.676 185.426 280.375 185.568 279.997C185.713 279.616 185.785 279.193 185.785 278.727C185.785 278.267 185.714 277.852 185.572 277.483C185.433 277.111 185.221 276.817 184.937 276.601C184.656 276.382 184.302 276.273 183.876 276.273C183.467 276.273 183.123 276.376 182.845 276.584C182.566 276.788 182.356 277.075 182.214 277.445C182.072 277.811 182.001 278.239 182.001 278.727ZM192.45 279.324V275.455H193.455V282H192.45V280.892H192.382C192.228 281.224 191.99 281.507 191.666 281.74C191.342 281.97 190.933 282.085 190.438 282.085C190.029 282.085 189.666 281.996 189.347 281.817C189.029 281.635 188.779 281.362 188.597 280.999C188.416 280.632 188.325 280.17 188.325 279.614V275.455H189.33V279.545C189.33 280.023 189.464 280.403 189.731 280.688C190.001 280.972 190.345 281.114 190.762 281.114C191.012 281.114 191.267 281.05 191.525 280.922C191.786 280.794 192.005 280.598 192.181 280.334C192.36 280.07 192.45 279.733 192.45 279.324ZM199.934 276.92L199.03 277.176C198.974 277.026 198.89 276.879 198.779 276.737C198.671 276.592 198.523 276.473 198.336 276.379C198.148 276.286 197.908 276.239 197.616 276.239C197.215 276.239 196.881 276.331 196.614 276.516C196.35 276.697 196.218 276.929 196.218 277.21C196.218 277.46 196.309 277.658 196.491 277.803C196.672 277.947 196.956 278.068 197.343 278.165L198.314 278.403C198.9 278.545 199.336 278.763 199.623 279.055C199.91 279.345 200.053 279.719 200.053 280.176C200.053 280.551 199.945 280.886 199.729 281.182C199.516 281.477 199.218 281.71 198.834 281.881C198.451 282.051 198.005 282.136 197.496 282.136C196.829 282.136 196.276 281.991 195.839 281.702C195.401 281.412 195.124 280.989 195.008 280.432L195.962 280.193C196.053 280.545 196.225 280.81 196.478 280.986C196.733 281.162 197.067 281.25 197.479 281.25C197.948 281.25 198.32 281.151 198.596 280.952C198.874 280.75 199.013 280.509 199.013 280.227C199.013 280 198.934 279.81 198.775 279.656C198.616 279.5 198.371 279.384 198.042 279.307L196.951 279.051C196.351 278.909 195.911 278.689 195.63 278.391C195.351 278.089 195.212 277.713 195.212 277.261C195.212 276.892 195.316 276.565 195.523 276.281C195.733 275.997 196.019 275.774 196.38 275.612C196.743 275.45 197.155 275.369 197.616 275.369C198.263 275.369 198.772 275.511 199.141 275.795C199.513 276.08 199.778 276.455 199.934 276.92Z" fill="black"/>
<path d="M37 254.625C31.6939 254.625 27.375 250.307 27.375 245C27.375 239.693 31.6939 235.375 37 235.375C42.3061 235.375 46.625 239.693 46.625 245C46.625 250.307 42.3061 254.625 37 254.625ZM37 236.75C32.4501 236.75 28.75 240.45 28.75 245C28.75 249.55 32.4501 253.25 37 253.25C41.5499 253.25 45.25 249.55 45.25 245C45.25 240.45 41.5499 236.75 37 236.75Z" fill="#1461FF"/>
<path d="M37 247.98C38.6456 247.98 39.9796 246.646 39.9796 245C39.9796 243.354 38.6456 242.02 37 242.02C35.3544 242.02 34.0204 243.354 34.0204 245C34.0204 246.646 35.3544 247.98 37 247.98Z" fill="#D320C1"/>
<g filter="url(#filter0_i_295_341)">
<circle cx="118.567" cy="125.294" r="73.6163" fill="#E9EFF6"/>
</g>
<g filter="url(#filter1_d_295_341)">
<circle cx="119.25" cy="124.612" r="62.7102" fill="white"/>
</g>
<path d="M99.3364 108.376V124.049H96.2427V111.942L92.5259 113.124V110.685L99.0034 108.376H99.3364ZM115.836 114.853V117.56C115.836 118.735 115.71 119.748 115.46 120.601C115.209 121.446 114.847 122.14 114.375 122.685C113.909 123.222 113.354 123.619 112.71 123.877C112.065 124.135 111.349 124.264 110.561 124.264C109.931 124.264 109.344 124.185 108.799 124.027C108.255 123.863 107.765 123.608 107.328 123.265C106.898 122.921 106.526 122.488 106.211 121.965C105.903 121.435 105.666 120.805 105.502 120.074C105.337 119.344 105.255 118.506 105.255 117.56V114.853C105.255 113.679 105.38 112.673 105.631 111.835C105.888 110.99 106.25 110.299 106.715 109.762C107.188 109.225 107.747 108.831 108.391 108.58C109.036 108.322 109.752 108.193 110.54 108.193C111.17 108.193 111.754 108.276 112.291 108.44C112.835 108.598 113.325 108.845 113.762 109.182C114.199 109.518 114.572 109.951 114.88 110.481C115.187 111.004 115.424 111.631 115.589 112.361C115.753 113.085 115.836 113.915 115.836 114.853ZM112.731 117.969V114.435C112.731 113.869 112.699 113.375 112.634 112.952C112.577 112.53 112.488 112.171 112.366 111.878C112.244 111.577 112.094 111.334 111.915 111.147C111.736 110.961 111.532 110.825 111.302 110.739C111.073 110.653 110.819 110.61 110.54 110.61C110.189 110.61 109.877 110.678 109.605 110.814C109.34 110.95 109.115 111.169 108.928 111.47C108.742 111.763 108.599 112.157 108.499 112.651C108.406 113.138 108.359 113.733 108.359 114.435V117.969C108.359 118.534 108.388 119.032 108.445 119.462C108.509 119.892 108.603 120.26 108.724 120.568C108.853 120.869 109.004 121.116 109.175 121.31C109.354 121.496 109.559 121.632 109.788 121.718C110.024 121.804 110.282 121.847 110.561 121.847C110.905 121.847 111.209 121.779 111.474 121.643C111.746 121.499 111.976 121.277 112.162 120.977C112.355 120.669 112.498 120.268 112.591 119.773C112.685 119.279 112.731 118.678 112.731 117.969ZM129.348 114.853V117.56C129.348 118.735 129.223 119.748 128.972 120.601C128.722 121.446 128.36 122.14 127.887 122.685C127.422 123.222 126.867 123.619 126.222 123.877C125.578 124.135 124.862 124.264 124.074 124.264C123.444 124.264 122.857 124.185 122.312 124.027C121.768 123.863 121.277 123.608 120.841 123.265C120.411 122.921 120.038 122.488 119.723 121.965C119.415 121.435 119.179 120.805 119.014 120.074C118.85 119.344 118.767 118.506 118.767 117.56V114.853C118.767 113.679 118.893 112.673 119.143 111.835C119.401 110.99 119.763 110.299 120.228 109.762C120.701 109.225 121.26 108.831 121.904 108.58C122.549 108.322 123.265 108.193 124.052 108.193C124.683 108.193 125.266 108.276 125.803 108.44C126.348 108.598 126.838 108.845 127.275 109.182C127.712 109.518 128.084 109.951 128.392 110.481C128.7 111.004 128.937 111.631 129.101 112.361C129.266 113.085 129.348 113.915 129.348 114.853ZM126.244 117.969V114.435C126.244 113.869 126.212 113.375 126.147 112.952C126.09 112.53 126 112.171 125.879 111.878C125.757 111.577 125.607 111.334 125.427 111.147C125.248 110.961 125.044 110.825 124.815 110.739C124.586 110.653 124.332 110.61 124.052 110.61C123.702 110.61 123.39 110.678 123.118 110.814C122.853 110.95 122.627 111.169 122.441 111.47C122.255 111.763 122.112 112.157 122.011 112.651C121.918 113.138 121.872 113.733 121.872 114.435V117.969C121.872 118.534 121.9 119.032 121.958 119.462C122.022 119.892 122.115 120.26 122.237 120.568C122.366 120.869 122.516 121.116 122.688 121.31C122.867 121.496 123.071 121.632 123.301 121.718C123.537 121.804 123.795 121.847 124.074 121.847C124.418 121.847 124.722 121.779 124.987 121.643C125.259 121.499 125.488 121.277 125.675 120.977C125.868 120.669 126.011 120.268 126.104 119.773C126.197 119.279 126.244 118.678 126.244 117.969ZM132.291 112.243V111.416C132.291 110.822 132.42 110.281 132.678 109.794C132.935 109.307 133.315 108.917 133.816 108.623C134.318 108.329 134.933 108.183 135.664 108.183C136.416 108.183 137.043 108.329 137.544 108.623C138.052 108.917 138.432 109.307 138.682 109.794C138.94 110.281 139.069 110.822 139.069 111.416V112.243C139.069 112.823 138.94 113.357 138.682 113.844C138.432 114.331 138.056 114.721 137.555 115.015C137.053 115.308 136.434 115.455 135.696 115.455C134.951 115.455 134.325 115.308 133.816 115.015C133.315 114.721 132.935 114.331 132.678 113.844C132.42 113.357 132.291 112.823 132.291 112.243ZM134.343 111.416V112.243C134.343 112.494 134.389 112.734 134.482 112.963C134.583 113.185 134.733 113.367 134.933 113.511C135.141 113.647 135.392 113.715 135.685 113.715C135.993 113.715 136.244 113.647 136.437 113.511C136.631 113.367 136.774 113.185 136.867 112.963C136.96 112.734 137.007 112.494 137.007 112.243V111.416C137.007 111.151 136.957 110.907 136.856 110.685C136.763 110.456 136.616 110.274 136.416 110.138C136.223 109.994 135.972 109.923 135.664 109.923C135.377 109.923 135.134 109.994 134.933 110.138C134.733 110.274 134.583 110.456 134.482 110.685C134.389 110.907 134.343 111.151 134.343 111.416ZM139.767 121.041V120.214C139.767 119.627 139.896 119.089 140.154 118.602C140.419 118.115 140.802 117.725 141.304 117.432C141.812 117.138 142.435 116.991 143.173 116.991C143.918 116.991 144.541 117.138 145.042 117.432C145.543 117.725 145.923 118.115 146.181 118.602C146.438 119.089 146.567 119.627 146.567 120.214V121.041C146.567 121.628 146.438 122.165 146.181 122.652C145.93 123.139 145.554 123.53 145.053 123.823C144.551 124.117 143.932 124.264 143.194 124.264C142.449 124.264 141.823 124.117 141.314 123.823C140.806 123.53 140.419 123.139 140.154 122.652C139.896 122.165 139.767 121.628 139.767 121.041ZM141.83 120.214V121.041C141.83 121.299 141.887 121.542 142.002 121.771C142.116 122.001 142.274 122.183 142.474 122.319C142.682 122.455 142.922 122.523 143.194 122.523C143.538 122.523 143.807 122.455 144 122.319C144.193 122.183 144.326 122.001 144.397 121.771C144.476 121.542 144.515 121.299 144.515 121.041V120.214C144.515 119.956 144.465 119.716 144.365 119.494C144.265 119.265 144.114 119.082 143.914 118.946C143.721 118.803 143.474 118.731 143.173 118.731C142.872 118.731 142.621 118.803 142.421 118.946C142.227 119.082 142.081 119.265 141.98 119.494C141.88 119.716 141.83 119.956 141.83 120.214ZM143.935 110.643L136.298 122.867L134.794 122.072L142.432 109.848L143.935 110.643Z" fill="#1C1E2F"/>
<path d="M101.253 138.284V141.102C101.142 141.235 100.971 141.38 100.74 141.536C100.509 141.689 100.211 141.821 99.8467 141.932C99.4821 142.042 99.041 142.098 98.5234 142.098C98.0645 142.098 97.6462 142.023 97.2686 141.873C96.891 141.72 96.5654 141.497 96.292 141.204C96.0218 140.911 95.8135 140.553 95.667 140.13C95.5205 139.704 95.4473 139.217 95.4473 138.67V138.226C95.4473 137.679 95.5173 137.192 95.6572 136.766C95.8005 136.339 96.0039 135.98 96.2676 135.687C96.5312 135.394 96.8454 135.171 97.21 135.018C97.5745 134.865 97.9798 134.788 98.4258 134.788C99.0443 134.788 99.5521 134.889 99.9492 135.091C100.346 135.289 100.649 135.566 100.857 135.921C101.069 136.273 101.199 136.676 101.248 137.132H99.8271C99.7913 136.891 99.723 136.681 99.6221 136.502C99.5212 136.323 99.3763 136.183 99.1875 136.082C99.002 135.981 98.7611 135.931 98.4648 135.931C98.2207 135.931 98.0026 135.981 97.8105 136.082C97.6217 136.18 97.4622 136.325 97.332 136.517C97.2018 136.709 97.1025 136.946 97.0342 137.23C96.9658 137.513 96.9316 137.842 96.9316 138.216V138.67C96.9316 139.041 96.9674 139.37 97.0391 139.656C97.1107 139.94 97.2165 140.179 97.3564 140.374C97.4997 140.566 97.6755 140.711 97.8838 140.809C98.0921 140.906 98.3346 140.955 98.6113 140.955C98.8424 140.955 99.0345 140.936 99.1875 140.897C99.3438 140.857 99.4691 140.81 99.5635 140.755C99.6611 140.696 99.736 140.641 99.7881 140.589V139.329H98.4502V138.284H101.253ZM102.122 139.412V139.31C102.122 138.922 102.177 138.566 102.288 138.24C102.399 137.912 102.56 137.627 102.771 137.386C102.983 137.145 103.243 136.958 103.553 136.824C103.862 136.688 104.217 136.619 104.617 136.619C105.018 136.619 105.374 136.688 105.687 136.824C105.999 136.958 106.261 137.145 106.473 137.386C106.688 137.627 106.85 137.912 106.961 138.24C107.072 138.566 107.127 138.922 107.127 139.31V139.412C107.127 139.796 107.072 140.153 106.961 140.482C106.85 140.807 106.688 141.092 106.473 141.336C106.261 141.577 106.001 141.764 105.691 141.898C105.382 142.031 105.027 142.098 104.627 142.098C104.227 142.098 103.87 142.031 103.558 141.898C103.248 141.764 102.986 141.577 102.771 141.336C102.56 141.092 102.399 140.807 102.288 140.482C102.177 140.153 102.122 139.796 102.122 139.412ZM103.528 139.31V139.412C103.528 139.634 103.548 139.84 103.587 140.032C103.626 140.224 103.688 140.394 103.772 140.54C103.86 140.683 103.974 140.796 104.114 140.877C104.254 140.958 104.425 140.999 104.627 140.999C104.822 140.999 104.99 140.958 105.13 140.877C105.27 140.796 105.382 140.683 105.467 140.54C105.551 140.394 105.613 140.224 105.652 140.032C105.695 139.84 105.716 139.634 105.716 139.412V139.31C105.716 139.095 105.695 138.893 105.652 138.704C105.613 138.512 105.55 138.343 105.462 138.196C105.377 138.047 105.265 137.929 105.125 137.845C104.985 137.76 104.816 137.718 104.617 137.718C104.419 137.718 104.249 137.76 104.109 137.845C103.973 137.929 103.86 138.047 103.772 138.196C103.688 138.343 103.626 138.512 103.587 138.704C103.548 138.893 103.528 139.095 103.528 139.31ZM110.579 136.717V137.713H107.503V136.717H110.579ZM108.265 135.413H109.671V140.408C109.671 140.561 109.69 140.678 109.729 140.76C109.772 140.841 109.834 140.898 109.915 140.931C109.996 140.96 110.099 140.975 110.223 140.975C110.311 140.975 110.389 140.971 110.457 140.965C110.529 140.955 110.589 140.945 110.638 140.936L110.643 141.971C110.522 142.01 110.392 142.041 110.252 142.064C110.112 142.086 109.957 142.098 109.788 142.098C109.479 142.098 109.209 142.047 108.978 141.946C108.75 141.842 108.574 141.676 108.45 141.448C108.326 141.22 108.265 140.921 108.265 140.55V135.413ZM116.727 139.466H114.915V138.323H116.727C117.007 138.323 117.234 138.278 117.41 138.187C117.586 138.092 117.715 137.962 117.796 137.796C117.877 137.63 117.918 137.443 117.918 137.234C117.918 137.023 117.877 136.826 117.796 136.644C117.715 136.461 117.586 136.315 117.41 136.204C117.234 136.093 117.007 136.038 116.727 136.038H115.423V142H113.958V134.891H116.727C117.283 134.891 117.76 134.992 118.157 135.193C118.558 135.392 118.864 135.667 119.075 136.019C119.287 136.37 119.393 136.772 119.393 137.225C119.393 137.684 119.287 138.081 119.075 138.416C118.864 138.751 118.558 139.01 118.157 139.192C117.76 139.375 117.283 139.466 116.727 139.466ZM121.8 134.5V142H120.389V134.5H121.8ZM125.813 140.809V138.455C125.813 138.286 125.786 138.141 125.73 138.021C125.675 137.897 125.589 137.801 125.472 137.732C125.358 137.664 125.21 137.63 125.027 137.63C124.871 137.63 124.736 137.658 124.622 137.713C124.508 137.765 124.42 137.842 124.358 137.942C124.297 138.04 124.266 138.156 124.266 138.289H122.859C122.859 138.065 122.911 137.851 123.016 137.649C123.12 137.448 123.271 137.27 123.47 137.117C123.668 136.961 123.904 136.839 124.178 136.751C124.454 136.663 124.764 136.619 125.105 136.619C125.516 136.619 125.88 136.688 126.199 136.824C126.518 136.961 126.769 137.166 126.951 137.44C127.137 137.713 127.229 138.055 127.229 138.465V140.726C127.229 141.015 127.247 141.253 127.283 141.439C127.319 141.621 127.371 141.78 127.439 141.917V142H126.019C125.95 141.857 125.898 141.678 125.862 141.463C125.83 141.245 125.813 141.027 125.813 140.809ZM125.999 138.782L126.009 139.578H125.223C125.037 139.578 124.876 139.599 124.739 139.642C124.603 139.684 124.49 139.744 124.402 139.822C124.314 139.897 124.249 139.985 124.207 140.086C124.168 140.187 124.148 140.298 124.148 140.418C124.148 140.538 124.176 140.648 124.231 140.745C124.287 140.84 124.367 140.914 124.471 140.97C124.575 141.022 124.697 141.048 124.837 141.048C125.049 141.048 125.232 141.006 125.389 140.921C125.545 140.836 125.665 140.732 125.75 140.608C125.838 140.485 125.883 140.368 125.887 140.257L126.258 140.853C126.206 140.986 126.134 141.124 126.043 141.268C125.955 141.411 125.843 141.546 125.706 141.673C125.569 141.797 125.405 141.899 125.213 141.981C125.021 142.059 124.793 142.098 124.529 142.098C124.194 142.098 123.89 142.031 123.616 141.898C123.346 141.761 123.131 141.574 122.972 141.336C122.815 141.095 122.737 140.822 122.737 140.516C122.737 140.239 122.789 139.993 122.894 139.778C122.998 139.564 123.151 139.383 123.353 139.236C123.558 139.087 123.813 138.974 124.119 138.899C124.425 138.821 124.78 138.782 125.184 138.782H125.999ZM130.496 140.999C130.669 140.999 130.822 140.967 130.955 140.901C131.089 140.833 131.193 140.739 131.268 140.618C131.346 140.495 131.386 140.35 131.39 140.184H132.713C132.71 140.555 132.61 140.885 132.415 141.175C132.22 141.461 131.958 141.688 131.629 141.854C131.3 142.016 130.932 142.098 130.525 142.098C130.115 142.098 129.757 142.029 129.451 141.893C129.148 141.756 128.896 141.567 128.694 141.326C128.493 141.082 128.341 140.799 128.24 140.477C128.139 140.151 128.089 139.803 128.089 139.432V139.29C128.089 138.916 128.139 138.567 128.24 138.245C128.341 137.92 128.493 137.636 128.694 137.396C128.896 137.151 129.148 136.961 129.451 136.824C129.754 136.688 130.109 136.619 130.516 136.619C130.949 136.619 131.328 136.702 131.653 136.868C131.982 137.034 132.239 137.272 132.425 137.581C132.614 137.887 132.71 138.25 132.713 138.67H131.39C131.386 138.494 131.349 138.335 131.277 138.191C131.209 138.048 131.108 137.934 130.975 137.85C130.844 137.762 130.683 137.718 130.491 137.718C130.286 137.718 130.118 137.762 129.988 137.85C129.858 137.934 129.757 138.051 129.686 138.201C129.614 138.348 129.563 138.515 129.534 138.704C129.508 138.89 129.495 139.085 129.495 139.29V139.432C129.495 139.637 129.508 139.834 129.534 140.023C129.56 140.211 129.609 140.379 129.681 140.525C129.756 140.672 129.858 140.787 129.988 140.872C130.118 140.957 130.288 140.999 130.496 140.999ZM135.96 142.098C135.55 142.098 135.182 142.033 134.856 141.902C134.531 141.769 134.254 141.585 134.026 141.351C133.802 141.116 133.629 140.844 133.509 140.535C133.388 140.223 133.328 139.891 133.328 139.539V139.344C133.328 138.943 133.385 138.577 133.499 138.245C133.613 137.913 133.776 137.625 133.987 137.381C134.202 137.137 134.463 136.95 134.769 136.819C135.075 136.686 135.42 136.619 135.804 136.619C136.178 136.619 136.51 136.681 136.8 136.805C137.09 136.928 137.332 137.104 137.527 137.332C137.726 137.56 137.876 137.833 137.977 138.152C138.077 138.468 138.128 138.82 138.128 139.207V139.793H133.929V138.856H136.746V138.748C136.746 138.553 136.71 138.379 136.639 138.226C136.57 138.069 136.466 137.946 136.326 137.855C136.186 137.763 136.007 137.718 135.789 137.718C135.604 137.718 135.444 137.759 135.311 137.84C135.177 137.921 135.068 138.035 134.983 138.182C134.902 138.328 134.84 138.501 134.798 138.699C134.759 138.895 134.739 139.109 134.739 139.344V139.539C134.739 139.751 134.769 139.946 134.827 140.125C134.889 140.304 134.975 140.459 135.086 140.589C135.2 140.719 135.337 140.82 135.496 140.892C135.659 140.963 135.843 140.999 136.048 140.999C136.302 140.999 136.538 140.95 136.756 140.853C136.977 140.752 137.168 140.6 137.327 140.398L138.011 141.141C137.9 141.3 137.749 141.453 137.557 141.6C137.368 141.746 137.14 141.867 136.873 141.961C136.606 142.052 136.302 142.098 135.96 142.098ZM142.049 140.848V134.5H143.465V142H142.19L142.049 140.848ZM138.709 139.422V139.319C138.709 138.916 138.755 138.55 138.846 138.221C138.937 137.889 139.07 137.604 139.246 137.366C139.422 137.129 139.638 136.945 139.896 136.815C140.153 136.684 140.446 136.619 140.774 136.619C141.084 136.619 141.354 136.684 141.585 136.815C141.819 136.945 142.018 137.13 142.181 137.371C142.347 137.609 142.48 137.89 142.581 138.216C142.682 138.538 142.755 138.891 142.801 139.275V139.5C142.755 139.868 142.682 140.21 142.581 140.525C142.48 140.841 142.347 141.118 142.181 141.356C142.018 141.59 141.819 141.772 141.585 141.902C141.351 142.033 141.077 142.098 140.765 142.098C140.436 142.098 140.143 142.031 139.886 141.898C139.632 141.764 139.417 141.577 139.241 141.336C139.069 141.095 138.937 140.812 138.846 140.486C138.755 140.161 138.709 139.806 138.709 139.422ZM140.115 139.319V139.422C140.115 139.64 140.132 139.843 140.164 140.032C140.2 140.221 140.257 140.389 140.335 140.535C140.416 140.678 140.521 140.791 140.647 140.872C140.778 140.95 140.936 140.989 141.121 140.989C141.362 140.989 141.561 140.936 141.717 140.828C141.873 140.718 141.992 140.566 142.073 140.374C142.158 140.182 142.207 139.961 142.22 139.71V139.07C142.21 138.865 142.181 138.681 142.132 138.519C142.086 138.353 142.018 138.211 141.927 138.094C141.839 137.977 141.728 137.885 141.595 137.82C141.465 137.755 141.31 137.723 141.131 137.723C140.949 137.723 140.792 137.765 140.662 137.85C140.532 137.931 140.426 138.043 140.345 138.187C140.267 138.33 140.208 138.499 140.169 138.694C140.133 138.886 140.115 139.095 140.115 139.319Z" fill="#475799"/>
<path d="M43.0121 122C42.6595 141.909 50.0303 161.18 63.5784 175.772C77.1265 190.364 95.799 199.142 115.679 200.266L115.819 197.793C96.578 196.706 78.506 188.21 65.3936 174.087C52.2811 159.964 45.1473 141.312 45.4886 122.044L43.0121 122Z" fill="url(#paint0_linear_295_341)"/>
<path d="M122.12 49.936C102.217 49.3484 82.8595 56.4912 68.1086 69.8661C53.3578 83.241 44.3596 101.809 43.0016 121.674L45.4728 121.843C46.787 102.616 55.4959 84.6458 69.7724 71.701C84.0489 58.7562 102.784 51.8431 122.047 52.4118L122.12 49.936Z" fill="url(#paint1_linear_295_341)"/>
<path d="M116 200.807C135.908 201.159 155.18 193.788 169.772 180.24C184.364 166.692 193.142 148.02 194.266 128.14L191.793 128C190.705 147.241 182.209 165.313 168.087 178.425C153.964 191.538 135.312 198.671 116.044 198.33L116 200.807Z" fill="url(#paint2_linear_295_341)"/>
<g filter="url(#filter2_b_295_341)">
<path d="M136.082 52.0408C136.082 61.4522 128.452 69.0816 119.041 69.0816C109.629 69.0816 102 61.4522 102 52.0408C102 42.6294 109.629 35 119.041 35C128.452 35 136.082 42.6294 136.082 52.0408Z" fill="white" fill-opacity="0.2"/>
</g>
<circle cx="119.04" cy="52.0405" r="6.13469" fill="white"/>
<path d="M194.217 128.021C194.569 108.113 187.199 88.8411 173.65 74.2491C160.102 59.6572 141.43 50.8788 121.55 49.7555L121.41 52.2284C140.651 53.3156 158.723 61.8117 171.835 75.9344C184.948 90.0571 192.082 108.709 191.74 127.977L194.217 128.021Z" fill="url(#paint3_linear_295_341)"/>
<circle cx="119.249" cy="51.678" r="6.03837" fill="white" stroke="#2458FF" stroke-width="1.55591"/>
<path d="M48.3592 175.053C48.6318 174.78 50.2905 173.349 51.0857 172.667M40.8612 163.124L44.2694 161.42M35.749 150.173C36.0216 150.173 38.3619 149.492 39.498 149.151M33.0224 136.882L36.7714 136.2M32 123.249C32.2727 122.976 34.6129 123.135 35.749 123.249M33.3633 109.276L36.7714 109.957M36.4306 95.9837L39.8388 97.0061M41.8837 83.0327L44.951 84.7368M49.0408 71.1041L52.1082 73.4898M58.5837 61.2205L60.9694 63.6062M69.149 52.3592L71.1939 55.0858M81.0775 45.2021L82.7816 48.2694M93.6877 40.0899L94.7102 43.498M106.98 37.0225L107.661 40.4307M119.931 36.0001C119.931 36.5454 119.931 38.7266 119.931 39.749M133.563 37.0225L132.882 40.4307M147.196 40.0899C147.196 40.6352 146.287 42.8164 145.833 43.8388M159.806 45.5429L158.102 48.9511M171.735 53.0409L169.349 56.1082M181.959 61.9021C181.959 62.1747 180.141 63.8334 179.233 64.6286M191.161 72.4674L188.094 74.8531M198.318 84.3959L194.91 86.1M203.431 97.347L199.682 98.3694M206.498 110.639L202.749 111.32M207.52 124.271H203.771M206.157 138.245L202.408 137.563M203.431 151.878L199.341 150.173M197.637 164.488L194.228 162.784M190.479 176.075L187.412 174.031" stroke="#C7CBDC" stroke-width="0.518637"/>
<path d="M3.25684 14.2363V19H1.78027V6.39648H5.24316C6.59082 6.39648 7.63379 6.72461 8.37207 7.38086C9.11621 8.03711 9.48828 8.96289 9.48828 10.1582C9.48828 11.3535 9.0752 12.332 8.24902 13.0938C7.42871 13.8555 6.31836 14.2363 4.91797 14.2363H3.25684ZM3.25684 7.73242V12.9004H4.80371C5.82324 12.9004 6.59961 12.6689 7.13281 12.2061C7.67188 11.7373 7.94141 11.0781 7.94141 10.2285C7.94141 8.56445 6.95703 7.73242 4.98828 7.73242H3.25684ZM13.1182 19H11.6768V5.67578H13.1182V19ZM22.4785 19H21.0371V17.5938H21.002C20.375 18.6719 19.4521 19.2109 18.2334 19.2109C17.3369 19.2109 16.6338 18.9736 16.124 18.499C15.6201 18.0244 15.3682 17.3945 15.3682 16.6094C15.3682 14.9277 16.3584 13.9492 18.3389 13.6738L21.0371 13.2959C21.0371 11.7666 20.4189 11.002 19.1826 11.002C18.0986 11.002 17.1201 11.3711 16.2471 12.1094V10.6328C17.1318 10.0703 18.1514 9.78906 19.3057 9.78906C21.4209 9.78906 22.4785 10.9082 22.4785 13.1465V19ZM21.0371 14.4473L18.8662 14.7461C18.1982 14.8398 17.6943 15.0068 17.3545 15.2471C17.0146 15.4814 16.8447 15.9004 16.8447 16.5039C16.8447 16.9434 17 17.3037 17.3105 17.585C17.627 17.8604 18.0459 17.998 18.5674 17.998C19.2822 17.998 19.8711 17.749 20.334 17.251C20.8027 16.7471 21.0371 16.1113 21.0371 15.3438V14.4473ZM31.3291 18.5869C30.6377 19.0029 29.8174 19.2109 28.8682 19.2109C27.585 19.2109 26.5479 18.7949 25.7568 17.9629C24.9717 17.125 24.5791 16.041 24.5791 14.7109C24.5791 13.2285 25.0039 12.0391 25.8535 11.1426C26.7031 10.2402 27.8369 9.78906 29.2549 9.78906C30.0459 9.78906 30.7432 9.93555 31.3467 10.2285V11.7051C30.6787 11.2363 29.9639 11.002 29.2021 11.002C28.2822 11.002 27.5264 11.333 26.9346 11.9951C26.3486 12.6514 26.0557 13.5156 26.0557 14.5879C26.0557 15.6426 26.3311 16.4746 26.8818 17.084C27.4385 17.6934 28.1826 17.998 29.1143 17.998C29.8994 17.998 30.6377 17.7373 31.3291 17.2158V18.5869ZM40.7422 14.8604H34.3877C34.4111 15.8623 34.6807 16.6357 35.1963 17.1807C35.7119 17.7256 36.4209 17.998 37.3232 17.998C38.3369 17.998 39.2686 17.6641 40.1182 16.9961V18.3496C39.3271 18.9238 38.2812 19.2109 36.9805 19.2109C35.709 19.2109 34.71 18.8037 33.9834 17.9893C33.2568 17.1689 32.8936 16.0176 32.8936 14.5352C32.8936 13.1348 33.2891 11.9951 34.0801 11.1162C34.877 10.2314 35.8643 9.78906 37.042 9.78906C38.2197 9.78906 39.1309 10.1699 39.7754 10.9316C40.4199 11.6934 40.7422 12.751 40.7422 14.1045V14.8604ZM39.2656 13.6387C39.2598 12.8066 39.0576 12.1592 38.6592 11.6963C38.2666 11.2334 37.7188 11.002 37.0156 11.002C36.3359 11.002 35.7588 11.2451 35.2842 11.7314C34.8096 12.2178 34.5166 12.8535 34.4053 13.6387H39.2656ZM55.71 19H54.2686V13.832C54.2686 12.8359 54.1133 12.1152 53.8027 11.6699C53.498 11.2246 52.9824 11.002 52.2559 11.002C51.6406 11.002 51.1162 11.2832 50.6826 11.8457C50.2549 12.4082 50.041 13.082 50.041 13.8672V19H48.5996V13.6562C48.5996 11.8867 47.917 11.002 46.5518 11.002C45.9189 11.002 45.3975 11.2686 44.9873 11.8018C44.5771 12.3291 44.3721 13.0176 44.3721 13.8672V19H42.9307V10H44.3721V11.4238H44.4072C45.0459 10.334 45.9775 9.78906 47.2021 9.78906C47.8174 9.78906 48.3535 9.96191 48.8105 10.3076C49.2676 10.6475 49.5811 11.0957 49.751 11.6523C50.4189 10.4102 51.415 9.78906 52.7393 9.78906C54.7197 9.78906 55.71 11.0107 55.71 13.4541V19ZM65.668 14.8604H59.3135C59.3369 15.8623 59.6064 16.6357 60.1221 17.1807C60.6377 17.7256 61.3467 17.998 62.249 17.998C63.2627 17.998 64.1943 17.6641 65.0439 16.9961V18.3496C64.2529 18.9238 63.207 19.2109 61.9062 19.2109C60.6348 19.2109 59.6357 18.8037 58.9092 17.9893C58.1826 17.1689 57.8193 16.0176 57.8193 14.5352C57.8193 13.1348 58.2148 11.9951 59.0059 11.1162C59.8027 10.2314 60.79 9.78906 61.9678 9.78906C63.1455 9.78906 64.0566 10.1699 64.7012 10.9316C65.3457 11.6934 65.668 12.751 65.668 14.1045V14.8604ZM64.1914 13.6387C64.1855 12.8066 63.9834 12.1592 63.585 11.6963C63.1924 11.2334 62.6445 11.002 61.9414 11.002C61.2617 11.002 60.6846 11.2451 60.21 11.7314C59.7354 12.2178 59.4424 12.8535 59.3311 13.6387H64.1914ZM75.3271 19H73.8857V13.8672C73.8857 11.957 73.1885 11.002 71.7939 11.002C71.0732 11.002 70.4756 11.2744 70.001 11.8193C69.5322 12.3584 69.2979 13.041 69.2979 13.8672V19H67.8564V10H69.2979V11.4941H69.333C70.0127 10.3574 70.9971 9.78906 72.2861 9.78906C73.2705 9.78906 74.0234 10.1084 74.5449 10.7471C75.0664 11.3799 75.3271 12.2969 75.3271 13.498V19ZM82.2266 18.9121C81.8867 19.0996 81.4385 19.1934 80.8818 19.1934C79.3057 19.1934 78.5176 18.3145 78.5176 16.5566V11.2305H76.9707V10H78.5176V7.80273L79.959 7.33691V10H82.2266V11.2305H79.959V16.3018C79.959 16.9053 80.0615 17.3359 80.2666 17.5938C80.4717 17.8516 80.8115 17.9805 81.2861 17.9805C81.6494 17.9805 81.9629 17.8809 82.2266 17.6816V18.9121ZM93.7842 11.459C93.5322 11.2656 93.1689 11.1689 92.6943 11.1689C92.0791 11.1689 91.5635 11.459 91.1475 12.0391C90.7373 12.6191 90.5322 13.4102 90.5322 14.4121V19H89.0908V10H90.5322V11.8545H90.5674C90.7725 11.2217 91.0859 10.7295 91.5078 10.3779C91.9297 10.0205 92.4014 9.8418 92.9229 9.8418C93.2979 9.8418 93.585 9.88281 93.7842 9.96484V11.459ZM101.791 19H100.35V17.5938H100.314C99.6875 18.6719 98.7646 19.2109 97.5459 19.2109C96.6494 19.2109 95.9463 18.9736 95.4365 18.499C94.9326 18.0244 94.6807 17.3945 94.6807 16.6094C94.6807 14.9277 95.6709 13.9492 97.6514 13.6738L100.35 13.2959C100.35 11.7666 99.7314 11.002 98.4951 11.002C97.4111 11.002 96.4326 11.3711 95.5596 12.1094V10.6328C96.4443 10.0703 97.4639 9.78906 98.6182 9.78906C100.733 9.78906 101.791 10.9082 101.791 13.1465V19ZM100.35 14.4473L98.1787 14.7461C97.5107 14.8398 97.0068 15.0068 96.667 15.2471C96.3271 15.4814 96.1572 15.9004 96.1572 16.5039C96.1572 16.9434 96.3125 17.3037 96.623 17.585C96.9395 17.8604 97.3584 17.998 97.8799 17.998C98.5947 17.998 99.1836 17.749 99.6465 17.251C100.115 16.7471 100.35 16.1113 100.35 15.3438V14.4473ZM108.682 18.9121C108.342 19.0996 107.894 19.1934 107.337 19.1934C105.761 19.1934 104.973 18.3145 104.973 16.5566V11.2305H103.426V10H104.973V7.80273L106.414 7.33691V10H108.682V11.2305H106.414V16.3018C106.414 16.9053 106.517 17.3359 106.722 17.5938C106.927 17.8516 107.267 17.9805 107.741 17.9805C108.104 17.9805 108.418 17.8809 108.682 17.6816V18.9121ZM111.345 7.71484C111.087 7.71484 110.867 7.62695 110.686 7.45117C110.504 7.27539 110.413 7.05273 110.413 6.7832C110.413 6.51367 110.504 6.29102 110.686 6.11523C110.867 5.93359 111.087 5.84277 111.345 5.84277C111.608 5.84277 111.831 5.93359 112.013 6.11523C112.2 6.29102 112.294 6.51367 112.294 6.7832C112.294 7.04102 112.2 7.26074 112.013 7.44238C111.831 7.62402 111.608 7.71484 111.345 7.71484ZM112.048 19H110.606V10H112.048V19ZM118.728 19.2109C117.397 19.2109 116.334 18.792 115.537 17.9541C114.746 17.1104 114.351 15.9941 114.351 14.6055C114.351 13.0938 114.764 11.9131 115.59 11.0635C116.416 10.2139 117.532 9.78906 118.938 9.78906C120.28 9.78906 121.326 10.2021 122.076 11.0283C122.832 11.8545 123.21 13 123.21 14.4648C123.21 15.9004 122.803 17.0518 121.988 17.9189C121.18 18.7803 120.093 19.2109 118.728 19.2109ZM118.833 11.002C117.907 11.002 117.175 11.3184 116.636 11.9512C116.097 12.5781 115.827 13.4453 115.827 14.5527C115.827 15.6191 116.1 16.46 116.645 17.0752C117.189 17.6904 117.919 17.998 118.833 17.998C119.765 17.998 120.479 17.6963 120.978 17.0928C121.481 16.4893 121.733 15.6309 121.733 14.5176C121.733 13.3926 121.481 12.5254 120.978 11.916C120.479 11.3066 119.765 11.002 118.833 11.002ZM134.214 19.2109C132.884 19.2109 131.82 18.792 131.023 17.9541C130.232 17.1104 129.837 15.9941 129.837 14.6055C129.837 13.0938 130.25 11.9131 131.076 11.0635C131.902 10.2139 133.019 9.78906 134.425 9.78906C135.767 9.78906 136.812 10.2021 137.562 11.0283C138.318 11.8545 138.696 13 138.696 14.4648C138.696 15.9004 138.289 17.0518 137.475 17.9189C136.666 18.7803 135.579 19.2109 134.214 19.2109ZM134.319 11.002C133.394 11.002 132.661 11.3184 132.122 11.9512C131.583 12.5781 131.313 13.4453 131.313 14.5527C131.313 15.6191 131.586 16.46 132.131 17.0752C132.676 17.6904 133.405 17.998 134.319 17.998C135.251 17.998 135.966 17.6963 136.464 17.0928C136.968 16.4893 137.22 15.6309 137.22 14.5176C137.22 13.3926 136.968 12.5254 136.464 11.916C135.966 11.3066 135.251 11.002 134.319 11.002ZM145.112 6.94141C144.831 6.7832 144.512 6.7041 144.154 6.7041C143.146 6.7041 142.643 7.33984 142.643 8.61133V10H144.752V11.2305H142.643V19H141.21V11.2305H139.672V10H141.21V8.54102C141.21 7.59766 141.482 6.85352 142.027 6.30859C142.572 5.75781 143.252 5.48242 144.066 5.48242C144.506 5.48242 144.854 5.53516 145.112 5.64062V6.94141ZM152.688 19H151.247V5.67578H152.688V19ZM162.049 19H160.607V17.5938H160.572C159.945 18.6719 159.022 19.2109 157.804 19.2109C156.907 19.2109 156.204 18.9736 155.694 18.499C155.19 18.0244 154.938 17.3945 154.938 16.6094C154.938 14.9277 155.929 13.9492 157.909 13.6738L160.607 13.2959C160.607 11.7666 159.989 11.002 158.753 11.002C157.669 11.002 156.69 11.3711 155.817 12.1094V10.6328C156.702 10.0703 157.722 9.78906 158.876 9.78906C160.991 9.78906 162.049 10.9082 162.049 13.1465V19ZM160.607 14.4473L158.437 14.7461C157.769 14.8398 157.265 15.0068 156.925 15.2471C156.585 15.4814 156.415 15.9004 156.415 16.5039C156.415 16.9434 156.57 17.3037 156.881 17.585C157.197 17.8604 157.616 17.998 158.138 17.998C158.853 17.998 159.441 17.749 159.904 17.251C160.373 16.7471 160.607 16.1113 160.607 15.3438V14.4473ZM164.22 18.6748V17.1279C165.005 17.708 165.869 17.998 166.812 17.998C168.078 17.998 168.711 17.5762 168.711 16.7324C168.711 16.4922 168.655 16.29 168.544 16.126C168.438 15.9561 168.292 15.8066 168.104 15.6777C167.923 15.5488 167.706 15.4346 167.454 15.335C167.208 15.2295 166.941 15.1211 166.654 15.0098C166.256 14.8516 165.904 14.6934 165.6 14.5352C165.301 14.3711 165.049 14.1895 164.844 13.9902C164.645 13.7852 164.492 13.5537 164.387 13.2959C164.287 13.0381 164.237 12.7363 164.237 12.3906C164.237 11.9688 164.334 11.5967 164.527 11.2744C164.721 10.9463 164.979 10.6738 165.301 10.457C165.623 10.2344 165.989 10.0674 166.399 9.95605C166.815 9.84473 167.243 9.78906 167.683 9.78906C168.462 9.78906 169.159 9.92383 169.774 10.1934V11.6523C169.112 11.2188 168.351 11.002 167.489 11.002C167.22 11.002 166.977 11.0342 166.76 11.0986C166.543 11.1572 166.355 11.2422 166.197 11.3535C166.045 11.4648 165.925 11.5996 165.837 11.7578C165.755 11.9102 165.714 12.0801 165.714 12.2676C165.714 12.502 165.755 12.6982 165.837 12.8564C165.925 13.0146 166.051 13.1553 166.215 13.2783C166.379 13.4014 166.578 13.5127 166.812 13.6123C167.047 13.7119 167.313 13.8203 167.612 13.9375C168.011 14.0898 168.368 14.248 168.685 14.4121C169.001 14.5703 169.271 14.752 169.493 14.957C169.716 15.1562 169.886 15.3877 170.003 15.6514C170.126 15.915 170.188 16.2285 170.188 16.5918C170.188 17.0371 170.088 17.4238 169.889 17.752C169.695 18.0801 169.435 18.3525 169.106 18.5693C168.778 18.7861 168.4 18.9473 167.973 19.0527C167.545 19.1582 167.097 19.2109 166.628 19.2109C165.702 19.2109 164.899 19.0322 164.22 18.6748ZM176.586 18.9121C176.246 19.0996 175.798 19.1934 175.241 19.1934C173.665 19.1934 172.877 18.3145 172.877 16.5566V11.2305H171.33V10H172.877V7.80273L174.318 7.33691V10H176.586V11.2305H174.318V16.3018C174.318 16.9053 174.421 17.3359 174.626 17.5938C174.831 17.8516 175.171 17.9805 175.646 17.9805C176.009 17.9805 176.322 17.8809 176.586 17.6816V18.9121ZM188.776 9.70117C188.776 9.31445 188.715 8.97754 188.592 8.69043C188.475 8.40332 188.311 8.16602 188.1 7.97852C187.895 7.78516 187.651 7.6416 187.37 7.54785C187.089 7.4541 186.784 7.40723 186.456 7.40723C186.175 7.40723 185.899 7.44531 185.63 7.52148C185.36 7.59766 185.097 7.70313 184.839 7.83789C184.587 7.97266 184.341 8.13379 184.101 8.32129C183.866 8.50879 183.646 8.7168 183.441 8.94531V7.39844C183.846 7.00586 184.297 6.70703 184.795 6.50195C185.299 6.29102 185.911 6.18555 186.632 6.18555C187.147 6.18555 187.625 6.26172 188.064 6.41406C188.504 6.56055 188.885 6.77734 189.207 7.06445C189.529 7.35156 189.781 7.70605 189.963 8.12793C190.15 8.5498 190.244 9.0332 190.244 9.57812C190.244 10.0762 190.186 10.5273 190.068 10.9316C189.957 11.3359 189.784 11.7168 189.55 12.0742C189.321 12.4316 189.031 12.7744 188.68 13.1025C188.328 13.4307 187.915 13.7646 187.44 14.1045C186.849 14.5264 186.359 14.8867 185.973 15.1855C185.592 15.4844 185.287 15.7656 185.059 16.0293C184.836 16.2871 184.678 16.5479 184.584 16.8115C184.496 17.0693 184.452 17.3682 184.452 17.708H190.728V19H182.949V18.376C182.949 17.8369 183.008 17.3623 183.125 16.9521C183.242 16.542 183.436 16.1523 183.705 15.7832C183.975 15.4141 184.326 15.0449 184.76 14.6758C185.199 14.3066 185.735 13.8906 186.368 13.4277C186.825 13.0996 187.206 12.7861 187.511 12.4873C187.821 12.1885 188.07 11.8896 188.258 11.5908C188.445 11.292 188.577 10.9902 188.653 10.6855C188.735 10.375 188.776 10.0469 188.776 9.70117ZM205.256 10L201.116 20.4414C200.378 22.3047 199.341 23.2363 198.005 23.2363C197.63 23.2363 197.316 23.1982 197.064 23.1221V21.8301C197.375 21.9355 197.659 21.9883 197.917 21.9883C198.644 21.9883 199.188 21.5547 199.552 20.6875L200.272 18.9824L196.757 10H198.356L200.791 16.9258C200.82 17.0137 200.882 17.2422 200.976 17.6113H201.028C201.058 17.4707 201.116 17.248 201.204 16.9434L203.762 10H205.256ZM213.957 14.8604H207.603C207.626 15.8623 207.896 16.6357 208.411 17.1807C208.927 17.7256 209.636 17.998 210.538 17.998C211.552 17.998 212.483 17.6641 213.333 16.9961V18.3496C212.542 18.9238 211.496 19.2109 210.195 19.2109C208.924 19.2109 207.925 18.8037 207.198 17.9893C206.472 17.1689 206.108 16.0176 206.108 14.5352C206.108 13.1348 206.504 11.9951 207.295 11.1162C208.092 10.2314 209.079 9.78906 210.257 9.78906C211.435 9.78906 212.346 10.1699 212.99 10.9316C213.635 11.6934 213.957 12.751 213.957 14.1045V14.8604ZM212.48 13.6387C212.475 12.8066 212.272 12.1592 211.874 11.6963C211.481 11.2334 210.934 11.002 210.23 11.002C209.551 11.002 208.974 11.2451 208.499 11.7314C208.024 12.2178 207.731 12.8535 207.62 13.6387H212.48ZM222.588 19H221.146V17.5938H221.111C220.484 18.6719 219.562 19.2109 218.343 19.2109C217.446 19.2109 216.743 18.9736 216.233 18.499C215.729 18.0244 215.478 17.3945 215.478 16.6094C215.478 14.9277 216.468 13.9492 218.448 13.6738L221.146 13.2959C221.146 11.7666 220.528 11.002 219.292 11.002C218.208 11.002 217.229 11.3711 216.356 12.1094V10.6328C217.241 10.0703 218.261 9.78906 219.415 9.78906C221.53 9.78906 222.588 10.9082 222.588 13.1465V19ZM221.146 14.4473L218.976 14.7461C218.308 14.8398 217.804 15.0068 217.464 15.2471C217.124 15.4814 216.954 15.9004 216.954 16.5039C216.954 16.9434 217.109 17.3037 217.42 17.585C217.736 17.8604 218.155 17.998 218.677 17.998C219.392 17.998 219.98 17.749 220.443 17.251C220.912 16.7471 221.146 16.1113 221.146 15.3438V14.4473ZM229.997 11.459C229.745 11.2656 229.382 11.1689 228.907 11.1689C228.292 11.1689 227.776 11.459 227.36 12.0391C226.95 12.6191 226.745 13.4102 226.745 14.4121V19H225.304V10H226.745V11.8545H226.78C226.985 11.2217 227.299 10.7295 227.721 10.3779C228.143 10.0205 228.614 9.8418 229.136 9.8418C229.511 9.8418 229.798 9.88281 229.997 9.96484V11.459ZM231.14 18.6748V17.1279C231.925 17.708 232.789 17.998 233.732 17.998C234.998 17.998 235.631 17.5762 235.631 16.7324C235.631 16.4922 235.575 16.29 235.464 16.126C235.358 15.9561 235.212 15.8066 235.024 15.6777C234.843 15.5488 234.626 15.4346 234.374 15.335C234.128 15.2295 233.861 15.1211 233.574 15.0098C233.176 14.8516 232.824 14.6934 232.52 14.5352C232.221 14.3711 231.969 14.1895 231.764 13.9902C231.564 13.7852 231.412 13.5537 231.307 13.2959C231.207 13.0381 231.157 12.7363 231.157 12.3906C231.157 11.9688 231.254 11.5967 231.447 11.2744C231.641 10.9463 231.898 10.6738 232.221 10.457C232.543 10.2344 232.909 10.0674 233.319 9.95605C233.735 9.84473 234.163 9.78906 234.603 9.78906C235.382 9.78906 236.079 9.92383 236.694 10.1934V11.6523C236.032 11.2188 235.271 11.002 234.409 11.002C234.14 11.002 233.896 11.0342 233.68 11.0986C233.463 11.1572 233.275 11.2422 233.117 11.3535C232.965 11.4648 232.845 11.5996 232.757 11.7578C232.675 11.9102 232.634 12.0801 232.634 12.2676C232.634 12.502 232.675 12.6982 232.757 12.8564C232.845 13.0146 232.971 13.1553 233.135 13.2783C233.299 13.4014 233.498 13.5127 233.732 13.6123C233.967 13.7119 234.233 13.8203 234.532 13.9375C234.931 14.0898 235.288 14.248 235.604 14.4121C235.921 14.5703 236.19 14.752 236.413 14.957C236.636 15.1562 236.806 15.3877 236.923 15.6514C237.046 15.915 237.107 16.2285 237.107 16.5918C237.107 17.0371 237.008 17.4238 236.809 17.752C236.615 18.0801 236.354 18.3525 236.026 18.5693C235.698 18.7861 235.32 18.9473 234.893 19.0527C234.465 19.1582 234.017 19.2109 233.548 19.2109C232.622 19.2109 231.819 19.0322 231.14 18.6748Z" fill="#1B2767"/>
<defs>
<filter id="filter0_i_295_341" x="44.9509" y="51.6776" width="147.233" height="147.233" filterUnits="userSpaceOnUse" color-interpolation-filters="sRGB">
<feFlood flood-opacity="0" result="BackgroundImageFix"/>
<feBlend mode="normal" in="SourceGraphic" in2="BackgroundImageFix" result="shape"/>
<feColorMatrix in="SourceAlpha" type="matrix" values="0 0 0 0 0 0 0 0 0 0 0 0 0 0 0 0 0 0 127 0" result="hardAlpha"/>
<feOffset/>
<feGaussianBlur stdDeviation="4.66773"/>
<feComposite in2="hardAlpha" operator="arithmetic" k2="-1" k3="1"/>
<feColorMatrix type="matrix" values="0 0 0 0 0 0 0 0 0 0 0 0 0 0 0 0 0 0 0.1 0"/>
<feBlend mode="normal" in2="shape" result="effect1_innerShadow_295_341"/>
</filter>
<filter id="filter1_d_295_341" x="6.75028" y="23.5228" width="224.999" height="224.999" filterUnits="userSpaceOnUse" color-interpolation-filters="sRGB">
<feFlood flood-opacity="0" result="BackgroundImageFix"/>
<feColorMatrix in="SourceAlpha" type="matrix" values="0 0 0 0 0 0 0 0 0 0 0 0 0 0 0 0 0 0 127 0" result="hardAlpha"/>
<feOffset dy="11.41"/>
<feGaussianBlur stdDeviation="24.8946"/>
<feColorMatrix type="matrix" values="0 0 0 0 0.666667 0 0 0 0 0.768627 0 0 0 0 0.905882 0 0 0 1 0"/>
<feBlend mode="normal" in2="BackgroundImageFix" result="effect1_dropShadow_295_341"/>
<feBlend mode="normal" in="SourceGraphic" in2="effect1_dropShadow_295_341" result="shape"/>
</filter>
<filter id="filter2_b_295_341" x="96.8136" y="29.8136" width="44.4544" height="44.4543" filterUnits="userSpaceOnUse" color-interpolation-filters="sRGB">
<feFlood flood-opacity="0" result="BackgroundImageFix"/>
<feGaussianBlur in="BackgroundImage" stdDeviation="2.59318"/>
<feComposite in2="SourceAlpha" operator="in" result="effect1_backgroundBlur_295_341"/>
<feBlend mode="normal" in="SourceGraphic" in2="effect1_backgroundBlur_295_341" result="shape"/>
</filter>
<linearGradient id="paint0_linear_295_341" x1="43.4833" y1="160.613" x2="80.945" y2="197.566" gradientUnits="userSpaceOnUse">
<stop offset="0.0052011" stop-color="#D320C1"/>
<stop offset="0.498033" stop-color="#C624C6"/>
<stop offset="0.970779" stop-color="#1461FF"/>
</linearGradient>
<linearGradient id="paint1_linear_295_341" x1="83.5034" y1="49.9514" x2="46.1116" y2="86.9743" gradientUnits="userSpaceOnUse">
<stop offset="0.0052011" stop-color="#D320C1"/>
<stop offset="0.498033" stop-color="#C624C6"/>
<stop offset="0.970779" stop-color="#1461FF"/>
</linearGradient>
<linearGradient id="paint2_linear_295_341" x1="154.613" y1="200.335" x2="191.566" y2="162.874" gradientUnits="userSpaceOnUse">
<stop offset="0.0052011" stop-color="#D320C1"/>
<stop offset="0.498033" stop-color="#C624C6"/>
<stop offset="0.970779" stop-color="#1461FF"/>
</linearGradient>
<linearGradient id="paint3_linear_295_341" x1="193.746" y1="89.4078" x2="156.284" y2="52.4556" gradientUnits="userSpaceOnUse">
<stop offset="0.0052011" stop-color="#D320C1"/>
<stop offset="0.498033" stop-color="#C624C6"/>
<stop offset="0.970779" stop-color="#1461FF"/>
</linearGradient>
</defs>
</svg>
