<svg width="106" height="93" viewBox="0 0 106 93" fill="none" xmlns="http://www.w3.org/2000/svg">
<path fill-rule="evenodd" clip-rule="evenodd" d="M0 66.3914H25.5226V74.1514H18.2052V92.8139H7.56827V74.1514H0V66.3914Z" fill="#3B73B9"/>
<path fill-rule="evenodd" clip-rule="evenodd" d="M38.4462 77.0578L33.0761 92.8139H22.8671L32.8843 66.3914H43.9638L54.2319 92.8139H43.89L38.4462 77.0578Z" fill="#3B73B9"/>
<path fill-rule="evenodd" clip-rule="evenodd" d="M51.7828 66.3914H77.3055V74.1514H69.988V92.8139H59.3511V74.1514H51.7828V66.3914Z" fill="#3B73B9"/>
<path fill-rule="evenodd" clip-rule="evenodd" d="M90.2291 77.0578L84.859 92.8139H74.65L84.6525 66.3914H95.7467L106 92.8139H95.6729L90.2291 77.0578Z" fill="#3B73B9"/>
<path fill-rule="evenodd" clip-rule="evenodd" d="M90.6126 17.8543C89.6032 15.9102 88.3325 14.1134 86.8359 12.5137C82.8347 8.40923 77.9363 5.28839 72.5255 3.39641C59.9133 -1.0488 46.1604 -1.0488 33.5482 3.39641C28.1374 5.28839 23.239 8.40923 19.2378 12.5137C17.7377 14.1159 16.4667 15.9181 15.4611 17.8691C26.2099 15.2689 37.1913 13.7467 48.2421 13.3252C48.7111 13.2824 49.1834 13.3525 49.6198 13.5296C50.0561 13.7067 50.4437 13.9856 50.7501 14.3431C51.3993 15.1693 51.3403 18.0756 51.3255 19.3886L50.9862 53.0696H53.0369H55.1023L54.763 19.3886C54.763 18.0756 54.763 15.1693 55.3383 14.3431C55.6433 13.9878 56.0285 13.7101 56.462 13.5331C56.8956 13.3561 57.365 13.2848 57.8316 13.3252C68.8812 13.75 79.8617 15.2671 90.6126 17.8543Z" fill="#3B73B9"/>
<path fill-rule="evenodd" clip-rule="evenodd" d="M92.2354 22.2357C83.7087 20.3054 75.0214 19.1695 66.285 18.8425C59.8675 18.4884 59.7937 20.7751 60.3838 25.1568C60.3838 25.4223 60.4723 25.7469 60.5461 26.1305C62.6853 38.8623 65.3703 49.8237 65.8276 51.6826C81.451 48.1124 92.7223 38.2131 92.7223 26.6026C92.7197 25.1416 92.5464 23.6859 92.2059 22.2652L92.2354 22.2357ZM45.6308 25.1568C46.2652 20.7309 46.1767 18.4884 39.7297 18.8425C30.9834 19.1676 22.2861 20.3035 13.7497 22.2357C13.4092 23.6564 13.2359 25.1121 13.2333 26.573C13.3314 31.8458 15.4428 36.8814 19.1345 40.6474C23.1328 44.752 28.0324 47.8686 33.4449 49.7499C35.6204 50.5513 37.8484 51.202 40.1132 51.6973C40.5558 49.9565 43.2851 38.7737 45.4686 25.8206C45.4686 25.5698 45.4686 25.3338 45.5718 25.1568" fill="#3B73B9"/>
</svg>
